<svg width="512" height="512" viewBox="0 0 512 512" fill="none" xmlns="http://www.w3.org/2000/svg">
<g clip-path="url(#clip0_623_79)">
<path d="M-227.5 610.033C-227.5 635.732 -248.521 656.566 -274.451 656.566C-300.382 656.566 -321.402 635.732 -321.402 610.033C-321.402 584.333 -300.382 563.5 -274.451 563.5C-248.521 563.5 -227.5 584.333 -227.5 610.033Z" fill="#782919"/>
<path d="M-227.5 610.033C-227.5 635.732 -248.521 656.566 -274.451 656.566C-300.382 656.566 -321.402 635.732 -321.402 610.033C-321.402 584.333 -300.382 563.5 -274.451 563.5C-248.521 563.5 -227.5 584.333 -227.5 610.033Z" fill="black" fill-opacity="0.2"/>
<path d="M-243.15 935.763C-243.15 952.896 -257.164 966.785 -274.451 966.785C-291.738 966.785 -305.752 952.896 -305.752 935.763V687.588H-243.15V935.763Z" fill="#190F0A"/>
<path d="M-243.15 935.763C-243.15 952.896 -257.164 966.785 -274.451 966.785C-291.738 966.785 -305.752 952.896 -305.752 935.763V687.588H-243.15V935.763Z" fill="black" fill-opacity="0.2"/>
<path d="M119.343 241.627C94.993 241.627 73.8614 236.357 55.9484 225.816C38.0355 214.998 24.1809 200.573 14.3848 182.542C4.58862 164.511 -0.309448 144.539 -0.309448 122.625C-0.309448 99.8782 4.72855 79.6283 14.8046 61.875C25.1605 44.1217 39.015 30.1132 56.3682 19.8495C73.7214 9.58589 93.3137 4.45406 115.145 4.45406C133.338 4.45406 149.431 7.36673 163.426 13.1921C177.42 18.74 189.176 26.6457 198.692 36.9094C208.488 47.173 215.905 59.1011 220.943 72.6935C225.981 86.0085 228.5 100.572 228.5 116.383C228.5 120.822 228.22 125.26 227.661 129.698C227.381 133.859 226.681 137.465 225.561 140.517H143.274H53.8492V94.7464H189.875L160.067 116.383C162.866 104.455 162.726 93.9142 159.647 84.7602C156.569 75.3287 151.111 67.9777 143.274 62.7072C135.717 57.1593 126.341 54.3853 115.145 54.3853C104.229 54.3853 94.8531 57.0206 87.0161 62.2911C79.1792 67.5616 73.3015 75.3287 69.3831 85.5924C65.4646 95.856 63.9252 108.339 64.7649 123.041C63.6453 135.801 65.1847 147.036 69.3831 156.744C73.5814 166.453 80.0189 174.082 88.6954 179.63C97.372 184.9 107.868 187.535 120.183 187.535C131.379 187.535 140.895 185.316 148.732 180.878C156.849 176.439 163.146 170.337 167.624 162.57L218.005 186.287C213.526 197.383 206.389 207.092 196.593 215.414C187.077 223.735 175.741 230.254 162.586 234.97C149.431 239.408 135.017 241.627 119.343 241.627Z" fill="#190F0A"/>
<path d="M119.343 241.627C94.993 241.627 73.8614 236.357 55.9484 225.816C38.0355 214.998 24.1809 200.573 14.3848 182.542C4.58862 164.511 -0.309448 144.539 -0.309448 122.625C-0.309448 99.8782 4.72855 79.6283 14.8046 61.875C25.1605 44.1217 39.015 30.1132 56.3682 19.8495C73.7214 9.58589 93.3137 4.45406 115.145 4.45406C133.338 4.45406 149.431 7.36673 163.426 13.1921C177.42 18.74 189.176 26.6457 198.692 36.9094C208.488 47.173 215.905 59.1011 220.943 72.6935C225.981 86.0085 228.5 100.572 228.5 116.383C228.5 120.822 228.22 125.26 227.661 129.698C227.381 133.859 226.681 137.465 225.561 140.517H143.274H53.8492V94.7464H189.875L160.067 116.383C162.866 104.455 162.726 93.9142 159.647 84.7602C156.569 75.3287 151.111 67.9777 143.274 62.7072C135.717 57.1593 126.341 54.3853 115.145 54.3853C104.229 54.3853 94.8531 57.0206 87.0161 62.2911C79.1792 67.5616 73.3015 75.3287 69.3831 85.5924C65.4646 95.856 63.9252 108.339 64.7649 123.041C63.6453 135.801 65.1847 147.036 69.3831 156.744C73.5814 166.453 80.0189 174.082 88.6954 179.63C97.372 184.9 107.868 187.535 120.183 187.535C131.379 187.535 140.895 185.316 148.732 180.878C156.849 176.439 163.146 170.337 167.624 162.57L218.005 186.287C213.526 197.383 206.389 207.092 196.593 215.414C187.077 223.735 175.741 230.254 162.586 234.97C149.431 239.408 135.017 241.627 119.343 241.627Z" fill="black" fill-opacity="0.2"/>
<path d="M98.2746 510.071C79.8475 510.071 63.3784 505.733 48.867 497.058C34.3557 488.383 22.8386 476.627 14.3161 461.788C6.02386 446.949 1.87781 430.513 1.87781 412.478C1.87781 394.215 6.13901 377.778 14.6616 363.168C23.1841 348.329 34.7012 336.573 49.2125 327.898C63.7239 319.223 79.9626 314.885 97.9291 314.885C111.749 314.885 123.958 317.511 134.553 322.761C145.379 327.784 153.902 334.975 160.121 344.334L152.174 354.607V246.742H204V376.352V505.961H155.629V471.718L160.466 482.334C154.017 491.465 145.264 498.428 134.208 503.222C123.151 507.788 111.174 510.071 98.2746 510.071ZM104.494 463.843C113.938 463.843 122.23 461.674 129.37 457.336C136.511 452.999 142.039 446.949 145.955 439.188C150.101 431.426 152.174 422.523 152.174 412.478C152.174 402.433 150.101 393.53 145.955 385.768C142.039 378.007 136.511 371.957 129.37 367.62C122.23 363.282 113.938 361.113 104.494 361.113C95.0499 361.113 86.5274 363.396 78.9262 367.962C71.5554 372.299 65.7968 378.349 61.6508 386.111C57.5046 393.644 55.4316 402.433 55.4316 412.478C55.4316 422.523 57.5046 431.426 61.6508 439.188C65.7968 446.949 71.5554 452.999 78.9262 457.336C86.5274 461.674 95.0499 463.843 104.494 463.843Z" fill="#602114"/>
<path d="M329.758 146.978C329.758 161.448 334.492 173.023 343.961 181.705C353.429 190.145 364.791 194.366 378.047 194.366C391.574 194.366 402.665 190.145 411.322 181.705C419.979 173.023 424.308 161.448 424.308 146.978V-1.69403H508.713V146.978C508.713 169.165 503.302 188.578 492.481 205.218C481.93 221.616 466.781 234.397 447.032 243.561C427.554 252.484 404.559 256.945 378.047 256.945C351.265 256.945 327.864 252.484 307.845 243.561C288.096 234.397 272.676 221.616 261.584 205.218C250.763 188.578 245.353 169.165 245.353 146.978V-1.69403H329.758V146.978Z" fill="#963723"/>
<path d="M245.353 256.945H333.871L376.301 323.286L419.097 256.945H508.713L424.95 378.389L516.394 511.071H424.95L376.301 438.567L328.384 511.071H239.5L330.213 381.652L245.353 256.945Z" fill="#963723"/>
</g>
<defs>
<clipPath id="clip0_623_79">
<rect width="512" height="512" fill="white"/>
</clipPath>
</defs>
</svg>
