<?xml version="1.0" encoding="UTF-8"?>
<svg xmlns="http://www.w3.org/2000/svg" xmlns:xlink="http://www.w3.org/1999/xlink" width="500" height="500" viewBox="0 0 500 500">
<defs>
<clipPath id="clip-0">
<path clip-rule="nonzero" d="M 500 500 L 355.15625 500 L 300.785156 252.113281 L 443.210938 278.289062 L 442.960938 282.628906 L 447.269531 283.707031 L 448.425781 279.25 L 447.269531 283.707031 L 473.65625 283.886719 L 492.144531 189.28125 C 492.144531 189.28125 495.734375 154.816406 485.683594 136.507812 C 482.128906 130.027344 478.578125 127.46875 475.550781 127.46875 C 474.828125 127.46875 474.132812 127.613281 473.476562 127.890625 C 469.113281 129.710938 468.089844 140.097656 468.089844 140.097656 L 465.21875 139.378906 L 448.703125 183.71875 L 445.722656 235.0625 L 308.324219 226.261719 L 426.265625 131.480469 L 377.257812 122.863281 L 287.859375 207.414062 L 237.558594 131.558594 L 237.777344 131.480469 L 232.148438 96.519531 L 500 96.519531 L 500 500 M 206.296875 500 L 0 500 L 0 0 L 500 0 L 0 0 L 0 96.519531 L 7.277344 96.519531 L 49.828125 238.648438 L 52.339844 238.828125 L 52.542969 238.722656 L 250.699219 244.035156 L 117.589844 343.304688 L 109.785156 260.371094 L 25.054688 240.625 L 19.308594 242.777344 L 57.367188 389.261719 L 112.65625 419.058594 L 265.78125 256.960938 L 206.296875 500 M 262.011719 218.722656 L 104.285156 200.859375 L 88.074219 96.519531 L 171.738281 96.519531 L 175.304688 116.9375 L 197.925781 145.214844 L 200.40625 144.640625 L 262.011719 218.722656 "/>
</clipPath>
<clipPath id="clip-1">
<path clip-rule="nonzero" d="M 500 500 L 355.15625 500 L 300.785156 252.113281 L 443.210938 278.289062 L 442.960938 282.628906 L 447.269531 283.707031 L 448.425781 279.25 L 447.269531 283.707031 L 473.65625 283.886719 L 492.144531 189.28125 C 492.144531 189.28125 495.734375 154.816406 485.683594 136.507812 C 482.128906 130.027344 478.578125 127.46875 475.550781 127.46875 C 474.828125 127.46875 474.132812 127.613281 473.476562 127.890625 C 469.113281 129.710938 468.089844 140.097656 468.089844 140.097656 L 465.21875 139.378906 L 448.703125 183.71875 L 445.722656 235.0625 L 308.324219 226.261719 L 426.265625 131.480469 L 377.257812 122.863281 L 287.859375 207.414062 L 237.558594 131.558594 L 237.777344 131.480469 L 232.148438 96.519531 L 500 96.519531 L 500 500 M 206.296875 500 L 0 500 L 0 0 L 500 0 L 0 0 L 0 96.519531 L 7.277344 96.519531 L 49.828125 238.648438 L 52.339844 238.828125 L 52.542969 238.722656 L 250.699219 244.035156 L 117.589844 343.304688 L 109.785156 260.371094 L 25.054688 240.625 L 19.308594 242.777344 L 57.367188 389.261719 L 112.65625 419.058594 L 265.78125 256.960938 L 206.296875 500 M 262.011719 218.722656 L 104.285156 200.859375 L 88.074219 96.519531 L 171.738281 96.519531 L 175.304688 116.9375 L 197.925781 145.214844 L 200.40625 144.640625 L 262.011719 218.722656 "/>
</clipPath>
<linearGradient id="linear-pattern-0" gradientUnits="userSpaceOnUse" x1="0.163681" y1="0" x2="0.872925" y2="0" gradientTransform="matrix(0.00000003, 704.976, -704.976, 0.00000003, 250, -115.391)">
<stop offset="0" stop-color="rgb(15.274048%, 21.681213%, 45.43457%)" stop-opacity="1"/>
<stop offset="0.015625" stop-color="rgb(15.280151%, 21.691895%, 45.481873%)" stop-opacity="1"/>
<stop offset="0.03125" stop-color="rgb(15.315247%, 21.7453%, 45.664978%)" stop-opacity="1"/>
<stop offset="0.046875" stop-color="rgb(15.365601%, 21.817017%, 45.860291%)" stop-opacity="1"/>
<stop offset="0.0546875" stop-color="rgb(15.383911%, 21.896362%, 46.006775%)" stop-opacity="1"/>
<stop offset="0.0625" stop-color="rgb(15.365601%, 22.007751%, 46.186829%)" stop-opacity="1"/>
<stop offset="0.09375" stop-color="rgb(15.374756%, 22.102356%, 46.385193%)" stop-opacity="1"/>
<stop offset="0.101562" stop-color="rgb(15.403748%, 22.148132%, 46.551514%)" stop-opacity="1"/>
<stop offset="0.109375" stop-color="rgb(15.432739%, 22.195435%, 46.690369%)" stop-opacity="1"/>
<stop offset="0.125" stop-color="rgb(15.419006%, 22.314453%, 46.888733%)" stop-opacity="1"/>
<stop offset="0.132812" stop-color="rgb(15.379333%, 22.393799%, 47.036743%)" stop-opacity="1"/>
<stop offset="0.140625" stop-color="rgb(15.383911%, 22.402954%, 47.129822%)" stop-opacity="1"/>
<stop offset="0.15625" stop-color="rgb(15.380859%, 22.518921%, 47.369385%)" stop-opacity="1"/>
<stop offset="0.171875" stop-color="rgb(15.364075%, 22.636414%, 47.598267%)" stop-opacity="1"/>
<stop offset="0.179687" stop-color="rgb(15.362549%, 22.659302%, 47.711182%)" stop-opacity="1"/>
<stop offset="0.1875" stop-color="rgb(15.393066%, 22.703552%, 47.851562%)" stop-opacity="1"/>
<stop offset="0.203125" stop-color="rgb(15.388489%, 22.795105%, 48.03009%)" stop-opacity="1"/>
<stop offset="0.210937" stop-color="rgb(15.34729%, 22.877502%, 48.182678%)" stop-opacity="1"/>
<stop offset="0.21875" stop-color="rgb(15.341187%, 22.917175%, 48.298645%)" stop-opacity="1"/>
<stop offset="0.234375" stop-color="rgb(15.367126%, 22.9599%, 48.495483%)" stop-opacity="1"/>
<stop offset="0.242187" stop-color="rgb(15.361023%, 23.052979%, 48.672485%)" stop-opacity="1"/>
<stop offset="0.25" stop-color="rgb(15.341187%, 23.162842%, 48.823547%)" stop-opacity="1"/>
<stop offset="0.265625" stop-color="rgb(15.357971%, 23.233032%, 49.017334%)" stop-opacity="1"/>
<stop offset="0.28125" stop-color="rgb(15.365601%, 23.350525%, 49.284363%)" stop-opacity="1"/>
<stop offset="0.289063" stop-color="rgb(15.356445%, 23.483276%, 49.539185%)" stop-opacity="1"/>
<stop offset="0.296875" stop-color="rgb(15.350342%, 23.51532%, 49.6521%)" stop-opacity="1"/>
<stop offset="0.3125" stop-color="rgb(15.374756%, 23.558044%, 49.847412%)" stop-opacity="1"/>
<stop offset="0.320313" stop-color="rgb(15.371704%, 23.667908%, 50.114441%)" stop-opacity="1"/>
<stop offset="0.328125" stop-color="rgb(15.333557%, 23.756409%, 50.250244%)" stop-opacity="1"/>
<stop offset="0.335938" stop-color="rgb(15.335083%, 23.79303%, 50.344849%)" stop-opacity="1"/>
<stop offset="0.34375" stop-color="rgb(15.361023%, 23.838806%, 50.517273%)" stop-opacity="1"/>
<stop offset="0.359375" stop-color="rgb(15.400696%, 23.904419%, 50.761414%)" stop-opacity="1"/>
<stop offset="0.367188" stop-color="rgb(15.403748%, 24.000549%, 51.008606%)" stop-opacity="1"/>
<stop offset="0.375" stop-color="rgb(15.382385%, 24.11499%, 51.216125%)" stop-opacity="1"/>
<stop offset="0.382812" stop-color="rgb(15.400696%, 24.226379%, 51.443481%)" stop-opacity="1"/>
<stop offset="0.386719" stop-color="rgb(15.431213%, 24.3927%, 51.873779%)" stop-opacity="1"/>
<stop offset="0.390625" stop-color="rgb(15.438843%, 24.502563%, 52.168274%)" stop-opacity="1"/>
<stop offset="0.394531" stop-color="rgb(15.460205%, 24.580383%, 52.444458%)" stop-opacity="1"/>
<stop offset="0.398438" stop-color="rgb(15.481567%, 24.656677%, 52.720642%)" stop-opacity="1"/>
<stop offset="0.402344" stop-color="rgb(15.512085%, 24.713135%, 52.983093%)" stop-opacity="1"/>
<stop offset="0.40625" stop-color="rgb(15.541077%, 24.768066%, 53.245544%)" stop-opacity="1"/>
<stop offset="0.410156" stop-color="rgb(15.550232%, 24.879456%, 53.546143%)" stop-opacity="1"/>
<stop offset="0.414062" stop-color="rgb(15.557861%, 24.989319%, 53.848267%)" stop-opacity="1"/>
<stop offset="0.417969" stop-color="rgb(15.550232%, 25.111389%, 54.141235%)" stop-opacity="1"/>
<stop offset="0.421875" stop-color="rgb(15.542603%, 25.233459%, 54.434204%)" stop-opacity="1"/>
<stop offset="0.425781" stop-color="rgb(15.509033%, 25.372314%, 54.71344%)" stop-opacity="1"/>
<stop offset="0.429687" stop-color="rgb(15.473938%, 25.511169%, 54.99115%)" stop-opacity="1"/>
<stop offset="0.433594" stop-color="rgb(15.46936%, 25.630188%, 55.325317%)" stop-opacity="1"/>
<stop offset="0.4375" stop-color="rgb(15.463257%, 25.749207%, 55.661011%)" stop-opacity="1"/>
<stop offset="0.441406" stop-color="rgb(15.464783%, 25.857544%, 56.002808%)" stop-opacity="1"/>
<stop offset="0.445312" stop-color="rgb(15.466309%, 25.965881%, 56.343079%)" stop-opacity="1"/>
<stop offset="0.449219" stop-color="rgb(15.454102%, 26.049805%, 56.588745%)" stop-opacity="1"/>
<stop offset="0.453125" stop-color="rgb(15.441895%, 26.133728%, 56.834412%)" stop-opacity="1"/>
<stop offset="0.457031" stop-color="rgb(15.428162%, 26.216125%, 57.102966%)" stop-opacity="1"/>
<stop offset="0.460937" stop-color="rgb(15.414429%, 26.300049%, 57.373047%)" stop-opacity="1"/>
<stop offset="0.464844" stop-color="rgb(15.397644%, 26.382446%, 57.669067%)" stop-opacity="1"/>
<stop offset="0.46875" stop-color="rgb(15.382385%, 26.464844%, 57.962036%)" stop-opacity="1"/>
<stop offset="0.472656" stop-color="rgb(15.368652%, 26.548767%, 58.216858%)" stop-opacity="1"/>
<stop offset="0.476562" stop-color="rgb(15.356445%, 26.634216%, 58.470154%)" stop-opacity="1"/>
<stop offset="0.480469" stop-color="rgb(15.336609%, 26.71051%, 58.714294%)" stop-opacity="1"/>
<stop offset="0.484375" stop-color="rgb(15.318298%, 26.785278%, 58.958435%)" stop-opacity="1"/>
<stop offset="0.488281" stop-color="rgb(15.284729%, 26.837158%, 59.188843%)" stop-opacity="1"/>
<stop offset="0.492188" stop-color="rgb(15.249634%, 26.889038%, 59.417725%)" stop-opacity="1"/>
<stop offset="0.496094" stop-color="rgb(15.231323%, 26.963806%, 59.631348%)" stop-opacity="1"/>
<stop offset="0.5" stop-color="rgb(15.211487%, 27.038574%, 59.846497%)" stop-opacity="1"/>
<stop offset="0.503906" stop-color="rgb(15.202332%, 27.125549%, 60.05249%)" stop-opacity="1"/>
<stop offset="0.507812" stop-color="rgb(15.19165%, 27.210999%, 60.258484%)" stop-opacity="1"/>
<stop offset="0.511719" stop-color="rgb(15.156555%, 27.264404%, 60.491943%)" stop-opacity="1"/>
<stop offset="0.515625" stop-color="rgb(15.122986%, 27.316284%, 60.723877%)" stop-opacity="1"/>
<stop offset="0.519531" stop-color="rgb(15.12146%, 27.389526%, 60.914612%)" stop-opacity="1"/>
<stop offset="0.523438" stop-color="rgb(15.119934%, 27.461243%, 61.106873%)" stop-opacity="1"/>
<stop offset="0.527344" stop-color="rgb(15.167236%, 27.565002%, 61.236572%)" stop-opacity="1"/>
<stop offset="0.53125" stop-color="rgb(15.216064%, 27.667236%, 61.367798%)" stop-opacity="1"/>
<stop offset="0.535156" stop-color="rgb(15.2771%, 27.796936%, 61.590576%)" stop-opacity="1"/>
<stop offset="0.539063" stop-color="rgb(15.338135%, 27.92511%, 61.81488%)" stop-opacity="1"/>
<stop offset="0.542969" stop-color="rgb(15.39917%, 28.056335%, 62.055969%)" stop-opacity="1"/>
<stop offset="0.546875" stop-color="rgb(15.460205%, 28.186035%, 62.295532%)" stop-opacity="1"/>
<stop offset="0.550781" stop-color="rgb(15.505981%, 28.291321%, 62.478638%)" stop-opacity="1"/>
<stop offset="0.554687" stop-color="rgb(15.553284%, 28.395081%, 62.658691%)" stop-opacity="1"/>
<stop offset="0.5625" stop-color="rgb(15.612793%, 28.468323%, 62.791443%)" stop-opacity="1"/>
<stop offset="0.570312" stop-color="rgb(15.744019%, 28.590393%, 63.017273%)" stop-opacity="1"/>
<stop offset="0.574219" stop-color="rgb(15.864563%, 28.738403%, 63.282776%)" stop-opacity="1"/>
<stop offset="0.578125" stop-color="rgb(15.913391%, 28.839111%, 63.458252%)" stop-opacity="1"/>
<stop offset="0.582031" stop-color="rgb(15.963745%, 28.945923%, 63.627625%)" stop-opacity="1"/>
<stop offset="0.585938" stop-color="rgb(16.011047%, 29.052734%, 63.796997%)" stop-opacity="1"/>
<stop offset="0.589844" stop-color="rgb(16.061401%, 29.161072%, 63.9328%)" stop-opacity="1"/>
<stop offset="0.59375" stop-color="rgb(16.113281%, 29.269409%, 64.068604%)" stop-opacity="1"/>
<stop offset="0.597656" stop-color="rgb(16.177368%, 29.338074%, 64.208984%)" stop-opacity="1"/>
<stop offset="0.601562" stop-color="rgb(16.241455%, 29.405212%, 64.347839%)" stop-opacity="1"/>
<stop offset="0.605469" stop-color="rgb(16.314697%, 29.455566%, 64.491272%)" stop-opacity="1"/>
<stop offset="0.609375" stop-color="rgb(16.386414%, 29.50592%, 64.633179%)" stop-opacity="1"/>
<stop offset="0.613281" stop-color="rgb(16.53595%, 29.606628%, 64.770508%)" stop-opacity="1"/>
<stop offset="0.617187" stop-color="rgb(16.68396%, 29.707336%, 64.906311%)" stop-opacity="1"/>
<stop offset="0.625" stop-color="rgb(16.799927%, 29.786682%, 65.046692%)" stop-opacity="1"/>
<stop offset="0.628906" stop-color="rgb(16.98761%, 29.914856%, 65.330505%)" stop-opacity="1"/>
<stop offset="0.632812" stop-color="rgb(17.0578%, 29.963684%, 65.475464%)" stop-opacity="1"/>
<stop offset="0.640625" stop-color="rgb(17.134094%, 30.015564%, 65.538025%)" stop-opacity="1"/>
<stop offset="0.648438" stop-color="rgb(17.285156%, 30.119324%, 65.646362%)" stop-opacity="1"/>
<stop offset="0.65625" stop-color="rgb(17.43927%, 30.224609%, 65.734863%)" stop-opacity="1"/>
<stop offset="0.664062" stop-color="rgb(17.636108%, 30.360413%, 65.847778%)" stop-opacity="1"/>
<stop offset="0.667969" stop-color="rgb(17.910767%, 30.551147%, 66.00647%)" stop-opacity="1"/>
<stop offset="0.671875" stop-color="rgb(18.06488%, 30.657959%, 66.093445%)" stop-opacity="1"/>
<stop offset="0.679687" stop-color="rgb(18.147278%, 30.715942%, 66.140747%)" stop-opacity="1"/>
<stop offset="0.6875" stop-color="rgb(18.307495%, 30.827332%, 66.233826%)" stop-opacity="1"/>
<stop offset="0.695312" stop-color="rgb(18.463135%, 30.937195%, 66.322327%)" stop-opacity="1"/>
<stop offset="0.703125" stop-color="rgb(18.6203%, 31.047058%, 66.410828%)" stop-opacity="1"/>
<stop offset="0.710938" stop-color="rgb(18.774414%, 31.161499%, 66.503906%)" stop-opacity="1"/>
<stop offset="0.714844" stop-color="rgb(18.910217%, 31.341553%, 66.641235%)" stop-opacity="1"/>
<stop offset="0.71875" stop-color="rgb(18.968201%, 31.459045%, 66.729736%)" stop-opacity="1"/>
<stop offset="0.726562" stop-color="rgb(18.992615%, 31.55365%, 66.799927%)" stop-opacity="1"/>
<stop offset="0.734375" stop-color="rgb(18.995667%, 31.710815%, 66.914368%)" stop-opacity="1"/>
<stop offset="0.742188" stop-color="rgb(19.038391%, 31.83136%, 67.002869%)" stop-opacity="1"/>
<stop offset="0.75" stop-color="rgb(19.177246%, 31.947327%, 67.092896%)" stop-opacity="1"/>
<stop offset="0.757812" stop-color="rgb(19.335938%, 32.060242%, 67.182922%)" stop-opacity="1"/>
<stop offset="0.765625" stop-color="rgb(19.493103%, 32.174683%, 67.272949%)" stop-opacity="1"/>
<stop offset="0.773438" stop-color="rgb(19.65332%, 32.290649%, 67.362976%)" stop-opacity="1"/>
<stop offset="0.78125" stop-color="rgb(19.715881%, 32.411194%, 67.453003%)" stop-opacity="1"/>
<stop offset="0.789062" stop-color="rgb(19.715881%, 32.537842%, 67.54303%)" stop-opacity="1"/>
<stop offset="0.796875" stop-color="rgb(19.80896%, 32.65686%, 67.633057%)" stop-opacity="1"/>
<stop offset="0.804688" stop-color="rgb(19.98291%, 32.728577%, 67.69104%)" stop-opacity="1"/>
<stop offset="0.8125" stop-color="rgb(20.16449%, 32.74231%, 67.707825%)" stop-opacity="1"/>
<stop offset="0.820313" stop-color="rgb(20.231628%, 32.809448%, 67.758179%)" stop-opacity="1"/>
<stop offset="0.828125" stop-color="rgb(20.240784%, 32.93457%, 67.848206%)" stop-opacity="1"/>
<stop offset="0.835938" stop-color="rgb(20.349121%, 33.056641%, 67.938232%)" stop-opacity="1"/>
<stop offset="0.84375" stop-color="rgb(20.425415%, 33.178711%, 68.028259%)" stop-opacity="1"/>
<stop offset="0.859375" stop-color="rgb(20.529175%, 33.287048%, 68.107605%)" stop-opacity="1"/>
<stop offset="0.875" stop-color="rgb(20.643616%, 33.433533%, 68.215942%)" stop-opacity="1"/>
<stop offset="0.882813" stop-color="rgb(20.732117%, 33.596802%, 68.334961%)" stop-opacity="1"/>
<stop offset="0.890625" stop-color="rgb(20.863342%, 33.695984%, 68.408203%)" stop-opacity="1"/>
<stop offset="0.90625" stop-color="rgb(20.974731%, 33.779907%, 68.470764%)" stop-opacity="1"/>
<stop offset="0.921875" stop-color="rgb(21.105957%, 33.879089%, 68.545532%)" stop-opacity="1"/>
<stop offset="0.9375" stop-color="rgb(21.148682%, 34.031677%, 68.65387%)" stop-opacity="1"/>
<stop offset="0.945313" stop-color="rgb(21.206665%, 34.133911%, 68.727112%)" stop-opacity="1"/>
<stop offset="0.953125" stop-color="rgb(21.360779%, 34.152222%, 68.745422%)" stop-opacity="1"/>
<stop offset="0.96875" stop-color="rgb(21.405029%, 34.255981%, 68.818665%)" stop-opacity="1"/>
<stop offset="1" stop-color="rgb(21.49353%, 34.432983%, 68.943787%)" stop-opacity="1"/>
</linearGradient>
<clipPath id="clip-2">
<path clip-rule="nonzero" d="M 222 408 L 309 408 L 309 500 L 222 500 Z M 222 408 "/>
</clipPath>
<clipPath id="clip-3">
<path clip-rule="nonzero" d="M 308.320312 500 C 308.316406 499.980469 308.3125 499.960938 308.304688 499.9375 C 308.3125 499.960938 308.316406 499.980469 308.320312 500 M 222.953125 500 C 222.921875 485.871094 222.980469 462.398438 223.667969 456 C 224.5625 447.648438 235.328125 415.550781 237.585938 408.886719 C 242.023438 410.371094 255.125 414.332031 268.667969 414.332031 C 280.128906 414.332031 285.757812 413.386719 288.15625 412.796875 C 288.476562 414.390625 289.351562 418.574219 291.332031 427 C 292.222656 430.78125 294.636719 441.136719 297.453125 453.253906 C 294.902344 442.292969 292.6875 432.773438 291.628906 428.265625 C 290.980469 442.128906 289.21875 459.652344 284.5 462.75 C 279.476562 466.046875 264.296875 467.074219 252.089844 467.074219 C 244.855469 467.074219 238.667969 466.714844 236.25 466.25 C 233.003906 465.625 227.824219 462.195312 223.449219 458.914062 C 222.96875 467.777344 222.925781 487.523438 222.953125 500 M 308.296875 499.898438 C 308.292969 499.886719 308.289062 499.875 308.289062 499.863281 C 308.289062 499.875 308.292969 499.886719 308.296875 499.898438 M 308.253906 499.710938 C 308.246094 499.6875 308.242188 499.667969 308.238281 499.644531 C 308.242188 499.664062 308.246094 499.6875 308.253906 499.710938 M 308.230469 499.617188 C 308.214844 499.546875 308.199219 499.476562 308.183594 499.40625 C 308.199219 499.476562 308.214844 499.546875 308.230469 499.617188 M 308.179688 499.386719 C 308.175781 499.378906 308.175781 499.375 308.171875 499.363281 C 308.175781 499.371094 308.175781 499.378906 308.179688 499.386719 M 308.164062 499.332031 C 308.160156 499.320312 308.160156 499.304688 308.15625 499.296875 C 308.160156 499.308594 308.160156 499.320312 308.164062 499.332031 M 308.113281 499.101562 C 308.097656 499.039062 308.082031 498.976562 308.066406 498.914062 C 308.082031 498.976562 308.097656 499.039062 308.113281 499.101562 M 308.0625 498.882812 C 308.054688 498.855469 308.046875 498.828125 308.039062 498.800781 C 308.046875 498.828125 308.054688 498.855469 308.0625 498.882812 M 308.03125 498.75 C 308.027344 498.738281 308.023438 498.730469 308.023438 498.71875 C 308.023438 498.730469 308.027344 498.738281 308.03125 498.75 M 308.003906 498.632812 C 308 498.617188 307.996094 498.601562 307.992188 498.585938 C 307.996094 498.601562 308 498.617188 308.003906 498.632812 M 307.984375 498.558594 C 307.976562 498.527344 307.96875 498.488281 307.960938 498.457031 C 307.96875 498.488281 307.976562 498.527344 307.984375 498.558594 M 307.945312 498.390625 C 307.941406 498.375 307.9375 498.359375 307.9375 498.34375 C 307.9375 498.359375 307.941406 498.375 307.945312 498.390625 M 307.886719 498.136719 C 307.886719 498.128906 307.882812 498.117188 307.882812 498.109375 C 307.882812 498.117188 307.886719 498.128906 307.886719 498.136719 M 298.027344 455.714844 C 298.023438 455.707031 298.023438 455.703125 298.023438 455.695312 C 298.023438 455.703125 298.027344 455.710938 298.027344 455.714844 M 297.988281 455.546875 C 297.988281 455.542969 297.984375 455.535156 297.984375 455.527344 C 297.984375 455.535156 297.988281 455.542969 297.988281 455.546875 M 297.914062 455.230469 C 297.910156 455.214844 297.90625 455.203125 297.90625 455.191406 C 297.90625 455.203125 297.910156 455.214844 297.914062 455.230469 M 297.890625 455.132812 C 297.878906 455.074219 297.863281 455.015625 297.851562 454.957031 C 297.863281 455.015625 297.878906 455.074219 297.890625 455.132812 M 297.808594 454.773438 C 297.726562 454.429688 297.648438 454.085938 297.566406 453.742188 C 297.648438 454.085938 297.726562 454.429688 297.808594 454.773438 M 297.558594 453.699219 C 297.535156 453.601562 297.511719 453.503906 297.488281 453.402344 C 297.511719 453.503906 297.535156 453.601562 297.558594 453.699219 M 297.484375 453.382812 C 297.476562 453.339844 297.464844 453.296875 297.453125 453.253906 C 297.464844 453.296875 297.476562 453.339844 297.484375 453.382812 "/>
</clipPath>
<clipPath id="clip-4">
<path clip-rule="nonzero" d="M 308.320312 500 C 308.316406 499.980469 308.3125 499.960938 308.304688 499.9375 C 308.3125 499.960938 308.316406 499.980469 308.320312 500 M 222.953125 500 C 222.921875 485.871094 222.980469 462.398438 223.667969 456 C 224.5625 447.648438 235.328125 415.550781 237.585938 408.886719 C 242.023438 410.371094 255.125 414.332031 268.667969 414.332031 C 280.128906 414.332031 285.757812 413.386719 288.15625 412.796875 C 288.476562 414.390625 289.351562 418.574219 291.332031 427 C 292.222656 430.78125 294.636719 441.136719 297.453125 453.253906 C 294.902344 442.292969 292.6875 432.773438 291.628906 428.265625 C 290.980469 442.128906 289.21875 459.652344 284.5 462.75 C 279.476562 466.046875 264.296875 467.074219 252.089844 467.074219 C 244.855469 467.074219 238.667969 466.714844 236.25 466.25 C 233.003906 465.625 227.824219 462.195312 223.449219 458.914062 C 222.96875 467.777344 222.925781 487.523438 222.953125 500 M 308.296875 499.898438 C 308.292969 499.886719 308.289062 499.875 308.289062 499.863281 C 308.289062 499.875 308.292969 499.886719 308.296875 499.898438 M 308.253906 499.710938 C 308.246094 499.6875 308.242188 499.667969 308.238281 499.644531 C 308.242188 499.664062 308.246094 499.6875 308.253906 499.710938 M 308.230469 499.617188 C 308.214844 499.546875 308.199219 499.476562 308.183594 499.40625 C 308.199219 499.476562 308.214844 499.546875 308.230469 499.617188 M 308.179688 499.386719 C 308.175781 499.378906 308.175781 499.375 308.171875 499.363281 C 308.175781 499.371094 308.175781 499.378906 308.179688 499.386719 M 308.164062 499.332031 C 308.160156 499.320312 308.160156 499.304688 308.15625 499.296875 C 308.160156 499.308594 308.160156 499.320312 308.164062 499.332031 M 308.113281 499.101562 C 308.097656 499.039062 308.082031 498.976562 308.066406 498.914062 C 308.082031 498.976562 308.097656 499.039062 308.113281 499.101562 M 308.0625 498.882812 C 308.054688 498.855469 308.046875 498.828125 308.039062 498.800781 C 308.046875 498.828125 308.054688 498.855469 308.0625 498.882812 M 308.03125 498.75 C 308.027344 498.738281 308.023438 498.730469 308.023438 498.71875 C 308.023438 498.730469 308.027344 498.738281 308.03125 498.75 M 308.003906 498.632812 C 308 498.617188 307.996094 498.601562 307.992188 498.585938 C 307.996094 498.601562 308 498.617188 308.003906 498.632812 M 307.984375 498.558594 C 307.976562 498.527344 307.96875 498.488281 307.960938 498.457031 C 307.96875 498.488281 307.976562 498.527344 307.984375 498.558594 M 307.945312 498.390625 C 307.941406 498.375 307.9375 498.359375 307.9375 498.34375 C 307.9375 498.359375 307.941406 498.375 307.945312 498.390625 M 307.886719 498.136719 C 307.886719 498.128906 307.882812 498.117188 307.882812 498.109375 C 307.882812 498.117188 307.886719 498.128906 307.886719 498.136719 M 298.027344 455.714844 C 298.023438 455.707031 298.023438 455.703125 298.023438 455.695312 C 298.023438 455.703125 298.027344 455.710938 298.027344 455.714844 M 297.988281 455.546875 C 297.988281 455.542969 297.984375 455.535156 297.984375 455.527344 C 297.984375 455.535156 297.988281 455.542969 297.988281 455.546875 M 297.914062 455.230469 C 297.910156 455.214844 297.90625 455.203125 297.90625 455.191406 C 297.90625 455.203125 297.910156 455.214844 297.914062 455.230469 M 297.890625 455.132812 C 297.878906 455.074219 297.863281 455.015625 297.851562 454.957031 C 297.863281 455.015625 297.878906 455.074219 297.890625 455.132812 M 297.808594 454.773438 C 297.726562 454.429688 297.648438 454.085938 297.566406 453.742188 C 297.648438 454.085938 297.726562 454.429688 297.808594 454.773438 M 297.558594 453.699219 C 297.535156 453.601562 297.511719 453.503906 297.488281 453.402344 C 297.511719 453.503906 297.535156 453.601562 297.558594 453.699219 M 297.484375 453.382812 C 297.476562 453.339844 297.464844 453.296875 297.453125 453.253906 C 297.464844 453.296875 297.476562 453.339844 297.484375 453.382812 "/>
</clipPath>
<linearGradient id="linear-pattern-1" gradientUnits="userSpaceOnUse" x1="0.422024" y1="0" x2="0.993793" y2="0" gradientTransform="matrix(22, 175.333, -175.333, 22, 244.435, 331.028)">
<stop offset="0" stop-color="rgb(12.033081%, 9.640503%, 22.631836%)" stop-opacity="1"/>
<stop offset="0.0078125" stop-color="rgb(12.033081%, 9.616089%, 22.572327%)" stop-opacity="1"/>
<stop offset="0.015625" stop-color="rgb(12.020874%, 9.568787%, 22.459412%)" stop-opacity="1"/>
<stop offset="0.0234375" stop-color="rgb(11.982727%, 9.524536%, 22.357178%)" stop-opacity="1"/>
<stop offset="0.03125" stop-color="rgb(11.933899%, 9.483337%, 22.261047%)" stop-opacity="1"/>
<stop offset="0.046875" stop-color="rgb(11.895752%, 9.42688%, 22.119141%)" stop-opacity="1"/>
<stop offset="0.0546875" stop-color="rgb(11.897278%, 9.379578%, 21.980286%)" stop-opacity="1"/>
<stop offset="0.0625" stop-color="rgb(11.921692%, 9.352112%, 21.890259%)" stop-opacity="1"/>
<stop offset="0.078125" stop-color="rgb(11.907959%, 9.301758%, 21.737671%)" stop-opacity="1"/>
<stop offset="0.0859375" stop-color="rgb(11.856079%, 9.2453%, 21.57135%)" stop-opacity="1"/>
<stop offset="0.09375" stop-color="rgb(11.808777%, 9.204102%, 21.456909%)" stop-opacity="1"/>
<stop offset="0.109375" stop-color="rgb(11.749268%, 9.191895%, 21.34552%)" stop-opacity="1"/>
<stop offset="0.125" stop-color="rgb(11.686707%, 9.204102%, 21.234131%)" stop-opacity="1"/>
<stop offset="0.132812" stop-color="rgb(11.653137%, 9.20105%, 21.115112%)" stop-opacity="1"/>
<stop offset="0.140625" stop-color="rgb(11.642456%, 9.182739%, 20.99762%)" stop-opacity="1"/>
<stop offset="0.15625" stop-color="rgb(11.618042%, 9.16748%, 20.846558%)" stop-opacity="1"/>
<stop offset="0.171875" stop-color="rgb(11.566162%, 9.169006%, 20.707703%)" stop-opacity="1"/>
<stop offset="0.1875" stop-color="rgb(11.514282%, 9.170532%, 20.579529%)" stop-opacity="1"/>
<stop offset="0.195313" stop-color="rgb(11.488342%, 9.152222%, 20.451355%)" stop-opacity="1"/>
<stop offset="0.203125" stop-color="rgb(11.476135%, 9.130859%, 20.353699%)" stop-opacity="1"/>
<stop offset="0.210937" stop-color="rgb(11.448669%, 9.114075%, 20.249939%)" stop-opacity="1"/>
<stop offset="0.21875" stop-color="rgb(11.398315%, 9.100342%, 20.13855%)" stop-opacity="1"/>
<stop offset="0.226562" stop-color="rgb(11.343384%, 9.089661%, 20.024109%)" stop-opacity="1"/>
<stop offset="0.234375" stop-color="rgb(11.289978%, 9.077454%, 19.911194%)" stop-opacity="1"/>
<stop offset="0.242188" stop-color="rgb(11.271667%, 9.074402%, 19.822693%)" stop-opacity="1"/>
<stop offset="0.25" stop-color="rgb(11.2854%, 9.075928%, 19.752502%)" stop-opacity="1"/>
<stop offset="0.265625" stop-color="rgb(11.286926%, 9.075928%, 19.642639%)" stop-opacity="1"/>
<stop offset="0.273438" stop-color="rgb(11.250305%, 9.065247%, 19.517517%)" stop-opacity="1"/>
<stop offset="0.28125" stop-color="rgb(11.192322%, 9.051514%, 19.422913%)" stop-opacity="1"/>
<stop offset="0.289063" stop-color="rgb(11.134338%, 9.037781%, 19.328308%)" stop-opacity="1"/>
<stop offset="0.296875" stop-color="rgb(11.097717%, 9.017944%, 19.230652%)" stop-opacity="1"/>
<stop offset="0.304687" stop-color="rgb(11.083984%, 8.996582%, 19.132996%)" stop-opacity="1"/>
<stop offset="0.3125" stop-color="rgb(11.070251%, 8.97522%, 19.035339%)" stop-opacity="1"/>
<stop offset="0.320313" stop-color="rgb(11.054993%, 8.959961%, 18.937683%)" stop-opacity="1"/>
<stop offset="0.328125" stop-color="rgb(11.035156%, 8.959961%, 18.838501%)" stop-opacity="1"/>
<stop offset="0.335937" stop-color="rgb(11.013794%, 8.966064%, 18.740845%)" stop-opacity="1"/>
<stop offset="0.34375" stop-color="rgb(10.992432%, 8.973694%, 18.641663%)" stop-opacity="1"/>
<stop offset="0.351563" stop-color="rgb(10.978699%, 8.96759%, 18.519592%)" stop-opacity="1"/>
<stop offset="0.359375" stop-color="rgb(10.972595%, 8.946228%, 18.374634%)" stop-opacity="1"/>
<stop offset="0.367187" stop-color="rgb(10.966492%, 8.92334%, 18.226624%)" stop-opacity="1"/>
<stop offset="0.375" stop-color="rgb(10.957336%, 8.905029%, 18.089294%)" stop-opacity="1"/>
<stop offset="0.382812" stop-color="rgb(10.939026%, 8.900452%, 17.987061%)" stop-opacity="1"/>
<stop offset="0.390625" stop-color="rgb(10.916138%, 8.903503%, 17.904663%)" stop-opacity="1"/>
<stop offset="0.398437" stop-color="rgb(10.890198%, 8.908081%, 17.822266%)" stop-opacity="1"/>
<stop offset="0.40625" stop-color="rgb(10.86731%, 8.912659%, 17.735291%)" stop-opacity="1"/>
<stop offset="0.414062" stop-color="rgb(10.844421%, 8.91571%, 17.637634%)" stop-opacity="1"/>
<stop offset="0.421875" stop-color="rgb(10.820007%, 8.920288%, 17.538452%)" stop-opacity="1"/>
<stop offset="0.429688" stop-color="rgb(10.795593%, 8.924866%, 17.440796%)" stop-opacity="1"/>
<stop offset="0.4375" stop-color="rgb(10.771179%, 8.926392%, 17.352295%)" stop-opacity="1"/>
<stop offset="0.445312" stop-color="rgb(10.746765%, 8.929443%, 17.271423%)" stop-opacity="1"/>
<stop offset="0.453125" stop-color="rgb(10.720825%, 8.930969%, 17.189026%)" stop-opacity="1"/>
<stop offset="0.460938" stop-color="rgb(10.710144%, 8.930969%, 17.100525%)" stop-opacity="1"/>
<stop offset="0.46875" stop-color="rgb(10.720825%, 8.929443%, 17.001343%)" stop-opacity="1"/>
<stop offset="0.476563" stop-color="rgb(10.73761%, 8.927917%, 16.899109%)" stop-opacity="1"/>
<stop offset="0.484375" stop-color="rgb(10.749817%, 8.92334%, 16.795349%)" stop-opacity="1"/>
<stop offset="0.492187" stop-color="rgb(10.726929%, 8.909607%, 16.679382%)" stop-opacity="1"/>
<stop offset="0.5" stop-color="rgb(10.673523%, 8.885193%, 16.551208%)" stop-opacity="1"/>
<stop offset="0.507813" stop-color="rgb(10.620117%, 8.860779%, 16.423035%)" stop-opacity="1"/>
<stop offset="0.515625" stop-color="rgb(10.575867%, 8.834839%, 16.297913%)" stop-opacity="1"/>
<stop offset="0.523437" stop-color="rgb(10.548401%, 8.810425%, 16.181946%)" stop-opacity="1"/>
<stop offset="0.53125" stop-color="rgb(10.53009%, 8.784485%, 16.069031%)" stop-opacity="1"/>
<stop offset="0.539062" stop-color="rgb(10.510254%, 8.758545%, 15.956116%)" stop-opacity="1"/>
<stop offset="0.546875" stop-color="rgb(10.507202%, 8.743286%, 15.856934%)" stop-opacity="1"/>
<stop offset="0.554688" stop-color="rgb(10.519409%, 8.737183%, 15.771484%)" stop-opacity="1"/>
<stop offset="0.5625" stop-color="rgb(10.53009%, 8.732605%, 15.687561%)" stop-opacity="1"/>
<stop offset="0.570312" stop-color="rgb(10.531616%, 8.728027%, 15.602112%)" stop-opacity="1"/>
<stop offset="0.578125" stop-color="rgb(10.514832%, 8.724976%, 15.519714%)" stop-opacity="1"/>
<stop offset="0.585938" stop-color="rgb(10.48584%, 8.721924%, 15.437317%)" stop-opacity="1"/>
<stop offset="0.59375" stop-color="rgb(10.456848%, 8.718872%, 15.354919%)" stop-opacity="1"/>
<stop offset="0.601563" stop-color="rgb(10.432434%, 8.705139%, 15.258789%)" stop-opacity="1"/>
<stop offset="0.609375" stop-color="rgb(10.409546%, 8.677673%, 15.1474%)" stop-opacity="1"/>
<stop offset="0.617188" stop-color="rgb(10.386658%, 8.650208%, 15.034485%)" stop-opacity="1"/>
<stop offset="0.625" stop-color="rgb(10.36377%, 8.627319%, 14.927673%)" stop-opacity="1"/>
<stop offset="0.632813" stop-color="rgb(10.336304%, 8.615112%, 14.836121%)" stop-opacity="1"/>
<stop offset="0.640625" stop-color="rgb(10.307312%, 8.610535%, 14.753723%)" stop-opacity="1"/>
<stop offset="0.648438" stop-color="rgb(10.27832%, 8.605957%, 14.671326%)" stop-opacity="1"/>
<stop offset="0.65625" stop-color="rgb(10.247803%, 8.601379%, 14.581299%)" stop-opacity="1"/>
<stop offset="0.664063" stop-color="rgb(10.217285%, 8.596802%, 14.483643%)" stop-opacity="1"/>
<stop offset="0.671875" stop-color="rgb(10.189819%, 8.592224%, 14.385986%)" stop-opacity="1"/>
<stop offset="0.679687" stop-color="rgb(10.163879%, 8.587646%, 14.28833%)" stop-opacity="1"/>
<stop offset="0.6875" stop-color="rgb(10.15625%, 8.578491%, 14.198303%)" stop-opacity="1"/>
<stop offset="0.695312" stop-color="rgb(10.163879%, 8.569336%, 14.112854%)" stop-opacity="1"/>
<stop offset="0.703125" stop-color="rgb(10.169983%, 8.560181%, 14.027405%)" stop-opacity="1"/>
<stop offset="0.710937" stop-color="rgb(10.163879%, 8.543396%, 13.938904%)" stop-opacity="1"/>
<stop offset="0.71875" stop-color="rgb(10.142517%, 8.51593%, 13.844299%)" stop-opacity="1"/>
<stop offset="0.726562" stop-color="rgb(10.116577%, 8.483887%, 13.749695%)" stop-opacity="1"/>
<stop offset="0.734375" stop-color="rgb(10.089111%, 8.454895%, 13.65509%)" stop-opacity="1"/>
<stop offset="0.742188" stop-color="rgb(10.06012%, 8.436584%, 13.557434%)" stop-opacity="1"/>
<stop offset="0.75" stop-color="rgb(10.028076%, 8.428955%, 13.458252%)" stop-opacity="1"/>
<stop offset="0.757812" stop-color="rgb(9.997559%, 8.421326%, 13.360596%)" stop-opacity="1"/>
<stop offset="0.765625" stop-color="rgb(9.963989%, 8.413696%, 13.267517%)" stop-opacity="1"/>
<stop offset="0.773438" stop-color="rgb(9.931946%, 8.404541%, 13.180542%)" stop-opacity="1"/>
<stop offset="0.78125" stop-color="rgb(9.899902%, 8.39386%, 13.098145%)" stop-opacity="1"/>
<stop offset="0.789063" stop-color="rgb(9.866333%, 8.383179%, 13.014221%)" stop-opacity="1"/>
<stop offset="0.796875" stop-color="rgb(9.835815%, 8.361816%, 12.916565%)" stop-opacity="1"/>
<stop offset="0.804688" stop-color="rgb(9.80835%, 8.329773%, 12.808228%)" stop-opacity="1"/>
<stop offset="0.8125" stop-color="rgb(9.780884%, 8.296204%, 12.698364%)" stop-opacity="1"/>
<stop offset="0.828125" stop-color="rgb(9.75647%, 8.283997%, 12.586975%)" stop-opacity="1"/>
<stop offset="0.835937" stop-color="rgb(9.742737%, 8.294678%, 12.510681%)" stop-opacity="1"/>
<stop offset="0.84375" stop-color="rgb(9.738159%, 8.311462%, 12.471008%)" stop-opacity="1"/>
<stop offset="0.851562" stop-color="rgb(9.739685%, 8.303833%, 12.399292%)" stop-opacity="1"/>
<stop offset="0.859375" stop-color="rgb(9.744263%, 8.270264%, 12.289429%)" stop-opacity="1"/>
<stop offset="0.867187" stop-color="rgb(9.74884%, 8.235168%, 12.179565%)" stop-opacity="1"/>
<stop offset="0.875" stop-color="rgb(9.745789%, 8.203125%, 12.07428%)" stop-opacity="1"/>
<stop offset="0.882812" stop-color="rgb(9.721375%, 8.183289%, 11.982727%)" stop-opacity="1"/>
<stop offset="0.890625" stop-color="rgb(9.686279%, 8.169556%, 11.898804%)" stop-opacity="1"/>
<stop offset="0.90625" stop-color="rgb(9.646606%, 8.152771%, 11.782837%)" stop-opacity="1"/>
<stop offset="0.914062" stop-color="rgb(9.625244%, 8.137512%, 11.676025%)" stop-opacity="1"/>
<stop offset="0.921875" stop-color="rgb(9.623718%, 8.131409%, 11.611938%)" stop-opacity="1"/>
<stop offset="0.9375" stop-color="rgb(9.60083%, 8.11615%, 11.503601%)" stop-opacity="1"/>
<stop offset="0.945312" stop-color="rgb(9.558105%, 8.096313%, 11.386108%)" stop-opacity="1"/>
<stop offset="0.953125" stop-color="rgb(9.519958%, 8.081055%, 11.303711%)" stop-opacity="1"/>
<stop offset="0.960938" stop-color="rgb(9.49707%, 8.068848%, 11.227417%)" stop-opacity="1"/>
<stop offset="0.96875" stop-color="rgb(9.489441%, 8.059692%, 11.161804%)" stop-opacity="1"/>
<stop offset="0.976563" stop-color="rgb(9.487915%, 8.052063%, 11.097717%)" stop-opacity="1"/>
<stop offset="0.984375" stop-color="rgb(9.480286%, 8.042908%, 11.032104%)" stop-opacity="1"/>
<stop offset="0.992187" stop-color="rgb(9.440613%, 8.018494%, 10.952759%)" stop-opacity="1"/>
<stop offset="1" stop-color="rgb(9.375%, 7.980347%, 10.862732%)" stop-opacity="1"/>
</linearGradient>
<clipPath id="clip-5">
<path clip-rule="nonzero" d="M 222 428 L 309 428 L 309 500 L 222 500 Z M 222 428 "/>
</clipPath>
<clipPath id="clip-6">
<path clip-rule="nonzero" d="M 308.320312 500 L 222.953125 500 C 222.925781 487.523438 222.96875 467.777344 223.449219 458.914062 C 227.824219 462.195312 233.003906 465.625 236.25 466.25 C 238.667969 466.714844 244.855469 467.074219 252.089844 467.074219 C 264.296875 467.074219 279.476562 466.046875 284.5 462.75 C 289.21875 459.652344 290.980469 442.128906 291.628906 428.265625 C 292.6875 432.773438 294.902344 442.292969 297.453125 453.253906 C 297.464844 453.296875 297.476562 453.339844 297.484375 453.382812 C 297.484375 453.390625 297.488281 453.398438 297.488281 453.402344 C 297.511719 453.503906 297.535156 453.601562 297.558594 453.699219 C 297.5625 453.714844 297.566406 453.730469 297.566406 453.742188 C 297.648438 454.085938 297.726562 454.429688 297.808594 454.773438 C 297.824219 454.835938 297.835938 454.894531 297.851562 454.957031 C 297.863281 455.015625 297.878906 455.074219 297.890625 455.132812 C 297.894531 455.152344 297.902344 455.171875 297.90625 455.191406 C 297.90625 455.203125 297.910156 455.214844 297.914062 455.230469 C 297.9375 455.328125 297.960938 455.429688 297.984375 455.527344 C 297.984375 455.535156 297.988281 455.542969 297.988281 455.546875 C 298 455.597656 298.011719 455.648438 298.023438 455.695312 C 298.023438 455.703125 298.023438 455.707031 298.027344 455.714844 C 301.476562 470.550781 305.410156 487.472656 307.882812 498.109375 C 307.882812 498.117188 307.886719 498.128906 307.886719 498.136719 C 307.902344 498.207031 307.921875 498.277344 307.9375 498.34375 C 307.9375 498.359375 307.941406 498.375 307.945312 498.390625 C 307.949219 498.410156 307.957031 498.433594 307.960938 498.457031 C 307.96875 498.488281 307.976562 498.527344 307.984375 498.558594 C 307.988281 498.566406 307.988281 498.578125 307.992188 498.585938 C 307.996094 498.601562 308 498.617188 308.003906 498.632812 C 308.007812 498.660156 308.015625 498.691406 308.023438 498.71875 C 308.023438 498.730469 308.027344 498.738281 308.03125 498.75 C 308.035156 498.765625 308.035156 498.78125 308.039062 498.800781 C 308.046875 498.828125 308.054688 498.855469 308.0625 498.882812 C 308.0625 498.894531 308.066406 498.902344 308.066406 498.914062 C 308.082031 498.976562 308.097656 499.039062 308.113281 499.101562 C 308.128906 499.167969 308.140625 499.230469 308.15625 499.296875 C 308.160156 499.304688 308.160156 499.320312 308.164062 499.332031 C 308.167969 499.34375 308.171875 499.351562 308.171875 499.363281 C 308.175781 499.375 308.175781 499.378906 308.179688 499.386719 C 308.179688 499.394531 308.179688 499.398438 308.183594 499.40625 C 308.199219 499.476562 308.214844 499.546875 308.230469 499.617188 C 308.234375 499.625 308.234375 499.632812 308.238281 499.644531 C 308.242188 499.667969 308.246094 499.6875 308.253906 499.710938 C 308.265625 499.761719 308.277344 499.8125 308.289062 499.863281 C 308.289062 499.875 308.292969 499.886719 308.296875 499.898438 C 308.300781 499.914062 308.304688 499.925781 308.304688 499.9375 C 308.3125 499.960938 308.316406 499.980469 308.320312 500 "/>
</clipPath>
<clipPath id="clip-7">
<path clip-rule="nonzero" d="M 308.320312 500 L 222.953125 500 C 222.925781 487.523438 222.96875 467.777344 223.449219 458.914062 C 227.824219 462.195312 233.003906 465.625 236.25 466.25 C 238.667969 466.714844 244.855469 467.074219 252.089844 467.074219 C 264.296875 467.074219 279.476562 466.046875 284.5 462.75 C 289.21875 459.652344 290.980469 442.128906 291.628906 428.265625 C 292.6875 432.773438 294.902344 442.292969 297.453125 453.253906 C 297.464844 453.296875 297.476562 453.339844 297.484375 453.382812 C 297.484375 453.390625 297.488281 453.398438 297.488281 453.402344 C 297.511719 453.503906 297.535156 453.601562 297.558594 453.699219 C 297.5625 453.714844 297.566406 453.730469 297.566406 453.742188 C 297.648438 454.085938 297.726562 454.429688 297.808594 454.773438 C 297.824219 454.835938 297.835938 454.894531 297.851562 454.957031 C 297.863281 455.015625 297.878906 455.074219 297.890625 455.132812 C 297.894531 455.152344 297.902344 455.171875 297.90625 455.191406 C 297.90625 455.203125 297.910156 455.214844 297.914062 455.230469 C 297.9375 455.328125 297.960938 455.429688 297.984375 455.527344 C 297.984375 455.535156 297.988281 455.542969 297.988281 455.546875 C 298 455.597656 298.011719 455.648438 298.023438 455.695312 C 298.023438 455.703125 298.023438 455.707031 298.027344 455.714844 C 301.476562 470.550781 305.410156 487.472656 307.882812 498.109375 C 307.882812 498.117188 307.886719 498.128906 307.886719 498.136719 C 307.902344 498.207031 307.921875 498.277344 307.9375 498.34375 C 307.9375 498.359375 307.941406 498.375 307.945312 498.390625 C 307.949219 498.410156 307.957031 498.433594 307.960938 498.457031 C 307.96875 498.488281 307.976562 498.527344 307.984375 498.558594 C 307.988281 498.566406 307.988281 498.578125 307.992188 498.585938 C 307.996094 498.601562 308 498.617188 308.003906 498.632812 C 308.007812 498.660156 308.015625 498.691406 308.023438 498.71875 C 308.023438 498.730469 308.027344 498.738281 308.03125 498.75 C 308.035156 498.765625 308.035156 498.78125 308.039062 498.800781 C 308.046875 498.828125 308.054688 498.855469 308.0625 498.882812 C 308.0625 498.894531 308.066406 498.902344 308.066406 498.914062 C 308.082031 498.976562 308.097656 499.039062 308.113281 499.101562 C 308.128906 499.167969 308.140625 499.230469 308.15625 499.296875 C 308.160156 499.304688 308.160156 499.320312 308.164062 499.332031 C 308.167969 499.34375 308.171875 499.351562 308.171875 499.363281 C 308.175781 499.375 308.175781 499.378906 308.179688 499.386719 C 308.179688 499.394531 308.179688 499.398438 308.183594 499.40625 C 308.199219 499.476562 308.214844 499.546875 308.230469 499.617188 C 308.234375 499.625 308.234375 499.632812 308.238281 499.644531 C 308.242188 499.667969 308.246094 499.6875 308.253906 499.710938 C 308.265625 499.761719 308.277344 499.8125 308.289062 499.863281 C 308.289062 499.875 308.292969 499.886719 308.296875 499.898438 C 308.300781 499.914062 308.304688 499.925781 308.304688 499.9375 C 308.3125 499.960938 308.316406 499.980469 308.320312 500 "/>
</clipPath>
<linearGradient id="linear-pattern-2" gradientUnits="userSpaceOnUse" x1="0.53084" y1="0" x2="0.993793" y2="0" gradientTransform="matrix(22, 175.333, -175.333, 22, 244.435, 331.028)">
<stop offset="0" stop-color="rgb(8.334351%, 7.829285%, 8.558655%)" stop-opacity="1"/>
<stop offset="0.0625" stop-color="rgb(8.332825%, 7.8125%, 8.531189%)" stop-opacity="1"/>
<stop offset="0.125" stop-color="rgb(8.323669%, 7.751465%, 8.430481%)" stop-opacity="1"/>
<stop offset="0.1875" stop-color="rgb(8.308411%, 7.652283%, 8.287048%)" stop-opacity="1"/>
<stop offset="0.25" stop-color="rgb(8.248901%, 7.594299%, 8.21228%)" stop-opacity="1"/>
<stop offset="0.265625" stop-color="rgb(8.18634%, 7.574463%, 8.172607%)" stop-opacity="1"/>
<stop offset="0.28125" stop-color="rgb(8.137512%, 7.518005%, 8.055115%)" stop-opacity="1"/>
<stop offset="0.3125" stop-color="rgb(8.111572%, 7.479858%, 7.962036%)" stop-opacity="1"/>
<stop offset="0.375" stop-color="rgb(8.139038%, 7.485962%, 7.963562%)" stop-opacity="1"/>
<stop offset="0.4375" stop-color="rgb(8.143616%, 7.453918%, 7.929993%)" stop-opacity="1"/>
<stop offset="0.46875" stop-color="rgb(8.081055%, 7.40509%, 7.867432%)" stop-opacity="1"/>
<stop offset="0.484375" stop-color="rgb(7.998657%, 7.35321%, 7.778931%)" stop-opacity="1"/>
<stop offset="0.5" stop-color="rgb(7.931519%, 7.273865%, 7.63855%)" stop-opacity="1"/>
<stop offset="0.5625" stop-color="rgb(7.992554%, 7.261658%, 7.637024%)" stop-opacity="1"/>
<stop offset="0.625" stop-color="rgb(8.06427%, 7.252502%, 7.650757%)" stop-opacity="1"/>
<stop offset="0.65625" stop-color="rgb(7.955933%, 7.177734%, 7.53479%)" stop-opacity="1"/>
<stop offset="0.6875" stop-color="rgb(7.826233%, 7.125854%, 7.447815%)" stop-opacity="1"/>
<stop offset="0.71875" stop-color="rgb(7.824707%, 7.124329%, 7.455444%)" stop-opacity="1"/>
<stop offset="0.75" stop-color="rgb(7.929993%, 7.147217%, 7.505798%)" stop-opacity="1"/>
<stop offset="0.8125" stop-color="rgb(7.981873%, 7.107544%, 7.453918%)" stop-opacity="1"/>
<stop offset="0.875" stop-color="rgb(7.958984%, 7.002258%, 7.289124%)" stop-opacity="1"/>
<stop offset="0.890625" stop-color="rgb(7.904053%, 6.954956%, 7.200623%)" stop-opacity="1"/>
<stop offset="0.90625" stop-color="rgb(7.820129%, 6.974792%, 7.214355%)" stop-opacity="1"/>
<stop offset="0.9375" stop-color="rgb(7.763672%, 6.990051%, 7.225037%)" stop-opacity="1"/>
<stop offset="0.953125" stop-color="rgb(7.76062%, 6.97937%, 7.208252%)" stop-opacity="1"/>
<stop offset="0.96875" stop-color="rgb(7.780457%, 6.938171%, 7.15332%)" stop-opacity="1"/>
<stop offset="1" stop-color="rgb(7.803345%, 6.895447%, 7.092285%)" stop-opacity="1"/>
</linearGradient>
<clipPath id="clip-8">
<path clip-rule="nonzero" d="M 447 189 L 493 189 L 493 284 L 447 284 Z M 447 189 "/>
</clipPath>
<clipPath id="clip-9">
<path clip-rule="nonzero" d="M 473.65625 283.886719 L 447.269531 283.707031 L 448.425781 279.25 L 473.65625 283.886719 L 492.144531 189.28125 L 473.65625 283.886719 "/>
</clipPath>
<clipPath id="clip-10">
<path clip-rule="nonzero" d="M 473.65625 283.886719 L 447.269531 283.707031 L 448.425781 279.25 L 473.65625 283.886719 L 492.144531 189.28125 L 473.65625 283.886719 "/>
</clipPath>
<linearGradient id="linear-pattern-3" gradientUnits="userSpaceOnUse" x1="0.432176" y1="0" x2="0.56637" y2="0" gradientTransform="matrix(0.00000003, 704.976, -704.976, 0.00000003, 250, -115.391)">
<stop offset="0" stop-color="rgb(27.388%, 47.386169%, 74.485779%)" stop-opacity="1"/>
<stop offset="0.03125" stop-color="rgb(27.372742%, 47.450256%, 74.555969%)" stop-opacity="1"/>
<stop offset="0.0625" stop-color="rgb(27.334595%, 47.624207%, 74.742126%)" stop-opacity="1"/>
<stop offset="0.09375" stop-color="rgb(27.322388%, 47.843933%, 75.001526%)" stop-opacity="1"/>
<stop offset="0.125" stop-color="rgb(27.389526%, 48.074341%, 75.311279%)" stop-opacity="1"/>
<stop offset="0.140625" stop-color="rgb(27.47345%, 48.251343%, 75.564575%)" stop-opacity="1"/>
<stop offset="0.15625" stop-color="rgb(27.577209%, 48.391724%, 75.715637%)" stop-opacity="1"/>
<stop offset="0.171875" stop-color="rgb(27.757263%, 48.5672%, 75.831604%)" stop-opacity="1"/>
<stop offset="0.1875" stop-color="rgb(27.967834%, 48.757935%, 75.93689%)" stop-opacity="1"/>
<stop offset="0.203125" stop-color="rgb(28.17688%, 48.950195%, 76.042175%)" stop-opacity="1"/>
<stop offset="0.21875" stop-color="rgb(28.35083%, 49.119568%, 76.145935%)" stop-opacity="1"/>
<stop offset="0.25" stop-color="rgb(28.405762%, 49.247742%, 76.280212%)" stop-opacity="1"/>
<stop offset="0.28125" stop-color="rgb(28.382874%, 49.360657%, 76.454163%)" stop-opacity="1"/>
<stop offset="0.3125" stop-color="rgb(28.430176%, 49.536133%, 76.712036%)" stop-opacity="1"/>
<stop offset="0.34375" stop-color="rgb(28.544617%, 49.777222%, 77.058411%)" stop-opacity="1"/>
<stop offset="0.375" stop-color="rgb(28.660583%, 50.018311%, 77.360535%)" stop-opacity="1"/>
<stop offset="0.40625" stop-color="rgb(28.778076%, 50.260925%, 77.610779%)" stop-opacity="1"/>
<stop offset="0.4375" stop-color="rgb(28.845215%, 50.456238%, 77.790833%)" stop-opacity="1"/>
<stop offset="0.46875" stop-color="rgb(28.840637%, 50.582886%, 77.882385%)" stop-opacity="1"/>
<stop offset="0.5" stop-color="rgb(28.858948%, 50.733948%, 78.034973%)" stop-opacity="1"/>
<stop offset="0.53125" stop-color="rgb(28.947449%, 50.950623%, 78.329468%)" stop-opacity="1"/>
<stop offset="0.5625" stop-color="rgb(29.107666%, 51.176453%, 78.643799%)" stop-opacity="1"/>
<stop offset="0.59375" stop-color="rgb(29.360962%, 51.356506%, 78.872681%)" stop-opacity="1"/>
<stop offset="0.625" stop-color="rgb(29.638672%, 51.525879%, 79.051208%)" stop-opacity="1"/>
<stop offset="0.65625" stop-color="rgb(29.823303%, 51.741028%, 79.208374%)" stop-opacity="1"/>
<stop offset="0.6875" stop-color="rgb(29.934692%, 51.968384%, 79.359436%)" stop-opacity="1"/>
<stop offset="0.71875" stop-color="rgb(29.983521%, 52.072144%, 79.542542%)" stop-opacity="1"/>
<stop offset="0.75" stop-color="rgb(29.983521%, 52.076721%, 79.754639%)" stop-opacity="1"/>
<stop offset="0.78125" stop-color="rgb(30.04303%, 52.203369%, 79.931641%)" stop-opacity="1"/>
<stop offset="0.8125" stop-color="rgb(30.166626%, 52.453613%, 80.078125%)" stop-opacity="1"/>
<stop offset="0.875" stop-color="rgb(30.213928%, 52.69928%, 80.326843%)" stop-opacity="1"/>
<stop offset="0.90625" stop-color="rgb(30.24292%, 52.929688%, 80.580139%)" stop-opacity="1"/>
<stop offset="0.9375" stop-color="rgb(30.348206%, 53.161621%, 80.731201%)" stop-opacity="1"/>
<stop offset="0.96875" stop-color="rgb(30.470276%, 53.413391%, 80.909729%)" stop-opacity="1"/>
<stop offset="1" stop-color="rgb(30.593872%, 53.665161%, 81.143188%)" stop-opacity="1"/>
</linearGradient>
<clipPath id="clip-11">
<path clip-rule="nonzero" d="M 220 96 L 238 96 L 238 132 L 220 132 Z M 220 96 "/>
</clipPath>
<clipPath id="clip-12">
<path clip-rule="nonzero" d="M 237.558594 131.558594 L 221.082031 106.707031 L 220.726562 96.519531 L 232.148438 96.519531 L 237.777344 131.480469 L 237.558594 131.558594 "/>
</clipPath>
<clipPath id="clip-13">
<path clip-rule="nonzero" d="M 237.558594 131.558594 L 221.082031 106.707031 L 220.726562 96.519531 L 232.148438 96.519531 L 237.777344 131.480469 L 237.558594 131.558594 "/>
</clipPath>
<linearGradient id="linear-pattern-4" gradientUnits="userSpaceOnUse" x1="0.300593" y1="0" x2="0.350293" y2="0" gradientTransform="matrix(0.00000003, 704.976, -704.976, 0.00000003, 250, -115.391)">
<stop offset="0" stop-color="rgb(26.028442%, 45.684814%, 72.463989%)" stop-opacity="1"/>
<stop offset="0.25" stop-color="rgb(26.010132%, 45.765686%, 72.512817%)" stop-opacity="1"/>
<stop offset="0.375" stop-color="rgb(26.051331%, 45.849609%, 72.637939%)" stop-opacity="1"/>
<stop offset="0.4375" stop-color="rgb(26.185608%, 45.861816%, 72.807312%)" stop-opacity="1"/>
<stop offset="0.5" stop-color="rgb(26.293945%, 45.870972%, 72.943115%)" stop-opacity="1"/>
<stop offset="0.625" stop-color="rgb(26.322937%, 45.892334%, 72.979736%)" stop-opacity="1"/>
<stop offset="0.75" stop-color="rgb(26.298523%, 46.006775%, 72.944641%)" stop-opacity="1"/>
<stop offset="1" stop-color="rgb(26.280212%, 46.102905%, 72.914124%)" stop-opacity="1"/>
</linearGradient>
</defs>
<g clip-path="url(#clip-0)">
<g clip-path="url(#clip-1)">
<rect x="-50" y="-50" width="600" height="600" fill="url(#linear-pattern-0)"/>
</g>
</g>
<path fill-rule="nonzero" fill="rgb(14.785767%, 20.965576%, 43.638611%)" fill-opacity="1" d="M 0 96.519531 L 500 96.519531 L 500 0 L 0 0 Z M 0 96.519531 "/>
<path fill-rule="nonzero" fill="rgb(27.163696%, 48.623657%, 78.283691%)" fill-opacity="1" d="M 459.652344 235.957031 L 308.324219 226.261719 L 426.265625 131.480469 L 377.257812 122.863281 L 287.859375 207.414062 L 221.082031 106.707031 L 176.921875 116.402344 L 262.011719 218.722656 L 95.601562 199.875 L 49.828125 238.648438 L 250.699219 244.035156 L 60.058594 386.210938 L 112.65625 419.058594 L 265.78125 256.960938 L 206.296875 500 L 355.15625 500 L 300.785156 252.113281 L 473.65625 283.886719 L 459.652344 235.957031 "/>
<path fill-rule="nonzero" fill="rgb(86.965942%, 90.141296%, 17.875671%)" fill-opacity="1" d="M 254.332031 320.667969 C 254.332031 320.667969 233.332031 322.667969 231.667969 324 C 230 325.332031 183.332031 386 183.667969 390.332031 C 184 394.667969 188.332031 409 190.667969 409.332031 C 193 409.667969 196 408.667969 196 408.667969 L 202.667969 413.332031 C 202.667969 413.332031 208.332031 413.332031 211.332031 409.332031 C 214.332031 405.332031 215.332031 400.332031 215.332031 400.332031 L 213 397.667969 C 213 397.667969 215.332031 396 215 394.667969 C 214.667969 393.332031 212.332031 388.332031 212.332031 388.332031 C 212.332031 388.332031 232.667969 365.667969 232.332031 366.667969 C 232 367.667969 231 395.332031 232.332031 398 C 233.667969 400.667969 236.667969 401.332031 236.667969 401.332031 L 236 408.332031 C 236 408.332031 252 414.332031 268.667969 414.332031 C 285.332031 414.332031 289.667969 412.332031 289.667969 412.332031 L 290 406.667969 C 290 406.667969 296.667969 403.667969 297.332031 399.332031 C 298 395 299.667969 360 299.667969 360 C 299.667969 360 326.667969 375.667969 331.332031 374 C 336 372.332031 339.667969 367 340 364 C 340.332031 361 338.667969 348.332031 337.332031 347 C 336 345.667969 331.667969 343.667969 331.667969 343.667969 L 329.332031 340.667969 C 329.332031 340.667969 322 337.667969 320 339.332031 C 318 341 316.667969 343 316.667969 343 C 316.667969 343 302.332031 328.667969 298.332031 326.667969 C 294.332031 324.667969 274.332031 320.667969 274.332031 320.667969 L 254.332031 320.667969 "/>
<path fill-rule="nonzero" fill="rgb(23.977661%, 12.823486%, 13.235474%)" fill-opacity="1" d="M 271 259 C 271 259 255.667969 262.667969 253.332031 266.332031 C 251 270 244 299.332031 245.667969 305 C 247.332031 310.667969 254 323 257 325.332031 C 260 327.667969 267 329 267 329 C 267 329 257.332031 355 259.667969 360 C 262 365 269.332031 377.332031 270 386.332031 C 270.667969 395.332031 264 400.667969 264 400.667969 C 264 400.667969 270.332031 394.332031 273.332031 393.332031 C 276.332031 392.332031 281 388 280.332031 381.332031 C 279.667969 374.667969 273.332031 351.332031 272.332031 342 C 271.332031 332.667969 271.667969 329 271.667969 329 C 271.667969 329 283.667969 325.667969 285.667969 322.332031 C 287.667969 319 293.332031 283.332031 291 278 C 288.667969 272.667969 285.667969 262 271 259 "/>
<path fill-rule="nonzero" fill="rgb(75.108337%, 66.746521%, 13.957214%)" fill-opacity="1" d="M 331.667969 343.667969 L 329.332031 340.667969 C 329.332031 340.667969 322 337.667969 320 339.332031 C 318 341 316.667969 343 316.667969 343 C 316.667969 343 323.5 347.25 325.75 349.75 C 328 352.25 328.25 358 326.5 360.5 C 324.75 363 296.75 353.75 296.75 353.75 C 296.75 353.75 294.25 375.75 291.5 383.25 C 288.75 390.75 280.75 402 274.25 403 C 267.75 404 243.5 399.25 238.5 394.75 C 233.5 390.25 233.75 353.5 233.75 353.5 C 233.75 353.5 217.5 378 213 382.5 C 208.5 387 206.5 383.75 206.5 383.75 C 206.5 383.75 204.75 392.5 198.5 396.5 C 195.058594 398.703125 188.738281 394.914062 183.75 391.066406 C 184.433594 396.078125 188.449219 409.015625 190.667969 409.332031 C 193 409.667969 196 408.667969 196 408.667969 L 202.667969 413.332031 C 202.667969 413.332031 208.332031 413.332031 211.332031 409.332031 C 214.332031 405.332031 215.332031 400.332031 215.332031 400.332031 L 213 397.667969 C 213 397.667969 215.332031 396 215 394.667969 C 214.667969 393.332031 212.332031 388.332031 212.332031 388.332031 C 212.332031 388.332031 232.667969 365.667969 232.332031 366.667969 C 232 367.667969 231 395.332031 232.332031 398 C 233.667969 400.667969 236.667969 401.332031 236.667969 401.332031 L 236 408.332031 C 236 408.332031 252 414.332031 268.667969 414.332031 C 285.332031 414.332031 289.667969 412.332031 289.667969 412.332031 L 290 406.667969 C 290 406.667969 296.667969 403.667969 297.332031 399.332031 C 298 395 299.667969 360 299.667969 360 C 299.667969 360 326.667969 375.667969 331.332031 374 C 336 372.332031 339.667969 367 340 364 C 340.332031 361 338.667969 348.332031 337.332031 347 C 336 345.667969 331.667969 343.667969 331.667969 343.667969 "/>
<path fill-rule="nonzero" fill="rgb(59.19342%, 55.444336%, 12.802124%)" fill-opacity="1" d="M 213 397.667969 C 204.75 407.332031 196 408.667969 196 408.667969 L 202.667969 413.332031 C 202.667969 413.332031 208.332031 413.332031 211.332031 409.332031 C 214.332031 405.332031 215.332031 400.332031 215.332031 400.332031 L 213 397.667969 "/>
<path fill-rule="nonzero" fill="rgb(59.19342%, 55.444336%, 12.802124%)" fill-opacity="1" d="M 289.667969 412.332031 L 290 406.667969 C 260.25 409.332031 236.667969 401.332031 236.667969 401.332031 L 236 408.332031 C 236 408.332031 252 414.332031 268.667969 414.332031 C 285.332031 414.332031 289.667969 412.332031 289.667969 412.332031 "/>
<g clip-path="url(#clip-2)">
<g clip-path="url(#clip-3)">
<g clip-path="url(#clip-4)">
<path fill-rule="nonzero" fill="url(#linear-pattern-1)" d="M 306.996094 398.335938 L 211.667969 410.300781 L 224.246094 510.550781 L 319.574219 498.585938 Z M 306.996094 398.335938 "/>
</g>
</g>
</g>
<path fill-rule="nonzero" fill="rgb(12.059021%, 30.474854%, 24.969482%)" fill-opacity="1" d="M 308.304688 499.9375 C 308.304688 499.925781 308.300781 499.914062 308.296875 499.898438 C 308.300781 499.914062 308.304688 499.925781 308.304688 499.9375 M 308.289062 499.863281 C 308.277344 499.8125 308.265625 499.761719 308.253906 499.710938 C 308.265625 499.761719 308.277344 499.8125 308.289062 499.863281 M 308.238281 499.644531 C 308.234375 499.632812 308.234375 499.625 308.230469 499.617188 C 308.234375 499.625 308.234375 499.632812 308.238281 499.644531 M 308.183594 499.40625 C 308.179688 499.398438 308.179688 499.394531 308.179688 499.386719 C 308.179688 499.394531 308.179688 499.402344 308.183594 499.40625 M 308.171875 499.363281 C 308.171875 499.351562 308.167969 499.34375 308.164062 499.332031 C 308.167969 499.34375 308.171875 499.351562 308.171875 499.363281 M 308.15625 499.296875 C 308.140625 499.230469 308.128906 499.167969 308.113281 499.101562 C 308.128906 499.167969 308.140625 499.230469 308.15625 499.296875 M 308.066406 498.914062 C 308.066406 498.902344 308.0625 498.894531 308.0625 498.882812 C 308.0625 498.894531 308.066406 498.902344 308.066406 498.914062 M 308.039062 498.800781 C 308.035156 498.78125 308.035156 498.765625 308.03125 498.75 C 308.035156 498.765625 308.039062 498.78125 308.039062 498.800781 M 308.023438 498.71875 C 308.015625 498.691406 308.007812 498.660156 308.003906 498.632812 C 308.007812 498.660156 308.015625 498.691406 308.023438 498.71875 M 307.992188 498.585938 C 307.988281 498.578125 307.988281 498.566406 307.984375 498.558594 C 307.988281 498.570312 307.988281 498.574219 307.992188 498.585938 M 307.960938 498.457031 C 307.957031 498.433594 307.949219 498.410156 307.945312 498.390625 C 307.949219 498.410156 307.957031 498.433594 307.960938 498.457031 M 307.9375 498.34375 C 307.921875 498.277344 307.902344 498.207031 307.886719 498.136719 C 307.902344 498.207031 307.921875 498.277344 307.9375 498.34375 M 307.882812 498.109375 C 305.410156 487.472656 301.476562 470.550781 298.027344 455.714844 C 301.476562 470.546875 305.410156 487.46875 307.882812 498.109375 M 298.023438 455.695312 C 298.011719 455.648438 298 455.597656 297.988281 455.546875 C 298 455.597656 298.011719 455.648438 298.023438 455.695312 M 297.984375 455.527344 C 297.960938 455.429688 297.9375 455.328125 297.914062 455.230469 C 297.9375 455.328125 297.960938 455.429688 297.984375 455.527344 M 297.90625 455.191406 C 297.902344 455.171875 297.894531 455.152344 297.890625 455.132812 C 297.894531 455.152344 297.902344 455.171875 297.90625 455.191406 M 297.851562 454.957031 C 297.835938 454.894531 297.824219 454.835938 297.808594 454.773438 C 297.820312 454.835938 297.835938 454.894531 297.851562 454.957031 M 297.566406 453.742188 C 297.566406 453.730469 297.5625 453.714844 297.558594 453.699219 C 297.5625 453.714844 297.566406 453.726562 297.566406 453.742188 M 297.488281 453.402344 C 297.488281 453.398438 297.484375 453.390625 297.484375 453.382812 C 297.484375 453.390625 297.488281 453.398438 297.488281 453.402344 M 297.453125 453.253906 L 297.453125 453.253906 "/>
<g clip-path="url(#clip-5)">
<g clip-path="url(#clip-6)">
<g clip-path="url(#clip-7)">
<path fill-rule="nonzero" fill="url(#linear-pattern-2)" d="M 306.996094 417.71875 L 214.066406 429.378906 L 224.25 510.546875 L 317.179688 498.886719 Z M 306.996094 417.71875 "/>
</g>
</g>
</g>
<path fill-rule="nonzero" fill="rgb(59.19342%, 55.444336%, 12.802124%)" fill-opacity="1" d="M 329.332031 340.667969 C 329.332031 340.667969 322 337.667969 320 339.332031 C 318 341 316.667969 343 316.667969 343 C 316.667969 343 318.015625 343.839844 319.707031 344.988281 C 320.546875 344.625 321.410156 344.28125 322.25 344 C 326 342.75 331.667969 343.667969 331.667969 343.667969 L 329.332031 340.667969 "/>
<path fill-rule="nonzero" fill="rgb(59.19342%, 55.444336%, 12.802124%)" fill-opacity="1" d="M 298.269531 351.035156 C 298.699219 349.84375 301.8125 341.167969 302.742188 335.582031 C 303.019531 333.933594 303.214844 332.167969 303.359375 330.472656 C 303.042969 330.195312 302.730469 329.929688 302.425781 329.675781 C 302.277344 331.558594 302.066406 333.566406 301.757812 335.417969 C 300.777344 341.300781 297.316406 350.730469 297.28125 350.828125 L 297.230469 350.964844 L 299.199219 360.175781 L 299.605469 361.253906 C 299.644531 360.460938 299.667969 360 299.667969 360 C 299.667969 360 299.90625 360.140625 300.34375 360.390625 L 300.15625 359.894531 L 298.269531 351.035156 "/>
<path fill-rule="nonzero" fill="rgb(59.19342%, 55.444336%, 12.802124%)" fill-opacity="1" d="M 231.664062 367.21875 C 232.121094 366.765625 232.371094 366.550781 232.332031 366.667969 C 232.273438 366.839844 232.195312 367.84375 232.113281 369.367188 L 232.816406 366.800781 L 233.253906 359.1875 L 233.226562 359.101562 C 233.195312 359.003906 230.222656 349.527344 228.742188 340.421875 C 228.175781 336.90625 227.78125 332.8125 227.515625 329.070312 C 227.21875 329.441406 226.917969 329.828125 226.597656 330.234375 C 226.863281 333.699219 227.238281 337.378906 227.757812 340.578125 C 229.167969 349.289062 231.9375 358.324219 232.246094 359.3125 L 231.835938 366.585938 L 231.664062 367.21875 "/>
<path fill-rule="nonzero" fill="rgb(11.769104%, 8.459473%, 7.951355%)" fill-opacity="1" d="M 265.214844 399.492188 C 264.476562 400.191406 264 400.667969 264 400.667969 C 264 400.667969 264.503906 400.253906 265.214844 399.492188 "/>
<path fill-rule="nonzero" fill="rgb(11.769104%, 8.459473%, 7.951355%)" fill-opacity="1" d="M 287.5 309.5 C 285.75 313.5 282 315.75 282 315.75 C 282 315.75 283 313.75 283.25 311.25 C 283.5 308.75 285 301.5 285 300.75 C 285 300 283.75 304.75 282.25 307.5 C 280.75 310.25 276.5 318.5 274.25 319.25 C 272 320 271.25 319 271.75 317 C 272.25 315 271.75 309.75 271.75 309.75 C 271.75 309.75 266.75 319.25 263.75 319 C 260.75 318.75 255 312.25 255 312.25 L 255.5 316.5 C 255.5 316.5 252.75 313.75 250.25 310.5 C 249.066406 308.960938 247.269531 303.507812 245.703125 298.1875 C 245.355469 301.273438 245.292969 303.730469 245.667969 305 C 247.332031 310.667969 254 323 257 325.332031 C 260 327.667969 267 329 267 329 C 267 329 257.332031 355 259.667969 360 C 262 365 269.332031 377.332031 270 386.332031 C 270.484375 392.875 267.101562 397.464844 265.214844 399.492188 C 267.199219 397.613281 271.148438 394.0625 273.332031 393.332031 C 276.332031 392.332031 281 388 280.332031 381.332031 C 279.667969 374.667969 273.332031 351.332031 272.332031 342 C 271.332031 332.667969 271.667969 329 271.667969 329 C 271.667969 329 283.667969 325.667969 285.667969 322.332031 C 286.535156 320.886719 288.097656 313.332031 289.394531 304.816406 C 288.574219 306.902344 287.890625 308.605469 287.5 309.5 "/>
<path fill-rule="nonzero" fill="rgb(97.401428%, 64.736938%, 59.631348%)" fill-opacity="1" d="M 306.625 316.5 C 306.375 316.125 300.875 306.5 299.875 305.5 C 299.167969 304.792969 293.652344 299.777344 290.476562 296.894531 C 290.296875 298.398438 290.097656 299.917969 289.886719 301.433594 L 292.875 305.75 C 292.875 305.75 290.25 309.625 290.125 310.625 C 290 311.625 290.625 317.75 291 318.5 C 291.375 319.25 293.625 321.75 294.125 321.625 C 294.625 321.5 295.25 321.25 295.25 321.25 C 295.25 321.25 298.125 323.875 298.75 323.625 C 299.375 323.375 301.625 322.75 301.25 322.875 C 301.058594 322.9375 304.753906 329.054688 308.425781 335.046875 C 312.742188 339.074219 316.667969 343 316.667969 343 C 316.667969 343 318 341 320 339.332031 C 321.320312 338.230469 324.964844 339.167969 327.289062 339.929688 C 323.363281 335.496094 306.84375 316.828125 306.625 316.5 "/>
<path fill-rule="nonzero" fill="rgb(77.91748%, 32.229614%, 31.535339%)" fill-opacity="1" d="M 299.730469 317.183594 C 299.472656 317.183594 299.210938 317.164062 298.941406 317.121094 C 297.464844 316.886719 295.613281 314.050781 294.703125 312.5 C 294.480469 313.734375 294.054688 315.667969 293.421875 316.480469 C 293.230469 316.726562 292.957031 316.808594 292.699219 316.699219 C 291.492188 316.199219 290.535156 310.054688 290.628906 309.328125 C 290.722656 308.570312 292.335938 307.660156 295.695312 306.023438 C 296.363281 305.695312 297.121094 305.328125 297.242188 305.226562 C 297.398438 305.101562 297.632812 305.109375 297.769531 305.257812 C 297.902344 305.402344 297.90625 305.625 297.765625 305.765625 C 297.617188 305.914062 297.21875 306.113281 296.023438 306.695312 C 294.6875 307.347656 291.550781 308.878906 291.371094 309.433594 C 291.261719 310.316406 292.257812 315.105469 292.898438 315.921875 C 293.535156 314.945312 293.996094 312.300781 294.128906 311.324219 C 294.148438 311.164062 294.273438 311.035156 294.433594 311.007812 C 294.597656 310.976562 294.753906 311.054688 294.832031 311.199219 C 295.84375 313.105469 297.886719 316.195312 299.058594 316.378906 C 301.238281 316.722656 303.121094 315.226562 303.140625 315.210938 C 303.300781 315.078125 303.535156 315.105469 303.664062 315.265625 C 303.796875 315.425781 303.773438 315.660156 303.609375 315.789062 C 303.535156 315.855469 301.871094 317.183594 299.730469 317.183594 "/>
<path fill-rule="nonzero" fill="rgb(97.401428%, 64.736938%, 59.631348%)" fill-opacity="1" d="M 236 408.332031 L 236.324219 404.929688 C 235.375 405.128906 234.214844 405.785156 233.5 406.5 C 232.375 407.625 231.375 416.125 231.375 416.125 C 231.375 416.125 230 415.625 227.5 413.5 C 225.460938 411.765625 217.839844 404.035156 215.109375 401.253906 C 214.671875 402.882812 213.550781 406.378906 211.332031 409.332031 C 209.519531 411.75 206.738281 412.703125 204.820312 413.082031 C 207.507812 414.933594 213.054688 418.511719 218.875 420.75 C 225.570312 423.324219 230.8125 424.199219 232.453125 424.429688 C 234.714844 417.410156 236.742188 411.375 237.585938 408.886719 C 236.5625 408.542969 236 408.332031 236 408.332031 "/>
<path fill-rule="nonzero" fill="rgb(70.452881%, 31.385803%, 19.096375%)" fill-opacity="1" d="M 264.75 328.5 C 265 329.25 264.25 330.75 265.75 331.75 C 267.25 332.75 272 332.75 272.5 331.5 C 273 330.25 273 328.5 273 328.5 L 264.75 328.5 "/>
<path fill-rule="nonzero" fill="rgb(92.565918%, 89.76593%, 89.871216%)" fill-opacity="1" d="M 377.257812 122.863281 L 426.265625 131.480469 L 431.113281 23.773438 L 372.589844 19.464844 L 377.257812 122.863281 "/>
<path fill-rule="nonzero" fill="rgb(76.521301%, 70.08667%, 70.819092%)" fill-opacity="1" d="M 426.265625 131.480469 L 428.597656 129.324219 L 433.984375 23.773438 L 431.113281 23.773438 L 426.265625 131.480469 "/>
<path fill-rule="nonzero" fill="rgb(81.518555%, 75.976562%, 76.28479%)" fill-opacity="1" d="M 426.894531 96.160156 C 426.894531 98.019531 425.386719 99.527344 423.527344 99.527344 C 421.667969 99.527344 420.160156 98.019531 420.160156 96.160156 C 420.160156 94.300781 421.667969 92.796875 423.527344 92.796875 C 425.386719 92.796875 426.894531 94.300781 426.894531 96.160156 "/>
<path fill-rule="nonzero" fill="rgb(81.518555%, 75.976562%, 76.28479%)" fill-opacity="1" d="M 408.453125 92.480469 L 391.46875 91.234375 C 388.351562 91.003906 385.398438 91.609375 382.886719 92.8125 L 383.449219 114.785156 L 419.265625 120.441406 L 419.949219 98.578125 C 417.554688 95.210938 413.382812 92.839844 408.453125 92.480469 "/>
<path fill-rule="nonzero" fill="rgb(76.521301%, 70.08667%, 70.819092%)" fill-opacity="1" d="M 383.691406 94.160156 C 386.207031 92.953125 389.15625 92.351562 392.277344 92.578125 L 409.261719 93.824219 C 413.675781 94.148438 417.472656 96.089844 419.9375 98.910156 L 419.949219 98.578125 C 417.554688 95.210938 413.382812 92.839844 408.453125 92.480469 L 391.46875 91.234375 C 388.351562 91.003906 385.398438 91.609375 382.886719 92.8125 L 383.449219 114.785156 L 384.226562 114.90625 L 383.691406 94.160156 "/>
<path fill-rule="nonzero" fill="rgb(81.518555%, 75.976562%, 76.28479%)" fill-opacity="1" d="M 393.910156 82.078125 L 409.542969 83.324219 C 414.148438 83.691406 418.042969 86.128906 420.230469 89.574219 L 421.027344 64.160156 L 421.578125 46.59375 C 421.789062 39.835938 416.683594 34.089844 409.945312 33.507812 L 395.480469 32.265625 C 387.917969 31.613281 381.46875 37.683594 381.664062 45.277344 L 382.710938 86.054688 C 385.480469 83.332031 389.515625 81.730469 393.910156 82.078125 "/>
<path fill-rule="nonzero" fill="rgb(76.521301%, 70.08667%, 70.819092%)" fill-opacity="1" d="M 382.472656 48.238281 C 382.273438 40.648438 388.726562 34.574219 396.289062 35.226562 L 410.753906 36.472656 C 415.660156 36.894531 419.691406 40.0625 421.445312 44.359375 C 420.613281 38.609375 415.925781 34.023438 409.945312 33.507812 L 395.480469 32.265625 C 387.917969 31.613281 381.46875 37.683594 381.664062 45.277344 L 382.710938 86.054688 C 382.9375 85.832031 383.183594 85.632812 383.425781 85.425781 L 382.472656 48.238281 "/>
<path fill-rule="nonzero" fill="rgb(97.703552%, 67.82074%, 16.879272%)" fill-opacity="1" d="M 426.714844 94.007812 C 426.714844 95.867188 425.207031 97.371094 423.347656 97.371094 C 421.488281 97.371094 419.980469 95.867188 419.980469 94.007812 C 419.980469 92.148438 421.488281 90.640625 423.347656 90.640625 C 425.207031 90.640625 426.714844 92.148438 426.714844 94.007812 "/>
<path fill-rule="nonzero" fill="rgb(90.678406%, 52.726746%, 13.438416%)" fill-opacity="1" d="M 421.148438 95.757812 C 421.148438 95.757812 421.417969 97.011719 423.570312 97.101562 C 425.726562 97.191406 426.445312 93.871094 426.085938 93.152344 C 425.726562 92.4375 424.648438 91.449219 423.839844 91.988281 C 423.035156 92.523438 422.765625 93.421875 423.035156 94.050781 C 423.304688 94.679688 423.660156 94.949219 423.035156 95.398438 C 422.40625 95.847656 421.148438 95.757812 421.148438 95.757812 "/>
<path fill-rule="nonzero" fill="rgb(98.234558%, 93.103027%, 42.181396%)" fill-opacity="1" d="M 423.371094 90.953125 C 423.371094 90.953125 422.695312 91.359375 422.292969 91.695312 C 421.890625 92.03125 421.148438 92.300781 421.148438 92.300781 L 420.746094 94.253906 L 420.746094 94.792969 C 420.746094 94.792969 420.40625 94.253906 420.339844 93.648438 C 420.273438 93.042969 420.609375 92.097656 421.148438 91.695312 C 421.6875 91.289062 422.832031 90.820312 423.371094 90.953125 "/>
<path fill-rule="nonzero" fill="rgb(100%, 100%, 100%)" fill-opacity="1" d="M 49.828125 238.648438 L 7.101562 95.9375 L 71.367188 65.777344 L 95.601562 199.875 L 49.828125 238.648438 "/>
<path fill-rule="nonzero" fill="rgb(89.611816%, 45.7901%, 17.575073%)" fill-opacity="1" d="M 52.339844 238.828125 L 105.835938 210.824219 L 83.574219 67.574219 L 81.0625 66.136719 L 7.101562 95.9375 L 49.828125 238.648438 L 52.339844 238.828125 "/>
<path fill-rule="nonzero" fill="rgb(58.702087%, 23.820496%, 15.892029%)" fill-opacity="1" d="M 81.0625 66.136719 L 7.101562 95.9375 L 49.828125 238.648438 L 52.339844 238.828125 L 9.613281 97.371094 L 83.574219 67.574219 L 81.0625 66.136719 "/>
<path fill-rule="nonzero" fill="rgb(70.452881%, 31.385803%, 19.096375%)" fill-opacity="1" d="M 86.351562 144.023438 L 76.035156 84.449219 L 23.976562 104.910156 L 41.171875 165.550781 L 86.351562 144.023438 "/>
<path fill-rule="nonzero" fill="rgb(58.702087%, 23.820496%, 15.892029%)" fill-opacity="1" d="M 83.117188 142.054688 L 73.871094 88.648438 L 27.207031 106.992188 L 42.621094 161.351562 L 83.117188 142.054688 "/>
<path fill-rule="nonzero" fill="rgb(70.452881%, 31.385803%, 19.096375%)" fill-opacity="1" d="M 87.28125 149.390625 L 42.308594 169.550781 L 58.085938 225.1875 L 96.859375 204.722656 L 87.28125 149.390625 "/>
<path fill-rule="nonzero" fill="rgb(58.702087%, 23.820496%, 15.892029%)" fill-opacity="1" d="M 85.414062 153.382812 L 45.179688 171.421875 L 59.292969 221.195312 L 93.984375 202.886719 L 85.414062 153.382812 "/>
<path fill-rule="nonzero" fill="rgb(70.452881%, 31.385803%, 19.096375%)" fill-opacity="1" d="M 93.390625 144.027344 C 93.117188 142.1875 91.625 140.886719 90.054688 141.121094 C 88.488281 141.355469 87.4375 143.035156 87.710938 144.871094 L 87.753906 145.058594 C 84.46875 146.84375 79.472656 149.601562 79.355469 149.902344 C 79.175781 150.351562 79.265625 150.890625 79.714844 151.070312 C 80.023438 151.195312 85.625 148.757812 89.074219 147.230469 C 89.644531 147.664062 90.335938 147.886719 91.046875 147.78125 C 92.617188 147.546875 93.664062 145.867188 93.390625 144.027344 "/>
<path fill-rule="nonzero" fill="rgb(100%, 100%, 100%)" fill-opacity="1" d="M 459.652344 235.957031 L 473.65625 283.886719 L 492.144531 189.28125 L 468.089844 140.097656 L 459.652344 235.957031 "/>
<path fill-rule="nonzero" fill="rgb(70.452881%, 31.385803%, 19.096375%)" fill-opacity="1" d="M 453.371094 184.617188 L 447.269531 283.707031 L 459.652344 235.957031 L 468.089844 140.097656 L 453.371094 184.617188 "/>
<path fill-rule="nonzero" fill="rgb(58.702087%, 23.820496%, 15.892029%)" fill-opacity="1" d="M 492.144531 189.28125 C 492.144531 189.28125 495.734375 154.816406 485.683594 136.507812 C 481.277344 128.480469 476.882812 126.46875 473.476562 127.890625 C 469.113281 129.710938 468.089844 140.097656 468.089844 140.097656 L 492.144531 189.28125 "/>
<path fill-rule="nonzero" fill="rgb(58.702087%, 23.820496%, 15.892029%)" fill-opacity="1" d="M 468.089844 140.097656 L 465.21875 139.378906 L 448.703125 183.71875 L 442.960938 282.628906 L 447.269531 283.707031 L 453.371094 184.617188 L 468.089844 140.097656 "/>
<path fill-rule="nonzero" fill="rgb(54.547119%, 16.891479%, 14.445496%)" fill-opacity="1" d="M 442.960938 282.628906 L 447.269531 283.707031 L 453.371094 184.617188 L 448.703125 183.71875 L 442.960938 282.628906 "/>
<path fill-rule="nonzero" fill="rgb(86.965942%, 90.141296%, 17.875671%)" fill-opacity="1" d="M 445.292969 236.316406 C 445.414062 236.316406 445.535156 236.28125 445.652344 236.257812 L 446.136719 227.933594 C 445.867188 227.792969 445.589844 227.699219 445.292969 227.699219 C 443.804688 227.699219 442.601562 229.628906 442.601562 232.007812 C 442.601562 234.386719 443.804688 236.316406 445.292969 236.316406 "/>
<path fill-rule="nonzero" fill="rgb(75.108337%, 66.746521%, 13.957214%)" fill-opacity="1" d="M 445.292969 236.316406 C 445.414062 236.316406 445.535156 236.28125 445.652344 236.257812 L 445.804688 233.640625 C 445.589844 232.332031 445.308594 231.101562 445.179688 230.976562 C 444.910156 230.707031 443.902344 230.90625 443.296875 231.851562 C 442.816406 232.597656 443.734375 234.914062 444.199219 235.9375 C 444.535156 236.175781 444.902344 236.316406 445.292969 236.316406 "/>
<path fill-rule="nonzero" fill="rgb(100%, 100%, 100%)" fill-opacity="1" d="M 445.449219 228.28125 L 445.316406 228.953125 C 445.316406 228.953125 444.171875 229.089844 443.96875 229.359375 C 443.765625 229.628906 443.09375 230.4375 443.09375 230.4375 C 443.09375 230.4375 443.566406 228.820312 444.035156 228.484375 C 444.507812 228.148438 445.449219 228.28125 445.449219 228.28125 "/>
<g clip-path="url(#clip-8)">
<g clip-path="url(#clip-9)">
<g clip-path="url(#clip-10)">
<path fill-rule="nonzero" fill="url(#linear-pattern-3)" d="M 492.144531 189.28125 L 447.269531 189.28125 L 447.269531 283.886719 L 492.144531 283.886719 Z M 492.144531 189.28125 "/>
</g>
</g>
</g>
<path fill-rule="nonzero" fill="rgb(45.445251%, 72.384644%, 91.009521%)" fill-opacity="1" d="M 473.65625 283.886719 L 448.425781 279.25 L 459.652344 235.957031 L 473.65625 283.886719 "/>
<path fill-rule="nonzero" fill="rgb(100%, 100%, 100%)" fill-opacity="1" d="M 473.65625 283.886719 L 459.652344 235.957031 L 468.089844 140.097656 L 492.144531 189.28125 L 473.65625 283.886719 "/>
<path fill-rule="nonzero" fill="rgb(70.452881%, 31.385803%, 19.096375%)" fill-opacity="1" d="M 273.320312 92.164062 C 273.320312 92.164062 272.242188 94.320312 272.242188 95.667969 C 272.242188 97.011719 277.628906 207.683594 277.898438 218.453125 C 278.167969 229.226562 279.242188 240.804688 279.242188 240.804688 C 279.242188 240.804688 281.128906 242.417969 282.742188 242.417969 C 284.359375 242.417969 285.976562 239.1875 285.976562 239.1875 L 284.898438 92.972656 C 284.898438 92.972656 279.511719 88.933594 273.320312 92.164062 "/>
<path fill-rule="nonzero" fill="rgb(70.452881%, 31.385803%, 19.096375%)" fill-opacity="1" d="M 305.902344 109.667969 L 301.324219 107.515625 C 301.324219 107.515625 290.386719 111.375 285.046875 113.253906 L 285.226562 137.585938 L 302.9375 132.019531 L 311.285156 119.09375 L 305.902344 109.667969 "/>
<path fill-rule="nonzero" fill="rgb(58.702087%, 23.820496%, 15.892029%)" fill-opacity="1" d="M 272.4375 100.105469 L 267.394531 97.011719 L 250.433594 104.015625 C 250.433594 104.015625 262.550781 120.976562 263.355469 121.246094 C 263.933594 121.441406 270.144531 124.105469 273.644531 125.613281 C 273.113281 114.484375 272.675781 105.257812 272.4375 100.105469 "/>
<path fill-rule="nonzero" fill="rgb(70.452881%, 31.385803%, 19.096375%)" fill-opacity="1" d="M 321.789062 183.449219 L 312.09375 173.753906 L 285.480469 171.964844 L 285.644531 194.207031 L 312.363281 197.988281 L 322.863281 188.835938 L 321.789062 183.449219 "/>
<path fill-rule="nonzero" fill="rgb(70.452881%, 31.385803%, 19.096375%)" fill-opacity="1" d="M 273.789062 128.644531 L 247.738281 130.941406 L 237.238281 144.675781 L 239.390625 147.90625 L 253.664062 154.367188 L 274.769531 149.28125 C 274.429688 142.121094 274.097656 135.113281 273.789062 128.644531 "/>
<path fill-rule="nonzero" fill="rgb(58.702087%, 23.820496%, 15.892029%)" fill-opacity="1" d="M 305.09375 110.476562 C 305.09375 110.476562 290.382812 115.050781 285.074219 116.8125 L 285.226562 137.585938 L 302.9375 132.019531 L 310.121094 118.914062 L 305.09375 110.476562 "/>
<path fill-rule="nonzero" fill="rgb(70.452881%, 31.385803%, 19.096375%)" fill-opacity="1" d="M 265.960938 98.988281 L 251.058594 104.371094 L 263.355469 121.246094 C 263.933594 121.441406 270.144531 124.105469 273.644531 125.613281 C 273.207031 116.410156 272.832031 108.515625 272.578125 103.144531 C 270.546875 101.929688 265.960938 98.988281 265.960938 98.988281 "/>
<path fill-rule="nonzero" fill="rgb(58.702087%, 23.820496%, 15.892029%)" fill-opacity="1" d="M 249.984375 132.914062 L 239.929688 147.097656 L 253.664062 154.367188 L 274.769531 149.28125 C 274.457031 142.714844 274.152344 136.296875 273.867188 130.28125 L 249.984375 132.914062 "/>
<path fill-rule="nonzero" fill="rgb(58.702087%, 23.820496%, 15.892029%)" fill-opacity="1" d="M 311.015625 176.71875 L 285.5 174.632812 L 285.644531 194.207031 L 312.363281 197.988281 L 321.789062 188.566406 L 311.015625 176.71875 "/>
<path fill-rule="nonzero" fill="rgb(58.702087%, 23.820496%, 15.892029%)" fill-opacity="1" d="M 285.976562 239.1875 L 284.949219 99.734375 L 281.757812 102.039062 C 281.757812 102.039062 282.835938 154.816406 281.398438 159.484375 C 280.675781 161.828125 277.875 161.09375 275.265625 159.78125 C 276.542969 186.914062 277.773438 213.453125 277.898438 218.453125 C 278.167969 229.226562 279.242188 240.804688 279.242188 240.804688 C 279.242188 240.804688 281.128906 242.417969 282.742188 242.417969 C 284.359375 242.417969 285.976562 239.1875 285.976562 239.1875 "/>
<path fill-rule="nonzero" fill="rgb(54.547119%, 16.891479%, 14.445496%)" fill-opacity="1" d="M 274.398438 97.910156 C 274.21875 98.449219 273.679688 110.835938 274.039062 113.707031 C 274.398438 116.578125 274.398438 117.65625 274.757812 120.171875 C 275.113281 122.683594 275.472656 134.351562 275.472656 134.351562 C 275.472656 134.351562 276.191406 121.066406 276.011719 118.914062 C 275.832031 116.761719 275.113281 113.527344 274.933594 112.09375 C 274.757812 110.65625 274.398438 97.910156 274.398438 97.910156 "/>
<path fill-rule="nonzero" fill="rgb(54.547119%, 16.891479%, 14.445496%)" fill-opacity="1" d="M 276.191406 93.601562 C 276.191406 94.140625 276.191406 103.65625 276.371094 105.269531 C 276.550781 106.886719 277.269531 110.835938 277.269531 111.554688 C 277.269531 112.273438 277.089844 114.425781 277.089844 114.425781 C 277.089844 114.425781 277.988281 108.503906 277.628906 105.628906 C 277.269531 102.757812 277.089844 102.21875 277.269531 101.140625 C 277.449219 100.066406 277.808594 94.5 277.808594 94.5 L 276.191406 93.601562 "/>
<path fill-rule="nonzero" fill="rgb(54.547119%, 16.891479%, 14.445496%)" fill-opacity="1" d="M 279.421875 120.890625 C 279.421875 121.425781 278.347656 135.25 278.886719 137.761719 C 279.421875 140.277344 279.601562 146.558594 279.78125 147.636719 C 279.960938 148.714844 279.78125 154.996094 279.78125 154.996094 C 279.78125 154.996094 281.039062 147.277344 280.5 142.25 C 279.960938 137.222656 280.140625 136.863281 280.140625 135.609375 C 280.140625 134.351562 279.421875 120.890625 279.421875 120.890625 "/>
<path fill-rule="nonzero" fill="rgb(54.547119%, 16.891479%, 14.445496%)" fill-opacity="1" d="M 282.117188 192.515625 C 282.117188 193.054688 281.398438 206.875 281.757812 208.851562 C 282.117188 210.824219 283.011719 216.570312 283.011719 218.183594 C 283.011719 219.800781 281.757812 226.261719 282.296875 227.519531 C 282.835938 228.777344 284.269531 233.621094 284.449219 233.085938 C 284.628906 232.546875 285.167969 225.546875 285.167969 225.546875 C 285.167969 225.546875 284.269531 229.136719 283.910156 228.597656 C 283.550781 228.058594 283.371094 226.980469 283.191406 225.902344 C 283.011719 224.828125 284.449219 219.261719 284.089844 216.570312 C 283.730469 213.875 283.191406 209.746094 282.835938 208.492188 C 282.476562 207.234375 283.191406 193.410156 283.191406 193.410156 L 284.628906 196.464844 C 284.628906 196.464844 283.910156 189.464844 283.191406 190 C 282.476562 190.539062 282.117188 192.515625 282.117188 192.515625 "/>
<path fill-rule="nonzero" fill="rgb(54.547119%, 16.891479%, 14.445496%)" fill-opacity="1" d="M 277.449219 192.871094 C 277.449219 192.871094 279.960938 199.695312 279.242188 202.566406 C 278.527344 205.4375 277.988281 207.953125 277.988281 207.953125 C 277.988281 207.953125 278.527344 201.667969 278.347656 200.234375 C 278.167969 198.796875 277.449219 192.871094 277.449219 192.871094 "/>
<path fill-rule="nonzero" fill="rgb(38.346863%, 21.960449%, 20.288086%)" fill-opacity="1" d="M 278.527344 220.699219 C 278.703125 221.414062 280.320312 229.3125 280.140625 230.390625 C 279.960938 231.46875 279.601562 234.878906 279.78125 235.957031 C 279.960938 237.03125 280.679688 239.367188 280.679688 239.367188 C 280.679688 239.367188 279.0625 235.597656 278.886719 234.519531 C 278.703125 233.441406 279.421875 230.390625 279.0625 228.953125 C 278.703125 227.519531 278.527344 220.699219 278.527344 220.699219 "/>
<path fill-rule="nonzero" fill="rgb(54.547119%, 16.891479%, 14.445496%)" fill-opacity="1" d="M 273.589844 92.570312 C 273.589844 92.570312 274.261719 95.667969 277.761719 95.261719 C 281.261719 94.859375 284.089844 93.242188 284.089844 93.242188 C 284.089844 93.242188 280.859375 91.222656 278.570312 91.492188 C 276.28125 91.761719 273.589844 92.570312 273.589844 92.570312 "/>
<path fill-rule="nonzero" fill="rgb(70.452881%, 31.385803%, 19.096375%)" fill-opacity="1" d="M 278.167969 165.40625 L 281.398438 166.484375 L 281.667969 186.140625 L 258.777344 198.796875 L 245.316406 193.144531 L 254.738281 177.257812 L 278.167969 165.40625 "/>
<path fill-rule="nonzero" fill="rgb(58.702087%, 23.820496%, 15.892029%)" fill-opacity="1" d="M 281.398438 166.484375 C 281.398438 166.484375 258.960938 177.972656 258.421875 178.511719 C 257.882812 179.050781 250.164062 193.949219 250.164062 193.949219 L 258.777344 198.796875 L 281.667969 186.140625 L 281.398438 166.484375 "/>
<path fill-rule="nonzero" fill="rgb(100%, 100%, 100%)" fill-opacity="1" d="M 159.6875 13.003906 L 217.582031 6 L 221.082031 106.707031 L 176.921875 116.402344 L 159.6875 13.003906 "/>
<path fill-rule="nonzero" fill="rgb(23.977661%, 12.823486%, 13.235474%)" fill-opacity="1" d="M 189.847656 24.847656 L 201.425781 144.40625 L 197.925781 145.214844 L 175.304688 116.9375 L 157.195312 13.269531 L 159.6875 13.003906 L 189.847656 24.847656 "/>
<path fill-rule="nonzero" fill="rgb(38.346863%, 21.960449%, 20.288086%)" fill-opacity="1" d="M 186.078125 26.195312 L 197.925781 145.214844 L 201.425781 144.40625 L 189.847656 24.847656 L 159.6875 13.003906 L 157.265625 13.269531 L 186.078125 26.195312 "/>
<path fill-rule="nonzero" fill="rgb(16.586304%, 9.335327%, 9.490967%)" fill-opacity="1" d="M 189.074219 89.265625 L 170.523438 77.324219 L 175.851562 107.953125 L 193.078125 129.484375 L 189.074219 89.265625 "/>
<path fill-rule="nonzero" fill="rgb(16.586304%, 9.335327%, 9.490967%)" fill-opacity="1" d="M 187.925781 77.730469 L 184.054688 38.84375 L 162.113281 29 L 168.90625 68.035156 L 187.925781 77.730469 "/>
<path fill-rule="nonzero" fill="rgb(12.493896%, 8.111572%, 8.106995%)" fill-opacity="1" d="M 187.875 91.019531 L 171.261719 80.757812 L 176.03125 107.078125 L 191.460938 125.589844 L 187.875 91.019531 "/>
<path fill-rule="nonzero" fill="rgb(12.493896%, 8.111572%, 8.106995%)" fill-opacity="1" d="M 186.847656 76.003906 L 183.378906 41.171875 L 163.726562 32.355469 L 169.8125 67.320312 L 186.847656 76.003906 "/>
<path fill-rule="nonzero" fill="rgb(56.808472%, 51.811218%, 69.969177%)" fill-opacity="1" d="M 186.257812 80.589844 C 186.257812 80.589844 188.140625 80.140625 188.859375 80.679688 C 189.578125 81.214844 190.117188 84.359375 189.578125 84.984375 C 189.039062 85.613281 187.332031 85.792969 186.882812 85.613281 C 186.4375 85.433594 185.179688 84.359375 184.910156 83.640625 C 184.640625 82.921875 184.640625 80.769531 186.257812 80.589844 "/>
<path fill-rule="nonzero" fill="rgb(56.808472%, 51.811218%, 69.969177%)" fill-opacity="1" d="M 184.910156 83.640625 C 184.730469 83.164062 184.683594 82.070312 185.128906 81.328125 C 183.578125 80.457031 181.429688 79.34375 180.871094 79.511719 C 179.972656 79.78125 180.152344 82.023438 180.511719 81.933594 C 180.871094 81.84375 180.871094 80.945312 181.140625 81.035156 C 181.410156 81.128906 182.84375 83.460938 184.28125 84.269531 C 184.773438 84.546875 185.238281 84.636719 185.644531 84.644531 C 185.316406 84.308594 185.023438 83.941406 184.910156 83.640625 "/>
<path fill-rule="nonzero" fill="rgb(42.993164%, 37.406921%, 55.744934%)" fill-opacity="1" d="M 185.269531 83.683594 C 185.269531 83.683594 186.523438 85.03125 187.019531 84.628906 C 187.511719 84.222656 186.972656 81.710938 187.109375 81.710938 C 187.242188 81.710938 188.1875 82.023438 188.320312 81.890625 C 188.453125 81.753906 188.859375 81.128906 189.039062 81.394531 C 189.21875 81.664062 189.890625 84.628906 189.578125 84.984375 C 189.261719 85.34375 187.46875 85.523438 186.972656 85.300781 C 186.480469 85.074219 185.671875 84.3125 185.269531 83.683594 "/>
<path fill-rule="nonzero" fill="rgb(42.993164%, 37.406921%, 55.744934%)" fill-opacity="1" d="M 185.644531 84.644531 C 185.316406 84.308594 185.023438 83.941406 184.910156 83.640625 C 184.730469 83.164062 184.683594 82.070312 185.128906 81.328125 C 184.949219 81.226562 184.761719 81.121094 184.566406 81.015625 C 184.453125 81.714844 184.210938 82.945312 183.921875 83.011719 C 183.519531 83.101562 181.5 80.40625 181.5 80.40625 C 181.5 80.40625 181.050781 80.453125 180.824219 80.453125 C 180.675781 80.453125 180.851562 79.882812 180.980469 79.507812 L 180.871094 79.511719 C 179.972656 79.78125 180.152344 82.023438 180.511719 81.933594 C 180.871094 81.84375 180.871094 80.945312 181.140625 81.035156 C 181.410156 81.128906 182.84375 83.460938 184.28125 84.269531 C 184.773438 84.546875 185.238281 84.636719 185.644531 84.644531 "/>
<path fill-rule="nonzero" fill="rgb(100%, 100%, 100%)" fill-opacity="1" d="M 185.179688 82.472656 C 185.179688 82.472656 185.222656 81.441406 185.761719 81.128906 C 186.300781 80.8125 187.199219 80.632812 187.558594 80.589844 C 187.914062 80.542969 188.636719 80.679688 188.589844 80.8125 C 188.546875 80.945312 188.230469 81.082031 188.097656 81.035156 C 187.960938 80.992188 187.691406 80.8125 187.378906 80.855469 C 187.0625 80.902344 185.988281 81.128906 185.808594 81.394531 C 185.628906 81.664062 185.359375 82.429688 185.359375 82.832031 C 185.359375 83.234375 185.582031 83.503906 185.582031 83.503906 C 185.582031 83.503906 185.132812 83.28125 185.179688 82.472656 "/>
<path fill-rule="nonzero" fill="rgb(100%, 100%, 100%)" fill-opacity="1" d="M 181.320312 79.960938 C 181.320312 79.960938 182.308594 80.363281 182.753906 80.589844 C 183.203125 80.8125 184.101562 81.214844 184.101562 81.214844 C 184.101562 81.214844 182.933594 80.410156 182.621094 80.230469 C 182.308594 80.050781 181.320312 79.960938 181.320312 79.960938 "/>
<g clip-path="url(#clip-11)">
<g clip-path="url(#clip-12)">
<g clip-path="url(#clip-13)">
<path fill-rule="nonzero" fill="url(#linear-pattern-4)" d="M 237.777344 96.519531 L 220.726562 96.519531 L 220.726562 131.558594 L 237.777344 131.558594 Z M 237.777344 96.519531 "/>
</g>
</g>
</g>
<path fill-rule="nonzero" fill="rgb(24.562073%, 42.840576%, 69.338989%)" fill-opacity="1" d="M 232.148438 96.519531 L 220.726562 96.519531 L 217.582031 6 L 232.148438 96.519531 "/>
<path fill-rule="nonzero" fill="rgb(45.445251%, 72.384644%, 91.009521%)" fill-opacity="1" d="M 201.425781 144.40625 L 198.257812 111.71875 L 221.082031 106.707031 L 237.558594 131.558594 L 201.425781 144.40625 "/>
<path fill-rule="nonzero" fill="rgb(100%, 100%, 100%)" fill-opacity="1" d="M 198.257812 111.71875 L 189.847656 24.847656 L 159.6875 13.003906 L 217.582031 6 L 220.726562 96.519531 L 221.082031 106.707031 L 198.257812 111.71875 "/>
<path fill-rule="nonzero" fill="rgb(16.586304%, 9.335327%, 9.490967%)" fill-opacity="1" d="M 123.605469 407.210938 L 120.554688 410.441406 L 57.367188 389.261719 L 19.308594 242.777344 L 25.054688 240.625 L 109.785156 260.371094 L 123.605469 407.210938 "/>
<path fill-rule="nonzero" fill="rgb(38.346863%, 21.960449%, 20.288086%)" fill-opacity="1" d="M 120.554688 410.441406 L 104.757812 262.882812 L 109.785156 260.371094 L 123.605469 407.210938 L 120.554688 410.441406 "/>
<path fill-rule="nonzero" fill="rgb(23.977661%, 12.823486%, 13.235474%)" fill-opacity="1" d="M 104.757812 262.882812 L 109.785156 260.371094 L 25.054688 240.625 L 19.308594 242.777344 L 104.757812 262.882812 "/>
<path fill-rule="nonzero" fill="rgb(100%, 100%, 100%)" fill-opacity="1" d="M 19.308594 242.777344 L 93.984375 270.421875 L 112.65625 419.058594 L 57.367188 389.261719 L 19.308594 242.777344 "/>
<path fill-rule="nonzero" fill="rgb(45.445251%, 72.384644%, 91.009521%)" fill-opacity="1" d="M 112.65625 419.058594 L 111.179688 407.300781 L 120.554688 410.441406 L 112.65625 419.058594 "/>
<path fill-rule="nonzero" fill="rgb(41.065979%, 23.931885%, 26.480103%)" fill-opacity="1" d="M 120.554688 410.441406 L 111.179688 407.300781 L 93.984375 270.421875 L 19.308594 242.777344 L 104.757812 262.882812 L 120.554688 410.441406 "/>
<path fill-rule="nonzero" fill="rgb(100%, 100%, 100%)" fill-opacity="1" d="M 112.65625 419.058594 L 93.984375 270.421875 L 19.308594 242.777344 L 93.984375 270.421875 L 111.179688 407.300781 L 112.65625 419.058594 "/>
<path fill-rule="nonzero" fill="rgb(56.808472%, 51.811218%, 69.969177%)" fill-opacity="1" d="M 93.507812 142.5 C 93.78125 144.339844 92.730469 146.019531 91.160156 146.253906 C 89.59375 146.484375 88.097656 145.183594 87.824219 143.347656 C 87.550781 141.507812 88.601562 139.828125 90.167969 139.59375 C 91.738281 139.359375 93.234375 140.664062 93.507812 142.5 "/>
<path fill-rule="nonzero" fill="rgb(56.808472%, 51.811218%, 69.969177%)" fill-opacity="1" d="M 87.867188 143.53125 C 84.585938 145.316406 79.589844 148.074219 79.46875 148.378906 C 79.289062 148.824219 79.378906 149.363281 79.828125 149.542969 C 80.136719 149.667969 85.738281 147.230469 89.1875 145.703125 C 88.539062 145.21875 88.050781 144.453125 87.867188 143.53125 "/>
<path fill-rule="nonzero" fill="rgb(42.993164%, 37.406921%, 55.744934%)" fill-opacity="1" d="M 88.0625 142.609375 C 88.019531 142.742188 88.285156 143.730469 88.464844 144.316406 C 88.644531 144.898438 89.992188 145.796875 90.441406 145.929688 C 90.890625 146.066406 91.472656 145.976562 92.011719 145.570312 C 92.550781 145.167969 93.042969 144.179688 93.179688 143.777344 C 93.3125 143.371094 93.179688 142.25 93.179688 142.25 C 93.179688 142.25 92.414062 142.566406 92.234375 143.101562 C 92.054688 143.640625 92.234375 144.539062 91.339844 144.855469 C 90.441406 145.167969 89.230469 144.585938 88.824219 144.179688 C 88.421875 143.777344 88.0625 142.609375 88.0625 142.609375 "/>
<path fill-rule="nonzero" fill="rgb(100%, 100%, 100%)" fill-opacity="1" d="M 89.050781 140.859375 C 88.949219 141.019531 88.464844 141.757812 88.464844 141.9375 C 88.464844 142.117188 88.824219 142.878906 88.824219 142.878906 C 88.824219 142.878906 89.363281 141.578125 89.8125 141.21875 C 90.261719 140.859375 91.203125 140.726562 91.203125 140.726562 L 90.574219 140.140625 C 90.574219 140.140625 89.363281 140.367188 89.050781 140.859375 "/>
<path fill-rule="nonzero" fill="rgb(42.993164%, 37.406921%, 55.744934%)" fill-opacity="1" d="M 88.683594 145.238281 C 86.003906 146.476562 81.59375 148.492188 81.21875 148.554688 C 80.679688 148.644531 80.546875 148.332031 80.546875 148.332031 L 79.738281 148.554688 C 79.597656 148.78125 79.71875 149.234375 79.832031 149.542969 C 80.167969 149.652344 85.75 147.226562 89.1875 145.703125 C 89.007812 145.570312 88.839844 145.414062 88.683594 145.238281 "/>
<path fill-rule="nonzero" fill="rgb(24.562073%, 42.840576%, 69.338989%)" fill-opacity="1" d="M 72.085938 69.753906 L 71.367188 65.777344 L 81.0625 66.136719 L 72.085938 69.753906 "/>
<path fill-rule="nonzero" fill="rgb(100%, 100%, 100%)" fill-opacity="1" d="M 7.101562 95.9375 L 71.367188 65.777344 L 72.085938 69.753906 L 7.101562 95.9375 "/>
</svg>
