<?xml version="1.0" encoding="utf-8"?>
<!-- Generator: Adobe Illustrator 27.6.1, SVG Export Plug-In . SVG Version: 6.00 Build 0)  -->
<svg version="1.1" id="Emojis" xmlns="http://www.w3.org/2000/svg" xmlns:xlink="http://www.w3.org/1999/xlink" x="0px" y="0px"
	 viewBox="0 0 822 652" style="enable-background:new 0 0 822 652;" xml:space="preserve">
<style type="text/css">
	.st0{fill:#F5F0DC;}
	.st1{fill:#F0A54E;}
	.st2{fill:#F5EEDC;}
	.st3{fill:#1E1D1F;}
	.st4{fill:#1F1D1D;}
	.st5{fill:#83CBD9;}
	.st6{fill:#FFE9D1;}
	.st7{fill:#EA9172;}
	.st8{fill:#FFF4E7;}
	.st9{clip-path:url(#SVGID_00000121960862758537490230000000245302522037926822_);}
	.st10{clip-path:url(#SVGID_00000034773082390327818130000012091245454480980651_);}
	.st11{fill:#EB96E0;}
	.st12{fill:#1B191A;}
	.st13{fill:#E6CEFC;}
	.st14{fill:#82A0E6;}
	.st15{fill:#F4FCFD;}
	.st16{fill:#1B191B;}
	.st17{fill:#AEDDF0;}
	.st18{fill:#81BE7D;}
	.st19{fill:#F3E5BB;}
	.st20{fill:#141312;}
	.st21{fill:#F8B7DA;}
	.st22{fill:#E14A4A;}
	.st23{fill:#2D1E1C;}
	.st24{clip-path:url(#SVGID_00000126288802443956147680000013814179400877579408_);}
	.st25{fill:#F4EEE1;}
	.st26{fill:#E97171;}
	.st27{fill:#F6EEE6;}
	.st28{fill:#22201F;}
	.st29{fill:#E9D671;}
</style>
<g id="Illustration">
	<rect class="st0" width="822" height="652"/>
	<g id="Layer-2">
		<g>
			<g>
				<path class="st1" d="M136.4,124.7c0-15.7,12.8-28.5,28.5-28.5H239c15.7,0,28.5,12.8,28.5,28.5v65c0,15.7-12.8,28.5-28.5,28.5
					h-74.1c-15.7,0-28.5-12.8-28.5-28.5V124.7z"/>
			</g>
			<g>
				<path class="st2" d="M151.1,137.1c0-7.7,6.7-13.9,15-13.9c8.3,0,15,6.2,15,13.9c0,7.7-6.7,13.9-15,13.9
					C157.9,151.1,151.1,144.8,151.1,137.1z"/>
			</g>
			<g>
				<path class="st2" d="M201.9,126.1c0-8.1,6.6-14.7,14.7-14.7c8.1,0,14.7,6.6,14.7,14.7s-6.6,14.7-14.7,14.7
					C208.5,140.8,201.9,134.2,201.9,126.1z"/>
			</g>
			<g>
				<path class="st3" d="M209.9,126.2c0-3.9,3.2-7,7-7c3.9,0,7,3.1,7,7c0,3.9-3.2,7-7,7C213.1,133.2,209.9,130.1,209.9,126.2z"/>
			</g>
			<g>
				<path class="st3" d="M159.4,137.6c0-4.2,3.4-7.6,7.5-7.6s7.5,3.4,7.5,7.6c0,4.2-3.4,7.6-7.5,7.6S159.4,141.8,159.4,137.6z"/>
			</g>
			<g>
				<path class="st3" d="M171.5,163.5l55.3-11.4c0,0,10.8,26.6-20.9,33.2C174.1,191.9,171.5,163.5,171.5,163.5z"/>
			</g>
			<g>
				<path class="st2" d="M181.4,161.3l3.4,6l32.8-6l0.2-7.5L181.4,161.3z"/>
			</g>
			<g>
				<path class="st4" d="M181.1,103.5c-0.9,0-1.6-0.7-1.6-1.6c0-2.4,1.5-5.1,2.9-7.8c0.6-1.2,1.3-2.4,1.8-3.5
					c-3.5-2.4-4.5-6.5-4.2-10.3c0.4-3.7,2.1-7.6,4.8-7.4c3.7,0.2,3.7,7.2,3.7,9.6c0,0.5,0,0.9,0,1.3c0,1.8,0,3.1-0.4,5.2
					c0.5,0.2,1,0.3,1.6,0.4c4.6,0.7,7.8-2,9.7-4.3c-1-2.6-1.6-5.4-1.3-7.6c0.4-2.6,1.9-3.7,3.1-4.2c2.2-0.9,3.4,0.2,3.9,0.7
					c1.9,2.1,0.8,6.5-1,10c-0.3,0.5-0.6,1-0.9,1.5c1.2,2.6,2.7,4.8,3.6,5.5c2.5,2,4.6,2.4,6.5,1.2c1.1-0.6,2-1.6,2.8-2.8
					c-0.6-1.9-0.9-3.9-0.8-5.6c0.2-3.3,2-5.7,4.9-6.6c0.8-0.3,1.7,0.1,2.2,0.8c0.9,1.6-0.2,7.2-2.6,11.7c1.1,2.6,2.8,4.9,4.3,5.7
					c0.8,0.4,1.1,1.4,0.7,2.2c-0.4,0.8-1.4,1.1-2.2,0.7c-1.9-0.9-3.7-3-5-5.4c-0.4,0.5-0.8,0.9-1.3,1.3c-2,1.7-6,3.8-11.5-0.6
					c-1.1-0.9-2.5-2.8-3.8-5.2c-3.2,3.3-7.3,4.9-11.6,4.3c-0.8-0.1-1.5-0.3-2.2-0.5c-0.5,1.2-1.2,2.4-1.8,3.6
					c-1.2,2.2-2.6,4.7-2.6,6.3C182.7,102.7,182,103.5,181.1,103.5z M184.6,76.4c-0.7,1-1.8,4-1.2,7.1c0.3,1.5,0.9,2.7,1.8,3.7
					c0.2-1.1,0.2-2,0.2-3.4c0-0.4,0-0.8,0-1.3C185.3,78.8,184.9,77.1,184.6,76.4z M219,81.7c-0.3,0.6-0.5,1.3-0.6,2.1c0,0,0,0,0,0.1
					C218.7,83.1,218.9,82.4,219,81.7z M202.7,76.1c-0.1,0-0.2,0-0.3,0.1c-0.4,0.2-0.9,0.5-1.1,1.6c-0.1,1,0,2.2,0.3,3.5
					C202.8,78.8,202.9,76.7,202.7,76.1z"/>
			</g>
		</g>
		<g>
			<g>
				<path class="st5" d="M340.6,120.7c0-15.7,12.8-28.5,28.5-28.5h74.1c15.7,0,28.5,12.8,28.5,28.5v65c0,15.7-12.8,28.5-28.5,28.5
					h-74.1c-15.7,0-28.5-12.8-28.5-28.5V120.7z"/>
			</g>
			<g>
				<path class="st4" d="M357.6,115.9c-0.3-2.7,1.8-5,4.4-5l87.6,0.9c3.2,0,5.6,2.8,5.2,6l-2.1,16.9c-0.4,3.5-3.4,6.2-7,6.2l-25,0.1
					c-2.1,0-4-1.1-4.9-2.9l-6-11.2c-1.2-2.2-4.3-2.3-5.5-0.1l-7,11.8c-1.1,1.8-3,2.9-5.1,2.8l-23.5-0.2c-4.6,0-8.4-3.4-9-8
					L357.6,115.9z"/>
			</g>
			<g>
				<path class="st4" d="M406.7,167.4c-9.6,0-16.6-7.3-16.9-7.6c-0.6-0.7-0.6-1.7,0.1-2.3c0.7-0.6,1.7-0.6,2.3,0.1
					c0.1,0.1,6.3,6.5,14.5,6.5c0,0,0.1,0,0.1,0c5,0,9.7-2.4,14.1-7.2c0.6-0.7,1.6-0.7,2.3-0.1c0.7,0.6,0.7,1.6,0.1,2.3
					C418.2,164.6,412.7,167.4,406.7,167.4C406.8,167.4,406.7,167.4,406.7,167.4z"/>
			</g>
			<g>
				<path class="st6" d="M442.7,117.2h4.3v4.4h-4.3V117.2z"/>
			</g>
			<g>
				<path class="st6" d="M392.5,117.3h4.3v4.4h-4.3V117.3z"/>
			</g>
			<g>
				<path class="st4" d="M398.6,91.6c-2.9,0-5.5-2.8-8.7-9.2c-0.4-0.8-0.1-1.8,0.7-2.2c0.8-0.4,1.8-0.1,2.2,0.7
					c3.3,6.7,5.2,7.4,5.8,7.4c0,0,0,0,0,0c1.6,0,3.8-4.4,5.7-8.3c0.4-0.8,0.8-1.6,1.2-2.4c0.4-0.8,1.4-1.1,2.2-0.7
					c0.8,0.4,1.1,1.4,0.7,2.2c-0.4,0.8-0.8,1.6-1.1,2.3C404.5,87.2,402.3,91.6,398.6,91.6C398.7,91.6,398.6,91.6,398.6,91.6z"/>
			</g>
		</g>
		<g>
			<g>
				<path class="st7" d="M551.6,113.8c0-15.7,12.8-28.5,28.5-28.5h74.1c15.7,0,28.5,12.8,28.5,28.5v65c0,15.7-12.8,28.5-28.5,28.5
					h-74.1c-15.7,0-28.5-12.8-28.5-28.5V113.8z"/>
			</g>
			<g>
				<g>
					<g id="Fill">
						<path class="st8" d="M579.2,147c0,4.9,1.7,9.6,4.8,13c3,3.5,7.2,5.4,11.5,5.4s8.4-1.9,11.5-5.4c3-3.5,4.8-8.1,4.8-13h-16.2
							H579.2z"/>
					</g>
				</g>
				<g>
					<defs>
						<path id="SVGID_1_" d="M579.2,147c0,4.9,1.7,9.6,4.8,13c3,3.5,7.2,5.4,11.5,5.4s8.4-1.9,11.5-5.4c3-3.5,4.8-8.1,4.8-13h-16.2
							H579.2z"/>
					</defs>
					<clipPath id="SVGID_00000016767465532686786230000000687089443733585340_">
						<use xlink:href="#SVGID_1_"  style="overflow:visible;"/>
					</clipPath>
					<g style="clip-path:url(#SVGID_00000016767465532686786230000000687089443733585340_);">
						<g>
							<path class="st4" d="M590.9,143.4l17.6,21.4l10.6-23.3L590.9,143.4z"/>
						</g>
					</g>
				</g>
			</g>
			<g>
				<g>
					<g id="Fill_2">
						<path class="st8" d="M623.2,146.7c0,4.9,1.7,9.6,4.8,13c3,3.5,7.2,5.4,11.5,5.4c4.3,0,8.4-1.9,11.5-5.4c3-3.5,4.8-8.1,4.8-13
							h-16.2H623.2z"/>
					</g>
				</g>
				<g>
					<defs>
						<path id="SVGID_00000144311721104957211160000003200554909799536551_" d="M623.2,146.7c0,4.9,1.7,9.6,4.8,13
							c3,3.5,7.2,5.4,11.5,5.4c4.3,0,8.4-1.9,11.5-5.4c3-3.5,4.8-8.1,4.8-13h-16.2H623.2z"/>
					</defs>
					<clipPath id="SVGID_00000051341867046458132870000006522725811501131194_">
						<use xlink:href="#SVGID_00000144311721104957211160000003200554909799536551_"  style="overflow:visible;"/>
					</clipPath>
					<g style="clip-path:url(#SVGID_00000051341867046458132870000006522725811501131194_);">
						<g>
							<path class="st4" d="M634.9,143.2l17.6,21.4l10.6-23.3L634.9,143.2z"/>
						</g>
					</g>
				</g>
			</g>
			<g>
				<path class="st4" d="M573.4,148.8l-3.1-0.9c0.1-0.2,6.1-20.7,24.2-18.9l-0.3,3.2C578.8,130.7,573.5,148.6,573.4,148.8z"/>
			</g>
			<g>
				<path class="st4" d="M662.2,146.4c-1.7-18-21.3-16.6-22.2-16.6l-0.3-3.2c0.2,0,23.7-1.8,25.7,19.5L662.2,146.4z"/>
			</g>
			<g>
				<path class="st4" d="M614.4,187.1c0-3,1.3-5.8,3.7-7.9c2.4-2.1,5.6-3.3,9-3.3c3.4,0,6.6,1.2,9,3.3c2.4,2.1,3.7,4.9,3.7,7.9h-3.2
					c0-2.2-1-4.3-2.8-5.9c-1.8-1.6-4.2-2.4-6.7-2.4c-2.5,0-4.9,0.9-6.7,2.4c-1.8,1.6-2.8,3.7-2.8,5.9H614.4z"/>
			</g>
			<g>
				<path class="st4" d="M613.5,111.8c-3.4,0-6.7-2.1-9.3-5.9c-3.7-5.3-6.1-14.3-3.5-19.5c0.4-0.8,1.4-1.1,2.2-0.7
					c0.8,0.4,1.1,1.4,0.7,2.2c-1.8,3.6-0.2,11.1,3.3,16.2c1.3,1.8,3.9,4.8,7.3,4.5c1.4-0.2,2.6-1.2,3.6-2.5
					c-1.6-2.9-2.7-6.5-2.5-9.6c0.1-3.4,1.7-5.9,4.5-6.8c1.2-0.4,2.5-0.1,3.3,0.7c2.1,2.2,1.6,7.9,0,12.5c-0.4,1.1-0.9,2.2-1.4,3.1
					c0.6,0.9,1.3,1.5,1.9,1.8c4.3,1.8,7.3-1,8.8-2.9c-1.2-2.5-2.3-5.8-1.4-7.8c0.5-1.3,1.7-2,3.3-2c1.5,0,2.7,0.8,3.3,2.2
					c0.8,2,0.2,5.1-1.4,7.9c0.2,0.3,0.4,0.6,0.6,0.8c2.1,2.2,4,2.9,5.4,2.4c4.1-1.7,6.3-13.7,6.3-19.7c0-0.9,0.7-1.6,1.6-1.6
					s1.6,0.7,1.6,1.6c0,4.1-1.4,19.8-8.3,22.7c-2.7,1.1-5.7,0.1-8.9-3.1c-0.1-0.1-0.2-0.2-0.3-0.3c-0.2,0.2-0.4,0.4-0.6,0.6
					c-3.2,3.2-7.3,4-11.3,2.3c-0.9-0.4-1.7-1.1-2.6-2c-1.5,1.7-3.3,2.8-5.2,3C614.1,111.7,613.8,111.8,613.5,111.8z M620.6,92.7
					C620.6,92.7,620.6,92.7,620.6,92.7c-1.4,0.5-2.2,1.8-2.3,3.8c-0.1,1.9,0.4,4,1.2,5.9c0.2-0.5,0.4-0.9,0.5-1.4
					C621.4,96.7,621.1,93.4,620.6,92.7z M634,98.2c-0.2,0-0.3,0-0.3,0c-0.3,0.4-0.1,1.5,0.4,2.8c0.5-1.6,0.3-2.7,0.1-2.9
					C634.2,98.2,634.2,98.2,634,98.2z"/>
			</g>
		</g>
		<g>
			<g>
				<path class="st11" d="M136.4,296.6c0-15.7,12.8-28.5,28.5-28.5H239c15.7,0,28.5,12.8,28.5,28.5v65c0,15.7-12.8,28.5-28.5,28.5
					h-74.1c-15.7,0-28.5-12.8-28.5-28.5V296.6z"/>
			</g>
			<g>
				<path class="st12" d="M165,306.8c0-3.6,1.5-7.1,4.1-9.7c2.6-2.6,6.2-4,10-4c3.7,0,7.3,1.4,10,4c2.6,2.6,4.1,6.1,4.1,9.7h-5.1
					c0-2.3-1-4.6-2.6-6.2c-1.7-1.7-4-2.6-6.4-2.6s-4.7,0.9-6.4,2.6c-1.7,1.7-2.6,3.9-2.6,6.2H165z"/>
			</g>
			<g>
				<path class="st12" d="M212,305.3c0-3.6,1.5-7.1,4.1-9.7c2.6-2.6,6.2-4,10-4c3.7,0,7.3,1.4,10,4c2.6,2.6,4.1,6.1,4.1,9.7h-5.1
					c0-2.3-1-4.6-2.6-6.2c-1.7-1.7-4-2.6-6.4-2.6c-2.4,0-4.7,0.9-6.4,2.6c-1.7,1.7-2.6,3.9-2.6,6.2H212z"/>
			</g>
			<g>
				<path class="st13" d="M217.3,305.4c0-4.9,4-8.9,8.9-8.9l0,0c4.9,0,8.9,4,8.9,8.9v38.3c0,4.9-4,8.9-8.9,8.9l0,0
					c-4.9,0-8.9-4-8.9-8.9V305.4z"/>
			</g>
			<g>
				<path class="st13" d="M170.4,306c0-4.9,4-8.9,8.9-8.9l0,0c4.9,0,8.9,4,8.9,8.9v70.4c0,4.9-4,8.9-8.9,8.9l0,0
					c-4.9,0-8.9-4-8.9-8.9V306z"/>
			</g>
			<g>
				<path class="st12" d="M194.7,343.7c0.7,5,4.8,8.4,9.1,7.6c4.3-0.8,7.2-5.6,6.5-10.6c-0.7-5-4.8-8.4-9.1-7.6
					C196.9,333.9,194,338.7,194.7,343.7z"/>
			</g>
			<g>
				<path class="st4" d="M201.2,273.8c-3,0-4.1-1.4-4.4-2.8c-0.5-2.2,1.2-5.7,3.8-9.2c-3.5-3.6-9.1-4.5-13.9-4.5
					c-0.9,0-1.6-0.7-1.6-1.6s0.7-1.6,1.6-1.6c7.1,0,12.5,1.8,16,5.2c4.5-5.2,10.3-10.2,13.2-11.1c0.9-0.3,1.8,0.2,2,1
					c0.3,0.8-0.2,1.8-1,2c-2.7,0.9-8.1,5.8-12.1,10.6c1,1.5,1.6,3.3,2,5.2c0.3,1.4,0.2,3.4-0.8,5c-0.6,0.9-1.6,1.5-2.6,1.7
					C202.5,273.7,201.8,273.8,201.2,273.8z M202.6,264.5c-1.8,2.5-2.9,4.6-2.6,5.7c0,0.2,0.8,0.5,2.8,0.2c0.2,0,0.4-0.1,0.5-0.3
					c0.4-0.5,0.5-1.6,0.3-2.5C203.4,266.4,203,265.4,202.6,264.5z"/>
			</g>
		</g>
		<g>
			<g>
				<path class="st14" d="M345,295.6c0-15.7,12.8-28.5,28.5-28.5h74.1c15.7,0,28.5,12.8,28.5,28.5v65c0,15.7-12.8,28.5-28.5,28.5
					h-74.1c-15.7,0-28.5-12.8-28.5-28.5V295.6z"/>
			</g>
			<g>
				<path class="st4" d="M375.6,322.3l-0.3-3.2c15.8-1.6,19.6-12.6,19.7-12.8l3.1,1C397.9,307.9,393.5,320.6,375.6,322.3z"/>
			</g>
			<g>
				<path class="st4" d="M448.1,321.4c-24.4-0.4-27.2-14.9-27.3-15.5l3.2-0.6c0.1,0.5,2.6,12.5,24.2,12.8L448.1,321.4z"/>
			</g>
			<g>
				<path class="st15" d="M378.7,336.2c0-6.9,6-12.4,13.5-12.4s13.5,5.6,13.5,12.4c0,6.9-6,12.4-13.5,12.4S378.7,343,378.7,336.2z"
					/>
			</g>
			<g>
				<path class="st15" d="M412.4,336c0-6.9,6-12.4,13.5-12.4s13.5,5.6,13.5,12.4c0,6.9-6,12.4-13.5,12.4S412.4,342.9,412.4,336z"/>
			</g>
			<g>
				<path class="st16" d="M385.8,338c0-5.1,4.3-9.2,9.5-9.2c5.3,0,9.5,4.1,9.5,9.2c0,5.1-4.3,9.2-9.5,9.2
					C390.1,347.2,385.8,343.1,385.8,338z"/>
			</g>
			<g>
				<path class="st16" d="M412.9,337.8c0-5.1,4.3-9.2,9.5-9.2c5.3,0,9.5,4.1,9.5,9.2c0,5.1-4.3,9.2-9.5,9.2
					C417.1,347,412.9,342.9,412.9,337.8z"/>
			</g>
			<g>
				<path class="st16" d="M400.6,366.5c0,2.6,1.3,5,3.6,6.8c2.3,1.8,5.4,2.8,8.6,2.8s6.3-1,8.6-2.8c2.3-1.8,3.6-4.3,3.6-6.8h-4.9
					c0,1.5-0.8,3-2.1,4.1s-3.2,1.7-5.1,1.7c-1.9,0-3.8-0.6-5.1-1.7c-1.4-1.1-2.1-2.5-2.1-4.1H400.6z"/>
			</g>
			<g>
				<path class="st17" d="M383.6,344.8c0,0-12,5.5-13,9.2c-1,3.6,5.3,7.7,9,5.4C383.4,357,383.6,344.8,383.6,344.8z"/>
			</g>
			<g>
				<path class="st17" d="M428.8,345.9c0,0,2.9,12.5,6.4,14.3c3.5,1.7,9-3.3,7.5-7.3C441.1,348.8,428.8,345.9,428.8,345.9z"/>
			</g>
			<g>
				<path class="st4" d="M345.1,308.3c-0.5,0-0.9-0.2-1.2-0.6c-0.6-0.7-0.5-1.7,0.2-2.3c2.9-2.5,6.9-5.3,11.2-8.3
					c9.1-6.4,19.8-13.9,25.6-22.3c-1.8-1.3-3.2-2.9-3.9-4.7c-0.9-2.4-0.5-5,1.3-7.6c1.3-1.9,4.8-2.4,7.2-1.6c1.8,0.6,2.9,2,2.7,3.6
					c-0.2,3.2-1.2,6.3-2.8,9.2c4.2,2.2,9.7,3.7,12.7,4.5l1.2,0.3c21.6,5.9,42.1,6.2,68.3,1c0.9-0.2,1.7,0.4,1.9,1.3
					c0.2,0.9-0.4,1.7-1.3,1.9c-26.4,5.3-47.9,4.9-69.8-1.1l-1.2-0.3c-3.7-1-9.2-2.5-13.6-4.8c-6.1,8.9-17.1,16.7-26.4,23.2
					c-4.2,2.9-8.2,5.7-10.9,8.1C345.8,308.2,345.4,308.3,345.1,308.3z M382.8,263.8c-1.1,0-1.9,0.3-2,0.5c-1.2,1.7-1.5,3.3-0.9,4.7
					c0.4,1.1,1.3,2.2,2.6,3.1c1.3-2.5,2.2-5.1,2.4-7.7c-0.1-0.1-0.5-0.4-1.5-0.5C383.1,263.8,383,263.8,382.8,263.8z"/>
			</g>
		</g>
		<g>
			<g>
				<path class="st18" d="M551.6,293.4c0-15.7,12.8-28.5,28.5-28.5h74.1c15.7,0,28.5,12.8,28.5,28.5v65c0,15.7-12.8,28.5-28.5,28.5
					h-74.1c-15.7,0-28.5-12.8-28.5-28.5V293.4z"/>
			</g>
			<g>
				<g>
					<path class="st19" d="M581.2,308.1c0-10.5,8.4-18.9,18.7-18.9c10.3,0,18.7,8.5,18.7,18.9c0,10.5-8.4,18.9-18.7,18.9
						C589.5,327.1,581.2,318.6,581.2,308.1z"/>
				</g>
				<g>
					<path class="st19" d="M621.4,308.1c0-10.5,8.4-18.9,18.7-18.9c10.3,0,18.7,8.5,18.7,18.9c0,10.5-8.4,18.9-18.7,18.9
						C629.8,327.1,621.4,318.6,621.4,308.1z"/>
				</g>
				<g>
					<path class="st20" d="M597,311.6c0-4.3,3.1-7.7,7-7.7c3.8,0,7,3.5,7,7.7c0,4.3-3.1,7.7-7,7.7C600.1,319.3,597,315.8,597,311.6z
						"/>
				</g>
				<g>
					<path class="st20" d="M626.1,310.6c0-4.3,3.1-7.7,7-7.7c3.8,0,7,3.5,7,7.7c0,4.3-3.1,7.7-7,7.7
						C629.2,318.3,626.1,314.9,626.1,310.6z"/>
				</g>
				<g>
					<path class="st20" d="M596.8,325.4c2.9,0.2,5.5,1.6,7.4,3.8c1.9,2.2,2.8,5,2.6,7.9c-0.2,2.9-1.6,5.5-3.8,7.4
						c-2.2,1.9-5,2.8-7.9,2.6l0.3-3.8c1.8,0.1,3.7-0.5,5.1-1.7c1.4-1.2,2.3-2.9,2.4-4.8c0.1-1.9-0.5-3.7-1.7-5.1
						c-1.2-1.4-2.9-2.3-4.8-2.4L596.8,325.4z"/>
				</g>
				<g>
					<path class="st20" d="M643.8,347.3c-3.1-0.4-6-1.9-7.9-4.2c-1.9-2.3-2.7-5.3-2.3-8.2c0.5-2.9,2.1-5.5,4.7-7.3
						c2.5-1.8,5.7-2.5,8.9-2.2l-0.6,3.9c-2-0.3-4.1,0.2-5.7,1.4c-1.6,1.1-2.7,2.8-3,4.7c-0.3,1.9,0.2,3.8,1.5,5.3
						c1.2,1.5,3.1,2.5,5.1,2.7L643.8,347.3z"/>
				</g>
				<g>
					
						<rect x="606.1" y="334.3" transform="matrix(1 -6.025802e-03 6.025802e-03 1 -2.0129 3.7462)" class="st20" width="29.1" height="3.2"/>
				</g>
				<g>
					<path class="st20" d="M583.2,298.7l-0.9-3.1c5.5-1.6,9.1-4.1,10.7-7.4c1.9-3.7,0.5-7.4,0.5-7.4l3-1.2c0.1,0.2,1.9,4.9-0.6,10
						C593.9,293.7,589.6,296.8,583.2,298.7z"/>
				</g>
				<g>
					<path class="st20" d="M649.8,293.6c-6.8-0.8-11.7-3.1-14.6-6.8c-3.3-4.3-2.6-8.8-2.6-9l3.2,0.5c0,0.1-0.4,3.5,2,6.6
						c2.3,3,6.5,4.9,12.4,5.5L649.8,293.6z"/>
				</g>
				<g>
					<path class="st20" d="M609.8,390.7c-0.9,0-1.6-0.7-1.6-1.6c0-2.7,0.3-4.9,0.7-7.1c0.3-2.1,0.6-4.1,0.6-6.6
						c0-0.9,0.7-1.6,1.6-1.6s1.6,0.7,1.6,1.6c0,2.7-0.3,4.9-0.7,7.1c-0.3,2.1-0.6,4.1-0.6,6.6C611.5,389.9,610.7,390.7,609.8,390.7z
						"/>
				</g>
				<g>
					<path class="st20" d="M620.8,391.1c-0.9,0-1.6-0.7-1.6-1.6c0-2.1,0.1-4.9,0.2-7.6c0.1-2.7,0.2-5.5,0.2-7.5
						c0-0.9,0.7-1.6,1.6-1.6s1.6,0.7,1.6,1.6c0,2.1-0.1,5-0.2,7.7c-0.1,2.7-0.2,5.4-0.2,7.5C622.4,390.4,621.7,391.1,620.8,391.1z"
						/>
				</g>
				<g>
					<path class="st20" d="M634.9,391.8c-0.7,0-1.4-0.5-1.6-1.2c-0.6-2.4-1-5.8-1.4-9c-0.4-3.2-0.7-6.5-1.3-8.7
						c-0.2-0.9,0.3-1.7,1.2-2c0.9-0.2,1.7,0.3,2,1.2c0.6,2.5,1,5.9,1.4,9.1c0.4,3.2,0.7,6.4,1.3,8.6c0.2,0.9-0.3,1.7-1.2,2
						C635.2,391.8,635,391.8,634.9,391.8z"/>
				</g>
			</g>
		</g>
		<g>
			<g>
				<g>
					<path class="st21" d="M136.4,484c0-15.7,12.8-28.5,28.5-28.5H239c15.7,0,28.5,12.8,28.5,28.5v65c0,15.7-12.8,28.5-28.5,28.5
						h-74.1c-15.7,0-28.5-12.8-28.5-28.5V484z"/>
				</g>
			</g>
			<g>
				<g>
					<g>
						<path class="st22" d="M230.2,517.9c0.2,0,0.4,0,0.6-0.1c0.2-0.1,0.5-0.2,0.6-0.3c3.3-2.1,6.2-4.3,8.6-6.6
							c2.4-2.3,4.3-4.6,5.6-7c1.3-2.4,2-4.9,2-7.3c0-1.5-0.3-2.9-0.8-4.2c-0.5-1.3-1.2-2.4-2.1-3.3c-0.9-0.9-1.9-1.7-3.1-2.2
							c-1.2-0.5-2.5-0.8-3.9-0.8c-1.7,0-3.2,0.4-4.5,1.3c-1.3,0.9-2.4,2-3.2,3.4c-0.8-1.4-1.8-2.6-3.1-3.4c-1.3-0.9-2.8-1.3-4.6-1.3
							c-1.4,0-2.7,0.3-3.9,0.8c-1.2,0.5-2.2,1.2-3.1,2.2c-0.9,0.9-1.6,2-2.1,3.3c-0.5,1.3-0.8,2.7-0.8,4.2c0,2.5,0.7,4.9,2,7.3
							c1.3,2.4,3.2,4.8,5.6,7c2.4,2.3,5.3,4.5,8.6,6.6c0.2,0.1,0.4,0.2,0.6,0.3C229.8,517.8,230,517.9,230.2,517.9z"/>
					</g>
				</g>
			</g>
			<g>
				<g>
					<g>
						<path class="st22" d="M181.1,519.1c0.2,0,0.4,0,0.6-0.1c0.2-0.1,0.5-0.2,0.6-0.3c3.3-2.1,6.2-4.3,8.6-6.6
							c2.4-2.3,4.3-4.6,5.6-7c1.3-2.4,2-4.9,2-7.3c0-1.5-0.3-2.9-0.8-4.2c-0.5-1.3-1.2-2.4-2.1-3.3c-0.9-0.9-1.9-1.7-3.1-2.2
							c-1.2-0.5-2.5-0.8-3.9-0.8c-1.7,0-3.2,0.4-4.5,1.3c-1.3,0.9-2.4,2-3.2,3.4c-0.8-1.4-1.8-2.6-3.1-3.4c-1.3-0.9-2.8-1.3-4.6-1.3
							c-1.4,0-2.7,0.3-3.9,0.8c-1.2,0.5-2.2,1.2-3.1,2.2s-1.6,2-2.1,3.3c-0.5,1.3-0.8,2.7-0.8,4.2c0,2.5,0.7,4.9,2,7.3
							c1.3,2.4,3.2,4.8,5.6,7c2.4,2.3,5.3,4.5,8.6,6.6c0.2,0.1,0.4,0.2,0.6,0.3C180.7,519,180.9,519.1,181.1,519.1z"/>
					</g>
				</g>
			</g>
			<g>
				<g>
					<g id="Fill_3">
						<g>
							<path class="st23" d="M181.6,530l47.4,5.6c0,0,0.4,18.6-26.1,18.6C176.5,554.2,181.6,530,181.6,530z"/>
						</g>
					</g>
				</g>
				<g>
					<defs>
						<path id="SVGID_00000054256790438628003370000011362253573776044212_" d="M181.6,530l47.4,5.6c0,0,0.4,18.6-26.1,18.6
							C176.5,554.2,181.6,530,181.6,530z"/>
					</defs>
					<clipPath id="SVGID_00000017485531261987290380000001375332862047380157_">
						<use xlink:href="#SVGID_00000054256790438628003370000011362253573776044212_"  style="overflow:visible;"/>
					</clipPath>
					<g style="clip-path:url(#SVGID_00000017485531261987290380000001375332862047380157_);">
						<g>
							<g>
								<path class="st25" d="M185.5,525.7l1.4,14.4l32.7-2.6l3.1-10.5L185.5,525.7z"/>
							</g>
						</g>
					</g>
				</g>
			</g>
			<g>
				<g>
					<path class="st20" d="M186,467.9c-5.1,0-9.4-1.7-12.6-4.9c-0.8-0.8-1.8-2.3-2.6-4.3c-6.1,4.6-13.8,8.4-19,8.4
						c-0.9,0-1.6-0.7-1.6-1.6s0.7-1.6,1.6-1.6c5,0,12.4-4.1,17.8-8.4c-1-3.3-1.5-6.8-0.4-9.4c0.9-2.2,2.8-3.4,5.4-3.4
						c1.7,0,2.9,0.3,3.9,0.9c1.1,0.7,1.7,1.8,1.7,3.1c0,2.7-2.8,6.4-6.7,9.9c0.7,1.8,1.6,3.4,2.3,4.1c4.1,4.1,9.6,4.3,13.5,3.7
						c4-0.6,8.3-2.2,12.1-4.4c-3.8-4.7-2.3-8.4-1.3-10c2.9-4.4,10-6.2,13.2-4.3c0.8,0.5,3.1,2.3,0.9,6.3c-1.7,3.1-4.4,6-7.8,8.4
						c0.5,0.4,1,0.8,1.4,1.1c3.6,2.6,9.8,2.4,16.7-0.5c3.4-1.4,6.5-3.3,9-5.4c-0.8-1.1-1.3-2.1-1.5-2.7c-1.5-3.5-1.1-7.1,1-9.2
						c1.9-1.9,4.7-2.3,7.9-1c2.6,1,2.2,3.6,2.1,4.4c-0.5,3.1-2.3,6.1-4.9,8.7c3.1,2.7,8.1,4.8,15.5,4.8c0.9,0,1.6,0.7,1.6,1.6
						s-0.7,1.6-1.6,1.6c-9.3,0-14.7-2.9-17.8-5.8c-3,2.5-6.5,4.5-9.9,6c-7.9,3.3-15.3,3.3-19.8,0.1c-0.9-0.6-1.7-1.2-2.3-1.8
						c-4.3,2.7-9.2,4.6-13.9,5.2C188.4,467.8,187.2,467.9,186,467.9z M210,448.2c-2.2,0-5.8,1.2-7.3,3.6c-1.4,2.2-0.4,4.5,1.3,6.5
						c3.2-2.3,5.8-5,7.3-7.7c0.4-0.7,0.8-1.7,0.3-2C211.2,448.3,210.6,448.2,210,448.2z M237.3,445.4c-0.8,0-1.5,0.3-2,0.8
						c-1.1,1.1-1.2,3.4-0.3,5.7c0.2,0.6,0.5,1.1,0.9,1.7c2.1-2.2,3.4-4.6,3.8-6.8c0.1-0.6,0.1-0.8,0.1-0.8c0,0-0.1,0-0.1-0.1
						C238.8,445.5,238,445.4,237.3,445.4z M174.5,446c-1.6,0-2.1,0.7-2.4,1.4c-0.6,1.4-0.4,3.6,0.1,5.8c2.8-2.6,4.6-5,4.6-6.5
						c0-0.2,0-0.3-0.2-0.3C176.5,446.3,175.9,446,174.5,446z"/>
				</g>
			</g>
		</g>
		<g>
			<g>
				<g>
					<path class="st26" d="M345,484c0-15.7,12.8-28.5,28.5-28.5h74.1c15.7,0,28.5,12.8,28.5,28.5v65c0,15.7-12.8,28.5-28.5,28.5
						h-74.1c-15.7,0-28.5-12.8-28.5-28.5V484z"/>
				</g>
			</g>
			<g>
				<g>
					<path class="st27" d="M372.2,512.1c0-10.1,8.1-18.3,18.1-18.3c10,0,18.1,8.2,18.1,18.3c0,10.1-8.1,18.3-18.1,18.3
						C380.3,530.4,372.2,522.2,372.2,512.1z"/>
				</g>
			</g>
			<g>
				<g>
					<path class="st27" d="M415,511.5c0-10.1,8.1-18.3,18.1-18.3c10,0,18.1,8.2,18.1,18.3c0,10.1-8.1,18.3-18.1,18.3
						C423.1,529.8,415,521.6,415,511.5z"/>
				</g>
			</g>
			<g>
				<g>
					<path class="st28" d="M390.1,515.7c0-3.2,2.7-5.8,5.9-5.8c3.3,0,5.9,2.6,5.9,5.8c0,3.2-2.7,5.8-5.9,5.8
						C392.7,521.5,390.1,518.9,390.1,515.7z"/>
				</g>
			</g>
			<g>
				<g>
					<path class="st28" d="M419.4,514.9c0-3.2,2.7-5.8,5.9-5.8c3.3,0,5.9,2.6,5.9,5.8c0,3.2-2.7,5.8-5.9,5.8
						C422.1,520.7,419.4,518.1,419.4,514.9z"/>
				</g>
			</g>
			<g>
				<g>
					
						<rect x="392" y="475.4" transform="matrix(0.4943 -0.8693 0.8693 0.4943 -226.1764 589.5103)" class="st28" width="3.2" height="27.5"/>
				</g>
			</g>
			<g>
				<g>
					
						<rect x="418.5" y="490.4" transform="matrix(0.9015 -0.4327 0.4327 0.9015 -170.5775 234.402)" class="st28" width="22.5" height="3.2"/>
				</g>
			</g>
			<g>
				<g>
					<path class="st28" d="M403.9,553.4c0-3.6,1.2-7.2,3.5-10.2c2.3-3,5.6-5.4,9.4-6.7c3.8-1.4,8-1.7,12.1-1c4.1,0.7,7.8,2.4,10.7,5
						l-3.3,2.9c-2.3-2-5.2-3.4-8.3-3.9c-3.2-0.6-6.4-0.3-9.4,0.8c-3,1.1-5.5,2.9-7.3,5.3c-1.8,2.3-2.7,5.1-2.7,7.9H403.9z"/>
				</g>
			</g>
			<g>
				<g>
					<path class="st28" d="M408.7,460.4c-0.6,0-1.2-0.4-1.5-1l-6.6-15.1c-0.4-0.8,0-1.8,0.8-2.1c0.8-0.4,1.8,0,2.1,0.8l6.6,15.1
						c0.4,0.8,0,1.8-0.8,2.1C409.1,460.3,408.9,460.4,408.7,460.4z"/>
				</g>
			</g>
			<g>
				<g>
					<path class="st28" d="M417,461.4C416.9,461.4,416.9,461.4,417,461.4c-0.9,0-1.6-0.7-1.6-1.6l0.2-19c0-0.2,0-0.4,0-0.6
						c0,0,0-0.1,0-0.1l0-0.1c0.1-0.8,0.4-1.7,1.6-1.7c0,0,0,0,0,0c0,0,1.6,0,1.6,1.8c0,0.1,0,0.1,0,0.2c0,1.9-0.1,12.4-0.2,19.5
						C418.6,460.7,417.8,461.4,417,461.4z"/>
				</g>
			</g>
			<g>
				<g>
					<path class="st28" d="M427.1,458.7c-0.1,0-0.2,0-0.3,0c-0.9-0.1-1.5-1-1.3-1.9l2.1-12.4l3.2,0.5l-2.1,12.4
						C428.5,458.2,427.9,458.7,427.1,458.7z"/>
				</g>
			</g>
		</g>
		<g>
			<g>
				<g>
					<path class="st29" d="M551.6,484c0-15.7,12.8-28.5,28.5-28.5h74.1c15.7,0,28.5,12.8,28.5,28.5v65c0,15.7-12.8,28.5-28.5,28.5
						h-74.1c-15.7,0-28.5-12.8-28.5-28.5V484z"/>
				</g>
			</g>
			<g>
				<g>
					<path class="st27" d="M587.7,503.9c0-8,6.1-14.4,13.6-14.4c7.5,0,13.6,6.5,13.6,14.4c0,8-6.1,14.4-13.6,14.4
						C593.8,518.3,587.7,511.9,587.7,503.9z"/>
				</g>
			</g>
			<g>
				<g>
					<path class="st28" d="M598.3,505.4c0-2.4,1.7-4.3,3.8-4.3c2.1,0,3.8,1.9,3.8,4.3c0,2.4-1.7,4.3-3.8,4.3
						C600,509.7,598.3,507.8,598.3,505.4z"/>
				</g>
			</g>
			<g>
				<g>
					<path class="st28" d="M646.5,513.4l-17.3-13.6c-0.5-0.4-0.8-1.1-0.5-1.8c0.2-0.6,0.8-1.1,1.5-1.1l21.8-0.7l0.1,3.2l-17.4,0.5
						l13.8,10.9L646.5,513.4z"/>
				</g>
			</g>
			<g>
				<g>
					<path class="st28" d="M603.5,536.4c1.8,4.2,5.4,7.5,9.9,9.1c4.6,1.6,9.8,1.4,14.4-0.6c4.7-2,8.4-5.6,10.5-9.9
						c2-4.4,2.2-9.2,0.4-13.4l-4.1,1.7c1.4,3.2,1.3,7-0.3,10.3s-4.5,6.1-8.1,7.6c-3.6,1.5-7.6,1.7-11.1,0.5c-3.5-1.2-6.3-3.7-7.6-7
						L603.5,536.4z"/>
				</g>
			</g>
			<g>
				<g>
					<path class="st28" d="M552.8,494.9c-0.8,0-1.5-0.6-1.6-1.4c-0.1-0.9,0.5-1.7,1.4-1.8c0.1,0,12.2-1.9,22.9-10.5
						c10.9-8.7,20.7-24.5,20.8-24.7c0.4-0.6,1-0.9,1.7-0.7c0.7,0.1,1.2,0.6,1.3,1.3c0.1,0.4,2.1,10.8,12.3,11.3
						c3.7,0.2,7.2-2.1,9.8-5c-1.5-4.6-1.7-10.2,0.4-13c1-1.4,2.5-2,4.2-1.7c0.9,0.1,3.8,1,3.3,5.7c-0.3,2.7-1.8,6.4-4.2,9.6
						c0.1,0.2,0.1,0.3,0.2,0.5c0.8,1.6,2.4,4.2,4.8,4.3c5,0.1,9-1,11.8-2.6c-2.1-2.5-1.5-4.6-0.9-5.9c1.2-2.2,4.7-3.9,6.3-3.1
						c2,1,2.9,2.9,2.3,5.1c-0.3,1.4-1.3,2.8-2.6,4.1c0,0,0.1,0,0.1,0.1c13.3,8.4,24.9,9.6,30.6,9.6c0.9,0,1.6,0.7,1.6,1.6
						s-0.7,1.6-1.6,1.6c-10.5,0-22-3.6-32.3-10.1c-0.4-0.2-0.7-0.5-1.1-0.7c-3.6,2.2-8.7,3.7-14.4,3.6c-2.8-0.1-5.4-2-7.2-5.3
						c-3,3-6.9,5.2-11.3,5c-8.6-0.4-12.6-6.5-14.3-10.5c-3.4,5.1-11.2,15.8-19.7,22.6c-11.4,9.1-23.9,11.1-24.4,11.2
						C553,494.9,552.9,494.9,552.8,494.9z M646.2,460.2c-0.7,0.2-2.2,1-2.5,2c-0.1,0.6,0.2,1.3,0.9,2.1c1.1-1,1.8-2,2-2.8
						C646.8,460.8,646.7,460.5,646.2,460.2z M625.1,451.8c-0.3,0-0.6,0.1-0.8,0.5c-0.9,1.2-1.2,4.4-0.5,7.7c1.2-2.1,2-4.2,2.2-6
						c0.1-0.5,0.2-2-0.6-2.2C625.3,451.8,625.2,451.8,625.1,451.8z"/>
				</g>
			</g>
		</g>
	</g>
</g>
</svg>
