<?xml version="1.0" encoding="UTF-8"?>
<!DOCTYPE svg PUBLIC "-//W3C//DTD SVG 1.1//EN" "http://www.w3.org/Graphics/SVG/1.1/DTD/svg11.dtd">
<!-- Creator: CorelDRAW -->
<svg xmlns="http://www.w3.org/2000/svg" xml:space="preserve" width="5500px" height="4000px" version="1.1" style="shape-rendering:geometricPrecision; text-rendering:geometricPrecision; image-rendering:optimizeQuality; fill-rule:evenodd; clip-rule:evenodd"
viewBox="0 0 1024.87 745.36"
 xmlns:xlink="http://www.w3.org/1999/xlink"
 xmlns:xodm="http://www.corel.com/coreldraw/odm/2003">
 <defs>
  <style type="text/css">
   <![CDATA[
    .fil8 {fill:black}
    .fil2 {fill:black;fill-rule:nonzero}
    .fil6 {fill:#0E3AA3;fill-rule:nonzero}
    .fil10 {fill:#1457FD;fill-rule:nonzero}
    .fil5 {fill:#476FEB;fill-rule:nonzero}
    .fil1 {fill:#F4534B;fill-rule:nonzero}
    .fil11 {fill:#FCE18A;fill-rule:nonzero}
    .fil9 {fill:#FF7848;fill-rule:nonzero}
    .fil3 {fill:#FFBDB0;fill-rule:nonzero}
    .fil7 {fill:#FFC931;fill-rule:nonzero}
    .fil0 {fill:#FFE8E0;fill-rule:nonzero}
    .fil4 {fill:white;fill-rule:nonzero}
   ]]>
  </style>
 </defs>
 <g id="Layer_x0020_1">
  <metadata id="CorelCorpID_0Corel-Layer"/>
  <g id="_2333314901632">
   <polygon class="fil0" points="0,745.36 1024.87,745.36 1024.87,0 0,0 "/>
   <g>
    <path class="fil1" d="M434.52 261.04l37.84 67.25 17.4 -14.26 88.02 -5.21 5.36 12.93 8.68 -36.43 -10.63 8.43 -70.6 -1.27c0,0 26.31,-26.14 33.99,-39.17 7.65,-13.04 0.9,-21.57 0.9,-21.57 0,0 -22.16,-36 -27.03,-43.24 -4.86,-7.25 -13.85,-5.67 -13.85,-5.67 -4.7,-0.1 -8.47,5.07 -12.6,8.99 -4.14,3.92 -14.84,41.72 -14.84,41.72l-42.64 27.5zm65.81 -67.23c5.61,-5.09 10.74,-2.5 10.74,-2.5 0,0 19.82,30.21 28.21,43.85 8.36,13.57 -15.8,29.21 -16.13,29.43l6.49 -7.41 -24.11 -36.98 -7.5 3.12c0,0 -2.09,1.71 -4.06,-2.83 -1.95,-4.51 0.76,-21.59 6.36,-26.68z"/>
    <path class="fil2" d="M472.36 328.79c-0.02,0 -0.06,0 -0.08,0 -0.14,-0.03 -0.27,-0.11 -0.33,-0.23l-37.84 -67.25c-0.12,-0.23 -0.06,-0.49 0.16,-0.64l42.52 -27.39c0.89,-3.12 10.84,-37.91 14.92,-41.77 0.87,-0.82 1.73,-1.7 2.55,-2.54 3.14,-3.22 6.38,-6.57 10.24,-6.57 0.04,0 0.06,0 0.1,0 0.35,-0.06 2.51,-0.37 5.21,0.13 3.86,0.69 7,2.68 9.05,5.74 4.77,7.08 26.35,42.17 27.01,43.24 0.21,0.27 1.79,2.42 2.48,6.08 0.68,3.51 0.66,9.13 -3.38,16 -6.86,11.66 -28.81,34.01 -33.27,38.48l69.33 1.25 10.48 -8.33c0.17,-0.12 0.39,-0.14 0.56,-0.02 0.16,0.1 0.24,0.31 0.2,0.51l-8.68 36.43c-0.04,0.21 -0.23,0.35 -0.43,0.37 -0.21,0.02 -0.39,-0.1 -0.47,-0.29l-5.24 -12.62 -87.52 5.19 -17.28 14.16c-0.06,0.02 -0.19,0.07 -0.29,0.07zm-37.2 -67.58l37.35 66.36 16.97 -13.89c0.08,-0.06 0.16,-0.1 0.26,-0.1l88.02 -5.21c0.21,-0.02 0.39,0.1 0.47,0.28l4.81 11.58 8 -33.66 -9.54 7.59c-0.08,0.07 -0.19,0.11 -0.31,0.11l-70.6 -1.27c-0.18,0 -0.37,-0.13 -0.43,-0.31 -0.06,-0.19 -0.02,-0.39 0.11,-0.52 0.26,-0.26 26.37,-26.24 33.9,-39.09 3.88,-6.61 3.92,-11.98 3.26,-15.33 -0.7,-3.61 -2.3,-5.66 -2.32,-5.68 -0.02,-0.02 -0.02,-0.02 -0.04,-0.05 -0.22,-0.36 -22.2,-36.07 -27.01,-43.21 -1.92,-2.88 -4.76,-4.68 -8.39,-5.34 -2.75,-0.49 -4.94,-0.12 -4.97,-0.12 -0.02,0 -0.06,0 -0.1,0 -3.51,-0.09 -6.5,3.01 -9.68,6.28 -0.85,0.86 -1.71,1.74 -2.59,2.58 -3.2,3.02 -11.02,28.47 -14.69,41.5 -0.04,0.1 -0.11,0.2 -0.21,0.26l-42.27 27.24zm87.99 3.86c-0.14,0 -0.26,-0.07 -0.37,-0.17 -0.16,-0.18 -0.14,-0.45 0,-0.61l6.26 -7.13 -23.7 -36.36 -7.08 2.93c-0.2,0.15 -0.86,0.52 -1.74,0.31 -1.13,-0.27 -2.14,-1.41 -2.98,-3.36 -1.01,-2.3 -0.88,-7.7 0.31,-13.43 0.63,-3.03 2.48,-10.48 6.15,-13.81 0,0 0,0 0,0 3,-2.71 5.85,-3.28 7.76,-3.28 0.02,0 0.02,0 0.04,0 2.08,0 3.43,0.68 3.47,0.7 0.08,0.04 0.15,0.1 0.19,0.16 0.2,0.31 19.92,30.37 28.21,43.88 1.99,3.22 2.34,6.81 1.09,10.69 -0.98,3.06 -2.99,6.28 -5.95,9.6 -5.11,5.73 -11.35,9.75 -11.41,9.79 -0.06,0.06 -0.14,0.09 -0.25,0.09zm-17.62 -45.34c0.16,0 0.3,0.08 0.39,0.23l24.11 36.98c0.12,0.18 0.1,0.41 -0.04,0.57l-3.72 4.25c6.32,-4.88 18.76,-16.29 12.58,-26.33 -8.04,-13.07 -26.8,-41.68 -28.13,-43.73 -0.76,-0.33 -5.19,-1.95 -10.08,2.48l0 0c-2.4,2.18 -4.6,7.14 -5.87,13.3 -1.13,5.46 -1.29,10.73 -0.37,12.85 0.88,2.05 1.75,2.67 2.32,2.81 0.58,0.14 0.99,-0.17 1.01,-0.17 0.04,-0.02 0.08,-0.04 0.1,-0.06l7.49 -3.12c0.08,-0.04 0.14,-0.06 0.21,-0.06z"/>
    <path class="fil2" d="M519.64 264.22c-0.16,0 -0.3,-0.08 -0.41,-0.22l-22.96 -36.2c-0.14,-0.23 -0.08,-0.52 0.14,-0.66 0.23,-0.14 0.52,-0.08 0.66,0.14l22.96 36.2c0.15,0.23 0.09,0.52 -0.14,0.66 -0.08,0.06 -0.16,0.08 -0.25,0.08z"/>
    <path class="fil2" d="M477.06 321.11c-0.16,0 -0.33,-0.08 -0.41,-0.25l-35.26 -60.39c-0.12,-0.23 -0.06,-0.51 0.17,-0.66 0.22,-0.12 0.51,-0.06 0.66,0.17l35.25 60.39c0.13,0.23 0.06,0.51 -0.16,0.66 -0.08,0.06 -0.17,0.08 -0.25,0.08z"/>
    <path class="fil2" d="M580.84 297.2c0,0 0,0 0,0l-68.71 -1.5c-0.26,0 -0.47,-0.22 -0.47,-0.49 0,-0.27 0.23,-0.47 0.49,-0.47l68.69 1.5c0.27,0 0.47,0.22 0.47,0.49 0,0.27 -0.2,0.47 -0.47,0.47z"/>
    <path class="fil2" d="M491.2 311.32c-0.12,0 -0.25,-0.04 -0.35,-0.14 -0.18,-0.19 -0.16,-0.49 0.02,-0.68l19.4 -18.35c0.18,-0.18 0.49,-0.16 0.67,0.02 0.19,0.19 0.17,0.5 -0.02,0.68l-19.39 18.35c-0.08,0.08 -0.21,0.12 -0.33,0.12z"/>
    <path class="fil3" d="M391.16 245.69l19.64 14.55 49.45 -24.83 13.06 -6.55c4.92,-3.4 9.46,-6.64 9.46,-6.64 4.35,3.73 7.08,-1.36 7.08,-1.36 4.04,0.8 4.49,-4.68 4.49,-4.68 3.08,1.23 3.84,-1.95 3.84,-1.95 1.27,-6.79 1.91,-13.73 1.91,-13.73 -4.05,-4.33 -7.35,2.47 -7.35,2.47 -3.88,-0.76 -5.27,2.97 -5.27,2.97 0,0 -0.85,-0.04 -0.78,-1.7 0.06,-1.68 -1.81,-5.15 -1.81,-5.15 5.34,-1.09 12.21,-9.42 11.27,-11.17 -0.95,-1.74 -17.36,4.15 -19.7,5.44 -2.34,1.29 -9.57,14.61 -10.7,15.87 -0.71,0.77 -7.88,4.1 -13.17,6.48l-5.58 2.73 -55.84 27.25z"/>
    <path class="fil2" d="M410.8 260.71c-0.11,0 -0.21,-0.04 -0.29,-0.1l-19.64 -14.55c-0.14,-0.1 -0.21,-0.27 -0.18,-0.43 0.02,-0.16 0.12,-0.31 0.26,-0.39l61.44 -29.98c0,0 0,0 0.02,0 11.35,-5.11 12.83,-6.18 13.02,-6.36 0.34,-0.39 1.43,-2.2 2.7,-4.31 3.53,-5.87 6.57,-10.78 8.11,-11.64 1.95,-1.09 16.79,-6.57 19.7,-5.72 0.31,0.08 0.54,0.24 0.66,0.47 0.27,0.47 0.16,1.17 -0.27,2.11 -1.48,3.16 -6.48,8.35 -10.71,9.58 0.53,1.07 1.64,3.47 1.58,4.87 -0.02,0.47 0.04,0.78 0.12,0.96 0.6,-1.04 2.16,-3.18 5.17,-2.77 0.52,-0.92 2.12,-3.49 4.35,-3.83 1.26,-0.19 2.47,0.32 3.6,1.55 0.1,0.11 0.14,0.23 0.12,0.37 0,0.07 -0.66,7.04 -1.93,13.77 0,0 0,0.02 0,0.02 -0.02,0.07 -0.41,1.63 -1.7,2.3 -0.64,0.33 -1.38,0.39 -2.2,0.17 -0.16,0.96 -0.68,2.87 -2.03,3.9 -0.74,0.55 -1.62,0.78 -2.61,0.65 -0.43,0.68 -1.64,2.28 -3.49,2.61 -1.27,0.23 -2.56,-0.16 -3.85,-1.19 -1.09,0.78 -5.01,3.57 -9.16,6.44 -0.02,0.02 -0.04,0.02 -0.06,0.04l-62.51 31.42c-0.08,0.04 -0.14,0.04 -0.22,0.04zm-18.72 -14.94l18.78 13.92 62.22 -31.24c4.84,-3.36 9.38,-6.58 9.42,-6.62 0.18,-0.13 0.43,-0.13 0.6,0.02 1.14,1 2.27,1.39 3.34,1.21 1.85,-0.35 3,-2.4 3,-2.42 0.1,-0.19 0.3,-0.29 0.51,-0.25 0.86,0.16 1.58,0.04 2.17,-0.43 1.5,-1.13 1.75,-3.8 1.75,-3.82 0.02,-0.14 0.1,-0.29 0.22,-0.37 0.13,-0.08 0.29,-0.1 0.44,-0.04 0.78,0.31 1.43,0.33 1.97,0.06 0.88,-0.45 1.19,-1.56 1.23,-1.68 1.13,-6.01 1.76,-12.23 1.89,-13.44 -0.87,-0.86 -1.75,-1.25 -2.61,-1.11 -2.2,0.33 -3.8,3.59 -3.82,3.63 -0.1,0.19 -0.31,0.31 -0.51,0.27 -3.43,-0.66 -4.68,2.52 -4.72,2.67 -0.08,0.18 -0.27,0.3 -0.47,0.3 -0.06,0 -0.43,-0.04 -0.74,-0.37 -0.35,-0.39 -0.52,-1 -0.49,-1.82 0.04,-1.27 -1.26,-3.98 -1.77,-4.91 -0.06,-0.12 -0.08,-0.28 -0.02,-0.43 0.06,-0.14 0.18,-0.22 0.33,-0.26 4,-0.82 9.21,-6.16 10.65,-9.22 0.33,-0.72 0.35,-1.11 0.31,-1.23 -0.13,-0.08 -1.38,-0.55 -9.11,1.89 -4.36,1.37 -8.85,3.1 -9.96,3.71 -1.43,0.8 -5.39,7.37 -7.76,11.29 -1.53,2.56 -2.42,4.04 -2.83,4.47 -0.22,0.25 -0.92,1.01 -13.32,6.59l-60.7 29.63zm103.68 -57.58l0 0c0,0 0,0 0,0z"/>
    <path class="fil4" d="M423.64 558.47l-30.23 5.95 1.44 16.89 3.35 39.62 77.26 0 0.04 -0.1c0,-0.02 0.95,-2.75 1.15,-6.13 0.35,-5.57 -1.25,-12.42 -10.79,-13.51 -7.23,-0.82 -14.98,-1.06 -21.22,-1.27 -6.9,-0.23 -12.85,-0.43 -13.42,-1.31 -0.31,-0.5 -1.28,-4.44 -4.15,-20.42 -1.74,-9.77 -3.39,-19.5 -3.41,-19.6l-0.02 -0.12z"/>
    <path class="fil2" d="M475.46 621.43l-77.26 0c-0.25,0 -0.46,-0.19 -0.48,-0.43l-4.78 -56.54c-0.02,-0.25 0.15,-0.45 0.39,-0.51l30.23 -5.96c0.12,-0.02 0.27,0 0.37,0.09 0.1,0.08 0.19,0.18 0.21,0.3l0.06 0.31c0.53,3.12 1.91,11.25 3.36,19.42 3.06,17.11 3.86,19.86 4.07,20.23 0.1,0.1 0.71,0.45 4.12,0.7 2.4,0.18 5.56,0.28 8.91,0.39 6.24,0.2 14.01,0.45 21.24,1.27 4.45,0.49 7.63,2.28 9.46,5.29 1.37,2.28 1.97,5.22 1.76,8.71 -0.18,3.03 -0.94,5.54 -1.17,6.23l0 0.02c0,0 0,0.03 0,0.03l-0.04 0.1c-0.06,0.22 -0.24,0.35 -0.45,0.35zm-76.83 -0.97l76.48 0c0.27,-0.88 0.91,-3.12 1.07,-5.78 0.33,-5.36 -1.19,-11.97 -10.38,-13 -7.21,-0.82 -14.94,-1.06 -21.18,-1.27 -9.53,-0.31 -13.18,-0.53 -13.81,-1.54 -0.19,-0.28 -0.72,-1.17 -4.21,-20.58 -1.44,-8.02 -2.81,-16.03 -3.35,-19.27l-29.34 5.77 4.72 55.67zm33 -22.08l0 0 0 0z"/>
    <path class="fil4" d="M244.45 615c0.2,3.39 1.15,6.12 1.17,6.14l0.02 0.1 77.26 0 0.54 -6.3 4.24 -50.24 -0.12 -0.02 -30.11 -5.91 -0.02 0.15c-0.02,0.1 -1.66,9.83 -3.4,19.6 -2.88,15.98 -3.84,19.92 -4.15,20.39 -0.57,0.89 -6.52,1.09 -13.42,1.32 -6.24,0.2 -14,0.45 -21.22,1.27 -9.54,1.09 -11.14,7.94 -10.79,13.5z"/>
    <path class="fil2" d="M322.9 621.71l-77.26 0c-0.21,0 -0.39,-0.14 -0.45,-0.32l-0.03 -0.11 0 0c-0.12,-0.35 -0.98,-2.97 -1.19,-6.26l0 0c-0.22,-3.51 0.37,-6.44 1.77,-8.7 1.83,-3.01 5.01,-4.78 9.46,-5.29 7.24,-0.82 15,-1.07 21.24,-1.27 3.35,-0.11 6.51,-0.21 8.91,-0.39 3.42,-0.27 4.02,-0.6 4.12,-0.7 0.21,-0.35 0.99,-3.06 4.06,-20.24 1.46,-8.16 2.86,-16.29 3.37,-19.41l0.06 -0.33c0.02,-0.12 0.1,-0.24 0.21,-0.31 0.1,-0.08 0.24,-0.1 0.37,-0.08l30.23 5.95c0.24,0.04 0.41,0.27 0.39,0.52l-4.25 50.23 -0.54 6.3c-0.02,0.23 -0.22,0.41 -0.47,0.41zm-76.91 -0.94l76.48 0 0.49 -5.85 4.21 -49.81 -29.35 -5.76c-0.55,3.24 -1.9,11.24 -3.34,19.27 -3.47,19.41 -4.02,20.29 -4.21,20.58 -0.63,1.01 -4.29,1.23 -13.81,1.54 -6.22,0.21 -13.97,0.45 -21.18,1.27 -9.17,1.03 -10.71,7.64 -10.38,12.99 0,0 0,0 0,0 0.18,2.75 0.86,5.07 1.09,5.77z"/>
    <path class="fil2" d="M342.58 149.49c0,0 7.29,-3.53 6.45,-12.09 -0.85,-8.54 -8.13,-20.63 -24.38,-13.55 0,0 -22.13,-8.53 -28.86,14.14 -6.73,22.68 -5.89,27.11 -17.93,29.76 -12.05,2.65 -19.34,11.18 -19.6,20.32 -0.27,9.13 11.2,35.93 33.06,29.75 21.85,-6.17 51.26,-6.17 64.7,-13.54 13.45,-7.37 -8.39,-35.65 -12.04,-43.9 -3.63,-8.25 -1.4,-10.89 -1.4,-10.89z"/>
    <path class="fil2" d="M284.98 219.22c-1.56,0 -3.1,-0.17 -4.6,-0.51 -3.14,-0.72 -6.16,-2.18 -8.93,-4.35 -5.21,-4.07 -8.49,-9.65 -10.32,-13.59 -2.15,-4.62 -3.43,-9.5 -3.32,-12.7 0.3,-9.87 8.33,-18.21 19.98,-20.77 5.13,-1.13 7.74,-2.59 9.63,-5.36 1.99,-2.93 3.24,-7.39 5.29,-14.75 0.76,-2.71 1.63,-5.79 2.67,-9.32 2.01,-6.81 5.62,-11.53 10.69,-14.04 4.52,-2.21 9.4,-2.21 12.69,-1.82 3.03,0.37 5.27,1.11 5.93,1.33 3.32,-1.41 6.46,-2.13 9.33,-2.09 2.63,0.04 5.05,0.68 7.19,1.95 2.4,1.41 4.47,3.63 5.95,6.38 1.27,2.36 2.11,5.13 2.38,7.78 0.45,4.57 -1.4,7.75 -3.02,9.6 -1.54,1.75 -3.12,2.65 -3.57,2.9 -0.27,0.45 -1.62,3.24 1.52,10.34 0.76,1.72 2.4,4.43 4.27,7.57 2.81,4.68 6.3,10.49 8.82,16.15 2.98,6.73 3.94,11.8 2.94,15.52 -0.64,2.32 -2.03,4.08 -4.19,5.27 -7.74,4.25 -20.66,6.05 -34.35,7.98 -10.37,1.46 -21.08,2.96 -30.46,5.63 -2.25,0.59 -4.41,0.9 -6.52,0.9zm30.37 -96.45c-2.81,0 -5.95,0.47 -8.91,1.93 -4.82,2.38 -8.25,6.89 -10.2,13.44 -1.04,3.51 -1.9,6.58 -2.64,9.29 -2.1,7.47 -3.35,11.99 -5.42,15.05 -2.03,2.99 -4.8,4.55 -10.2,5.74 -11.23,2.46 -18.94,10.45 -19.23,19.87 -0.16,5.31 4.15,18.36 13.3,25.51 5.72,4.47 12.17,5.74 19.17,3.75 9.42,-2.67 20.17,-4.18 30.57,-5.64 13.61,-1.91 26.46,-3.72 34.03,-7.88 1.95,-1.07 3.16,-2.61 3.73,-4.68 2.16,-7.96 -6.15,-21.77 -11.65,-30.93 -1.91,-3.16 -3.53,-5.89 -4.33,-7.67 -3.72,-8.42 -1.44,-11.29 -1.34,-11.39 0.04,-0.04 0.11,-0.08 0.17,-0.13l0 0c0.02,0 1.78,-0.88 3.4,-2.75 2.18,-2.48 3.1,-5.45 2.77,-8.84 -0.43,-4.31 -2.75,-10.43 -7.86,-13.44 -4.28,-2.53 -9.62,-2.42 -15.84,0.29 -0.12,0.04 -0.24,0.06 -0.37,0 -0.08,0 -4.08,-1.52 -9.15,-1.52z"/>
    <path class="fil3" d="M231.58 249.18c0,0 -31.6,12.64 -37.78,13.01 -6.18,0.37 -19.58,-2.89 -27.13,0 -7.55,2.9 -15.11,3.61 -15.11,3.61 0,0 -0.67,3.62 10.31,2.18 0,0 -6.53,2.89 -10.31,2.52 -3.77,-0.37 1.38,3.25 11,1.81 0,0 -7.55,3.61 -12.35,2.89 -4.8,-0.72 5.15,4.33 16.15,0 0,0 -7.55,3.61 -11.33,7.94 -3.77,4.33 9.96,-4.69 13.73,-5.78 3.78,-1.09 8.93,-0.72 8.93,-0.72 0,0 2.05,7.22 -1.38,11.55 -3.42,4.33 4.81,2.9 10.65,-9.4 0,0 8.25,0 14.43,-0.37 6.18,-0.36 39.83,-6.13 39.83,-6.13l-9.64 -23.11z"/>
    <path class="fil2" d="M176.19 290.88c-0.7,0 -0.96,-0.37 -1.07,-0.57 -0.28,-0.58 0,-1.4 0.8,-2.42 2.84,-3.58 1.71,-9.38 1.38,-10.8 -1.21,-0.06 -5.32,-0.16 -8.41,0.72 -1.46,0.41 -4.62,2.15 -7.41,3.69 -5.91,3.25 -6.96,3.68 -7.45,3.04 -0.39,-0.47 0.1,-1.11 0.63,-1.72 2.04,-2.34 5.09,-4.44 7.54,-5.91 -7.02,1.43 -12.81,-0.39 -13.53,-1.24 -0.29,-0.3 -0.14,-0.61 -0.1,-0.69 0.2,-0.37 0.66,-0.43 1.72,-0.29 2.77,0.41 6.55,-0.68 9.13,-1.62 -5.19,0.22 -8.78,-0.99 -9.39,-1.93 -0.17,-0.25 -0.19,-0.51 -0.05,-0.74 0.23,-0.37 0.74,-0.49 1.69,-0.41 1.95,0.18 4.7,-0.55 6.83,-1.25 -3.45,0.14 -5.7,-0.33 -6.77,-1.46 -0.72,-0.76 -0.6,-1.5 -0.58,-1.58 0.05,-0.2 0.21,-0.37 0.44,-0.39 0.08,0 7.57,-0.76 14.98,-3.59 5.07,-1.95 12.47,-1.19 19,-0.53 3.18,0.32 6.2,0.63 8.27,0.51 6.03,-0.35 37.31,-12.85 37.64,-12.97 0.24,-0.1 0.51,0.02 0.61,0.27l9.63 23.1c0.06,0.15 0.04,0.29 -0.02,0.41 -0.06,0.13 -0.19,0.21 -0.33,0.25 -1.38,0.25 -33.76,5.79 -39.9,6.14 -5.45,0.32 -12.62,0.35 -14.16,0.37 -3.9,7.9 -8.9,11.59 -11.12,11.61 0,0 0,0 0,0zm-0.59 -14.79c1.21,0 2.03,0.06 2.11,0.06 0.2,0.02 0.37,0.14 0.43,0.35 0.08,0.3 2.09,7.51 -1.46,11.98 -0.71,0.9 -0.74,1.35 -0.69,1.42 0.02,0.02 0.14,0.06 0.47,0.02 1.66,-0.29 6.32,-3.45 10.07,-11.31 0.09,-0.16 0.25,-0.27 0.43,-0.27 0.09,0 8.3,0 14.41,-0.37 5.64,-0.33 34.68,-5.25 39.2,-6.03l-9.26 -22.14c-3.98,1.58 -31.62,12.52 -37.49,12.86 -2.16,0.13 -5.05,-0.16 -8.41,-0.51 -6.1,-0.61 -13.71,-1.37 -18.58,0.47 -6.44,2.47 -12.97,3.37 -14.75,3.59 0.04,0.13 0.14,0.29 0.31,0.46 0.67,0.67 2.79,1.68 9.39,0.82 0.23,-0.02 0.46,0.12 0.52,0.35 0.06,0.22 -0.04,0.47 -0.27,0.57 -0.27,0.12 -6.69,2.93 -10.55,2.57 -0.12,-0.03 -0.22,-0.03 -0.31,-0.03 1.28,0.66 5.2,1.79 11.27,0.89 0.23,-0.04 0.45,0.1 0.53,0.33 0.07,0.22 -0.04,0.47 -0.24,0.57 -0.29,0.14 -6.4,3.04 -11.19,3.04 -0.16,0 -0.32,0 -0.49,-0.02 2.81,0.78 8.66,1.52 15.09,-1.01 0.24,-0.1 0.51,0.02 0.61,0.25 0.1,0.22 0,0.51 -0.22,0.61 -0.09,0.04 -7.52,3.61 -11.19,7.82 -0.06,0.08 -0.12,0.15 -0.18,0.21 1.23,-0.5 3.81,-1.91 5.8,-3 2.98,-1.64 6.06,-3.32 7.62,-3.75 2.34,-0.68 5.13,-0.8 7.02,-0.8z"/>
    <path class="fil5" d="M394.97 581.31l2.84 33.34 0.51 6.16 77.04 0c0,0 0.94,-2.71 1.15,-6.09 0.33,-5.3 -1.13,-12.28 -10.67,-13.34 -15.68,-1.77 -33.62,-0.89 -34.75,-2.65 -0.55,-0.88 -2.42,-10.73 -4.16,-20.46l-31.96 3.04z"/>
    <path class="fil2" d="M475.36 621.28l-77.04 0c-0.25,0 -0.45,-0.18 -0.47,-0.43l-3.35 -39.5c-0.02,-0.27 0.17,-0.49 0.43,-0.52l31.96 -3.05c0.24,-0.02 0.47,0.14 0.51,0.39 3.1,17.36 3.9,19.96 4.08,20.29 0.08,0.11 0.6,0.47 3.92,0.74 2.36,0.19 5.54,0.29 9.22,0.41 6.24,0.21 14.01,0.45 21.24,1.27 4.43,0.5 7.59,2.3 9.4,5.32 1.33,2.24 1.9,5.11 1.7,8.52 -0.21,3.42 -1.13,6.11 -1.17,6.21 -0.04,0.21 -0.23,0.35 -0.43,0.35zm-76.59 -0.96l76.24 0c0.25,-0.8 0.86,-3.02 1.03,-5.64 0.32,-5.3 -1.19,-11.83 -10.27,-12.85 -7.18,-0.8 -14.94,-1.07 -21.15,-1.27 -9.14,-0.31 -13.22,-0.48 -13.92,-1.6 -0.2,-0.33 -0.74,-1.17 -4.14,-20.2l-31.05 2.98 3.26 38.58z"/>
    <path class="fil2" d="M397.81 614.63l0.51 6.16 77.04 0c0,0 0.94,-2.71 1.15,-6.09 -14.94,0.1 -59.29,0 -78.7,-0.07z"/>
    <path class="fil2" d="M475.36 621.28l-77.04 0c-0.25,0 -0.45,-0.18 -0.47,-0.43l-0.52 -6.15c-0.02,-0.13 0.05,-0.27 0.13,-0.37 0.08,-0.11 0.22,-0.15 0.35,-0.15 0,0 0,0 0,0 14.51,0.04 63.04,0.17 78.7,0.06 0.12,0 0.26,0.07 0.35,0.15 0.08,0.1 0.14,0.22 0.12,0.35 -0.21,3.42 -1.13,6.11 -1.17,6.21 -0.06,0.19 -0.25,0.33 -0.45,0.33zm-76.59 -0.96l76.24 0c0.23,-0.76 0.78,-2.75 0.98,-5.15 -16,0.1 -62.73,-0.02 -77.67,-0.06l0.45 5.21z"/>
    <path class="fil2" d="M418.49 592.51c0,-2.61 -2,-4.72 -4.47,-4.72 -2.47,0 -4.48,2.11 -4.48,4.72 0,2.61 2.01,4.72 4.48,4.72 2.47,0 4.47,-2.11 4.47,-4.72z"/>
    <path class="fil2" d="M414.02 597.7c-2.73,0 -4.97,-2.32 -4.97,-5.19 0,-2.87 2.22,-5.19 4.97,-5.19 2.75,0 4.96,2.32 4.96,5.19 0,2.87 -2.23,5.19 -4.96,5.19zm0 -9.42c-2.22,0 -4,1.91 -4,4.23 0,2.34 1.8,4.23 4,4.23 2.21,0 4,-1.91 4,-4.23 0,-2.32 -1.81,-4.23 -4,-4.23z"/>
    <path class="fil5" d="M326.1 581.59l-2.83 33.35 -0.51 6.16 -77.02 0c0,0 -0.94,-2.71 -1.15,-6.1 -0.33,-5.29 1.13,-12.27 10.67,-13.34 15.68,-1.76 33.62,-0.88 34.75,-2.64 0.55,-0.89 2.42,-10.74 4.16,-20.46l31.93 3.03z"/>
    <path class="fil2" d="M322.76 621.57l-77.02 0c-0.21,0 -0.39,-0.12 -0.45,-0.33 -0.04,-0.1 -0.97,-2.81 -1.17,-6.22 -0.21,-3.4 0.37,-6.28 1.7,-8.51 1.81,-3.04 4.97,-4.83 9.4,-5.32 7.22,-0.82 15,-1.06 21.24,-1.27 3.67,-0.12 6.85,-0.23 9.21,-0.41 3.33,-0.27 3.84,-0.64 3.92,-0.74 0.19,-0.31 0.99,-2.93 4.09,-20.3 0.04,-0.24 0.27,-0.41 0.51,-0.39l31.95 3.06c0.27,0.02 0.46,0.25 0.43,0.52l-3.34 39.5c0,0.23 -0.23,0.41 -0.47,0.41zm-76.67 -0.94l76.24 0 3.26 -38.61 -31.05 -2.97c-3.41,19.04 -3.94,19.88 -4.15,20.19 -0.71,1.13 -4.78,1.3 -13.91,1.6 -6.22,0.21 -13.97,0.45 -21.16,1.28 -9.07,1.02 -10.59,7.55 -10.26,12.84 0.17,2.63 0.78,4.85 1.03,5.67z"/>
    <path class="fil2" d="M323.29 614.94l-0.51 6.16 -77.04 0c0,0 -0.94,-2.71 -1.15,-6.1 14.94,0.11 59.29,-0.02 78.7,-0.06z"/>
    <path class="fil2" d="M322.76 621.57l-77.02 0c-0.21,0 -0.39,-0.12 -0.45,-0.33 -0.04,-0.1 -0.97,-2.81 -1.17,-6.22 0,-0.12 0.04,-0.26 0.12,-0.34 0.08,-0.11 0.23,-0.15 0.35,-0.15 15.66,0.1 64.19,-0.02 78.7,-0.06 0,0 0,0 0,0 0.12,0 0.27,0.06 0.35,0.14 0.08,0.11 0.14,0.23 0.12,0.37l-0.51 6.16c-0.02,0.25 -0.25,0.43 -0.49,0.43zm-76.67 -0.94l76.24 0 0.43 -5.22c-14.94,0.04 -61.67,0.17 -77.68,0.07 0.23,2.4 0.76,4.39 1.01,5.15z"/>
    <path class="fil2" d="M311.55 592.82c0,-2.61 -2,-4.72 -4.47,-4.72 -2.47,0 -4.47,2.11 -4.47,4.72 0,2.61 2,4.72 4.47,4.72 2.47,0 4.47,-2.11 4.47,-4.72z"/>
    <path class="fil2" d="M307.08 598.01c-2.73,0 -4.97,-2.32 -4.97,-5.19 0,-2.87 2.22,-5.19 4.97,-5.19 2.75,0 4.97,2.32 4.97,5.19 0,2.87 -2.24,5.19 -4.97,5.19zm0 -9.44c-2.22,0 -4,1.91 -4,4.23 0,2.34 1.8,4.23 4,4.23 2.22,0 4,-1.91 4,-4.23 0,-2.32 -1.78,-4.23 -4,-4.23z"/>
    <path class="fil2" d="M376.2 261.72l-78.72 2.65c0,0 -14.58,27.99 -10.92,125.2 3.63,97.21 1.97,175.57 1.97,175.57l42.58 3.53 9.52 -207.97 50.71 207.97 37.82 -2.96c0,0 -24.93,-191.47 -30.8,-218.58 -5.91,-27.09 -5.36,-47.12 -22.16,-85.41z"/>
    <path class="fil2" d="M391.32 569.14c-0.22,0 -0.41,-0.15 -0.47,-0.37l-49.91 -204.75 -9.38 204.65c0,0.12 -0.06,0.24 -0.16,0.32 -0.11,0.09 -0.23,0.13 -0.35,0.13l-42.58 -3.53c-0.25,-0.02 -0.46,-0.23 -0.44,-0.5 0.03,-0.78 1.65,-79.46 -1.97,-175.54 -0.84,-22.18 -0.77,-42.58 0.17,-60.62 0.76,-14.43 2.07,-27.4 3.94,-38.54 3.16,-19 6.73,-26 6.87,-26.29 0.09,-0.14 0.23,-0.25 0.41,-0.25l78.73 -2.64c0.18,0 0.37,0.1 0.45,0.28 12.31,28.06 15.39,46.71 18.34,64.73 1.09,6.65 2.22,13.52 3.8,20.79 5.83,26.8 30.58,216.69 30.82,218.62 0.03,0.12 -0.02,0.26 -0.1,0.37 -0.08,0.1 -0.2,0.16 -0.33,0.18l-37.82 2.96c0,0 0,0 -0.02,0zm-50.69 -208.92c0.23,0 0.41,0.15 0.47,0.37l50.61 207.58 36.92 -2.87c-1.42,-10.88 -25.08,-191.94 -30.74,-218.05 -1.58,-7.3 -2.71,-14.18 -3.82,-20.82 -2.95,-17.92 -5.99,-36.43 -18.16,-64.22l-78.11 2.63c-0.65,1.39 -3.85,8.89 -6.69,25.86 -2.89,17.44 -5.95,48.74 -4.06,98.85 3.47,92.35 2.09,168.61 1.97,175.15l41.64 3.45 9.5 -207.47c0.02,-0.25 0.19,-0.43 0.43,-0.46 0,0 0.02,0 0.04,0z"/>
    <path class="fil3" d="M316.54 164.22c1.68,1.77 4.76,20.03 4.76,20.03l-8.39 2.96 5.31 19.74 14.57 13.25 10.65 -6.77 3.08 -29.16 -6.44 0 0 -5.6c0.08,-0.04 0.18,-0.1 0.27,-0.15 11.36,-6.48 3.65,-34.31 3.65,-34.31 -2.53,0.88 -6.73,-3.53 -6.73,-3.53 -1.69,5.3 -18.21,1.77 -19.6,5.6 -1.4,3.84 -0.84,12.09 -0.84,12.09l-1.97 -4.12c0,0 -4.21,-1.77 -3.64,4.41 0.56,6.14 5.32,5.56 5.32,5.56z"/>
    <path class="fil2" d="M332.77 220.66c-0.12,0 -0.22,-0.05 -0.33,-0.13l-14.57 -13.25c-0.06,-0.07 -0.12,-0.15 -0.14,-0.23l-5.32 -19.74c-0.06,-0.25 0.07,-0.49 0.31,-0.58l8.03 -2.81c-1.19,-7.04 -3.29,-17.42 -4.46,-19.23 -0.59,0.02 -2.05,-0.08 -3.34,-1.11 -1.29,-1.02 -2.03,-2.68 -2.24,-4.92 -0.2,-2.34 0.21,-3.92 1.25,-4.68 1.3,-0.94 2.98,-0.25 3.04,-0.23 0.1,0.05 0.21,0.13 0.25,0.23l0.96 2.01c-0.06,-2.77 0,-7.3 0.97,-9.93 0.76,-2.05 4.57,-2.26 9,-2.5 4.58,-0.25 9.77,-0.54 10.59,-3.08 0.05,-0.17 0.19,-0.29 0.35,-0.33 0.17,-0.04 0.33,0.02 0.45,0.14 1.11,1.17 4.4,4.07 6.22,3.41 0.13,-0.04 0.27,-0.04 0.37,0.02 0.13,0.06 0.21,0.16 0.25,0.29 0.02,0.06 1.95,7.1 2.46,14.83 0.31,4.56 0.04,8.48 -0.74,11.64 -1,4.02 -2.89,6.85 -5.6,8.39l-0.02 0.02 0 4.85 5.97 0c0.14,0 0.27,0.06 0.35,0.16 0.08,0.1 0.14,0.23 0.12,0.37l-3.08 29.16c-0.02,0.15 -0.1,0.27 -0.22,0.35l-10.65 6.77c-0.04,0.09 -0.12,0.11 -0.23,0.11zm-14.14 -14l14.2 12.91 10.14 -6.47 3 -28.4 -5.91 0c-0.27,0 -0.47,-0.2 -0.47,-0.47l0 -5.6c0,-0.19 0.1,-0.35 0.24,-0.43 0.06,-0.02 0.1,-0.07 0.17,-0.09l0.1 -0.04c10.16,-5.78 4.45,-29.77 3.53,-33.32 -0.12,0.02 -0.25,0.02 -0.39,0.02 -2.16,0 -4.74,-2.24 -5.85,-3.31 -1.52,2.55 -6.4,2.81 -11.14,3.06 -3.76,0.21 -7.64,0.41 -8.17,1.87 -1.36,3.69 -0.82,11.8 -0.82,11.88 0.02,0.23 -0.15,0.43 -0.35,0.49 -0.23,0.06 -0.45,-0.04 -0.56,-0.24l-1.86 -3.94c-0.37,-0.13 -1.27,-0.33 -1.95,0.16 -0.74,0.55 -1.05,1.87 -0.86,3.82 0.18,1.97 0.82,3.4 1.88,4.27 1.34,1.06 2.9,0.9 2.9,0.9 0.14,-0.02 0.31,0.04 0.41,0.14 1.72,1.83 4.57,18.39 4.88,20.28 0.04,0.22 -0.1,0.45 -0.31,0.53l-7.98 2.79 5.17 19.19z"/>
    <path class="fil1" d="M343.01 184.39c0,0 2.94,12.81 -7.98,13.4 -10.92,0.6 -13.81,-4.39 -15.86,-12.8l-9.92 1.02 0 47.14 2.8 31.24 47.34 -2.05 -9.24 -78.07 -7.14 0.12z"/>
    <path class="fil2" d="M312.05 264.84c-0.25,0 -0.46,-0.19 -0.48,-0.43l-2.79 -31.24c0,-0.02 0,-0.02 0,-0.04l0 -47.14c0,-0.24 0.19,-0.45 0.43,-0.47l9.92 -1.02c0.24,-0.02 0.45,0.12 0.51,0.37 2.13,8.68 5.09,12.99 15.37,12.43 2.73,-0.14 4.78,-1.11 6.12,-2.85 2.81,-3.74 1.45,-9.89 1.43,-9.95 -0.04,-0.15 0,-0.29 0.08,-0.39 0.09,-0.13 0.23,-0.19 0.37,-0.19l7.14 -0.14c0.25,0 0.46,0.18 0.5,0.41l9.23 78.06c0.02,0.13 -0.02,0.27 -0.1,0.37 -0.08,0.11 -0.21,0.17 -0.35,0.17l-47.34 2.05c-0.02,0 -0.02,0 -0.04,0zm-2.32 -31.73l2.75 30.74 46.38 -2.01 -9.14 -77.12 -6.13 0.13c0.28,1.7 0.88,6.73 -1.71,10.17 -1.49,1.99 -3.79,3.08 -6.81,3.25 -0.59,0.04 -1.19,0.04 -1.74,0.04 -9.36,0 -12.44,-4.58 -14.53,-12.81l-9.07 0.93 0 46.68z"/>
    <path class="fil5" d="M368.62 184.25c0,0 26.62,26.51 36.98,48.31l19.34 -6.77c0,0 17.09,21.2 16.8,22.98 -0.28,1.77 -31.64,17.67 -36.4,15.62 -4.76,-2.05 -29.7,-23.56 -29.7,-23.56l17.94 46.54 -34.17 0c0,0 -19.54,-72.34 -18.74,-78.15 0.8,-5.8 2.49,-24.95 2.49,-24.95 0,0 10.63,-4.14 25.46,-0.02z"/>
    <path class="fil2" d="M393.56 287.82l-34.17 0c-0.21,0 -0.41,-0.14 -0.45,-0.35 -0.8,-2.95 -19.56,-72.5 -18.74,-78.33 0.8,-5.72 2.46,-24.75 2.48,-24.93 0.03,-0.19 0.13,-0.33 0.31,-0.41 0.11,-0.04 2.77,-1.07 7.31,-1.58 4.16,-0.47 10.75,-0.6 18.49,1.56 0.08,0.02 0.14,0.06 0.2,0.12 0.07,0.06 6.76,6.75 14.64,16.01 7.18,8.45 16.84,20.85 22.26,32.05l18.92 -6.63c0.19,-0.06 0.41,0 0.54,0.15 0.04,0.06 4.33,5.38 8.51,10.83 8.6,11.21 8.46,12.09 8.4,12.52 -0.04,0.31 -0.15,0.95 -6.1,4.21 -4.12,2.28 -10.9,5.66 -17.54,8.39 -7.23,2.98 -11.76,4.11 -13.45,3.37 -4.16,-1.81 -22.96,-17.77 -28.38,-22.41l17.24 44.78c0.06,0.14 0.04,0.3 -0.06,0.43 -0.1,0.14 -0.25,0.22 -0.41,0.22zm-33.8 -0.96l33.12 0 -17.67 -45.89c-0.08,-0.2 0,-0.43 0.17,-0.55 0.18,-0.12 0.41,-0.12 0.59,0.02 0.25,0.2 24.94,21.49 29.57,23.5 1.83,0.8 9.16,-1.58 19.11,-6.18 9.21,-4.25 15.99,-8.23 16.64,-9.09 -0.08,-0.41 -1.02,-2.44 -8.35,-11.97 -3.61,-4.7 -7.24,-9.23 -8.13,-10.36l-19 6.67c-0.23,0.08 -0.49,-0.02 -0.6,-0.25 -5.33,-11.2 -15.08,-23.72 -22.3,-32.22 -7.35,-8.66 -13.67,-15.04 -14.49,-15.86 -7.53,-2.07 -13.91,-1.97 -17.98,-1.5 -3.61,0.41 -6.03,1.15 -6.81,1.42 -0.23,2.48 -1.73,19.33 -2.46,24.67 -0.8,5.43 17.11,72.11 18.59,77.59zm81.51 -38.15c0,0 0,0 0,0 0,0 0,0 0,0z"/>
    <path class="fil5" d="M319.04 184.25c0,0 6.73,23.56 5.32,34.46 -1.4,10.89 -10.92,68.64 -10.92,68.64l-33.88 0c0,0 5.89,-37.7 7,-43.59 0,0 -6.16,10.9 -19.6,18.56 -13.44,7.65 -32.77,13.25 -32.77,13.25l-10.08 -25.32c0,0 34.74,-13.55 37.25,-17.98 2.52,-4.41 21.28,-39.77 25.2,-42.7 3.92,-2.98 22.69,-6.2 32.48,-5.32z"/>
    <path class="fil2" d="M313.44 287.82l-33.88 0c-0.14,0 -0.27,-0.06 -0.37,-0.16 -0.08,-0.1 -0.12,-0.25 -0.1,-0.39 0.06,-0.35 4.88,-31.28 6.58,-41.29 -0.8,1.15 -1.94,2.69 -3.52,4.47 -2.96,3.39 -7.97,8.27 -14.97,12.25 -13.33,7.6 -32.69,13.24 -32.87,13.3 -0.23,0.06 -0.49,-0.06 -0.58,-0.28l-10.07 -25.31c-0.04,-0.12 -0.04,-0.24 0,-0.37 0.04,-0.12 0.14,-0.2 0.26,-0.24 9.63,-3.76 35.01,-14.27 37.03,-17.75 0.45,-0.81 1.41,-2.57 2.75,-5.01 6.26,-11.47 19.29,-35.36 22.57,-37.84 4.19,-3.14 23.19,-6.26 32.81,-5.4 0.21,0.02 0.37,0.16 0.41,0.35 0.27,0.96 6.74,23.78 5.34,34.66 -1.39,10.77 -10.83,68.07 -10.92,68.64 -0.02,0.21 -0.22,0.37 -0.47,0.37zm-33.33 -0.96l32.94 0c0.84,-5.15 9.54,-57.93 10.86,-68.22 1.29,-9.99 -4.44,-31.11 -5.22,-33.96 -10.01,-0.8 -28.21,2.53 -31.82,5.23 -3.14,2.36 -16.59,27.01 -22.33,37.54 -1.34,2.46 -2.3,4.23 -2.77,5.03 -1.09,1.93 -7.76,5.56 -19.81,10.83 -7.75,3.39 -15.37,6.43 -17.26,7.16l9.75 24.49c2.88,-0.87 20.09,-6.16 32.26,-13.1 13.18,-7.49 19.38,-18.26 19.44,-18.38 0.12,-0.21 0.37,-0.29 0.57,-0.21 0.23,0.08 0.35,0.31 0.31,0.53 -1.03,5.46 -6.18,38.38 -6.92,43.06z"/>
    <path class="fil6" d="M375.75 242.27l0.77 -0.33c-0.1,-0.25 -9.44,-24.28 -9.7,-30.31l-0.84 0.04c0.26,6.17 9.38,29.59 9.77,30.6z"/>
    <path class="fil6" d="M286.97 243.87c0.04,-0.19 5.07,-19.07 5.33,-32.22l-0.84 -0.02c-0.26,13.05 -5.25,31.8 -5.31,31.99l0.82 0.25z"/>
    <path class="fil2" d="M331.23 177.31c0,0 3.62,3.59 8.83,3.33l0 -2.01c0.08,-0.04 0.18,-0.11 0.26,-0.15 -0.08,0 -0.12,0 -0.12,0 0,0 -4.21,0.31 -8.97,-1.17z"/>
    <path class="fil2" d="M339.52 181.13c-5.04,0 -8.47,-3.32 -8.62,-3.49 -0.16,-0.16 -0.18,-0.39 -0.08,-0.57 0.13,-0.19 0.35,-0.27 0.56,-0.21 4.61,1.44 8.74,1.17 8.78,1.15 0.02,0 0.02,0 0.04,0 0,0 0.04,0 0.15,0 0.2,0 0.39,0.17 0.45,0.37 0.04,0.21 -0.04,0.43 -0.25,0.53l-0.02 0 0 1.73c0,0.24 -0.21,0.47 -0.45,0.47 -0.19,0.02 -0.37,0.02 -0.56,0.02zm-6.05 -2.75c1.42,0.86 3.57,1.81 6.12,1.81l0 -1.19c-1.07,0.02 -3.37,-0.02 -6.12,-0.62z"/>
    <path class="fil2" d="M473.45 210.23c-1.64,-0.9 -2.75,-2.69 -2.77,-2.71l0.12 -0.06c0.02,0.02 1.11,1.79 2.71,2.65l-0.06 0.12z"/>
    <path class="fil2" d="M332.32 153.2c0,-1.2 -0.65,-2.17 -1.46,-2.17 -0.8,0 -1.45,0.97 -1.45,2.17 0,1.2 0.65,2.18 1.45,2.18 0.81,0 1.46,-0.98 1.46,-2.18z"/>
    <path class="fil2" d="M342.68 151.93c0,-1.2 -0.65,-2.18 -1.45,-2.18 -0.81,0 -1.46,0.98 -1.46,2.18 0,1.2 0.65,2.17 1.46,2.17 0.8,0 1.45,-0.97 1.45,-2.17z"/>
    <path class="fil2" d="M336.86 152.79c-0.11,2.18 0.57,4.35 1.93,6.09 0.71,0.91 2.09,1.73 1.43,3.04 -0.7,1.44 -2.5,1.27 -3.73,0.72 -0.25,-0.1 -0.45,0.25 -0.21,0.35 1.09,0.49 2.46,0.76 3.51,0.04 0.76,-0.53 1.25,-1.58 0.9,-2.48 -0.22,-0.6 -0.76,-0.99 -1.19,-1.44 -0.49,-0.53 -0.9,-1.15 -1.25,-1.78 -0.74,-1.4 -1.07,-2.96 -1,-4.54 0.04,-0.27 -0.37,-0.27 -0.39,0l0 0z"/>
    <path class="fil2" d="M327.29 164.77c0.93,2.14 2.51,3.97 4.54,5.09 1.99,1.13 4.57,1.63 6.42,-0.04 0.21,-0.18 -0.1,-0.47 -0.29,-0.28 -1.88,1.7 -4.57,0.88 -6.46,-0.35 -1.72,-1.11 -3.06,-2.75 -3.86,-4.62 -0.1,-0.25 -0.45,-0.04 -0.35,0.2l0 0z"/>
    <path class="fil2" d="M331.77 147.41c-1.79,-0.08 -3.43,0.74 -4.48,2.18 -0.14,0.2 0.21,0.41 0.35,0.2 0.95,-1.33 2.49,-2.05 4.11,-1.97 0.28,0 0.28,-0.41 0.02,-0.41l0 0z"/>
    <path class="fil2" d="M339.22 147.19c1.6,-0.17 3.38,-0.31 4.61,0.9 0.19,0.19 0.48,-0.1 0.29,-0.29 -1.33,-1.29 -3.2,-1.21 -4.9,-1.02 -0.25,0.04 -0.27,0.45 0,0.41l0 0z"/>
    <path class="fil2" d="M876.38 623.17c0,0.53 -0.52,0.95 -1.15,0.95l-725.2 0c-0.64,0 -1.15,-0.44 -1.15,-0.95 0,-0.53 0.51,-0.94 1.15,-0.94l725.22 0c0.61,-0.02 1.13,0.41 1.13,0.94z"/>
    <path class="fil2" d="M692.52 624.12c-0.08,0 -0.16,-0.03 -0.25,-0.05 -0.51,-0.14 -0.82,-0.65 -0.67,-1.17 0.02,-0.08 2.03,-7.69 3.9,-20.93 1.72,-12.23 3.67,-31.89 3.16,-56.13 -0.91,-42.8 -9.79,-108.37 -47.12,-177.71 -0.25,-0.48 -0.08,-1.05 0.39,-1.3 0.47,-0.24 1.04,-0.08 1.29,0.39 16.56,30.79 28.98,63.39 36.92,96.95 6.34,26.84 9.85,54.32 10.42,81.72 0.52,24.36 -1.45,44.14 -3.2,56.43 -1.88,13.34 -3.92,21.04 -3.94,21.1 -0.1,0.41 -0.47,0.7 -0.9,0.7z"/>
    <path class="fil2" d="M681.87 624.12c0,0 0,0 0,0 -0.53,0 -0.97,-0.44 -0.94,-0.97 0,-0.1 0.02,-10.83 -1.24,-26.97 -1.15,-14.87 -3.65,-37.55 -9,-60.99 -9.42,-41.22 -29.7,-92.84 -72.75,-104.43 -0.52,-0.15 -0.81,-0.66 -0.68,-1.17 0.14,-0.51 0.65,-0.8 1.17,-0.68 19.45,5.25 35.99,18.78 49.17,40.22 10.48,17.08 18.88,39.16 24.93,65.67 5.38,23.56 7.9,46.32 9.05,61.28 1.25,16.19 1.23,26.99 1.23,27.09 0,0.51 -0.43,0.95 -0.94,0.95z"/>
    <path class="fil2" d="M751.52 624.12c-0.06,0 -0.12,0 -0.18,-0.03 -0.52,-0.1 -0.87,-0.59 -0.76,-1.12 0.02,-0.11 2.09,-10.7 3.98,-27.83 1.74,-15.82 3.67,-40.63 2.95,-68.98 -1.25,-50.01 -11.12,-120.81 -51.03,-174.19 -0.31,-0.43 -0.23,-1.02 0.18,-1.33 0.43,-0.31 1.03,-0.22 1.33,0.19 17.78,23.76 31.18,52.88 39.82,86.56 6.91,26.9 10.81,56.78 11.61,88.77 0.7,28.45 -1.23,53.36 -2.97,69.25 -1.89,17.21 -3.99,27.84 -4.01,27.95 -0.06,0.45 -0.47,0.76 -0.92,0.76z"/>
    <path class="fil2" d="M726.67 624.12c0,0 0,0 0,0 -0.53,0 -0.97,-0.44 -0.95,-0.97 0,-0.64 0.54,-64.27 6.92,-133.06 3.76,-40.43 8.76,-74.7 14.9,-101.87 3.65,-16.15 7.74,-29.97 12.17,-41.01 4.88,-12.23 10.32,-21.42 16.13,-27.35 0.37,-0.37 0.96,-0.39 1.35,-0.02 0.37,0.37 0.39,0.96 0.02,1.35 -10.81,11.02 -20.17,33.72 -27.78,67.44 -6.12,27.09 -11.13,61.28 -14.86,101.6 -6.38,68.71 -6.9,132.28 -6.92,132.92 -0.04,0.53 -0.47,0.97 -0.98,0.97z"/>
    <path class="fil1" d="M752.51 361.52l0.53 0.96 8.41 15.27 1.13 2.05 1.52 -1.8c12.29,-14.61 29.59,-16.79 38.81,-16.79 1.39,0 2.79,0.04 4.14,0.14l2.79 0.21 -1.23 -2.53 -7.43 -15.18 -0.41 -0.82 -0.9 -0.08c-1.74,-0.17 -3.55,-0.23 -5.4,-0.23l0 0c-3.03,0 -6.09,0.23 -9.05,0.64 -3.69,0.53 -7.28,1.39 -10.65,2.56 -8.6,2.98 -15.84,7.94 -21.57,14.74l-0.69 0.86z"/>
    <path class="fil2" d="M762.62 380.27c-0.02,0 -0.04,0 -0.04,0 -0.16,-0.02 -0.29,-0.1 -0.37,-0.24l-10.09 -18.31c-0.11,-0.16 -0.09,-0.39 0.06,-0.53l0.72 -0.84c5.78,-6.88 13.11,-11.88 21.77,-14.88 3.41,-1.17 7.02,-2.05 10.75,-2.59 3,-0.43 6.06,-0.63 9.14,-0.63 1.84,0 3.67,0.08 5.43,0.22l0.91 0.09c0.16,0.02 0.3,0.12 0.39,0.26l9.07 18.53c0.08,0.15 0.06,0.33 -0.04,0.48 -0.11,0.14 -0.27,0.22 -0.44,0.2l-2.81 -0.2c-1.33,-0.11 -2.73,-0.15 -4.12,-0.15 -9.13,0 -26.29,2.16 -38.44,16.62l-1.52 1.81c-0.1,0.1 -0.24,0.16 -0.37,0.16zm-9.54 -18.71l9.6 17.4 1.07 -1.27c12.42,-14.76 29.86,-16.95 39.18,-16.95 1.41,0 2.81,0.04 4.18,0.14l1.97 0.15 -8.59 -17.55 -0.64 -0.06c-1.72,-0.15 -3.53,-0.23 -5.36,-0.23 -3.01,0 -6.05,0.21 -8.99,0.64 -3.67,0.53 -7.22,1.37 -10.56,2.54 -8.52,2.96 -15.7,7.86 -21.37,14.59l-0.49 0.6z"/>
    <path class="fil1" d="M624.31 381.61l-0.29 1.07 -4.35 16.89 -0.6 2.27 2.34 -0.26c18.96,-2.18 33.04,8.1 39.75,14.44 1.03,0.97 1.99,1.95 2.92,2.96l1.91 2.07 0.84 -2.69 5.02 -16.15 0.27 -0.86 -0.61 -0.68c-1.17,-1.31 -2.43,-2.6 -3.76,-3.88 0,0 0,0 0,0 -2.22,-2.09 -4.58,-4.02 -7.02,-5.74 -3.06,-2.16 -6.26,-3.98 -9.5,-5.46 -8.29,-3.74 -16.97,-5.11 -25.8,-4.08l-1.12 0.1z"/>
    <path class="fil2" d="M665.99 421.5c-0.13,0 -0.27,-0.06 -0.35,-0.16l-1.91 -2.07c-0.9,-0.99 -1.89,-1.97 -2.9,-2.94 -6.64,-6.28 -20.58,-16.48 -39.36,-14.32l-2.34 0.26c-0.16,0.02 -0.3,-0.04 -0.41,-0.16 -0.1,-0.12 -0.14,-0.29 -0.1,-0.43l5.23 -20.24c0.05,-0.18 0.21,-0.32 0.41,-0.34l1.11 -0.13c8.93,-1.02 17.69,0.37 26.07,4.13 3.28,1.47 6.5,3.32 9.58,5.5 2.46,1.74 4.84,3.69 7.08,5.8 0,0 0,0 0.02,0 1.35,1.28 2.61,2.59 3.78,3.9l0.61 0.68c0.1,0.12 0.15,0.31 0.1,0.45l-6.13 19.7c-0.04,0.17 -0.19,0.29 -0.35,0.33 -0.08,0.04 -0.12,0.04 -0.14,0.04zm-39.39 -20.7c16.5,0 28.76,9.07 34.89,14.87 1.03,0.97 2.01,1.97 2.94,2.98l1.33 1.46 5.81 -18.66 -0.43 -0.47c-1.15,-1.29 -2.4,-2.58 -3.74,-3.84 0,0 0,0 0,0 -2.19,-2.07 -4.53,-4 -6.98,-5.7 -3.03,-2.14 -6.19,-3.96 -9.42,-5.42 -8.2,-3.69 -16.8,-5.07 -25.54,-4.06l-0.78 0.08 -4.97 19.25 1.64 -0.19c1.81,-0.2 3.55,-0.3 5.25,-0.3z"/>
    <path class="fil1" d="M742.88 458.13l0.9 0.66 14.12 10.24 1.91 1.38 0.62 -2.28c4.9,-18.45 19.64,-27.77 27.99,-31.69 1.27,-0.59 2.54,-1.15 3.82,-1.64l2.62 -1 -2.19 -1.77 -13.2 -10.59 -0.72 -0.57 -0.86 0.3c-1.64,0.6 -3.32,1.3 -4.99,2.08 0,0 0,0 0,0 -2.75,1.29 -5.41,2.79 -7.92,4.43 -3.12,2.05 -6.01,4.35 -8.55,6.85 -6.51,6.35 -10.98,13.92 -13.26,22.52l-0.29 1.08z"/>
    <path class="fil2" d="M759.79 470.88c-0.1,0 -0.2,-0.04 -0.29,-0.08l-16.91 -12.28c-0.16,-0.12 -0.22,-0.3 -0.18,-0.51l0.29 -1.07c2.32,-8.68 6.81,-16.31 13.38,-22.73 2.58,-2.51 5.48,-4.85 8.64,-6.9 2.52,-1.66 5.21,-3.16 7.98,-4.45 1.68,-0.78 3.36,-1.5 5.03,-2.1l0.86 -0.3c0.16,-0.07 0.33,-0.02 0.47,0.08l16.09 12.91c0.12,0.1 0.21,0.26 0.16,0.45 -0.02,0.16 -0.14,0.31 -0.3,0.37l-2.63 1c-1.25,0.5 -2.52,1.03 -3.8,1.62 -8.27,3.88 -22.88,13.14 -27.74,31.38l-0.62 2.28c-0.04,0.14 -0.14,0.27 -0.31,0.33 0,0 -0.06,0 -0.12,0zm-16.36 -12.93l16.09 11.68 0.44 -1.6c4.96,-18.64 19.82,-28.06 28.25,-32 1.28,-0.59 2.57,-1.15 3.86,-1.64l1.85 -0.72 -15.23 -12.23 -0.59 0.23c-1.62,0.59 -3.29,1.29 -4.95,2.07 -2.73,1.29 -5.38,2.77 -7.86,4.39 -3.1,2.03 -5.95,4.33 -8.5,6.79 -6.44,6.28 -10.85,13.8 -13.13,22.29l-0.23 0.74z"/>
    <path class="fil7" d="M754.86 301.11l1.21 0.64c3.1,-2.59 8.62,-3.23 15.52,-1.3 12.39,3.47 24.52,13.92 27.11,23.34 0.04,0.12 0.06,0.24 0.1,0.37l1.37 0.71 -1.37 4.91 0 0c-1.64,5.29 -8.5,7.43 -17.87,4.8 -12.4,-3.47 -24.53,-13.91 -27.11,-23.33 -0.62,-2.28 -0.64,-4.31 -0.11,-5.99l0 0 1.15 -4.15z"/>
    <path class="fil2" d="M788.35 336.16c-2.31,0 -4.86,-0.39 -7.57,-1.13 -6.05,-1.68 -12.25,-5.07 -17.42,-9.52 -5.19,-4.47 -8.74,-9.48 -10.02,-14.14 -0.63,-2.3 -0.67,-4.39 -0.1,-6.22 0,-0.02 0,-0.02 0,-0.04l1.15 -4.12c0.04,-0.15 0.14,-0.25 0.27,-0.31 0.12,-0.06 0.28,-0.06 0.41,0.02l0.92 0.49c3.39,-2.6 9.07,-3.04 15.7,-1.19 6.05,1.68 12.25,5.07 17.42,9.52 5.2,4.48 8.75,9.49 10.02,14.14 0.02,0.07 0.02,0.11 0.04,0.17l1.19 0.61c0.2,0.11 0.31,0.33 0.25,0.56l-1.38 4.9c0,0.02 -0.02,0.04 -0.02,0.06 -0.88,2.77 -3.08,4.72 -6.34,5.63 -1.36,0.39 -2.87,0.57 -4.52,0.57zm-34.16 -30.84c0,0.02 0,0.04 -0.03,0.06 -0.51,1.66 -0.47,3.59 0.11,5.72 2.52,9.28 14.55,19.58 26.78,23.01 4.45,1.25 8.45,1.44 11.59,0.55 2.98,-0.84 4.95,-2.58 5.71,-5.05 0,-0.02 0,-0.02 0.02,-0.04l1.25 -4.47 -1.05 -0.55c-0.12,-0.07 -0.2,-0.19 -0.24,-0.31 -0.02,-0.13 -0.06,-0.23 -0.08,-0.35 -2.53,-9.28 -14.55,-19.58 -26.79,-23.01 -6.48,-1.8 -11.98,-1.37 -15.08,1.22 -0.14,0.12 -0.35,0.14 -0.53,0.06l-0.68 -0.35 -0.98 3.51z"/>
    <path class="fil7" d="M754.92 307.21c2.57,9.41 14.72,19.86 27.11,23.33 12.4,3.47 20.36,-1.38 17.78,-10.8 -2.59,-9.42 -14.72,-19.86 -27.11,-23.33 -12.38,-3.45 -20.34,1.38 -17.78,10.8z"/>
    <path class="fil2" d="M789.5 332.14c-2.3,0 -4.86,-0.37 -7.61,-1.15 -6.05,-1.68 -12.25,-5.07 -17.42,-9.52 -5.2,-4.48 -8.75,-9.48 -10.02,-14.14 -1.06,-3.94 -0.43,-7.23 1.87,-9.5 3.24,-3.23 9.26,-3.9 16.5,-1.89 6.05,1.68 12.25,5.07 17.42,9.52 5.19,4.47 8.74,9.48 10.02,14.14 1.06,3.94 0.43,7.22 -1.87,9.5 -1.99,2.03 -5.09,3.04 -8.89,3.04zm-24.21 -36.37c-3.55,0 -6.47,0.93 -8.27,2.73 -2.03,2.04 -2.59,4.99 -1.62,8.58 2.52,9.28 14.55,19.58 26.78,23.01 6.81,1.91 12.62,1.29 15.57,-1.64 2.03,-2.04 2.59,-4.99 1.62,-8.58 -2.52,-9.28 -14.55,-19.58 -26.78,-23.01 -2.62,-0.72 -5.09,-1.09 -7.3,-1.09z"/>
    <path class="fil2" d="M787.53 329.18c-1.93,0 -4.08,-0.3 -6.38,-0.96 -5.09,-1.42 -10.26,-4.25 -14.61,-7.98 -4.35,-3.76 -7.35,-7.97 -8.41,-11.87l0 0c-0.91,-3.32 -0.37,-6.09 1.58,-8.02 2.73,-2.71 7.79,-3.3 13.89,-1.6 5.09,1.42 10.26,4.25 14.61,7.98 4.35,3.76 7.35,7.97 8.41,11.86 0.91,3.33 0.37,6.1 -1.58,8.03 -1.72,1.7 -4.33,2.56 -7.51,2.56zm-28.48 -21.07c2.11,7.73 12.13,16.33 22.35,19.19 5.66,1.58 10.5,1.06 12.95,-1.36 1.68,-1.68 2.13,-4.12 1.33,-7.1 -2.11,-7.74 -12.13,-16.33 -22.35,-19.19 -5.66,-1.58 -10.51,-1.06 -12.95,1.36 -1.68,1.68 -2.13,4.12 -1.33,7.1l0 0z"/>
    <path class="fil7" d="M687.12 355.07l1.25 -0.51c0.03,-4.02 3.08,-8.68 8.99,-12.72 10.61,-7.27 26.42,-9.85 35.3,-5.77 0.12,0.06 0.23,0.1 0.35,0.16l1.44 -0.59 2.87 4.21 0 0c3,4.65 0.23,11.28 -7.82,16.78 -10.61,7.27 -26.41,9.85 -35.3,5.77 -2.15,-0.98 -3.69,-2.28 -4.66,-3.78l0 0 -2.42 -3.55z"/>
    <path class="fil2" d="M704.53 364.82c-4.05,0 -7.64,-0.68 -10.51,-1.99 -2.18,-1 -3.8,-2.32 -4.82,-3.9 0,-0.02 -0.02,-0.02 -0.02,-0.04l-2.43 -3.55c-0.08,-0.12 -0.1,-0.27 -0.06,-0.41 0.04,-0.14 0.15,-0.25 0.27,-0.31l0.96 -0.39c0.19,-4.27 3.51,-8.9 9.2,-12.78 5.19,-3.55 11.76,-6.12 18.49,-7.23 6.75,-1.1 12.89,-0.59 17.28,1.42 0.06,0.02 0.1,0.04 0.16,0.08l1.25 -0.51c0.21,-0.08 0.45,-0.02 0.58,0.16l2.87 4.21c0.02,0.02 0.02,0.04 0.04,0.06 1.56,2.46 1.64,5.38 0.25,8.48 -1.4,3.12 -4.25,6.19 -8.21,8.9 -5.19,3.55 -11.76,6.12 -18.49,7.23 -2.4,0.39 -4.66,0.57 -6.81,0.57zm-14.6 -6.5c0.03,0.02 0.03,0.04 0.05,0.06 0.94,1.45 2.44,2.67 4.45,3.59 8.72,4.02 24.34,1.46 34.82,-5.73 3.82,-2.6 6.55,-5.56 7.88,-8.51 1.28,-2.81 1.2,-5.44 -0.2,-7.62 0,-0.02 -0.02,-0.02 -0.02,-0.04l-2.63 -3.84 -1.09 0.46c-0.12,0.06 -0.26,0.04 -0.39,-0.02 -0.1,-0.07 -0.22,-0.11 -0.32,-0.17 -8.73,-4.02 -24.34,-1.46 -34.83,5.73 -5.56,3.81 -8.76,8.31 -8.78,12.33 0,0.19 -0.13,0.37 -0.29,0.43l-0.72 0.29 2.07 3.04z"/>
    <path class="fil7" d="M691.86 358.95c8.87,4.09 24.67,1.5 35.3,-5.76 10.61,-7.27 12.03,-16.48 3.16,-20.57 -8.86,-4.08 -24.67,-1.5 -35.3,5.77 -10.63,7.28 -12.02,16.48 -3.16,20.56z"/>
    <path class="fil2" d="M702.17 361.37c-4.05,0 -7.64,-0.67 -10.51,-1.99 -3.72,-1.7 -5.81,-4.31 -6.08,-7.53 -0.39,-4.55 2.96,-9.6 9.18,-13.85 5.19,-3.55 11.76,-6.12 18.49,-7.22 6.75,-1.11 12.89,-0.6 17.28,1.41 3.71,1.71 5.8,4.31 6.07,7.53 0.39,4.56 -2.95,9.61 -9.17,13.86 -5.19,3.55 -11.76,6.11 -18.49,7.22 -2.36,0.39 -4.62,0.57 -6.77,0.57zm-10.1 -2.85c8.72,4.02 24.34,1.46 34.82,-5.72 5.83,-4.01 9.12,-8.85 8.75,-12.99 -0.25,-2.86 -2.16,-5.2 -5.52,-6.76 -8.73,-4.02 -24.34,-1.45 -34.83,5.73 -5.83,4 -9.11,8.84 -8.74,12.99 0.22,2.87 2.13,5.19 5.52,6.75z"/>
    <path class="fil2" d="M703.62 358.91c-3.38,0 -6.42,-0.55 -8.82,-1.66 -3.12,-1.44 -4.91,-3.63 -5.13,-6.36 -0.33,-3.84 2.48,-8.09 7.69,-11.66 4.35,-2.97 9.85,-5.13 15.52,-6.05 5.66,-0.93 10.81,-0.52 14.49,1.19 3.12,1.43 4.9,3.63 5.13,6.36 0.33,3.84 -2.49,8.08 -7.7,11.66 -4.35,2.97 -9.85,5.13 -15.51,6.05 -1.95,0.31 -3.86,0.47 -5.67,0.47zm-8.41 -2.54c7.28,3.34 20.32,1.21 29.06,-4.78 4.86,-3.33 7.57,-7.37 7.28,-10.8 -0.2,-2.36 -1.78,-4.29 -4.57,-5.58 -7.29,-3.35 -20.32,-1.21 -29.06,4.78 -4.87,3.32 -7.57,7.37 -7.29,10.79 0.19,2.39 1.77,4.31 4.58,5.59z"/>
    <path class="fil7" d="M581.85 441.88l1.15 -0.74c-0.72,-3.96 1.43,-9.09 6.48,-14.16 9.09,-9.09 24.15,-14.53 33.64,-12.15 0.12,0.04 0.24,0.06 0.36,0.11l1.32 -0.85 3.59 3.62 0 0c3.8,4.02 2.3,11.04 -4.6,17.93 -9.09,9.09 -24.15,14.53 -33.63,12.15 -2.3,-0.57 -4.07,-1.56 -5.28,-2.85l0 0 -3.03 -3.06z"/>
    <path class="fil2" d="M595.08 448.82c-1.8,0 -3.51,-0.19 -5.03,-0.58 -2.31,-0.57 -4.14,-1.58 -5.45,-2.95 -0.02,0 -0.02,-0.02 -0.04,-0.02l-3.04 -3.04c-0.1,-0.1 -0.15,-0.25 -0.15,-0.39 0.02,-0.14 0.11,-0.27 0.21,-0.35l0.88 -0.57c-0.61,-4.23 1.81,-9.4 6.67,-14.27 4.45,-4.45 10.43,-8.16 16.85,-10.48 6.44,-2.32 12.56,-2.96 17.24,-1.79 0.06,0.02 0.1,0.02 0.16,0.04l1.13 -0.74c0.19,-0.12 0.43,-0.1 0.6,0.07l3.59 3.61c0.02,0.02 0.04,0.04 0.04,0.06 1.97,2.13 2.58,4.99 1.78,8.29 -0.8,3.32 -3.03,6.87 -6.42,10.26 -4.45,4.45 -10.42,8.17 -16.85,10.49 -4.29,1.56 -8.47,2.36 -12.17,2.36zm-9.89 -4.27c0.02,0.02 0.04,0.02 0.04,0.04 1.19,1.25 2.9,2.18 5.05,2.73 9.32,2.34 24.2,-3.06 33.18,-12.03 3.29,-3.26 5.42,-6.67 6.18,-9.81 0.74,-2.99 0.19,-5.56 -1.6,-7.45 0,-0.02 -0.02,-0.02 -0.02,-0.04l-3.28 -3.28 -0.99 0.64c-0.12,0.08 -0.24,0.1 -0.39,0.06 -0.12,-0.04 -0.22,-0.06 -0.35,-0.1 -9.31,-2.34 -24.19,3.05 -33.18,12.02 -4.76,4.76 -7.08,9.77 -6.36,13.73 0.04,0.19 -0.04,0.39 -0.21,0.49l-0.63 0.41 2.56 2.59z"/>
    <path class="fil7" d="M587.2 444.84c9.48,2.38 24.53,-3.06 33.64,-12.15 9.09,-9.09 8.8,-18.41 -0.68,-20.79 -9.48,-2.38 -24.52,3.06 -33.63,12.15 -9.1,9.09 -8.79,18.39 0.67,20.79z"/>
    <path class="fil2" d="M592.13 445.86c-1.81,0 -3.51,-0.18 -5.03,-0.57 -3.96,-1.01 -6.51,-3.18 -7.37,-6.3 -1.21,-4.41 1.15,-9.98 6.47,-15.29 4.45,-4.45 10.42,-8.17 16.85,-10.49 6.44,-2.32 12.55,-2.95 17.23,-1.78 3.96,1 6.51,3.18 7.37,6.3 1.21,4.41 -1.15,9.97 -6.46,15.29 -4.46,4.45 -10.43,8.16 -16.85,10.48 -4.33,1.56 -8.52,2.36 -12.21,2.36zm-4.8 -1.5c9.31,2.34 24.19,-3.05 33.18,-12.02 5.01,-4.99 7.33,-10.37 6.22,-14.37 -0.76,-2.77 -3.08,-4.72 -6.67,-5.62 -9.32,-2.34 -24.2,3.06 -33.19,12.03 -5,4.98 -7.32,10.36 -6.21,14.36 0.76,2.77 3.05,4.72 6.67,5.62z"/>
    <path class="fil2" d="M594.02 443.09c-1.52,0 -2.94,-0.16 -4.23,-0.49 -3.35,-0.84 -5.48,-2.69 -6.22,-5.32 -1.03,-3.71 0.96,-8.41 5.44,-12.88 3.73,-3.74 8.74,-6.86 14.14,-8.81 5.4,-1.95 10.55,-2.48 14.47,-1.5 3.34,0.85 5.47,2.69 6.21,5.32 1.03,3.71 -0.96,8.41 -5.43,12.89 -3.74,3.73 -8.75,6.85 -14.14,8.8 -3.64,1.31 -7.15,1.99 -10.24,1.99zm19.35 -28.5c-7.57,0 -17.38,4.18 -23.71,10.5 -4.16,4.17 -6.09,8.62 -5.19,11.95 0.64,2.3 2.55,3.9 5.54,4.64l0 0c1.24,0.3 2.57,0.45 4.01,0.45 7.57,0 17.38,-4.19 23.7,-10.51 4.16,-4.17 6.09,-8.62 5.19,-11.94 -0.64,-2.3 -2.54,-3.9 -5.54,-4.64 -1.23,-0.31 -2.59,-0.45 -4,-0.45z"/>
    <path class="fil7" d="M784.94 351.95c-1.56,-3.24 -5.46,-4.61 -8.71,-3.05 -3.25,1.56 -4.61,5.46 -3.05,8.71 1.56,3.24 5.46,4.61 8.71,3.05 3.24,-1.56 4.61,-5.46 3.05,-8.71z"/>
    <path class="fil2" d="M779.06 361.58c-0.76,0 -1.52,-0.12 -2.26,-0.39 -1.72,-0.6 -3.1,-1.83 -3.88,-3.47 -0.77,-1.64 -0.88,-3.49 -0.28,-5.19 0.59,-1.72 1.82,-3.1 3.47,-3.88 3.38,-1.62 7.45,-0.18 9.07,3.18 1.62,3.37 0.18,7.45 -3.18,9.07 -0.93,0.45 -1.93,0.68 -2.94,0.68zm-0.02 -13.05c-0.9,0 -1.83,0.2 -2.71,0.61 -1.5,0.72 -2.65,1.99 -3.2,3.57 -0.55,1.58 -0.45,3.29 0.27,4.79 1.5,3.11 5.23,4.43 8.35,2.93 3.12,-1.5 4.43,-5.23 2.93,-8.35 -1.06,-2.26 -3.3,-3.55 -5.64,-3.55z"/>
    <path class="fil2" d="M782.07 359.17c0.05,-0.06 0.05,-0.14 0.01,-0.22l-0.22 -0.45c0.22,-0.22 0.4,-0.48 0.54,-0.73 0,0 0.01,-0.02 0.01,-0.02 0.12,-0.35 0.28,-1.03 0,-1.78 -0.37,-0.99 -1.28,-1.4 -1.54,-1.5 0,0 -0.01,-0.01 -0.01,-0.01l-0.28 -0.08c-0.38,-0.14 -0.73,-0.26 -1.01,-0.37 -0.31,-0.11 -0.55,-0.19 -0.74,-0.26l-0.24 -0.08c-0.17,-0.05 -0.34,-0.13 -0.48,-0.22 -0.04,-0.02 -0.05,-0.03 -0.07,-0.05 -0.16,-0.12 -0.27,-0.25 -0.32,-0.32 -0.09,-0.12 -0.16,-0.26 -0.21,-0.4 -0.05,-0.24 0.1,-0.49 0.36,-0.6 0.12,-0.06 0.27,-0.05 0.39,-0.01 0.13,0.05 0.22,0.12 0.27,0.23l0.17 0.34c0.06,0.1 0.18,0.14 0.28,0.09l1.29 -0.64c0.04,-0.02 0.08,-0.07 0.12,-0.12 0.02,-0.06 0.01,-0.12 -0.01,-0.16l-0.33 -0.67c0,0 -0.02,-0.01 -0.01,-0.03 -0.16,-0.23 -0.36,-0.44 -0.63,-0.59 -0.19,-0.12 -0.42,-0.19 -0.66,-0.25 -0.32,-0.06 -0.65,-0.06 -0.97,-0.02l-0.22 -0.43c-0.02,-0.04 -0.07,-0.08 -0.13,-0.1 -0.04,-0.01 -0.12,-0.01 -0.16,0.01l-1.22 0.61c-0.04,0.02 -0.08,0.07 -0.1,0.13 -0.01,0.05 -0.01,0.12 0.01,0.16l0.22 0.46c-0.27,0.28 -0.44,0.56 -0.54,0.72 0,0 -0.01,0.02 -0.01,0.02 -0.12,0.35 -0.28,1.03 0,1.78 0.37,0.99 1.28,1.4 1.54,1.5 0,0 0.01,0.01 0.01,0.01l0.05 0.01c0.45,0.19 0.86,0.36 1.25,0.5l0.08 0.03c0.9,0.31 0.9,0.31 0.93,0.34 0.09,0.01 0.29,0.06 0.48,0.15 0.01,0.02 0.04,0.04 0.06,0.05 0.16,0.13 0.27,0.26 0.32,0.33 0.09,0.12 0.17,0.25 0.21,0.4 0.05,0.24 -0.09,0.49 -0.36,0.6 -0.12,0.06 -0.27,0.05 -0.39,0.01 -0.13,-0.05 -0.22,-0.12 -0.27,-0.23l-0.17 -0.35c-0.06,-0.09 -0.18,-0.13 -0.28,-0.08l-1.29 0.64c-0.04,0.02 -0.08,0.07 -0.12,0.12 -0.02,0.06 -0.01,0.11 0.01,0.16l0.34 0.67c0,0 0.01,0.01 0,0.03 0.16,0.23 0.36,0.43 0.63,0.59 0.19,0.12 0.42,0.19 0.66,0.25 0.32,0.06 0.66,0.06 0.97,0.02l0.22 0.43c0.02,0.04 0.07,0.07 0.13,0.1 0.04,0 0.12,0.01 0.16,-0.01l1.22 -0.61c-0.01,-0.06 0.02,-0.06 0.05,-0.1zm-0.62 -0.84c-0.05,0.07 -0.06,0.14 -0.02,0.22l0.2 0.42 -0.85 0.43 -0.2 -0.38c-0.04,-0.09 -0.13,-0.13 -0.23,-0.11 -0.31,0.07 -0.65,0.07 -0.96,0.01 -0.18,-0.03 -0.37,-0.1 -0.54,-0.21 -0.19,-0.12 -0.36,-0.27 -0.5,-0.46l-0.24 -0.47 0.92 -0.45 0.08 0.16c0.1,0.21 0.28,0.35 0.5,0.44 0.21,0.06 0.45,0.06 0.66,-0.01 0.44,-0.18 0.7,-0.65 0.6,-1.09 0,0 0,0 0,-0.03 -0.07,-0.18 -0.15,-0.35 -0.26,-0.51 -0.07,-0.08 -0.18,-0.27 -0.42,-0.43 -0.03,-0.02 -0.06,-0.05 -0.11,-0.06 -0.24,-0.13 -0.46,-0.17 -0.58,-0.21 -0.07,-0.03 -0.39,-0.14 -0.88,-0.32l-0.06 -0.02c-0.37,-0.12 -0.78,-0.29 -1.23,-0.48 0,0 -0.02,-0.01 -0.02,-0.01l-0.04 -0.01c-0.25,-0.09 -1,-0.43 -1.29,-1.25 -0.25,-0.63 -0.12,-1.2 -0.01,-1.51 0.07,-0.16 0.25,-0.43 0.55,-0.72 0.07,-0.05 0.08,-0.17 0.04,-0.25l-0.2 -0.41 0.85 -0.43 0.2 0.38c0.04,0.08 0.13,0.13 0.23,0.1 0.32,-0.07 0.65,-0.07 0.97,-0.01 0.18,0.04 0.36,0.1 0.54,0.21 0.19,0.12 0.35,0.28 0.5,0.46l0.23 0.47 -0.92 0.46 -0.08 -0.17c-0.1,-0.21 -0.28,-0.34 -0.49,-0.43 -0.22,-0.06 -0.45,-0.06 -0.66,0.01 -0.45,0.17 -0.71,0.65 -0.61,1.09 0,0 0,0 0.01,0.03 0.06,0.18 0.14,0.34 0.25,0.5 0.07,0.08 0.18,0.27 0.42,0.43 0.04,0.03 0.05,0.04 0.09,0.07 0.17,0.1 0.36,0.2 0.57,0.26l0.25 0.08c0.18,0.07 0.43,0.15 0.73,0.26 0.29,0.09 0.65,0.24 1.03,0.38 0,0 0,0 0.02,0.01l0.27 0.08c0.25,0.09 0.99,0.43 1.29,1.25 0.24,0.63 0.11,1.2 0.01,1.51 -0.07,0.15 -0.26,0.43 -0.56,0.72 -0.04,-0.01 -0.05,0 -0.05,0z"/>
    <path class="fil2" d="M762.85 377.44l-8.7 -15.78 0.12 -0.14c5.56,-6.61 12.62,-11.43 20.97,-14.35 7.45,-2.58 14.6,-3.12 19.27,-3.12 1.79,0 3.57,0.09 5.28,0.23l0.14 0.02 7.72 15.74 -0.47 -0.04c-1.4,-0.1 -2.82,-0.14 -4.25,-0.14 -9.46,0 -27.21,2.23 -39.84,17.27l-0.24 0.31zm-8.05 -15.72l8.15 14.76c5.52,-6.47 12.5,-11.19 20.73,-14.04 7.45,-2.58 14.59,-3.12 19.27,-3.12 1.27,0 2.56,0.04 3.82,0.12l-7.17 -14.63c-1.64,-0.14 -3.34,-0.2 -5.07,-0.2 -9.44,0 -27.1,2.21 -39.73,17.11z"/>
    <path class="fil2" d="M665.39 418.4l-0.33 -0.34c-0.94,-1.03 -1.95,-2.04 -2.99,-3.02 -6.88,-6.49 -21.33,-17.06 -40.82,-14.8l-0.39 0.04 4.49 -17.44 0.19 -0.02c8.58,-0.99 17.03,0.35 25.1,3.98 7.2,3.24 12.76,7.76 16.15,10.96 1.31,1.23 2.54,2.5 3.67,3.8l0.1 0.12 -5.17 16.72zm-38.72 -19.02c6.71,0 13.29,1.44 19.64,4.29 7.2,3.24 12.76,7.76 16.15,10.96 0.92,0.88 1.82,1.78 2.68,2.71l4.85 -15.56c-1.11,-1.23 -2.3,-2.46 -3.55,-3.63 -6.86,-6.47 -21.22,-16.99 -40.64,-14.82l-4.2 16.32c1.68,-0.19 3.38,-0.27 5.07,-0.27z"/>
    <path class="fil7" d="M768.18 435.72c-2.79,-2.28 -6.9,-1.86 -9.18,0.93 -2.28,2.8 -1.86,6.91 0.94,9.19 2.79,2.27 6.9,1.86 9.18,-0.94 2.28,-2.79 1.86,-6.9 -0.94,-9.18z"/>
    <path class="fil2" d="M764.04 447.57c-1.52,0 -3.04,-0.5 -4.29,-1.52 0,0 0,0 0,0 -2.91,-2.36 -3.35,-6.67 -0.96,-9.57 2.36,-2.91 6.67,-3.34 9.56,-0.96 1.41,1.15 2.28,2.77 2.46,4.58 0.19,1.8 -0.35,3.57 -1.5,4.98 -1.33,1.62 -3.3,2.49 -5.27,2.49zm-3.94 -1.95c2.67,2.17 6.63,1.78 8.8,-0.91 1.05,-1.29 1.54,-2.91 1.38,-4.57 -0.17,-1.67 -0.99,-3.16 -2.28,-4.21 -2.67,-2.18 -6.63,-1.79 -8.8,0.9 -2.18,2.65 -1.79,6.59 0.9,8.79l0 0z"/>
    <path class="fil2" d="M768.09 442.43c-0.02,-0.39 -0.12,-0.9 -0.47,-1.4 -0.61,-0.86 -1.58,-1.03 -1.87,-1.06 0,0 -0.02,0 -0.02,0l-0.28 -0.01c-0.42,-0.02 -0.77,-0.07 -1.08,-0.1 -0.33,-0.03 -0.61,-0.06 -0.8,-0.08l-0.25 -0.01c-0.18,-0.01 -0.35,-0.04 -0.51,-0.1l-0.02 0c-0.03,0 -0.05,-0.02 -0.07,-0.02 -0.18,-0.07 -0.33,-0.19 -0.38,-0.23 -0.1,-0.1 -0.21,-0.22 -0.3,-0.34 -0.11,-0.22 -0.02,-0.51 0.2,-0.66 0.1,-0.09 0.25,-0.11 0.37,-0.12 0.12,0.02 0.23,0.05 0.31,0.15l0.26 0.3c0.07,0.08 0.21,0.1 0.29,0.03l1.1 -0.92c0.03,-0.04 0.05,-0.09 0.07,-0.15 0,-0.06 0,-0.1 -0.04,-0.14l-0.5 -0.56c0,0 -0.02,-0.02 -0.02,-0.02 -0.21,-0.19 -0.48,-0.33 -0.75,-0.4 -0.23,-0.07 -0.46,-0.08 -0.71,-0.08 -0.32,0.04 -0.65,0.11 -0.93,0.25l-0.32 -0.36c-0.04,-0.04 -0.09,-0.06 -0.15,-0.08 -0.06,0 -0.1,0.03 -0.14,0.05l-1.03 0.9c-0.04,0.04 -0.06,0.08 -0.08,0.15 0,0.06 0.02,0.1 0.05,0.14l0.34 0.37c-0.19,0.36 -0.28,0.67 -0.32,0.84 0,0 0,0.02 0,0.02 -0.03,0.37 0,1.07 0.46,1.73 0.6,0.86 1.58,1.03 1.86,1.06 0,0 0.02,0 0.02,0l0.05 -0.01c0.47,0.09 0.92,0.13 1.32,0.18l0.12 0.02c0.91,0.06 0.91,0.06 0.95,0.06 0.1,0 0.28,-0.01 0.49,0.05 0.02,-0.01 0.06,0.01 0.09,0.01 0.18,0.08 0.33,0.2 0.37,0.24 0.11,0.09 0.22,0.21 0.3,0.33 0.11,0.22 0.02,0.52 -0.2,0.67 -0.1,0.08 -0.24,0.11 -0.36,0.11 -0.13,-0.01 -0.23,-0.05 -0.32,-0.15l-0.25 -0.3c-0.07,-0.08 -0.21,-0.09 -0.29,-0.03l-1.1 0.93c-0.04,0.04 -0.06,0.08 -0.07,0.14 0,0.07 0,0.11 0.04,0.15l0.5 0.55c0,0 0.02,0.02 0.02,0.02 0.21,0.2 0.48,0.33 0.75,0.41 0.23,0.07 0.46,0.08 0.7,0.07 0.33,-0.03 0.66,-0.11 0.94,-0.24l0.32 0.36c0.04,0.04 0.08,0.06 0.15,0.07 0.06,0 0.1,-0.02 0.14,-0.04l1.03 -0.9c0.04,-0.05 0.06,-0.09 0.08,-0.15 0,-0.06 -0.02,-0.1 -0.05,-0.14l-0.34 -0.38c0.19,-0.36 0.28,-0.67 0.32,-0.83 0,0 0,-0.02 0,-0.02 -0.01,-0.11 0.01,-0.21 0.01,-0.33zm-2.36 -2.05c0.25,0.03 1.05,0.17 1.57,0.89 0.39,0.54 0.41,1.13 0.39,1.44 -0.04,0.17 -0.13,0.48 -0.34,0.81 -0.06,0.09 -0.04,0.19 0.01,0.25l0.3 0.34 -0.72 0.64 -0.28 -0.32c-0.06,-0.08 -0.17,-0.09 -0.25,-0.05 -0.28,0.15 -0.6,0.23 -0.91,0.26 -0.19,0.01 -0.39,0 -0.56,-0.06 -0.23,-0.07 -0.41,-0.17 -0.59,-0.33l-0.34 -0.39 0.78 -0.67 0.13 0.14c0.15,0.16 0.36,0.27 0.58,0.28 0.23,0.02 0.45,-0.05 0.63,-0.18 0.38,-0.29 0.53,-0.8 0.3,-1.21 0,0 0,-0.02 0,-0.02 -0.1,-0.16 -0.23,-0.32 -0.38,-0.43 -0.09,-0.06 -0.26,-0.22 -0.51,-0.31 -0.04,-0.02 -0.08,-0.04 -0.12,-0.04 -0.19,-0.05 -0.41,-0.07 -0.62,-0.06 -0.06,0 -0.39,-0.03 -0.89,-0.07l-0.12 -0.01c-0.39,-0.03 -0.82,-0.1 -1.3,-0.16 0,0 -0.02,0 -0.02,0l-0.04 0c-0.25,-0.03 -1.05,-0.16 -1.57,-0.88 -0.39,-0.54 -0.42,-1.14 -0.39,-1.45 0.04,-0.16 0.13,-0.47 0.34,-0.81 0.06,-0.09 0.04,-0.19 -0.01,-0.25l-0.3 -0.33 0.72 -0.65 0.28 0.32c0.06,0.08 0.16,0.1 0.24,0.05 0.29,-0.15 0.61,-0.23 0.92,-0.26 0.18,0 0.39,0.01 0.56,0.06 0.22,0.08 0.41,0.17 0.58,0.33l0.35 0.4 -0.78 0.66 -0.13 -0.14c-0.15,-0.15 -0.36,-0.27 -0.58,-0.28 -0.23,-0.01 -0.45,0.06 -0.63,0.19 -0.38,0.28 -0.53,0.8 -0.31,1.2 0,0 0,0.02 0,0.02 0.11,0.16 0.24,0.32 0.39,0.44 0.08,0.06 0.25,0.21 0.5,0.31 0.05,0.02 0.07,0.02 0.11,0.03l0.02 0c0.19,0.06 0.39,0.09 0.6,0.1l0.23 0.02c0.18,0.01 0.45,0.04 0.8,0.07 0.31,0.03 0.68,0.05 1.09,0.1 0,0 0,0 0.02,0l0.25 0.01z"/>
    <path class="fil2" d="M759.01 468.17l-14.59 -10.59 0.04 -0.18c2.22,-8.36 6.57,-15.72 12.91,-21.9 5.64,-5.5 11.88,-9.03 16.11,-11.02l0 0c1.62,-0.76 3.26,-1.46 4.86,-2.03l0.15 -0.06 13.66 10.97 -0.43 0.17c-1.29,0.49 -2.6,1.07 -3.9,1.66 -8.55,4.02 -23.66,13.59 -28.73,32.57l-0.08 0.41zm-13.97 -10.79l13.64 9.89c2.26,-8.19 6.57,-15.44 12.79,-21.51 5.64,-5.5 11.88,-9.03 16.13,-11.02 1.17,-0.55 2.34,-1.05 3.51,-1.52l-12.71 -10.2c-1.53,0.58 -3.12,1.23 -4.67,1.97l0 0c-8.54,4 -23.58,13.53 -28.69,32.39z"/>
    <path class="fil7" d="M650.2 388.72c-3.44,-1.09 -7.11,0.8 -8.2,4.24 -1.1,3.43 0.79,7.1 4.23,8.2 3.43,1.09 7.1,-0.8 8.2,-4.23 1.09,-3.44 -0.8,-7.11 -4.23,-8.21z"/>
    <path class="fil2" d="M648.23 401.74c-0.69,0 -1.39,-0.1 -2.07,-0.33 -1.72,-0.55 -3.14,-1.74 -3.98,-3.36 -0.84,-1.62 -0.98,-3.45 -0.43,-5.2 0.55,-1.72 1.74,-3.14 3.36,-3.98 1.63,-0.84 3.45,-0.98 5.2,-0.43 1.72,0.56 3.14,1.75 3.98,3.37 0.84,1.62 0.98,3.45 0.43,5.19 -0.55,1.72 -1.75,3.14 -3.37,3.98 -1,0.49 -2.05,0.76 -3.12,0.76zm-5.97 -8.72c-0.51,1.6 -0.37,3.28 0.39,4.76 0.76,1.48 2.08,2.59 3.66,3.1 1.6,0.51 3.28,0.37 4.76,-0.39 1.47,-0.76 2.58,-2.07 3.1,-3.65 0.51,-1.61 0.36,-3.29 -0.39,-4.77 -0.76,-1.47 -2.08,-2.58 -3.66,-3.09 -1.6,-0.52 -3.28,-0.37 -4.76,0.39 -1.5,0.78 -2.58,2.07 -3.1,3.65l0 0z"/>
    <path class="fil5" d="M670.5 444.26c-0.66,2.79 -11.02,0.82 -19.72,-1.97 1.09,4.09 2.77,8.21 5.09,12.25 12.64,22.15 39.3,33.78 59.53,26 9.38,-3.61 15.74,-10.75 18.62,-19.59 -6.3,-0.35 -13.36,-1.09 -12.11,-2.71 1.27,-1.64 8.23,-4.56 13.79,-6.67 0.39,-8.03 -1.7,-16.77 -6.53,-25.2 -3.55,-6.2 -8.19,-11.6 -13.48,-15.95 -4.08,4.27 -10.06,9.77 -12.25,8.09 -2.2,-1.69 2.54,-7.97 6.34,-12.38 -12.6,-7.96 -27.6,-10.61 -40.14,-5.79 -12.79,4.93 -19.97,16.42 -20.32,29.8 6.88,3.49 21.84,11.37 21.18,14.12zm-4.84 -14.96c-2.01,-1.17 -1.17,-7.22 3.94,-4.06 0,0 11.9,6.3 8.99,9.38 -2.9,3.05 -10.92,-4.15 -12.93,-5.32z"/>
    <path class="fil2" d="M715.96 624.12c-0.04,0 -0.09,0 -0.13,0 -0.51,-0.07 -0.88,-0.56 -0.82,-1.07 9.61,-71.21 -3.98,-127.61 -17.07,-162.37 -7.41,-19.68 -15.45,-34.66 -20.89,-43.75 -5.87,-9.85 -10.06,-15.09 -10.1,-15.15 -0.33,-0.41 -0.27,-1 0.14,-1.33 0.41,-0.33 1.01,-0.27 1.34,0.14 0.04,0.06 4.29,5.4 10.24,15.35 5.48,9.17 13.56,24.26 21.03,44.06 8.38,22.27 14.29,45.83 17.51,70.04 4.04,30.27 3.94,61.65 -0.33,93.27 -0.04,0.46 -0.45,0.81 -0.92,0.81z"/>
    <path class="fil2" d="M669.27 467.25c-2.85,0 -4.64,-0.13 -4.68,-0.13 -0.53,-0.04 -0.92,-0.49 -0.88,-1 0.04,-0.54 0.49,-0.93 1,-0.89 0.21,0.03 20.57,1.26 33.95,-5.08 0.47,-0.23 1.04,-0.03 1.27,0.45 0.22,0.47 0.02,1.04 -0.45,1.27 -7.25,3.43 -16.36,4.68 -22.72,5.13 -2.85,0.18 -5.44,0.25 -7.49,0.25z"/>
    <path class="fil2" d="M695.11 451.92c-0.33,0 -0.66,-0.17 -0.82,-0.5 -0.27,-0.45 -0.11,-1.04 0.36,-1.29 0.09,-0.04 6.45,-3.69 12.5,-10.01 5.54,-5.79 11.97,-15.07 11.15,-26.46 -0.05,-0.53 0.34,-0.98 0.88,-1.02 0.53,-0.04 0.98,0.35 1.02,0.88 0.39,5.36 -0.65,10.71 -3.16,15.92 -1.97,4.15 -4.84,8.19 -8.53,12.03 -6.26,6.53 -12.64,10.18 -12.91,10.32 -0.17,0.09 -0.33,0.13 -0.49,0.13z"/>
    <path class="fil8" d="M685.02 427.66c-0.03,0.2 -0.13,0.37 -0.29,0.5 -0.2,0.16 -0.43,0.21 -0.68,0.15l-0.27 -0.06c-0.22,-0.05 -0.38,-0.17 -0.5,-0.37 -0.12,-0.19 -0.14,-0.4 -0.09,-0.61 1.59,-5.88 5.22,-23.6 1.87,-28.73 -0.12,-0.18 -0.16,-0.38 -0.11,-0.6 0.05,-0.22 0.16,-0.39 0.35,-0.5l0.23 -0.15c0.36,-0.23 0.85,-0.13 1.09,0.24 2.69,4.1 1.56,13.28 0.88,17.85 -0.42,2.82 -0.96,5.63 -1.57,8.42 -0.29,1.29 -0.63,2.58 -0.91,3.86z"/>
    <path class="fil2" d="M645.56 399.56c0.02,0.01 0.03,0.03 0.05,0.04l1.25 0.52c0.1,0.04 0.22,0 0.27,-0.12l0.19 -0.48c0.41,0.02 0.72,-0.03 0.9,-0.08 0,0 0.01,-0.01 0.02,0 0.34,-0.14 0.97,-0.47 1.37,-1.16 0.52,-0.93 0.22,-1.88 0.12,-2.15 0,0 0,0 -0.01,-0.01l-0.13 -0.27c-0.14,-0.4 -0.27,-0.72 -0.38,-1 -0.12,-0.31 -0.22,-0.57 -0.28,-0.75l-0.1 -0.24c-0.07,-0.17 -0.11,-0.34 -0.14,-0.5 0,0 -0.01,-0.01 -0.01,-0.01 -0.01,-0.03 -0.01,-0.06 -0.02,-0.07 -0.02,-0.21 0.01,-0.37 0.03,-0.46 0.05,-0.15 0.1,-0.27 0.17,-0.42 0.14,-0.2 0.45,-0.24 0.69,-0.11 0.11,0.06 0.22,0.15 0.27,0.28 0.04,0.11 0.05,0.23 0,0.35l-0.14 0.36c-0.04,0.11 0,0.22 0.09,0.27l1.31 0.58c0.06,0.02 0.12,0.02 0.16,0 0.05,-0.02 0.09,-0.07 0.13,-0.11l0.29 -0.7c0,0 0.01,-0.01 0,-0.03 0.07,-0.28 0.08,-0.57 0.03,-0.86 -0.05,-0.23 -0.13,-0.45 -0.25,-0.66 -0.16,-0.28 -0.38,-0.54 -0.63,-0.75l0.19 -0.44c0.03,-0.1 -0.01,-0.22 -0.13,-0.27l-1.25 -0.52c-0.1,-0.03 -0.22,0 -0.26,0.12l-0.2 0.49c-0.41,-0.03 -0.72,0.03 -0.9,0.07 0,0 -0.01,0.02 -0.02,0 -0.34,0.15 -0.97,0.47 -1.36,1.16 -0.53,0.93 -0.23,1.88 -0.13,2.15 0,0 0,0 0.01,0.02l0.02 0.04c0.14,0.47 0.29,0.89 0.44,1.26l0.03 0.05c0,0 0.02,0.02 0.02,0.02 0.35,0.89 0.35,0.89 0.37,0.93 0.03,0.08 0.13,0.25 0.18,0.45 0,0.03 0,0.06 0,0.09 0.02,0.2 -0.01,0.36 -0.03,0.45 -0.05,0.15 -0.1,0.27 -0.17,0.42 -0.14,0.2 -0.45,0.24 -0.69,0.12 -0.11,-0.07 -0.22,-0.16 -0.27,-0.29 -0.04,-0.11 -0.05,-0.23 0,-0.35l0.15 -0.36c0.03,-0.1 -0.01,-0.22 -0.11,-0.25l-1.32 -0.58c-0.06,-0.02 -0.12,-0.02 -0.16,0 -0.04,0.02 -0.08,0.07 -0.12,0.11l-0.29 0.7c0,0 -0.01,0.01 0,0.03 -0.08,0.28 -0.08,0.57 -0.03,0.86 0.05,0.23 0.12,0.45 0.24,0.66 0.17,0.28 0.38,0.54 0.63,0.75l-0.18 0.44c-0.01,0.04 0.01,0.14 0.09,0.21zm1.29 0.1l-0.89 -0.38 0.17 -0.39c0.04,-0.08 0,-0.19 -0.06,-0.25 -0.27,-0.19 -0.49,-0.44 -0.63,-0.72 -0.1,-0.16 -0.16,-0.35 -0.19,-0.53 -0.05,-0.23 -0.02,-0.45 0.03,-0.68l0.2 -0.48 0.95 0.4 -0.08 0.18c-0.08,0.2 -0.08,0.45 0.01,0.66 0.09,0.21 0.24,0.39 0.45,0.49 0.43,0.22 0.94,0.12 1.2,-0.25 0,0 0.02,-0.01 0.02,-0.01 0.09,-0.17 0.17,-0.34 0.22,-0.55 0.02,-0.08 0.07,-0.31 0.04,-0.58 -0.01,-0.06 -0.01,-0.09 -0.03,-0.13 -0.05,-0.2 -0.12,-0.4 -0.24,-0.58 -0.03,-0.05 -0.15,-0.39 -0.33,-0.87l-0.02 -0.07c-0.15,-0.37 -0.28,-0.78 -0.42,-1.25 0,0 -0.02,-0.01 -0.01,-0.03l-0.01 -0.04c-0.1,-0.24 -0.32,-1.02 0.1,-1.8 0.31,-0.59 0.83,-0.86 1.12,-0.98 0.17,-0.04 0.49,-0.1 0.9,-0.05 0.09,0.03 0.17,-0.04 0.21,-0.12l0.17 -0.42 0.89 0.38 -0.17 0.39c-0.04,0.08 0,0.19 0.06,0.25 0.27,0.19 0.49,0.44 0.63,0.72 0.1,0.16 0.16,0.35 0.19,0.53 0.05,0.23 0.02,0.45 -0.03,0.68l-0.2 0.48 -0.95 -0.4 0.08 -0.18c0.08,-0.2 0.08,-0.45 -0.01,-0.66 -0.09,-0.21 -0.24,-0.39 -0.45,-0.49 -0.43,-0.22 -0.94,-0.12 -1.2,0.25 0,0 -0.02,0.01 -0.02,0.01 -0.09,0.17 -0.17,0.34 -0.22,0.55 -0.02,0.08 -0.07,0.31 -0.03,0.58 0,0.03 0.02,0.07 0.02,0.1 0.03,0.22 0.09,0.4 0.16,0.6l0.1 0.24c0.07,0.17 0.16,0.44 0.28,0.75 0.11,0.28 0.24,0.63 0.39,1.03 0,0 0,0 0.01,0.01l0.11 0.26c0.09,0.23 0.32,1.02 -0.1,1.79 -0.32,0.6 -0.83,0.86 -1.13,0.98 -0.17,0.05 -0.48,0.1 -0.9,0.05 -0.09,-0.02 -0.17,0.04 -0.21,0.12l-0.18 0.41z"/>
    <path class="fil7" d="M627.45 363.94l1.33 0.29c2.28,-3.33 7.43,-5.44 14.59,-5.46 12.87,-0.02 27.38,6.73 32.4,15.1 0.07,0.1 0.13,0.23 0.19,0.33l1.52 0.33 0.02 5.09 0 0c-0.15,5.54 -6.16,9.46 -15.91,9.48 -12.86,0.02 -27.37,-6.73 -32.4,-15.1 -1.21,-2.04 -1.76,-3.97 -1.72,-5.75l0 0 -0.02 -4.31z"/>
    <path class="fil2" d="M661.51 389.57c-6.28,0 -13.11,-1.58 -19.27,-4.45 -6.2,-2.9 -11,-6.77 -13.48,-10.9 -1.23,-2.05 -1.83,-4.04 -1.79,-5.95 0,-0.02 0,-0.02 0,-0.04l0 -4.29c0,-0.14 0.07,-0.29 0.19,-0.37 0.1,-0.08 0.27,-0.12 0.39,-0.1l1.02 0.22c2.55,-3.42 7.93,-5.37 14.8,-5.39 6.3,-0.02 13.16,1.56 19.35,4.45 6.2,2.89 11,6.77 13.49,10.9 0.02,0.04 0.06,0.1 0.08,0.14l1.31 0.29c0.23,0.04 0.37,0.24 0.37,0.47l0.02 5.09c0,0.02 0,0.04 0,0.08 -0.1,2.89 -1.68,5.38 -4.58,7.14 -2.91,1.79 -6.99,2.73 -11.8,2.73 -0.04,-0.02 -0.08,-0.02 -0.1,-0.02zm-33.57 -21.38c0,0.02 0,0.04 0,0.06 -0.04,1.72 0.51,3.57 1.66,5.48 4.95,8.21 19.25,14.88 31.93,14.88 0.02,0 0.06,0 0.08,0 4.64,0 8.54,-0.91 11.31,-2.61 2.63,-1.6 4.07,-3.82 4.13,-6.4 0,-0.02 0,-0.02 0,-0.04l0 -4.66 -1.15 -0.25c-0.13,-0.02 -0.25,-0.1 -0.31,-0.22 -0.06,-0.11 -0.12,-0.21 -0.18,-0.31 -4.95,-8.23 -19.32,-14.92 -32,-14.88 -6.73,0.02 -11.92,1.93 -14.2,5.25 -0.1,0.17 -0.31,0.23 -0.49,0.21l-0.76 -0.17 -0.02 3.66z"/>
    <path class="fil7" d="M629.17 369.81c5.03,8.37 19.54,15.14 32.4,15.1 12.87,-0.02 19.21,-6.83 14.18,-15.2 -5.02,-8.38 -19.53,-15.15 -32.4,-15.11 -12.87,0.02 -19.21,6.84 -14.18,15.21z"/>
    <path class="fil2" d="M661.51 385.38c-6.28,0 -13.11,-1.58 -19.27,-4.45 -6.2,-2.89 -11,-6.77 -13.48,-10.9 -2.09,-3.48 -2.38,-6.83 -0.78,-9.64 2.24,-3.98 7.84,-6.26 15.37,-6.28 6.3,-0.02 13.15,1.56 19.35,4.45 6.2,2.9 11,6.77 13.49,10.9 2.09,3.49 2.38,6.83 0.77,9.64 -2.23,3.99 -7.83,6.26 -15.37,6.28 -0.04,0 -0.06,0 -0.08,0zm-31.93 -15.82c4.95,8.21 19.25,14.88 31.93,14.88 0.02,0 0.06,0 0.08,0 7.06,-0.02 12.5,-2.17 14.55,-5.81 1.42,-2.5 1.15,-5.5 -0.76,-8.7 -4.94,-8.21 -19.24,-14.88 -31.93,-14.88 -0.02,0 -0.04,0 -0.08,0 -7.06,0.02 -12.5,2.18 -14.55,5.81 -1.42,2.5 -1.15,5.52 0.76,8.7z"/>
    <path class="fil2" d="M660.03 382.92c-5.25,0 -11,-1.33 -16.15,-3.73 -5.21,-2.42 -9.21,-5.69 -11.3,-9.16 -1.77,-2.95 -1.99,-5.76 -0.66,-8.14 1.89,-3.35 6.61,-5.3 12.93,-5.3 5.27,-0.02 11.04,1.32 16.21,3.74 5.21,2.42 9.21,5.68 11.31,9.15 1.76,2.96 1.99,5.77 0.65,8.15 -1.88,3.34 -6.6,5.29 -12.92,5.29 -0.02,0 -0.05,0 -0.07,0zm-26.65 -13.38c4.12,6.86 16.07,12.42 26.65,12.42 0.02,0 0.05,0 0.07,0 5.89,-0.02 10.4,-1.81 12.1,-4.83 1.17,-2.07 0.95,-4.55 -0.63,-7.2 -4.13,-6.85 -16.07,-12.41 -26.66,-12.41 -0.02,0 -0.04,0 -0.06,0 -5.89,0.02 -10.41,1.8 -12.11,4.82 -1.17,2.07 -0.94,4.57 0.64,7.2z"/>
    <path class="fil7" d="M597.32 530.15c0.51,3.69 -11.06,6.46 -21.24,7.38 2.85,4.4 6.34,8.52 10.47,12.28 22.49,20.46 55.04,21.3 72.68,1.88 8.19,-9.01 11.72,-20.76 10.94,-32.85 -6.67,2.71 -14.28,5.29 -13.67,2.73 0.62,-2.63 6.59,-9.57 11.44,-14.88 -3.02,-9.87 -8.89,-19.39 -17.47,-27.17 -6.3,-5.73 -13.4,-9.93 -20.75,-12.56 -2.42,7.18 -6.26,16.77 -9.23,15.82 -2.98,-0.94 -0.74,-10.88 1.31,-18.06 -16.44,-3.36 -33.08,0.88 -44.02,12.91 -11.14,12.27 -13.69,29.68 -8.37,46.01 8.6,0.76 27.42,2.87 27.91,6.51zm-11.37 -15.66c-2.56,-0.43 -4.29,-8.15 2.36,-6.86 0,0 15,1.73 13.3,6.86 -1.73,5.15 -13.07,0.43 -15.66,0z"/>
    <path class="fil2" d="M670.25 624.12c-0.02,0 -0.02,0 -0.04,0 -0.53,-0.03 -0.94,-0.48 -0.9,-0.99 0,-0.06 0.27,-6.65 -0.76,-17.03 -0.94,-9.57 -3.2,-24.4 -8.6,-40.72 -9.54,-28.79 -30.94,-67.88 -78.74,-90.6 -0.47,-0.23 -0.68,-0.8 -0.45,-1.27 0.22,-0.48 0.8,-0.68 1.27,-0.46 21.38,10.16 39.38,24.38 53.5,42.28 11.29,14.3 20.11,30.97 26.27,49.52 5.46,16.5 7.74,31.48 8.68,41.14 1.03,10.49 0.76,17.16 0.76,17.24 -0.06,0.47 -0.47,0.89 -0.99,0.89z"/>
    <path class="fil2" d="M594.3 551.92c-4,0 -6.52,-0.08 -6.56,-0.08 -0.54,-0.02 -0.95,-0.45 -0.93,-0.99 0.02,-0.53 0.45,-0.94 0.99,-0.92 0.49,0.02 49.5,1.5 62.53,-9.44 0.41,-0.33 1,-0.29 1.33,0.12 0.33,0.41 0.29,1.01 -0.12,1.34 -5.75,4.82 -18.25,7.94 -37.19,9.27 -7.75,0.58 -15.06,0.7 -20.05,0.7z"/>
    <path class="fil2" d="M639.51 523.21c-0.18,0 -0.37,-0.06 -0.53,-0.17 -0.43,-0.28 -0.56,-0.88 -0.27,-1.31 0.04,-0.04 3.45,-5.19 6.71,-12.72 2.98,-6.92 6.45,-17.34 5.93,-27.67 -0.02,-0.53 0.39,-0.96 0.91,-1 0.53,-0.02 0.96,0.39 1,0.9 0.52,10.71 -3.03,21.45 -6.11,28.55 -3.33,7.69 -6.71,12.78 -6.86,12.99 -0.16,0.29 -0.47,0.43 -0.78,0.43z"/>
    <path class="fil2" d="M582.03 499.28c-4.82,0 -9.79,-0.59 -14.34,-2.22 -0.5,-0.18 -0.76,-0.71 -0.58,-1.21 0.19,-0.49 0.72,-0.76 1.21,-0.57 9.24,3.3 20.36,2.13 28.08,0.55 8.39,-1.7 14.65,-4.22 14.71,-4.24 0.49,-0.21 1.05,0.04 1.25,0.53 0.21,0.49 -0.04,1.05 -0.53,1.25 -0.27,0.1 -6.49,2.61 -15.04,4.35 -4.21,0.82 -9.38,1.56 -14.76,1.56z"/>
    <path class="fil5" d="M837.79 523.62c5.32,-16.32 2.8,-33.74 -8.37,-46.01 -10.94,-12.03 -27.58,-16.27 -44.02,-12.91 2.05,7.18 4.29,17.12 1.32,18.06 -2.98,0.94 -6.82,-8.64 -9.24,-15.82 -7.33,2.63 -14.43,6.83 -20.75,12.56 -8.58,7.8 -14.44,17.3 -17.46,27.17 4.84,5.31 10.79,12.25 11.43,14.88 0.62,2.56 -7.02,-0.02 -13.67,-2.73 -0.8,12.08 2.75,23.84 10.94,32.85 17.65,19.42 50.2,18.55 72.69,-1.89 4.12,-3.73 7.61,-7.88 10.46,-12.27 -10.19,-0.92 -21.75,-3.69 -21.24,-7.39 0.48,-3.61 19.32,-5.72 27.91,-6.5zm-32.21 -9.13c-1.73,-5.15 13.29,-6.86 13.29,-6.86 6.65,-1.29 4.93,6.43 2.36,6.86 -2.56,0.43 -13.93,5.15 -15.65,0z"/>
    <path class="fil2" d="M736.93 624.12c-0.51,0 -0.92,-0.39 -0.94,-0.91 0,-0.06 -0.27,-6.75 0.76,-17.24 0.94,-9.66 3.22,-24.64 8.68,-41.14 6.13,-18.55 14.98,-35.22 26.26,-49.52 14.12,-17.9 32.12,-32.12 53.5,-42.28 0.48,-0.22 1.05,-0.02 1.28,0.45 0.22,0.48 0.02,1.05 -0.46,1.28 -47.83,22.74 -69.24,61.85 -78.76,90.66 -5.4,16.34 -7.65,31.15 -8.58,40.72 -1,10.34 -0.73,16.89 -0.73,16.97 0.02,0.53 -0.39,0.96 -0.91,0.98 -0.06,0.03 -0.08,0.03 -0.1,0.03z"/>
    <path class="fil2" d="M812.9 551.92c-4.99,0 -12.29,-0.12 -20.07,-0.68 -18.94,-1.33 -31.44,-4.47 -37.18,-9.27 -0.42,-0.33 -0.46,-0.95 -0.13,-1.34 0.33,-0.41 0.95,-0.45 1.34,-0.12 13.03,10.94 62.03,9.44 62.53,9.44 0.53,-0.02 0.96,0.39 0.98,0.92 0.02,0.54 -0.39,0.97 -0.92,0.99 -0.04,-0.02 -2.55,0.06 -6.55,0.06z"/>
    <path class="fil2" d="M767.67 523.21c-0.31,0 -0.61,-0.14 -0.8,-0.43 -0.14,-0.21 -3.53,-5.32 -6.85,-12.99 -3.08,-7.12 -6.63,-17.84 -6.12,-28.55 0.02,-0.53 0.47,-0.92 1.01,-0.9 0.53,0.02 0.92,0.47 0.9,1 -0.49,10.35 2.95,20.77 5.95,27.71 3.24,7.53 6.65,12.64 6.69,12.68 0.29,0.43 0.19,1.03 -0.27,1.32 -0.14,0.1 -0.32,0.16 -0.51,0.16z"/>
    <path class="fil2" d="M825.15 499.28c-5.37,0 -10.55,-0.74 -14.75,-1.58 -8.58,-1.74 -14.8,-4.25 -15.04,-4.35 -0.5,-0.21 -0.72,-0.76 -0.54,-1.25 0.21,-0.49 0.76,-0.72 1.25,-0.54 0.07,0.03 6.34,2.55 14.76,4.25 7.69,1.56 18.82,2.73 28.03,-0.57 0.49,-0.19 1.05,0.08 1.21,0.57 0.19,0.5 -0.08,1.05 -0.57,1.21 -4.56,1.67 -9.52,2.26 -14.35,2.26z"/>
    <path class="fil2" d="M480.47 209.66c-0.15,0 -0.31,-0.09 -0.39,-0.21 -0.15,-0.23 -0.1,-0.51 0.12,-0.66 3.39,-2.34 3.2,-8.84 3.2,-8.9 0,-0.27 0.21,-0.49 0.45,-0.49 0.27,0 0.5,0.2 0.5,0.45 0,0.28 0.2,7.1 -3.61,9.72 -0.09,0.07 -0.19,0.09 -0.27,0.09z"/>
    <path class="fil2" d="M494.05 216.43c-0.02,0 -0.04,0 -0.06,0 -0.26,-0.04 -0.43,-0.29 -0.41,-0.54 0.02,-0.08 1.15,-7.65 1.15,-9.78 0.02,-1.83 -2.13,-2.67 -2.15,-2.67 -0.25,-0.1 -0.37,-0.37 -0.29,-0.62 0.08,-0.24 0.37,-0.37 0.61,-0.28 0.13,0.04 2.8,1.06 2.77,3.57 -0.02,2.19 -1.12,9.6 -1.16,9.91 -0.03,0.24 -0.23,0.41 -0.46,0.41z"/>
    <path class="fil2" d="M489.56 221.11c-0.02,0 -0.06,0 -0.08,0 -0.27,-0.04 -0.43,-0.29 -0.39,-0.56 0,-0.06 0.92,-5.35 1.04,-9.29 0.11,-3.64 -2.68,-4.97 -2.81,-5.01 -0.24,-0.1 -0.35,-0.39 -0.24,-0.64 0.1,-0.24 0.39,-0.35 0.63,-0.24 0.15,0.06 3.49,1.62 3.37,5.91 -0.13,4.02 -1.05,9.38 -1.05,9.44 -0.04,0.22 -0.24,0.39 -0.47,0.39z"/>
    <path class="fil2" d="M482.56 222.13c-0.02,0 -0.06,0 -0.08,0 -0.27,-0.04 -0.43,-0.28 -0.39,-0.55 1.03,-5.81 1.07,-8.68 0.9,-10.08 -0.08,-0.76 -0.22,-1.11 -0.31,-1.25 -0.04,-0.06 -0.06,-0.1 -0.06,-0.1 0,0 0,0 0.02,0.02 0.02,0 0.09,0.04 0.09,0.04l0.3 -0.9c0.64,0.2 1.91,1.84 0.02,12.45 -0.06,0.21 -0.26,0.37 -0.49,0.37z"/>
    <path class="fil7" d="M589.97 304.51c9.09,1.6 18.06,6.79 23.19,14.61 2.49,3.78 3.86,8.35 2.44,12.81 -1.21,3.77 -4.41,6.69 -8.49,6.42 -1.73,-0.1 -3.47,-0.78 -4.7,-2.03 -1.36,-1.36 -1.89,-3.37 -1.56,-5.24 0.78,-4.29 4.62,-7.4 8.39,-9.09 8.13,-3.63 18.25,-2.42 25.22,3.12 7,5.56 10.55,14.22 13.32,22.45 0.35,1.07 0.7,2.14 1.05,3.2 0.33,1.01 1.91,0.58 1.58,-0.43 -2.89,-8.99 -6.22,-18.61 -13.38,-25.18 -7.2,-6.58 -17.9,-8.68 -27.05,-5.23 -4.39,1.66 -8.6,4.68 -10.28,9.23 -0.78,2.1 -0.76,4.44 0.23,6.47 0.86,1.78 2.5,3.04 4.33,3.75 4.04,1.56 8.47,0.09 11.04,-3.3 2.89,-3.82 3.16,-8.99 1.54,-13.38 -1.79,-4.8 -5.38,-8.86 -9.34,-12.03 -3.96,-3.16 -8.54,-5.52 -13.4,-6.89 -1.21,-0.33 -2.42,-0.62 -3.66,-0.82 -1.06,-0.21 -1.51,1.37 -0.47,1.56l0 0z"/>
    <path class="fil9" d="M802.93 381.2c-2.14,4.39 -5.85,7.78 -7.68,12.35 -0.86,2.18 -1.27,4.68 -0.65,7 0.28,1.09 0.84,2.15 1.74,2.87 0.94,0.76 2.07,1.07 3.24,1.26 2.98,0.49 6,0.67 9.01,0.53 -0.39,-0.51 -0.78,-1.03 -1.19,-1.56 -0.82,3.41 -4.64,6.79 -1.97,10.36 1.25,1.69 3.35,2.44 5.21,3.16 2.22,0.86 4.5,1.56 6.8,2.12 -0.11,-0.74 -0.21,-1.5 -0.29,-2.24 -3.72,1.62 -4.91,6.2 -4.13,9.87 0.97,4.54 4.89,7.72 8.34,10.43 0.51,0.41 1.23,0.51 1.72,0 0.43,-0.43 0.51,-1.32 0,-1.73 -2.95,-2.34 -6.53,-5.01 -7.57,-8.84 -0.78,-2.81 0,-6.36 2.87,-7.62 0.99,-0.43 0.68,-2.01 -0.29,-2.23 -2.07,-0.5 -4.1,-1.09 -6.09,-1.83 -1.5,-0.55 -3.49,-1.13 -4.54,-2.42 -0.92,-1.15 -0.41,-2.57 0.19,-3.72 0.76,-1.51 1.7,-2.97 2.11,-4.65 0.19,-0.74 -0.37,-1.61 -1.19,-1.56 -2.38,0.12 -4.76,0.04 -7.14,-0.27 -0.96,-0.12 -2.07,-0.21 -2.98,-0.62 -0.8,-0.35 -1.25,-1.08 -1.47,-1.9 -1.17,-4.13 1.74,-8.28 4.04,-11.41 1.44,-1.98 2.93,-3.92 4,-6.14 0.7,-1.4 -1.42,-2.65 -2.09,-1.21l0 0z"/>
    <path class="fil9" d="M583.69 396.51c-0.47,2.79 -1.19,5.54 -2.15,8.21 -0.8,2.17 -1.73,4.98 -3.88,6.19 -1.95,1.09 -4.39,0.6 -6.38,-0.08 -2.36,-0.8 -4.62,-2.05 -6.71,-3.38 -2.49,-1.58 -4.76,-3.43 -6.84,-5.5 -0.82,-0.83 -1.99,-0.15 -2.09,0.86 -0.43,4.04 2.24,8.23 0.14,12.06 -1.84,3.37 -5.6,5.01 -9.25,5.48 -2.63,0.33 -5.28,0.21 -7.9,0.09 -1.3,-0.07 -1.56,1.64 -0.62,2.27 6.79,4.7 14.96,10.86 13.89,20.16 -0.32,2.91 -1.45,5.72 -2.7,8.37 -0.29,0.59 -0.17,1.31 0.43,1.68 0.53,0.31 1.39,0.17 1.68,-0.43 2.34,-4.94 4.1,-10.47 2.48,-15.92 -1.35,-4.5 -4.57,-8.15 -8.08,-11.13 -2.05,-1.74 -4.25,-3.32 -6.47,-4.84 -0.2,0.76 -0.41,1.52 -0.61,2.28 4.8,0.22 9.93,0.41 14.28,-1.97 3.71,-2.01 6.44,-5.75 6.16,-10.1 -0.19,-2.69 -1.26,-5.29 -0.97,-8 -0.7,0.28 -1.39,0.57 -2.09,0.86 3.98,3.98 8.91,7.45 14.22,9.38 2.38,0.86 5.21,1.37 7.68,0.43 2.79,-1.07 4.14,-3.59 5.25,-6.2 1.37,-3.24 2.34,-6.63 2.93,-10.12 0.11,-0.65 -0.16,-1.31 -0.86,-1.49 -0.61,-0.19 -1.41,0.18 -1.54,0.84l0 0z"/>
    <path class="fil10" d="M596.85 297.45c6.2,-0.92 12.09,2.32 17.3,5.21 0.92,0.51 1.74,-0.9 0.82,-1.41 -5.67,-3.17 -11.86,-6.39 -18.57,-5.38 -1.01,0.16 -0.58,1.72 0.45,1.58l0 0z"/>
    <path class="fil10" d="M619.4 307.75c5.52,4.15 11.53,7.55 17.92,10.18 3.18,1.31 6.46,2.42 9.79,3.3 1.66,0.45 3.34,0.84 5.02,1.17 1.5,0.31 3.16,0.78 4.7,0.68 1.36,-0.08 2.67,-0.92 2.59,-2.42 -0.08,-1.46 -1.52,-2.53 -2.71,-3.12 -2.52,-1.29 -5.75,-2.59 -8.62,-1.72 -3.2,0.94 -4.43,4.39 -4.17,7.47 0.31,3.32 2.08,6.23 4.13,8.78 4.8,5.95 11.2,10.79 18,14.22 0.94,0.47 1.76,-0.94 0.82,-1.42 -5.52,-2.79 -10.57,-6.46 -14.9,-10.87 -2.07,-2.14 -4.08,-4.41 -5.38,-7.12 -1.15,-2.45 -1.82,-6.02 0.08,-8.27 1.83,-2.18 5.01,-1.38 7.29,-0.48 1.15,0.46 2.52,0.97 3.37,1.89 0.3,0.35 0.67,0.88 0.18,1.25 -0.41,0.33 -1.13,0.23 -1.62,0.17 -2.98,-0.35 -5.97,-1.09 -8.87,-1.89 -2.99,-0.82 -5.93,-1.81 -8.8,-2.95 -6.44,-2.59 -12.54,-6.06 -18.08,-10.25 -0.76,-0.63 -1.58,0.78 -0.74,1.4l0 0z"/>
    <path class="fil10" d="M591.29 326.49c1.29,3.01 2.42,6.09 3.42,9.21 1.01,3.12 1.95,6.32 2.49,9.56 0.86,5.32 0.02,12.01 -5.18,14.9 -2.31,1.3 -5.6,1.44 -7.42,-0.78 -1.52,-1.82 -1.21,-4.39 0.88,-5.6 2.09,-1.21 4.53,-0.76 6.42,0.6 2.22,1.58 3.7,4.12 4.87,6.52 2.93,5.99 3.89,12.95 2.7,19.52 -0.18,1.02 1.4,1.48 1.58,0.43 1.19,-6.65 0.37,-13.55 -2.38,-19.72 -2.15,-4.87 -6.71,-11.6 -12.97,-9.26 -2.54,0.95 -4.2,3.37 -3.57,6.12 0.7,2.97 3.57,4.78 6.53,4.74 6.63,-0.12 10.28,-7.02 10.51,-12.89 0.16,-4.21 -0.99,-8.37 -2.18,-12.37 -1.19,-4.03 -2.63,-7.97 -4.27,-11.82 -0.16,-0.41 -0.76,-0.5 -1.11,-0.29 -0.47,0.27 -0.51,0.74 -0.32,1.13l0 0z"/>
    <path class="fil2" d="M784.37 325.33c0.14,-0.05 0.17,-0.18 0.11,-0.38l-0.35 -1.09c0.58,-0.13 1.06,-0.39 1.48,-0.68 0,0 0.03,-0.02 0.03,-0.02 0.39,-0.5 1,-1.54 0.62,-3.24 -0.53,-2.25 -2.47,-4.07 -3.05,-4.56 0,0 -0.03,-0.04 -0.03,-0.04l-0.6 -0.48c-0.84,-0.71 -1.62,-1.34 -2.22,-1.87 -0.67,-0.56 -1.21,-1.01 -1.61,-1.34l-0.54 -0.45c-0.37,-0.29 -0.74,-0.64 -1.04,-0.96 -0.06,-0.09 -0.1,-0.13 -0.13,-0.17 -0.33,-0.42 -0.53,-0.79 -0.63,-0.97 -0.16,-0.33 -0.29,-0.67 -0.35,-0.98 -0.03,-0.49 0.39,-0.78 1.03,-0.66 0.31,0.03 0.65,0.23 0.92,0.45 0.27,0.23 0.47,0.48 0.53,0.73l0.29 0.84c0.1,0.24 0.36,0.46 0.6,0.47l3.21 0.39c0.1,0.01 0.21,-0.03 0.31,-0.08 0.07,-0.08 0.07,-0.2 0.04,-0.3l-0.55 -1.62c0,0 -0.03,-0.04 0,-0.06 -0.29,-0.6 -0.69,-1.22 -1.26,-1.83 -0.4,-0.44 -0.9,-0.85 -1.44,-1.24 -0.71,-0.49 -1.48,-0.89 -2.23,-1.19l-0.35 -1.03c-0.03,-0.1 -0.13,-0.23 -0.27,-0.34 -0.1,-0.07 -0.27,-0.17 -0.37,-0.18l-3.04 -0.35c-0.1,-0.01 -0.2,0.04 -0.27,0.12 -0.04,0.07 -0.08,0.2 -0.04,0.3l0.35 1.09c-0.72,0.19 -1.21,0.51 -1.49,0.68 0,0 -0.03,0.02 -0.03,0.02 -0.39,0.5 -0.99,1.54 -0.62,3.24 0.54,2.25 2.48,4.07 3.05,4.56 0,0 0.03,0.04 0.03,0.04l0.11 0.07c0.97,0.88 1.87,1.68 2.71,2.39l0.17 0.16c1.98,1.63 1.98,1.63 2.05,1.72 0.2,0.13 0.64,0.46 1.04,0.85 0.03,0.04 0.1,0.12 0.13,0.17 0.34,0.42 0.53,0.78 0.63,0.97 0.17,0.32 0.29,0.66 0.36,0.97 0.02,0.5 -0.4,0.79 -1.04,0.67 -0.31,-0.04 -0.65,-0.24 -0.92,-0.46 -0.27,-0.22 -0.46,-0.48 -0.53,-0.73l-0.29 -0.83c-0.09,-0.24 -0.36,-0.47 -0.6,-0.48l-3.21 -0.38c-0.1,-0.02 -0.2,0.03 -0.31,0.07 -0.07,0.09 -0.07,0.2 -0.04,0.3l0.55 1.62c0,0 0.03,0.05 0,0.06 0.29,0.61 0.69,1.23 1.26,1.83 0.4,0.45 0.9,0.85 1.44,1.24 0.71,0.49 1.49,0.89 2.23,1.2l0.35 1.03c0.04,0.1 0.14,0.22 0.27,0.33 0.1,0.07 0.27,0.17 0.37,0.18l3.04 0.35c0,-0.11 0.07,-0.09 0.14,-0.12z"/>
    <path class="fil11" d="M783.24 323.06c-0.14,0.06 -0.18,0.19 -0.11,0.39l0.32 0.99 -2.12 -0.23 -0.32 -0.93c-0.06,-0.2 -0.26,-0.4 -0.5,-0.47 -0.75,-0.24 -1.53,-0.64 -2.23,-1.13 -0.41,-0.28 -0.81,-0.61 -1.18,-1.02 -0.4,-0.45 -0.73,-0.93 -0.99,-1.44l-0.39 -1.13 2.29 0.27 0.12 0.4c0.16,0.49 0.53,0.96 1,1.38 0.47,0.36 1.01,0.64 1.52,0.76 1.09,0.21 1.85,-0.34 1.77,-1.26 0,0 0,0 0,-0.06 -0.09,-0.41 -0.22,-0.8 -0.41,-1.22 -0.14,-0.23 -0.33,-0.71 -0.83,-1.28 -0.07,-0.09 -0.14,-0.17 -0.24,-0.24 -0.5,-0.52 -1,-0.87 -1.27,-1.09 -0.14,-0.12 -0.84,-0.72 -1.92,-1.61l-0.13 -0.11c-0.81,-0.67 -1.71,-1.47 -2.68,-2.35 0,0 -0.04,-0.05 -0.04,-0.05l-0.1 -0.07c-0.54,-0.44 -2.14,-1.95 -2.55,-3.81 -0.34,-1.43 0.15,-2.31 0.5,-2.74 0.21,-0.2 0.73,-0.48 1.52,-0.64 0.17,-0.02 0.25,-0.22 0.18,-0.42l-0.32 -0.99 2.12 0.23 0.32 0.93c0.06,0.2 0.26,0.4 0.5,0.47 0.75,0.24 1.53,0.64 2.23,1.13 0.41,0.28 0.81,0.62 1.18,1.02 0.4,0.45 0.73,0.93 0.99,1.44l0.39 1.13 -2.29 -0.27 -0.13 -0.4c-0.16,-0.49 -0.52,-0.96 -0.99,-1.38 -0.47,-0.36 -1.01,-0.64 -1.52,-0.76 -1.09,-0.21 -1.86,0.34 -1.77,1.26 0,0 0,0 0,0.06 0.09,0.41 0.22,0.8 0.41,1.22 0.14,0.23 0.33,0.71 0.83,1.29 0.07,0.08 0.1,0.12 0.17,0.21 0.36,0.4 0.77,0.79 1.24,1.16l0.53 0.45c0.41,0.33 0.94,0.78 1.62,1.34 0.63,0.51 1.41,1.2 2.25,1.91 0,0 0,0 0.03,0.04l0.6 0.48c0.54,0.45 2.15,1.96 2.55,3.81 0.35,1.43 -0.15,2.32 -0.5,2.75 -0.21,0.2 -0.73,0.47 -1.52,0.64 -0.1,-0.07 -0.13,-0.06 -0.13,-0.06z"/>
    <path class="fil2" d="M723.41 349.38c0.05,-0.14 -0.01,-0.25 -0.2,-0.35l-1.01 -0.51c0.32,-0.51 0.47,-1.03 0.56,-1.53 0,0 0.02,-0.03 0.02,-0.03 -0.08,-0.63 -0.39,-1.79 -1.85,-2.72 -1.95,-1.21 -4.6,-1.12 -5.35,-1.06 0,0 -0.05,-0.01 -0.05,-0.01l-0.76 0.09c-1.09,0.09 -2.07,0.19 -2.87,0.24 -0.87,0.08 -1.56,0.15 -2.08,0.19l-0.69 0.07c-0.47,0.05 -0.97,0.06 -1.41,0.05 -0.11,-0.01 -0.16,-0.02 -0.21,-0.03 -0.53,-0.06 -0.93,-0.18 -1.13,-0.24 -0.34,-0.11 -0.67,-0.26 -0.93,-0.43 -0.37,-0.34 -0.28,-0.83 0.26,-1.2 0.24,-0.19 0.62,-0.29 0.96,-0.32 0.35,-0.04 0.67,0 0.89,0.14l0.79 0.38c0.24,0.1 0.58,0.07 0.76,-0.09l2.52 -1.98c0.09,-0.07 0.13,-0.17 0.17,-0.27 -0.01,-0.11 -0.09,-0.19 -0.18,-0.24l-1.53 -0.76c0,0 -0.05,-0.01 -0.04,-0.04 -0.63,-0.22 -1.34,-0.38 -2.17,-0.4 -0.6,-0.04 -1.23,0.03 -1.89,0.14 -0.84,0.15 -1.67,0.42 -2.4,0.73l-0.98 -0.48c-0.09,-0.05 -0.25,-0.07 -0.42,-0.05 -0.12,0.02 -0.31,0.07 -0.39,0.14l-2.38 1.89c-0.08,0.06 -0.12,0.16 -0.11,0.27 0.03,0.08 0.09,0.19 0.18,0.24l1.01 0.52c-0.37,0.64 -0.48,1.21 -0.56,1.52 0,0 -0.01,0.04 -0.01,0.04 0.08,0.62 0.39,1.78 1.84,2.71 1.96,1.21 4.61,1.12 5.35,1.07 0,0 0.05,0 0.05,0l0.12 -0.02c1.31,-0.06 2.51,-0.14 3.6,-0.23l0.22 -0.01c2.55,-0.24 2.55,-0.24 2.65,-0.23 0.24,-0.04 0.78,-0.13 1.33,-0.13 0.06,0 0.16,0.02 0.22,0.02 0.53,0.07 0.92,0.18 1.12,0.24 0.34,0.12 0.67,0.26 0.93,0.44 0.37,0.33 0.28,0.83 -0.26,1.2 -0.24,0.19 -0.62,0.29 -0.96,0.32 -0.35,0.03 -0.67,-0.01 -0.89,-0.14l-0.79 -0.38c-0.24,-0.1 -0.58,-0.07 -0.76,0.09l-2.52 1.98c-0.08,0.06 -0.13,0.17 -0.17,0.27 0.01,0.11 0.09,0.19 0.18,0.24l1.53 0.76c0,0 0.05,0 0.04,0.04 0.63,0.22 1.35,0.37 2.17,0.4 0.6,0.03 1.24,-0.04 1.89,-0.14 0.84,-0.16 1.67,-0.42 2.41,-0.73l0.97 0.48c0.09,0.04 0.25,0.06 0.42,0.05 0.12,-0.03 0.31,-0.08 0.39,-0.14l2.38 -1.89c-0.08,-0.08 -0.01,-0.11 0.02,-0.18z"/>
    <path class="fil11" d="M721.02 348.58c-0.06,0.14 0,0.25 0.19,0.35l0.92 0.47 -1.65 1.32 -0.88 -0.43c-0.19,-0.09 -0.46,-0.09 -0.68,0.03 -0.7,0.35 -1.53,0.62 -2.37,0.77 -0.48,0.09 -1,0.14 -1.54,0.11 -0.6,-0.03 -1.17,-0.14 -1.71,-0.31l-1.06 -0.52 1.79 -1.42 0.37 0.19c0.46,0.23 1.04,0.3 1.67,0.27 0.59,-0.08 1.16,-0.26 1.6,-0.54 0.92,-0.61 1.07,-1.53 0.37,-2.12 0,0 0,0 -0.04,-0.04 -0.36,-0.23 -0.73,-0.42 -1.16,-0.58 -0.25,-0.06 -0.73,-0.26 -1.48,-0.31 -0.11,-0.02 -0.21,-0.03 -0.33,-0.01 -0.72,-0.01 -1.32,0.1 -1.67,0.13 -0.17,0.02 -1.09,0.09 -2.47,0.22l-0.18 0.01c-1.04,0.1 -2.23,0.17 -3.54,0.24 0,0 -0.05,-0.01 -0.05,-0.01l-0.12 0.02c-0.69,0.07 -2.89,0.13 -4.47,-0.89 -1.25,-0.76 -1.52,-1.73 -1.58,-2.28 0.01,-0.29 0.18,-0.85 0.62,-1.52 0.11,-0.13 0.02,-0.32 -0.17,-0.42l-0.92 -0.47 1.65 -1.32 0.88 0.43c0.19,0.09 0.46,0.09 0.68,-0.03 0.7,-0.35 1.53,-0.62 2.37,-0.77 0.48,-0.09 1,-0.14 1.54,-0.11 0.6,0.04 1.17,0.14 1.71,0.31l1.06 0.52 -1.79 1.42 -0.37 -0.19c-0.46,-0.23 -1.04,-0.3 -1.67,-0.27 -0.59,0.08 -1.16,0.27 -1.6,0.54 -0.92,0.61 -1.07,1.54 -0.37,2.13 0,0 0,0 0.04,0.04 0.36,0.22 0.73,0.41 1.16,0.57 0.25,0.06 0.73,0.26 1.48,0.32 0.11,0.01 0.16,0.02 0.27,0.03 0.54,0.03 1.1,0.02 1.69,-0.06l0.69 -0.06c0.52,-0.05 1.21,-0.11 2.08,-0.19 0.81,-0.08 1.83,-0.14 2.92,-0.23 0,0 0,0 0.06,0l0.76 -0.09c0.69,-0.06 2.88,-0.13 4.47,0.89 1.25,0.76 1.52,1.73 1.57,2.28 0,0.29 -0.17,0.85 -0.61,1.52 -0.12,0.03 -0.13,0.06 -0.13,0.06z"/>
    <path class="fil2" d="M659.14 380.27c0.19,-0.04 0.26,-0.15 0.2,-0.33l-0.31 -0.98c0.79,-0.06 1.46,-0.24 2.05,-0.46 0,0 0.05,-0.01 0.05,-0.01 0.58,-0.4 1.52,-1.25 1.27,-2.76 -0.4,-2 -2.71,-3.76 -3.39,-4.23 0,0 -0.04,-0.04 -0.04,-0.04l-0.73 -0.47c-1.01,-0.7 -1.95,-1.32 -2.67,-1.83 -0.81,-0.55 -1.46,-0.99 -1.94,-1.32l-0.65 -0.43c-0.44,-0.29 -0.88,-0.63 -1.23,-0.94 -0.08,-0.08 -0.12,-0.12 -0.16,-0.16 -0.38,-0.39 -0.59,-0.73 -0.69,-0.9 -0.17,-0.29 -0.3,-0.6 -0.34,-0.88 0.04,-0.43 0.63,-0.64 1.47,-0.48 0.4,0.06 0.82,0.26 1.14,0.48 0.33,0.22 0.55,0.46 0.6,0.68l0.27 0.76c0.09,0.21 0.42,0.43 0.73,0.46l4.18 0.63c0.13,0.02 0.27,-0.01 0.42,-0.04 0.1,-0.06 0.12,-0.16 0.09,-0.25l-0.49 -1.46c0,0 -0.04,-0.04 0.01,-0.05 -0.31,-0.56 -0.75,-1.13 -1.41,-1.71 -0.47,-0.42 -1.08,-0.82 -1.74,-1.21 -0.86,-0.49 -1.83,-0.91 -2.77,-1.24l-0.33 -0.93c-0.03,-0.09 -0.14,-0.2 -0.3,-0.31 -0.13,-0.07 -0.34,-0.17 -0.47,-0.19l-3.96 -0.58c-0.13,-0.02 -0.27,0.01 -0.38,0.07 -0.05,0.06 -0.12,0.17 -0.09,0.26l0.31 0.98c-0.98,0.1 -1.66,0.33 -2.05,0.46 0,0 -0.05,0.01 -0.05,0.01 -0.58,0.4 -1.52,1.25 -1.27,2.76 0.4,2 2.71,3.76 3.39,4.24 0,0 0.04,0.04 0.04,0.04l0.13 0.07c1.16,0.85 2.24,1.63 3.25,2.32l0.2 0.15c2.39,1.6 2.39,1.6 2.47,1.68 0.24,0.14 0.78,0.46 1.25,0.84 0.04,0.04 0.12,0.12 0.15,0.16 0.38,0.39 0.59,0.73 0.7,0.9 0.17,0.29 0.29,0.6 0.33,0.88 -0.04,0.43 -0.63,0.64 -1.46,0.48 -0.4,-0.06 -0.82,-0.26 -1.14,-0.48 -0.33,-0.22 -0.56,-0.46 -0.6,-0.68l-0.27 -0.75c-0.1,-0.22 -0.42,-0.44 -0.73,-0.47l-4.18 -0.63c-0.13,-0.02 -0.28,0.01 -0.42,0.04 -0.1,0.06 -0.12,0.16 -0.09,0.25l0.49 1.46c0,0 0.04,0.04 -0.01,0.05 0.31,0.56 0.74,1.13 1.41,1.71 0.47,0.42 1.08,0.82 1.73,1.21 0.87,0.49 1.84,0.91 2.78,1.24l0.32 0.93c0.03,0.09 0.15,0.21 0.31,0.31 0.12,0.07 0.33,0.17 0.47,0.2l3.95 0.57c0.02,-0.1 0.11,-0.07 0.2,-0.08z"/>
    <path class="fil11" d="M657.97 378.19c-0.19,0.04 -0.26,0.15 -0.2,0.32l0.28 0.89 -2.76 -0.39 -0.29 -0.84c-0.06,-0.18 -0.3,-0.37 -0.6,-0.45 -0.95,-0.28 -1.92,-0.7 -2.79,-1.19 -0.49,-0.28 -0.98,-0.6 -1.41,-0.99 -0.46,-0.43 -0.84,-0.87 -1.11,-1.34l-0.35 -1.02 2.97 0.45 0.12 0.35c0.14,0.45 0.56,0.88 1.12,1.29 0.57,0.36 1.25,0.65 1.9,0.8 1.41,0.29 2.5,-0.12 2.52,-0.93 0,0 0,0 0.01,-0.05 -0.07,-0.36 -0.19,-0.72 -0.39,-1.1 -0.14,-0.21 -0.33,-0.65 -0.91,-1.19 -0.08,-0.08 -0.15,-0.16 -0.28,-0.23 -0.59,-0.5 -1.2,-0.85 -1.53,-1.06 -0.16,-0.11 -1.01,-0.7 -2.3,-1.58l-0.16 -0.11c-0.97,-0.65 -2.06,-1.43 -3.22,-2.28 0,0 -0.04,-0.04 -0.04,-0.04l-0.12 -0.07c-0.65,-0.44 -2.56,-1.9 -2.84,-3.55 -0.26,-1.27 0.52,-1.99 1.05,-2.34 0.3,-0.15 1.02,-0.34 2.09,-0.42 0.23,0.01 0.35,-0.16 0.29,-0.34l-0.28 -0.89 2.76 0.4 0.29 0.83c0.06,0.18 0.3,0.37 0.6,0.45 0.96,0.28 1.93,0.7 2.79,1.19 0.5,0.28 0.98,0.61 1.41,1 0.47,0.42 0.84,0.87 1.11,1.33l0.36 1.02 -2.98 -0.44 -0.12 -0.36c-0.14,-0.44 -0.56,-0.88 -1.12,-1.29 -0.57,-0.35 -1.25,-0.64 -1.9,-0.8 -1.41,-0.28 -2.5,0.13 -2.51,0.93 0,0 0,0 -0.01,0.05 0.06,0.37 0.18,0.72 0.38,1.11 0.14,0.21 0.33,0.64 0.91,1.19 0.08,0.08 0.12,0.12 0.19,0.2 0.43,0.38 0.91,0.76 1.48,1.12l0.64 0.44c0.49,0.32 1.14,0.76 1.95,1.31 0.77,0.51 1.69,1.17 2.7,1.87 0,0 0,0 0.04,0.04l0.73 0.47c0.65,0.43 2.56,1.9 2.84,3.54 0.25,1.28 -0.53,2 -1.05,2.34 -0.3,0.16 -1.03,0.35 -2.09,0.42 -0.13,-0.07 -0.17,-0.06 -0.17,-0.06z"/>
    <path class="fil2" d="M615.12 426.93c0.05,-0.19 -0.02,-0.3 -0.21,-0.32l-1.02 -0.12c0.27,-0.74 0.39,-1.43 0.44,-2.06 0,0 0.01,-0.05 0.01,-0.05 -0.13,-0.69 -0.51,-1.9 -1.99,-2.29 -1.98,-0.48 -4.54,0.9 -5.26,1.32 0,0 -0.05,0.02 -0.05,0.02l-0.73 0.47c-1.06,0.63 -2,1.22 -2.78,1.66 -0.83,0.51 -1.5,0.92 -2,1.23l-0.66 0.4c-0.45,0.29 -0.94,0.55 -1.37,0.74 -0.1,0.04 -0.15,0.05 -0.2,0.07 -0.52,0.18 -0.92,0.23 -1.11,0.26 -0.34,0.03 -0.67,0.02 -0.94,-0.06 -0.38,-0.22 -0.33,-0.84 0.17,-1.54 0.22,-0.33 0.58,-0.63 0.91,-0.83 0.33,-0.21 0.64,-0.32 0.87,-0.27l0.79 0.07c0.24,0.01 0.57,-0.2 0.73,-0.47l2.31 -3.54c0.07,-0.11 0.11,-0.25 0.14,-0.39 -0.02,-0.13 -0.1,-0.19 -0.19,-0.2l-1.54 -0.15c0,0 -0.05,0.02 -0.04,-0.03 -0.63,0.05 -1.33,0.2 -2.13,0.57 -0.59,0.25 -1.2,0.64 -1.83,1.07 -0.8,0.59 -1.59,1.3 -2.28,2.02l-0.98 -0.09c-0.09,-0.02 -0.25,0.04 -0.41,0.14 -0.12,0.08 -0.29,0.23 -0.37,0.35l-2.17 3.36c-0.07,0.11 -0.11,0.25 -0.09,0.37 0.03,0.08 0.1,0.19 0.2,0.2l1.02 0.12c-0.32,0.93 -0.39,1.65 -0.44,2.06 0,0 -0.01,0.04 -0.01,0.04 0.12,0.7 0.51,1.91 1.98,2.3 1.99,0.48 4.55,-0.9 5.27,-1.32 0,0 0.05,-0.02 0.05,-0.02l0.12 -0.08c1.26,-0.7 2.41,-1.37 3.46,-2l0.22 -0.12c2.45,-1.5 2.45,-1.5 2.56,-1.54 0.23,-0.17 0.74,-0.52 1.28,-0.8 0.05,-0.02 0.15,-0.05 0.2,-0.07 0.52,-0.18 0.92,-0.23 1.11,-0.26 0.34,-0.03 0.67,-0.02 0.94,0.06 0.38,0.22 0.33,0.84 -0.17,1.54 -0.22,0.34 -0.58,0.63 -0.91,0.84 -0.33,0.2 -0.64,0.31 -0.87,0.26l-0.79 -0.07c-0.24,0 -0.57,0.2 -0.73,0.47l-2.31 3.54c-0.07,0.11 -0.11,0.26 -0.14,0.4 0.02,0.12 0.1,0.18 0.19,0.19l1.54 0.16c0,0 0.05,-0.02 0.04,0.02 0.63,-0.04 1.33,-0.2 2.13,-0.57 0.59,-0.25 1.2,-0.63 1.83,-1.07 0.8,-0.59 1.59,-1.29 2.28,-2.01l0.98 0.09c0.09,0.01 0.25,-0.05 0.41,-0.15 0.12,-0.08 0.3,-0.23 0.37,-0.34l2.17 -3.36c-0.08,-0.06 -0.02,-0.13 0,-0.22z"/>
    <path class="fil11" d="M612.75 427.14c-0.05,0.19 0.02,0.29 0.21,0.31l0.92 0.11 -1.5 2.35 -0.88 -0.08c-0.19,-0.02 -0.46,0.12 -0.66,0.36 -0.65,0.75 -1.44,1.46 -2.24,2.04 -0.46,0.34 -0.96,0.64 -1.49,0.87 -0.58,0.25 -1.14,0.4 -1.68,0.46l-1.07 -0.1 1.64 -2.53 0.37 0.04c0.46,0.06 1.03,-0.14 1.64,-0.48 0.56,-0.37 1.11,-0.87 1.52,-1.4 0.84,-1.16 0.92,-2.32 0.19,-2.67 0,0 0,0 -0.04,-0.03 -0.36,-0.09 -0.73,-0.14 -1.16,-0.11 -0.25,0.04 -0.72,0.03 -1.46,0.33 -0.11,0.04 -0.21,0.08 -0.32,0.16 -0.7,0.33 -1.28,0.75 -1.61,0.95 -0.17,0.1 -1.05,0.63 -2.39,1.44l-0.16 0.11c-1,0.61 -2.16,1.27 -3.42,1.97 0,0 -0.05,0.02 -0.05,0.02l-0.12 0.08c-0.66,0.41 -2.79,1.54 -4.4,1.11 -1.26,-0.29 -1.6,-1.3 -1.69,-1.92 -0.02,-0.34 0.11,-1.08 0.49,-2.08 0.09,-0.21 -0.01,-0.39 -0.19,-0.41l-0.93 -0.11 1.5 -2.35 0.89 0.08c0.18,0.03 0.45,-0.11 0.65,-0.36 0.66,-0.74 1.44,-1.45 2.25,-2.04 0.46,-0.33 0.96,-0.64 1.49,-0.87 0.58,-0.24 1.14,-0.4 1.67,-0.45l1.08 0.1 -1.64 2.52 -0.38 -0.04c-0.46,-0.05 -1.03,0.15 -1.63,0.49 -0.57,0.37 -1.11,0.86 -1.52,1.4 -0.85,1.16 -0.93,2.31 -0.2,2.67 0,0 0,0 0.04,0.03 0.36,0.09 0.73,0.13 1.17,0.11 0.24,-0.05 0.72,-0.04 1.46,-0.34 0.1,-0.04 0.15,-0.05 0.26,-0.09 0.53,-0.23 1.07,-0.51 1.63,-0.88l0.67 -0.4c0.5,-0.31 1.16,-0.72 2,-1.22 0.78,-0.49 1.77,-1.06 2.82,-1.69 0,0 0,0 0.05,-0.01l0.73 -0.48c0.67,-0.4 2.79,-1.54 4.41,-1.1 1.26,0.29 1.6,1.3 1.69,1.92 0.01,0.34 -0.11,1.08 -0.49,2.08 -0.11,0.08 -0.12,0.13 -0.12,0.13z"/>
   </g>
  </g>
 </g>
</svg>
