<?xml version="1.0" encoding="utf-8"?>
<!-- Generator: Adobe Illustrator 25.4.1, SVG Export Plug-In . SVG Version: 6.00 Build 0)  -->
<svg version="1.1" id="_x2E_" xmlns="http://www.w3.org/2000/svg" xmlns:xlink="http://www.w3.org/1999/xlink" x="0px" y="0px"
	 viewBox="0 0 1728 1296" style="enable-background:new 0 0 1728 1296;" xml:space="preserve">
<style type="text/css">
	.st0{fill:#FF8672;}
	.st1{fill:#6AAAE4;}
	.st2{fill:#FFFFFF;}
	.st3{fill:#FDD756;}
	.st4{fill:#00AE8D;}
	.st5{fill:#A7ABA1;}
	.st6{fill:#D6D1CA;}
</style>
<rect class="st0" width="1728" height="1296"/>
<path class="st1" d="M1447.05,1133.54c-1.41-6.06-4.61-12.12-6.85-17.93c-8.26-21.4-15.68-43.22-27.28-63.09
	c-3.21-5.49-6.06-10.98-7.87-17.1c-1.74-5.9-2.83-11.97-4.43-17.9c-3.11-11.56-8.44-22.36-15.71-31.87
	c-1.62-2.12-4.09-2.47-6.13-1.78c-7.29-14.23-17.69-26.98-27.78-39.35c-17.8-21.84-34.12-44.7-48.65-68.85
	c-0.87-1.44-2.1-2.15-3.38-2.33c6.13-11.69,7.9-25.04,8.32-38.43c0.56-17.62,0.05-35.47-3.08-52.85
	c-2.99-16.59-8.92-33.25-19.44-46.61c-2.43-3.08-5.22-5.89-8.75-7.69c-3.71-1.89-7.92-2.16-10.97-5.21
	c-2.72-2.72-4.74-6.1-7.37-8.92c-2.64-2.83-5.6-5.34-8.65-7.72c-4.31-3.35-9.02-6.38-13.7-9.46c1.42-2.17,1.46-5.42-1.27-7.32
	c-10.1-7.01-18.46-13.95-20.65-26.64c-2.32-13.49-3.91-27.09-6.37-40.57c-5.04-27.59-11.4-54.91-17.75-82.22
	c-0.85-3.67-5.8-4.83-8.36-2.21c-16.29,16.73-21.76,39.48-30.18,60.54c-4.04,10.12-9.11,20.29-16.65,28.28
	c-3.85,4.08-8.47,7.95-13.74,10.05c-4.74,1.89-13.73,2.04-14.19-4.98c-0.22-3.39-3.14-5-5.78-4.79c-0.18-3.97-0.36-7.93-0.54-11.9
	c-0.17-3.74-4.13-6.29-7.52-4.32c-9.79,5.7-19.57,11.4-29.36,17.1c-0.82,0.48-1.63,0.96-2.45,1.43c0-0.38-0.02-0.75-0.03-1.08
	c1.36-1.76,2.14-3.94,1.86-6.08c-0.18-1.38-0.44-2.51-1.46-3.54c-0.87-0.87-2.29-1.52-3.54-1.46c-1.11,0.05-2.25,0.4-3.12,1.11
	c-6.36-3.75-13.69-2.18-19.19,2.49c-4.69,3.98-7.54,11.05-12.07,15.54c-0.25-3.4-0.44-6.8-0.54-10.22
	c-0.11-3.59-4.23-6.49-7.52-4.32c-14.14,9.33-28.18,18.85-42.44,28c-5.48,3.52-14.37,8.8-19.47,1.88c-2.18-2.96-3.43-6.91-5.2-10.16
	c-1.69-3.1-3.5-6.13-5.41-9.1c-15.5-24.11-36.83-44.1-49.73-69.92c-2.88-5.76-11.5-0.7-8.63,5.05c0.11,0.22,0.23,0.44,0.34,0.65
	c-0.61,0.74-1.03,1.69-1.13,2.86c-2.15,24.49-3.86,49.01-5.13,73.56c-2.51-0.01-4.94,1.59-4.79,4.82
	c0.53,11.08-0.72,22.02-4.05,32.62c-3.12,9.95-8.3,18.92-13.21,28.06c-9.9,18.4-18.01,37.85-23.49,58.03
	c-5.44,20.04-9.14,41.77-7.77,62.59c0.72,11.01,3.83,21.27,7.74,31.53c3.61,9.47,6.8,19.03,10.09,28.62
	c5.19,15.16,13.24,31.39,27.33,39.36c-3.5,14.97-6.39,30.08-8.66,45.29c-0.16,1.1,0,2.09,0.38,2.95
	c-6.23,17.77-15.25,34.56-25.48,50.51c-14.29,22.28-30.74,48.88-55.26,61c-5.87,2.9-12.04,4.3-18.49,5.15
	c-6.22,0.82-12.4,2.2-16.5,7.35c-3.51,4.43-4.49,10.5-1.22,15.34c3.14,4.64,9.06,5.86,14.31,5.91c16.41,0.18,33.09-1.67,49.48-2.53
	c8.15-0.43,16.31-0.86,24.46-1.28c6.41-0.34,13.48-1.43,19.78,0.28c9.11,2.47,5.12,10.16,5.68,17.24
	c0.52,6.57,4.42,12.64,11.49,13.02c7.83,0.42,16.74-3.3,24.16-5.53c4.64-1.4,9.23-2.92,13.79-4.54c-1.44,3.19-2.3,6.59-2.08,9.92
	c0.49,7.33,8.08,9.65,14.34,9.41c7.9-0.3,15.15-3.96,21.65-8.19c4.53-2.94,9.06-6.48,14.01-8.91c-0.63,1.52-1.25,3.04-1.88,4.57
	c-1.3,3.17-3.65,6.92-3.25,10.46c0.98,8.51,12.06,6.36,17.31,3.91c7.65-3.57,14.51-8.8,22.15-12.5c6.15-2.97,12.5-5.44,19-7.5
	c54.61,27.73,118.23,35.22,177.78,20.83c0.39-0.09,0.75-0.22,1.07-0.38c31.62-0.87,60.52-19.78,92.56-17.62
	c2.61,0.18,4.15-1.37,4.64-3.29c42,7.19,84.75,9.88,127.33,7.7c5.81-0.3,11.62-0.68,17.43-1.16c4.61-0.38,9.61-0.53,13.48-3.41
	C1446.74,1141.34,1447.99,1137.57,1447.05,1133.54z"/>
<path class="st2" d="M988.06,765.62c-0.8-7.42-4.05-12.62-11.82-13.82c-9.12-1.41-18.44-2.02-27.65-2.52
	c-10.75-0.59-21.52-0.74-32.29-0.43c-8.1,0.23-17.96,0.25-18.91,10.47c-0.28,3.04,1.83,4.63,4.18,4.77
	c-2.41,8.71-1.27,19.56,0.82,27.41c0.03,0.11,0.07,0.22,0.1,0.34c-0.01,0.09,0,0.19,0,0.28c-1.96,0.93-3.39,2.96-2.73,5.66
	c0.79,3.26,2.21,6.25,4.42,8.8c2.75,3.19,6.53,4.15,9.67,6.68c2.75,2.22,4.72,4.04,8.25,5.03c4.19,1.18,8.65,1.8,12.96,2.35
	c15.39,1.97,32.63-0.29,43.79-12.15C989.67,797.01,989.65,780.36,988.06,765.62z"/>
<path class="st2" d="M1161.56,757.85c-0.76-2.91-3.28-3.88-5.57-3.45c-20.33-4.1-41.13-5.65-61.84-4.17
	c-7.97,0.57-18.09,0.49-24.64,5.78c-7.23,5.84-5.75,15.66-4.57,23.84c1.35,9.33,3.49,20.04,9.13,27.84
	c4.79,6.62,12.46,10.54,20.34,12.14c9.52,1.93,19.9,1.79,29.53,0.82c9.1-0.92,18.3-3.11,25.94-8.37c7.98-5.5,13.5-13.43,15.09-23.08
	C1166.7,778.66,1164.22,768.01,1161.56,757.85z"/>
<path d="M1071.29,879.24c-0.46-1.3-1.03-2.58-1.72-3.86c-1.16-2.12-4.26-3.1-6.48-2.07c-1.6-2.41-5.29-2.95-7.74-0.83
	c-0.34,0.29-0.67,0.59-1,0.89c-0.53-1.14-1.48-2.09-2.6-2.64c0.98-4.18-3.53-7.79-7.36-5.58c-0.83,0.48-1.63,0.99-2.44,1.5
	c-1.07-2.63-4.46-4.19-7.2-2.58c-1.88,1.1-3.69,2.29-5.49,3.5c0.17-3.79-4.15-5.86-7.55-4.37c-2.29,1-4.52,2.09-6.71,3.27
	c-1.22-1.59-3.43-2.56-5.52-2.22c-2.14,0.35-4.15,0.95-6.08,1.7c1.13-3.81-4.49-8.11-8.66-4.88c-8.64,6.69-15.79,14.9-21.38,24.29
	c-2.75,4.62,2.55,8.82,6.84,6.84c3.59-1.65,6.87-3.92,10.1-6.31c-4.12,4.75,2.54,11.45,7.16,6.97c1.44-1.4,2.83-2.83,4.2-4.29
	c3.39-3.26,7.01-6.2,10.85-8.82c-1.24,1.59-2.59,3.11-4.09,4.56c-4.68,4.5,2.28,11.29,7.07,7.07c2.28-2.01,4.57-4,6.89-5.95
	c-0.09,0.13-0.19,0.25-0.27,0.37c-3.21,4.63,4.16,10.38,7.85,6.06c1.43-1.67,2.75-3.39,3.98-5.16c0.41-0.49,0.83-0.97,1.25-1.45
	c-0.02,3.38,4.05,5.84,7.2,4.47c0.93,3.2,6.08,4.06,8.81,1.54c1.27,3.14,5.3,5.15,7.99,1.88c1.29-1.57,2.57-3.14,3.86-4.7
	c1.11,2.68,4.43,4.51,7.14,2.61c0.08-0.06,0.16-0.12,0.24-0.18c1.86-0.05,3.55-1.15,3.92-3.61c0.11-0.71,0.21-1.41,0.32-2.12
	C1075.11,882.16,1073.41,880.01,1071.29,879.24z"/>
<path class="st3" d="M1059.65,1025.45c8.88-3.86,12.61-10.6,15.49-19.57c3.4-10.62,4.54-21.9,3.62-33
	c-0.21-2.57-1.97-4.11-3.95-4.61c-0.56-0.52-1.29-0.93-2.23-1.15c-13.64-3.25-27.67-4.82-41.69-4.42
	c-6.61,0.19-13.21,0.84-19.74,1.84c-6.01,0.92-14.25,1.46-19.47,4.76c-9.87,6.25-0.86,18.17,4.81,25.54
	c-1.83,0.58-3.39,2.09-3.55,4.53c-0.58,8.46,7.25,12.89,8.71,20.59c0.86,4.55,0.13,9.46-0.17,14.02
	c-0.34,5.29-0.68,10.59-1.03,15.88c-0.34,5.24-1.1,10.63-1.03,15.88c0.04,3.38,1.36,6.07,4.61,7.41c3.63,1.5,8.24,1.42,12.11,1.94
	c5.48,0.73,10.95,1.46,16.43,2.19c4.83,0.64,9.67,1.29,14.5,1.93c4.64,0.62,9.53,1.82,14.22,1.56c6.94-0.37,12.76-5.34,10.62-12.75
	c-2.39-8.29-10.28-14.39-14.32-21.88c-2.06-3.82-3.96-8.18-4.64-12.51C1052.12,1028.41,1055.52,1027.24,1059.65,1025.45z"/>
<g>
	<g>
		<path class="st4" d="M1031.72,1024.89c-0.67-6.33-10.68-6.4-10,0c1.61,15.25,3.22,30.5,4.82,45.75c0.67,6.33,10.68,6.4,10,0
			C1034.93,1055.39,1033.32,1040.14,1031.72,1024.89z"/>
		<path class="st4" d="M1071.01,967.44c-10.52,15.5-22.06,30.22-34.58,44.15c-2.62,2.92-1.01,6.7,1.63,8.11
			c0.01,0.09,0.02,0.17,0.04,0.26c3.35,17.77,8.14,35.91,8.56,54.05c0.15,6.42,10.15,6.45,10,0c-0.44-19.04-5.4-38.06-8.91-56.71
			c-0.18-0.95-0.55-1.69-1.05-2.25c11.85-13.49,22.86-27.7,32.95-42.56C1083.27,967.15,1074.61,962.14,1071.01,967.44z"/>
		<path class="st4" d="M1057,970.48c4.24-4.81-2.81-11.91-7.07-7.07c-15.65,17.78-36.77,30.18-49.43,50.63
			c-3.4,5.49,5.25,10.51,8.63,5.05C1021.26,999.49,1041.97,987.55,1057,970.48z"/>
	</g>
	<path class="st4" d="M1032.85,970.38c5.16-3.74,0.18-12.42-5.05-8.63c-11.55,8.36-22.48,17.49-32.7,27.44
		c-4.62,4.5,2.46,11.57,7.07,7.07C1011.78,986.9,1021.99,978.24,1032.85,970.38z"/>
</g>
<path class="st4" d="M1009.57,1026.98c-2.18,14.19-4.85,28.29-8,42.29c-1.41,6.27,8.23,8.94,9.64,2.66c3.16-14,5.82-28.1,8-42.29
	C1020.18,1023.34,1010.54,1020.63,1009.57,1026.98z"/>
<path class="st5" d="M1570.36,1122.1c-0.77-9.12-1.86-18.21-3.35-27.24c-2.92-17.64-7.18-36.09-15.21-52.18
	c-7.53-15.09-21.77-21.38-36.76-27.06c-19.65-7.44-39.2-13.55-60.25-15.21c-22.11-1.74-44.38-2.12-66.54-3.08
	c-3.74-0.16-5.78,3.93-4.53,6.99c0.09,0.6,0.3,1.22,0.67,1.85c18.98,32.19,38.03,64.52,52.27,99.15
	c5.9,14.34,12.4,28.55,27.41,35.21c16.16,7.17,33.74,4.55,50.83,6.01c9.53,0.81,18.74,4.14,28.39,3.73c4.56-0.19,9.12-1,13.58-1.94
	c3.71-0.78,8.02-1.3,10.94-3.99C1573.44,1139.13,1570.92,1128.71,1570.36,1122.1z"/>
<path class="st6" d="M855.93,1139.78c-1.44-6.48-6.28-10.88-12.36-13.07c-7.84-2.83-16.97-2.18-25.17-2.47
	c-9.39-0.33-18.78-0.67-28.16-1c-9.71-0.34-19.43-0.61-29.13-1.03c-3.61-0.16-7.81-0.13-10.63-2.76c-3.2-2.98-4.33-8.59-5.78-12.55
	c-6.3-17.13-12.57-34.27-18.58-51.51c-12.3-35.28-23.52-71.01-31.45-107.55c-4.41-20.31-7.56-40.77-9.71-61.44
	c-1.29-12.42-4-25.56-12.32-34.32c-0.23-0.31-0.51-0.6-0.84-0.85c-2.84-2.76-6.29-5.05-10.51-6.66c-2.96-1.13-5.09,0.63-5.78,2.99
	c-30.77-4.95-62.14-3.45-93.22-1.78c-37.02,1.99-74.42,4.03-111.21-1.79c-0.42-0.07-0.83-0.08-1.22-0.06c-0.01,0-0.02,0-0.03-0.01
	c-54.28-7.65-109.16-9.77-163.87-6.07c-3.62,0.25-6.45,4.11-4.32,7.52c10.4,16.68,8.28,37.92,15.4,55.91
	c3.79,9.59,8.78,18.65,12.53,28.26c3.88,9.93,6.88,20.19,9.42,30.53c5.04,20.55,8.29,41.48,13.18,62.06
	c5.08,21.35,13.1,41.61,20.87,62.08c4.61,12.16,9.23,24.33,13.84,36.49c4.5,11.87,10.53,24.17,9.11,37.17
	c-0.51,4.69,4.74,5.91,7.84,3.72c0.28,0.08,0.58,0.15,0.89,0.19c46.29,5.65,92.96,3.44,139.38,0.82
	c46.74-2.64,93.47-4.35,140.27-5.27c26.05-0.51,52.1-0.94,78.15-1.4c1.85-0.03,3.16-0.88,3.95-2.08c0.29,1.09,0.99,2.1,2.23,2.84
	c14.59,8.75,31.43,2.65,46.92,0.32c9.76-1.46,19.68-1.97,29.54-1.65c7.4,0.24,17.08,3.09,24.07-0.27
	C855.01,1152.33,857.29,1145.85,855.93,1139.78z"/>
<g id="sGujEG.tif">
	<g>
		<path d="M853.49,722.55c0.72,2.18-1.46,2.82-2.15,4.22c-1.72,3.49-2.92,7.23-4.4,10.84c-1.02,2.49-1.74,5.25-3.31,7.35
			c-3.42,4.6-3.69,10.07-4.98,15.26c-0.75,3.05-0.76,6.38-1.99,9.19c-4.77,10.95-5.85,22.6-7.09,34.24
			c-0.34,3.13-0.83,6.25-1.09,9.39c-0.18,2.18,0.29,3.7,3.22,3.42c3.59-0.34,7.23-1.02,10.8,1.02c1.05,0.6,3.16-0.9,4.82-1.1
			c2.16-0.26,4.36-0.25,6.54-0.24c2.91,0.01,4.34,1.39,4.53,4.47c0.19,3.05-1.51,4.95-3.85,5.39c-7.38,1.38-14.52,4.68-22.37,2.83
			c-2.34-0.55-6.24,2.57-5.98,5.02c0.66,6.33-0.58,12.93,2.93,18.92c1.58,2.7,2.1,6,3.35,8.92c1.89,4.42,4.42,4.83,7.66,1.5
			c3.72-3.81,7.98-6.64,13.21-8.24c3.01-0.92,5.56-3.24,8.51-4.48c1.67-0.7,3.72-0.49,5.59-0.7c-0.32,2.47,1.96,4.3,0.68,7.42
			c-2.1,5.09-6.29,7.86-10.4,9.6c-4.67,1.98-7.72,5.97-12.29,7.77c-1.11,0.44-2,1.48-3.11,1.81c-2.78,0.83-2.63,2.35-1.49,4.46
			c1.85,3.44,3.43,7.02,5.38,10.4c1.41,2.44,3.23,4.65,4.86,6.97c2.2-2.21,4.4-4.42,6.58-6.65c0.13-0.14,0-0.5,0.09-0.72
			c0.45-1.08,0.7-2.82,1.46-3.1c4.52-1.65,5.47-7.33,10.1-8.69c2.07-0.61,4.75-1.75,6.01,0.52c0.94,1.68,1.13,4.61,0.27,6.29
			c-1.85,3.63-4.4,6.95-6.99,10.13c-2.9,3.57-6.25,6.78-9.19,10.32c-0.5,0.6-0.33,2.72,0.23,3.09c7.39,4.88,12.28,13.06,21.17,15.98
			c1.6,0.53,3.78,1.22,4.41,2.47c3.37,6.67,10.66,6.39,16.1,9.13c3.88,1.95,8.89,2.34,13.36,2.21c3.37-0.1,6.31-0.6,8.65,2.31
			c6.04-0.16,11.08,4.7,17.38,3.42c0.81-0.16,1.81,0.67,2.74,1c5.44,1.96,10.83,4.13,16.37,5.73c2.08,0.6,4.1,1.53,6.9,0.84
			c2.39-0.59,5.98,3.54,8.32,2.92c2.82-0.75,6.3-2.27,7.96-0.67c2.56,2.46,3.83,2.05,6.12,0.25c0.96-0.76,2.62-0.93,3.94-0.88
			c4.08,0.15,8.31-0.06,12.18,0.97c6.23,1.67,12.65-1.48,18.81,1.38c1.85,0.86,4.43,0.39,6.65,0.2c8.2-0.72,16.34,0.23,24.51,0.51
			c9.32,0.32,18.7,0.29,27.98-0.51c7.85-0.67,15.55-2.84,23.37-3.97c5.46-0.79,11.03-0.84,16.53-1.41c2.51-0.26,5.18-1.81,7.42-1.27
			c2.75,0.66,4.76,0.7,6.77-1.25c0.25-0.25,0.87-0.3,1.26-0.2c1.87,0.44,3.9,1.73,5.54,1.33c7.92-1.92,15.74-4.25,23.57-6.51
			c2.67-0.77,5.99-1.07,7.73-2.84c2.53-2.59,4.7-0.77,7.04-1.05c4.04-0.48,7.92-2.19,11.91-3.21c5.94-1.51,11.92-2.88,17.89-4.29
			c0.67-0.16,1.44-0.08,2.04-0.37c6.38-3.1,12.76-6.23,19.08-9.45c0.76-0.39,1.82-1.53,1.68-2.04c-0.21-0.78-1.27-1.74-2.09-1.87
			c-4.11-0.63-6.11-3.82-8.55-6.54c-1.09-1.21-2.31-2.32-3.57-3.36c-0.76-0.63-2.05-0.82-2.49-1.57
			c-4.24-7.11-12.82-10.36-16.12-18.32c-0.76-1.84-1.35-3.69-3.57-5.03c-2.56-1.54-1.85-4.76,1.02-5.7c2.6-0.85,5.5-2.28,7.84,1.13
			c1.19,1.74,3.59,2.67,4.71,4.43c4.34,6.85,11.2,10.77,17.33,15.56c1.48,1.16,2.82,2.52,4.07,3.92c3.16,3.54,9.44,7.83,15.85,10.65
			c0.33,0.28,0.65,0.56,0.98,0.84c-0.38-0.23-0.76-0.47-1.13-0.7c0.16-0.45,0.23-0.96,0.51-1.32c1.36-1.77,3.97,1.06,5.35-1.57
			c1.01-1.92,2.64-3.55,4.12-5.2c1.44-1.59,2.81-3.44,4.61-4.47c4.33-2.47,7.34-5.68,8.42-10.69c0.25-1.15,1.5-2.26,2.55-3.01
			c1.04-0.73,2.42-0.98,3.65-1.45c-1.02-0.98-1.88-2.34-3.1-2.87c-2.13-0.94-4.97-0.77-6.67-2.12c-7.52-5.98-17.02-8.24-24.85-13.58
			c-0.94-0.64-2.23-0.78-3.37-1.13c-5.85-1.77-11.72-3.5-17.56-5.3c-1.17-0.36-2.75-0.67-3.3-1.54c-1.25-1.97-2.97-4.43-2.65-6.39
			c0.38-2.25,2.85-4.04,5.82-3.34c6.35,1.49,12.77,2.76,19.02,4.63c6.68,2,13.19,4.58,19.77,6.91c0.91,0.32,2.07,0.4,2.68,1.02
			c6.41,6.45,15.36,8.45,22.82,13.04c0.72,0.44,2.49,0.2,3.09-0.4c1.37-1.37,3.08-3.06,3.3-4.8c0.57-4.53,2.51-8.4,5.07-11.89
			c2.83-3.85,1.68-8.2,2.31-12.31c0.11-0.69-0.73-1.98-1.43-2.28c-3.31-1.41-6.69-2.7-10.12-3.78c-1.51-0.48-3.4,0.04-4.8-0.59
			c-9.26-4.15-19.29-5.58-28.97-8.2c-4.14-1.12-8.7-1.44-13.24-1.45c-3.2,0-7.14,0.38-10.2-2.66c-1.07-1.06-2.91-1.41-2.39-3.29
			c0.41-1.48,1.25-3.01,2.32-4.11c3.32-3.41,8.17-0.42,11.86-2.6c4.61,3.81,10.14,0.43,15.4,1.95c5.65,1.64,11.26,4.14,17.21,4.73
			c4.23,0.42,8,2.44,12.5,2.37c3.07-0.04,6.44,2.43,9.78,3.5c1.64,0.53,3.31,0.95,4.97,1.42c0.6-2.34,1.68-4.69,1.66-7.02
			c-0.03-2.88-0.65-5.88-1.64-8.6c-0.75-2.07-0.53-3.58,0.15-5.59c1.11-3.25,0.02-9.03-1.67-12.74c-0.2-0.43-0.68-1.02-0.54-1.29
			c2.64-5.22-2.3-9.44-2.01-13.88c0.35-5.36-3.43-9.48-2.77-14.65c0.17-1.34-0.2-3.32-1.1-4.13c-4.81-4.32-5.53-10.55-8.04-15.95
			c-2.02-4.35-4.41-8.43-8.49-11.54c-4.16-3.16-7.43-7.46-11.46-10.82c-3.72-3.11-7.4-6.15-10.09-10.24
			c-0.4-0.61-0.92-1.29-1.55-1.57c-4.07-1.8-7.24-4.14-9.83-8.18c-1.93-3.01-6.45-4.38-9.85-6.41c-0.84-0.5-2.62-0.76-2.62-1.13
			c0.02-6.45-8.55-6.1-9.32-11.95c-0.3-2.29-2.24-1.91-3.94-1.38c-0.92,0.29-1.89,0.5-2.85,0.6c-6.34,0.67-8.07-0.8-9.67-6.99
			c-2.9-11.2-3.5-22.66-4.68-34.08c-0.31-2.95-0.83-6.63-2.29-9c-1.8-2.9,0.5-6.14-2.3-8.99c-1.62-1.65,0.05-6.1-0.94-8.87
			c-2.7-7.6,0.54-16.09-3.8-23.35c2.07-5.78-3.42-11.11-0.77-17.24c0.94-2.19-1.03-5.63-1.67-8.5c-0.27-1.19-0.96-2.45-0.77-3.56
			c0.97-5.66-0.81-10.76-2.7-15.93c-0.72-1.98,1.65-5.4-1.53-5.95c-1.37-0.23-3.16,3.18-5.06,4.52c-2.88,2.03-4.32,4.92-4.54,8.1
			c-0.25,3.76-2.74,6.12-5.2,7.57c-2.69,1.58-3.07,3.46-4.2,5.95c-3.84,8.43-5.43,17.89-11.37,25.36c-0.77,0.96-1.87,2-1.98,3.09
			c-0.55,5.43-5.15,8.4-7.44,12.74c-0.68,1.29-2.54,2.69-2.28,3.6c1.52,5.48-3.53,7.73-5.23,11.56c-1.92,4.33-4.94,7.8-8.14,11.17
			c-1.14,1.2-6.51,2.04-7.54,1.11c-2.2-1.99-2-4.46-0.76-6.76c1.51-2.78,2.98-5.74,5.14-7.98c3.08-3.2,2.18-7.91,4.88-11.28
			c0.5-0.62,0.55-2.85,1.48-4.34c7.46-12.02,16.2-23.39,19.58-37.53c4.61-5.1,4.98-12.46,10.6-17.47
			c4.47-3.99,6.52-10.69,9.67-16.16c3.84-6.67,10.22-8.89,17.34-9.55c1.04-0.1,2.5,0.62,3.24,1.43c3.08,3.38,5.75,6.8,5.55,12
			c-0.17,4.24,1.03,8.53,1.6,12.79c1.15,8.6,3.17,17.04,4.3,25.68c0.71,5.41,0.5,10.82,1.34,16.15c0.26,1.66,0.97,3.25,1.38,4.9
			c0.54,2.15,1.7,4.46,1.32,6.47c-0.71,3.77,0.29,7.05,1.07,10.61c1.54,7.05,2.31,14.26,3.51,21.38c0.24,1.43,0.82,2.87,1.56,4.13
			c1.59,2.71,1.89,5.4,1.31,8.53c-0.46,2.47-1.15,5.24,1.28,7.61c0.81,0.79,0.65,2.87,0.48,4.31c-0.83,7.39,3.82,10.59,9.47,13.71
			c3.99,2.2,8.94,3.79,10.4,9.16c0.21,0.78,1.36,1.35,2.15,1.92c4.11,3.03,8.24,6.04,12.38,9.04c4.22,3.06,8.64,5.87,12.62,9.21
			c3.52,2.96,6.72,6.35,9.77,9.8c4.5,5.1,9.02,10.24,14.76,13.89c4.5,2.86,4.76,7.92,7.06,11.83c4.53,7.72,7.5,16.35,12.03,24.07
			c2.66,4.54,2.95,9.33,3.08,13.93c0.1,3.55,0.3,6.79,2.24,9.57c2.32,3.33-1.38,7.36,1.64,10.4c-0.67,5.94,1.72,11.91-0.21,17.89
			c-0.41,1.26,0.06,2.91,0.42,4.3c0.65,2.47,1.46,10.95,0.57,13.03c-1.28,2.99,0.32,4.68,2.62,4.88
			c10.34,0.91,18.61,6.91,27.7,10.85c1.97,0.85,3.97,1.83,5.66,3.58c1.79,1.86,4.55,2.79,6.86,4.17c0.72,0.43,1.37,0.97,2.05,1.46
			c-0.77,0.88-1.4,2.18-2.37,2.54c-1.03,0.38-2.44,0.03-3.61-0.27c-4.9-1.26-9.8-2.55-14.66-3.96c-4.62-1.35-9.19-2.87-13.78-4.32
			l0.12,0.14c-0.57-1.2-1.14-1.59-1.7,0.01l0.11-0.15c-1.35-0.6-2.66-1.51-4.07-1.72c-2.79-0.41-6.22-1.46-8.27-0.29
			c-1.67,0.95-1.65,4.77-2.5,7.28c-1.02,3.03-2.02,6.09-3.29,9.02c-2.14,4.94-4.54,9.77-6.68,14.71c-0.22,0.5,0.49,1.71,1.08,2.17
			c0.95,0.74,2.15,1.51,3.29,1.59c6.02,0.4,8.54,6.09,13.17,8.58c0.42,0.23,0.61,1.77,0.28,2.34c-1.96,3.4-7.03,5.24-10.01,3.08
			c-3.86-2.79-8.49-3.02-12.61-4.81c-0.71-0.31-1.99-0.21-2.57,0.25c-1.54,1.22-3.48,2.5-4.11,4.19
			c-2.45,6.53-8.12,8.47-13.74,11.05c-4.9,2.25-11.03,3.28-12.84,9.91c-0.5,1.84-0.61,2.69,0.76,4.38c3.19,3.94,7.55,6.1,11.64,8.56
			c1.57,0.94,2.77,1.27,3.22,3.31c0.15,0.69,3.4,0.65,3.6,1.38c0.53,1.98,1.35,3.11,3.36,3.24c2.81,0.18,4.5,1.82,5.68,4.19
			c0.11,0.22,0.14,0.58,0.32,0.66c6.63,3.22,7.39,10.4,10.68,15.86c0.59,0.98,1.05,2.21,1.08,3.33c0.05,2.14-1.81,3.44-3.46,2.3
			c-4.04-2.8-8.99-4.02-11.57-9.33c-1.46-2.99-6.2-4.3-9.33-6.57c-3.31-2.4-6.43-5.04-9.67-7.54c-1.16-0.9-2.34-1.83-3.65-2.48
			c-4.79-2.39-9.53-4.69-13.58-8.42c-3.95-3.64-8.45-3.29-13.58-0.05c-9.88,6.23-20.57,10.7-31.58,14.48
			c-1.16,0.4-2.44,1.11-3.53,0.91c-6.24-1.12-11.52,1.64-16.94,3.88c-0.46,0.19-0.89,0.48-1.36,0.59
			c-4.35,0.96-8.67,2.38-13.07,2.69c-4.09,0.29-7.57,1.39-11.19,3.25c-3.16,1.63-6.94,2.32-10.53,2.77
			c-4.01,0.5-8.11,0.17-12.17,0.36c-1.19,0.05-2.48,0.39-3.51,0.99c-4.49,2.61-9.15,2.09-13.97,1.27c-4.59-0.78-9.15-1.01-13.4,1.91
			c-1.68,1.16-4.25,2.12-6.08,1.72c-3.19-0.71-6.11-2.36-8.68,1.06c-0.13,0.17-0.43,0.3-0.64,0.3c-1.54-0.01-4.31-0.4-4.41-0.03
			c-0.52,1.83-0.44,3.86-0.37,5.82c0.17,4.85,1.09,9.77,0.47,14.5c-0.41,3.1-2.03,6.36-3.09,9.42
			c-3.31,9.56-10.81,16.18-15.67,24.57c-0.91,1.57-3.73,2.09-5.72,2.97c-2.36,1.04-3.64,2.04-1.94,4.96
			c2.67,4.59,4.83,9.48,7.19,14.25c0.22,0.44,0.58,0.95,0.52,1.37c-1.15,7.5,5.03,12.66,6.17,19.42l-0.14-0.13
			c0.15,0.46,0.18,1.02,0.46,1.38c1.91,2.5,0.89,7.56,5.83,7.34c3-0.13,5.49,1.76,9.03,0.43c4.71-1.77,9.95-2.17,14.27-5.21
			c0.4-0.28,0.9-0.85,1.23-0.77c9.01,2.18,16.4-3.55,24.55-5.36c5.15-1.15,10.84-3.22,14.88-7.54c0.67-0.72,1.4-1.69,2.25-1.88
			c9.14-2.01,15.77-7.55,21.99-14.23c2.5-2.69,6.75-3.75,10.2-5.55c0.03,0.21,0.01,0.45,0.11,0.63c0.06,0.11,0.29,0.12,0.45,0.18
			c-0.23-0.23-0.46-0.45-0.69-0.68c1.71-1.35,3.22-3.36,5.16-3.94c7.19-2.16,10.87-7.92,14.68-13.52c1.93-2.83,4.98-2.95,7.59-4.24
			c2.92-1.44,2.83,1.95,4.74,2.25c3.15,0.49,1.98,2.46,0.9,4.38c-4.63,8.27-10.9,14.83-19.1,19.68c-2.45,1.45-4.33,3.85-6.47,5.82
			l0.02-0.02c-8.64,6.31-18.88,10.32-26.4,18.27c-0.64,0.68-1.65,1.15-2.57,1.39c-7.41,1.86-13.32,6.69-19.99,10
			c-2.37,1.17-4.84,2.49-7.4,2.85c-9.34,1.3-18.29,4.26-27.31,6.68c-7.66,2.05-15.16,2.97-22.96,2.89
			c-1.69-0.02-3.38,0.57-5.08,0.78c-1.22,0.14-3.18,0.61-3.57,0.06c-2.26-3.22-5.14-1.23-7.8-1.57c-3.64-0.48-7.49,0.53-11.09-1.91
			c-1.63-1.11-4.83-0.27-7.22,0.2c-3.43,0.67-6.67,0.29-10.12,0.05c-9.03-0.64-17.96-4.56-27.22-1.38
			c-1.29,0.44-3.53,0.57-4.26-0.19c-2.93-3.02-7.78,0.39-10.27-3.38c-5.89-0.26-11.66-1.57-17.69,0.3
			c-3.39,1.05-7.14,3.17-11.16,1.11c-0.89-0.46-2.41,0.16-3.6,0.46c-5.67,1.44-10.87,4.6-17.1,4.2c-1.66-0.11-3.34,1.99-5.17,2.53
			c-3.26,0.95-6.74,1.2-9.96,2.24c-11.42,3.68-22.93,7.15-34.07,11.56c-5.29,2.09-10.14,5.36-15.83,6.61
			c-0.23,0.05-0.5,0.17-0.66,0.34c-6.58,7.36-15.92,12.28-19.29,22.49c-0.96,2.9,1.1,4.61,1.54,6.92c0.62,3.3,3.15,1.76,5.17,2.08
			c6.66,1.02,12.13-2.63,18.12-4.15c5.93-1.5,11.89-2.94,17.13-6.51c3.74-2.55,8.18-3.22,12.74-3.1c2.39,0.07,4.1,0.9,5.81,2.63
			c1.8,1.81,2.05,3.3,0.39,5.05c-2.7,2.83-5.47,5.47-9.58,6.39c-1.38,0.31-2.88,1.8-3.57,3.13c-1.36,2.63-0.13,3.96,3.01,3.85
			c5.66-0.2,10.07-3.63,14.94-5.82c2.88-1.3,5.38-2.97,8.8-3.44c3.2-0.44,6.72-2.29,9.02-4.6c4.47-4.48,10.87-4.35,15.73-7.64
			c1.42-0.96,3.16-0.9,3.28,1.2c0.15,2.75,5.6,1.87,3.69,5.35c-1.1,2-3.16,3.57-5.03,5.02c-3.26,2.53-6.06,5.39-8.25,8.91
			c-1.03,1.65-0.79,2.71,0.68,3.7c2.13,1.43,4.27,2.24,6.95,1.15c3.32-1.35,6.84-2.2,10.16-3.55c3.17-1.28,6.27-2.79,9.29-4.42
			c6.22-3.34,12.35-6.85,18.55-10.22c0.56-0.3,1.66-0.44,2.02-0.12c3.92,3.54,8.6,1.88,12.99,2c6.25,0.17,11.99,2.38,17.49,4.82
			c8.68,3.86,17.76,6.57,26.52,10.13c6.11-1.45,10.89,4.98,17.41,2.76c2-0.68,4.48,3.06,7.51,1.68c5.11,3.55,10.97,2.88,16.71,3.05
			c1.96,0.06,3.94,0.29,5.86,0.69c9.21,1.94,18.26,0.58,27.36-0.87c4.27-0.68,8.67-0.56,13.01-0.82c5.26-0.32,10.37-0.02,15.66,0.94
			c4.89,0.89,10.62,0.29,15.28-1.48c5.55-2.11,11.34-0.69,16.96-3.18c5.16-2.29,11.68-1.3,17.46-2.48c2.98-0.61,5.64-2.78,8.44-4.25
			c0.11,0.16,0.22,0.31,0.32,0.47c-0.15-0.11-0.31-0.23-0.46-0.34c0.75-0.47,1.47-1.26,2.25-1.34c3.13-0.31,6.41,0.1,9.38-0.69
			c3.18-0.85,6.63-1.85,8.6-5.04c3.17,1.27,6.16,1.05,9.05-0.87c0.79-0.53,1.9-1.25,2.65-1.06c5.2,1.32,8.86-1.3,12.41-4.45
			c0.71-0.63,1.64-1.39,2.49-1.42c6.41-0.19,10.62-4.4,15.14-8.06c2.28-1.85,4.26-3.86,7.69-3.87c2.04-0.01,4.34-1.22,6.07-2.51
			c4.91-3.65,9.52-7.7,14.39-11.41c1.49-1.14,3.38-2.23,5.18-2.39c2.94-0.26,4.6-1.54,6.67-3.67c4.49-4.65,9.73-8.6,14.85-12.6
			c1.47-1.15,3.51-1.92,5.36-2.11c2.49-0.25,6.22-1.84,7.26,0.86c1.01,2.61-0.09,6.14-0.6,9.22c-0.56,3.36-2.33-1.56-3.75,0.46
			c-1.35,1.92-3.65,3.18-5.54,4.73c-0.19-0.1-0.37-0.2-0.56-0.3c0.23,0.05,0.47,0.1,0.7,0.15c-5.71,6.67-14.18,9.55-20.72,15.1
			c-4.68,3.97-9.92,6.96-15.52,9.65c-5.12,2.46-9.22,6.97-15.21,8.06c-0.86,0.16-1.5,1.54-2.24,2.35c0.77,0.6,1.45,1.45,2.32,1.75
			c4.96,1.69,9.95,2.6,15.26,1.39c2.45-0.56,5.11-0.34,7.67-0.28c8.21,0.19,16.46,0.06,24.62,0.86c4.93,0.49,9.93-1.04,14.91,1.32
			c2.83,1.34,6.23-1.63,9.91-0.4c2.49,0.83,5.74-0.36,8.6-0.91c2.91-0.56,5.56,0.64,8.28,0.82c5.2,0.36,10.47-0.45,15.72-0.64
			c4.52-0.17,9.09-1.12,13.56,0.45c4-3.11,8.35-0.76,12.55-0.86c1.94-0.04,3.87-0.56,5.81-0.83c1.46-0.2,3.52-1.04,4.28-0.39
			c4.01,3.44,8.17,0.99,12.25,0.79c0.91-0.04,1.98-0.55,2.68-0.22c3.33,1.57,1.97-1.37,1.65-1.96c-2.71-4.91-5.58-9.73-8.49-14.52
			c-0.34-0.57-1.76-1.04-1.7-1.21c2.3-6.42-4.64-10.49-4.16-16.56c0.18-2.26-1.08-4.81-2.19-6.96c-1.54-2.96-5.12-5.73-5.01-8.48
			c0.16-4.29-4.12-5.21-4.57-8.93c-0.38-3.21-2.44-6.61-4.68-9.09c-2.16-2.38-2.66-5.02-3.7-7.73c-1.12-2.95-3.19-5.54-4.89-8.26
			c-0.72-1.16-1.63-2.2-2.3-3.38c-1.59-2.78-4.05-5.49-4.41-8.44c-0.75-6.01-3.95-10.5-7.27-15.07c-4.67-6.43-7.5-13.85-11.38-20.7
			c-1.6-2.84-3.5-5.61-4.49-8.67c-1.02-3.13-2.91-5.4-4.73-7.99c-4.15-5.91-7.47-12.41-11.08-18.69c-0.61-1.06-0.82-2.4-1.56-3.33
			c-5.21-6.51-10.73-12.78-15.73-19.45c-5.8-7.75-12.53-14.86-16.7-23.77c-0.5-1.07-1.48-2.48-2.45-2.68
			c-5.77-1.19-4.57-5.69-4.53-9.41c0.04-3.76,2.1-4.93,5.61-3.01c5.92,3.25,12.42,6.15,14.3,13.61c1.3,5.17,6.63,6.77,9.13,10.95
			c6.61,11.08,16.1,20.05,23.06,30.92c4.46,6.98,9.58,13.52,14.14,20.44c1.46,2.21,2.44,2.94,5.47,3.21
			c3.15,0.28,6.49,0.65,9.74,0.88c5.37,0.37,10.71,2.06,16.18,0.05c1.31-0.48,3.24,0.58,4.84,1.09c3.79,1.19,7.54,1.27,11.33-0.01
			c4.26-1.45,11.67-1.47,17.17-0.24c1.2,0.27,2.5,0.48,3.7,0.31c7.23-1.04,14.02,0.16,20.67,3.14c1.82,0.82,4.42,1.12,6.23,0.47
			c2.77-1,3.79,1.49,5.75,1.89c6,1.23,11.99,2.49,17.99,3.73l-0.11-0.11c4.96,1.95,9.83,4.18,14.9,5.77
			c8.73,2.73,16.15,7.03,22.26,14.12c3.9,4.53,8.65,8.55,14.14,11.4c0.99,0.51,2.44,1.52,2.45,2.32c0.08,4.43,2.98,7.58,4.55,11.32
			c1.8,4.28,2,9.24,5.76,12.69c0.47,0.43,0.09,1.87-0.05,2.83c-0.14,0.97-0.91,2.58-0.64,2.76c4.54,3.01,1.03,9.23,5.23,12.64
			c1.24,1.01,0.35,4.58,0.53,6.96c0.36,4.77,0.67,9.54,1.23,14.29c0.22,1.88,1.04,3.68,1.61,5.51c0.21,0.67,0.92,1.7,0.72,1.89
			c-5.21,5.13,0.27,10.26,0.04,15.38c-0.26,5.75,0.75,11.58,0.35,17.31c-0.19,2.62-2.15,5.32-3.88,7.55
			c-1.12,1.45-0.53,1.34,0.53,1.44c7.14,0.66,14.45-1.13,21.48,1.4c0.66,0.24,1.71,0.35,2.19-0.01c4.81-3.59,10.38-0.81,15.54-1.93
			c6.25-1.36,9.37,3.06,6.79,8.91c-0.42,0.96-1.52,1.84-2.52,2.3c-6.82,3.13-14.11,3.27-21.45,3.21c-6.48-0.05-12.97-2.05-19.45,0
			c-3.43-2.43-7.01,0.67-10.47-0.29c-3.17-0.88-7.07,0.45-9.41-0.56c-4.57-1.99-8.89,0.54-12.87-0.69
			c-8.92-2.75-17.93,1.62-26.77-1.07c-7-2.13-14.53-0.81-21.51-2.84c-3.67-1.07-7.02-3.07-10.77-0.36c-0.4,0.29-1.65,0.08-2.02-0.34
			c-2.43-2.72-5.53-1.02-8.29-1.43c-2.68-0.4-5.08,0.05-7.75,0.64c-3.48,0.77-7.67,0.58-10.97-0.7c-3.93-1.52-7.88-1.93-11.61-1.29
			c-7.22,1.25-14.3,0.45-21.37-0.35c-4.14-0.47-8.36-0.27-12.17,0.48c-5.09,1-10.45-0.82-15.3,1.77c-0.46,0.25-1.27-0.27-1.93-0.28
			c-5.25-0.08-10.54-1.95-15.75,0.28c-0.41,0.18-1,0.52-1.27,0.37c-8.89-4.89-18.35,1.28-27.34-1.43
			c-4.39,2.03-8.43-0.71-12.65-0.89c-4.54-0.19-9.24-0.5-13.62,0.44c-5.81,1.25-11.15-1.15-16.77-0.93
			c-5.52,0.21-10.97-0.26-16.5-1.21c-4.22-0.73-8.78-0.7-13.33-0.26c-7.03,0.67-14.24-0.4-21.37-0.75
			c-0.73-0.04-1.88-0.52-2.13-0.21c-3.88,4.67-10.6,1.08-14.78,5.21c-1.25,1.24-3.64,1.7-5.56,1.83c-3.29,0.22-6.01,1.43-8.96,2.79
			c-3.03,1.39-6.09,2.89-10.03,2.85c-4.86-0.05-9.7,2.46-14.62,3.51c-8.67,1.86-17.83,1.13-26.16,4.93
			c-0.69,0.32-1.85-0.39-2.78-0.62l0.12,0.11c-1.88-2.13-3.88-1.75-5.87-0.21c-1.71,1.32-3.32,1.05-5.43,0.72
			c-4.6-0.72-9.34-0.72-14.02-0.7c-4.98,0.02-9.87,0.08-14.87,1.58c-4.82,1.45-10.21,1.31-15.35,1.35
			c-3.63,0.03-7.38-0.43-10.87-1.39c-2.75-0.76-5.12-1.24-7.67,0.33c-0.66,0.41-2,0.66-2.48,0.28c-4.95-3.84-11.26-2.6-16.78-4.58
			c-7.61-2.73-16.26-2.11-23.42-6.71c-7.37,0.26-13.88-5.58-21.63-3.02c-0.91,0.3-2.25-0.41-3.29-0.88
			c-0.82-0.37-1.73-1.74-2.18-1.56c-7.86,3.02-15.65-0.2-23.46-0.12l-0.28-0.25l-0.33-0.43l-0.43,0.18
			c-0.31,0.28-0.62,0.56-0.93,0.84c-3.85-0.79-7.68-1.68-11.56-2.29c-0.94-0.15-2.14,0.45-3.03,1.01
			c-8.43,5.35-17.94,7.87-27.42,10.46c-1.65,0.45-3.39,0.52-5.04,0.98c-1.81,0.5-2.98,0.29-4.36-1.34
			c-3.05-3.62-7.72-5.94-8.1-11.57c-0.2-2.9-2.98-2.57-4.66-2.03c-2.72,0.87-5.66,2-7.69,3.89c-2.88,2.68-6.25,3.6-9.77,4.41
			c-3.79,0.86-7.61,1.78-11.47,2.08c-2.02,0.16-4.33-0.6-6.17-1.58c-3.61-1.91-7.2-2.33-11.09-1.34c-2.42,0.61-4.89,1.01-7.33,1.51
			l0.13-0.14c-8.07,1.52-15.98,3.37-24.44,2.27c-4.31-0.56-8.96,1.47-13.46,2.37c-0.89,0.18-1.97,0.99-2.57,0.7
			c-3.12-1.5-6.03-2.73-9.79-1.9c-2.95,0.65-6.23-0.4-9.31-0.11c-9.6,0.88-19.31-1.06-28.84,1.2c-8.84-3.03-17.15,2.47-25.89,1.64
			c-1.3-0.12-2.69,1.35-4.07,1.44c-4.32,0.26-8.67,3.85-13.07-0.45c-1.13-1.1-3.87-1.21-5.69-0.85c-10.09,2.04-20-0.59-30-0.81
			c-0.71-0.02-1.65-0.61-2.08-0.33c-5.12,3.42-10.54,1-15.85,1.12c-6.3,0.14-12.59,1.07-18.88,1.65c-1.16,0.11-2.81,0.71-3.39,0.18
			c-3.1-2.87-6.66,0.01-9.64-1.02c-3.57-1.22-6.27-0.01-9.13,1.56c-0.4,0.22-1.03,0.4-1.41,0.24c-7.7-3.09-15.71,0.48-23.53-1.09
			c-2.51-0.5-5.31,0.57-7.99,0.82c-1.17,0.11-2.45,0.21-3.53-0.15c-4.68-1.53-9.23-0.78-13.79,0.48l0.08,0.09
			c-3.08-2.21-6.29-0.41-9,0.42c-7.31,2.23-14.84,2.31-21.86,0.8c-5.25-1.13-9.73,0.01-14.44,0.81c-2.2,0.37-3.98,0.65-6.32,0.16
			c-3.88-0.82-8.07-0.8-12.04-0.37c-4.76,0.52-9.29-0.37-13.94-0.75c-4.87-0.4-9.84,0.26-14.75,0.67
			c-4.73,0.39-9.43,1.07-14.15,1.55c-1.33,0.14-2.7,0.12-4.03-0.01c-7.22-0.71-14.37-0.8-21.53,0.82c-3.39,0.77-6.95-0.2-10.48-0.09
			c-8.39,0.27-16.83-1.51-25.27-1.67c-2.81-0.05-5.66,2.32-8.49,3.59c-1.49,0-2.99,0-4.48,0c0.2-0.7,0.41-1.4,0.61-2.09
			c-5.81-0.33-11.82-2.33-17.04,2.09c-0.5,0-1,0-1.49,0c-1.86-0.93-3.71-2.61-5.58-2.63c-4.99-0.04-9.98,0.8-14.98,0.97
			c-4.76,0.16-9.3,0.61-14.03-2.22c-4.58-2.74-6.59-6.33-7.62-10.89c-0.85-3.75-0.39-7.9-1.76-11.39
			c-2.39-6.11-3.44-12.78-7.89-18.15c-1.28-1.54-1.84-1.85-3.7-1.9c-7.04-0.18-13.68,0.98-20.37,3.35c-3.31,1.18-7.46,0-11.23-0.15
			c-1.42-0.06-3.32-0.88-4.18-0.24c-4.32,3.21-9.09,0.33-13.63,1.37c-5.38,1.23-11.08,1.1-16.65,1.46c-0.94,0.06-1.9-0.5-2.87-0.59
			c-6.24-0.57-12.44-0.86-18.33,2.08c-1,0.5-2.6,0.56-3.64,0.12c-7.01-2.95-14.16-0.85-21.26-0.95c-4.37-0.06-8.61-0.31-12.52,2.2
			c-0.63,0.41-2.44,0.21-2.75-0.29c-1.79-2.92-4.44-1.14-6.54-1.2c-5.21-0.14-10.46-0.47-15.66,0.5c-1.83,0.34-3.78,0.58-5.59,0.29
			c-4.28-0.67-8.3-0.22-12.29,1.44c-2.77,1.15-13.75,1.46-17.09,1.43c-4.04-0.04-8.11,0.49-12.11,1.09
			c-4.03,0.61-7.96,0.88-12.06,0.23c-7.38-1.18-14.88-1.69-22.25-2.94c-1.74-0.3-3.9-2.14-4.55-3.79c-0.66-1.66-0.89-3.89,1.53-5.79
			c4.65-3.65,9.92-3.64,14.63-2.2c7.27,2.23,14.39,1.03,21.58,1.06c3.97,0.02,8.05-0.73,11.89-0.05c3.76,0.67,6.94-2.95,10.84-0.66
			c0.99,0.59,3.17-1.03,4.86-1.39c3.62-0.78,7.02-3.51,11.07-1.02c0.82,0.51,2.41-0.04,3.59-0.31c3.26-0.77,6.48-2.27,9.73-2.31
			c3.26-0.04,6.26,1.38,9.91,0.05c2.63-0.96,6.17,0.75,9.32,0.99c2.68,0.2,5.89-0.92,7.97,0.2c3.48,1.88,4.87-1.35,7.29-1.81
			c2.39-0.46,4.38-1.13,7.09-0.28c3.49,1.1,7.59,2.69,11.12-0.53c6.26,2.81,12.74-0.46,19.13,0.64c3.02,0.52,6.28-0.52,9.44-0.62
			c4.56-0.14,9.13-0.01,13.69-0.09c7.16-0.13,14.32-0.3,21.48-0.55c1.44-0.05,2.84-0.66,4.29-0.87c5.13-0.74,9.9-4.04,15.42-2.11
			c0.65,0.23,1.49,0.03,2.22-0.08c7.22-1.08,7.61-1.6,5.42-8.54c-1.68-5.31-2.51-10.76-5.98-15.67c-2-2.84-1.06-7.77-1.4-11.76
			c-0.04-0.46,0.42-1.19,0.23-1.37c-4.9-4.69-3.53-11.55-5.86-17.18c-2.11-5.09-2.7-10.87-3.44-16.42
			c-0.19-1.46-0.65-2.31-1.16-3.52c-1.65-3.91-4.62-7.23-4.36-12.15c0.25-4.76-4.25-8.42-4.56-13.5c-0.26-4.37-1.64-8.67-2.53-13
			c0.1-0.17,0.19-0.34,0.29-0.52c-0.04,0.22-0.09,0.43-0.13,0.65c-1-1.02-3.02-2.26-2.85-3.02c1.8-8.38-2.17-15.36-5.1-22.59
			c-0.37-0.92-1.27-1.93-1.1-2.71c2.16-9.49-4.54-17.28-4.97-26.32c-0.2-4.33-2.1-8.53-1.37-13.06c0.17-1.07-0.39-2.43-1-3.44
			c-3.86-6.39-6.53-13.18-7.72-20.58c-0.27-1.64-1.08-3.28-1.98-4.72c-1.06-1.69-2.37-3.1-1.36-5.37c0.34-0.77,0.23-2.46-0.26-2.75
			c-4.2-2.46-0.8-7.95-4.35-10.56c-0.86-9.48-5.46-17.82-8.21-26.72c-2.6-8.4-5.06-16.84-7.35-25.33c-0.89-3.32,1.67-6.65,5.3-6.3
			c6.12,0.59,12.25-0.84,18.45,1.06c3.19,0.97,7.15-0.61,10.77-1.05c0.9-0.11,1.89-0.57,2.69-0.35c9.23,2.51,18.42,2.33,27.84,0.77
			c3.63-0.6,7.64,1.15,11.49,1.79c1.69,0.28,3.4,0.6,5.1,0.69c3.83,0.22,7.66,0.35,11.5,0.43c3.91,0.08,8.65-1.31,11.52,0.43
			c3.97,2.4,7.81,2.07,11.76,2.51c5.01,0.56,10.06,1.16,15.09,1.09c8.82-0.12,17.63,1.54,26.46,0.27c0.71-0.1,1.64-0.2,2.17,0.15
			c4.13,2.7,8.78,1.63,13.22,1.87c4.34,0.24,8.7,0.01,13.04,0.13c2.37,0.07,4.72,0.5,7.09,0.64c7.03,0.43,14.04,0.24,20.98-1.06
			c4.48,3.12,9.4,0.91,14.11,1.1c4.96,0.2,9.94,0.1,14.91-0.02c3.37-0.09,7.43-1.73,9.94-0.37c3.45,1.87,6.37,0.54,9.24,0.27
			c4.76-0.44,9.51-1.32,14.32-1.44c2.45-0.06,4.92-0.09,7.36,0.1c5.87,0.47,11.73,1.34,17.36-1.34c0.63-0.3,1.51-0.35,2.2-0.19
			c7,1.67,13.99-1.01,20.98,0.03c2.65,0.39,5.33,0.95,7.99,0.9c2.79-0.06,5.78,1.58,8.44-0.79c0.65-0.58,2.1-1.04,2.77-0.71
			c4.77,2.35,9.3,1.47,14.29,0.39c3.14-0.68,6.88,1.37,10.34,2.23c0.71,0.18,1.37,0.7,2.07,0.75c8.69,0.58,17.38,1.33,26.08,1.55
			c4.26,0.11,7.28,1.81,10.51,4.35c4.88,3.83,6.39,9.06,7.3,14.56c1,6.03,1.4,12.16,2.11,18.24c0.14,1.18,0.19,2.54,0.81,3.47
			c5.11,7.71,5.17,16.83,7.19,25.39c0.19,0.79-0.56,1.76-0.53,2.64c0.1,3.43-0.63,7.3,0.71,10.2c3.51,7.61,3.71,15.71,5.15,23.66
			c2.49,13.77,4.56,27.68,11.49,40.3c2.21,4.02,3.47,8.76,4.24,13.32c0.76,4.48,1.78,8.61,4.53,12.31c0.63,0.85,0.4,2.37,0.48,3.59
			c0.07,1.16-0.47,2.76,0.11,3.41c5.3,5.98,4.48,14.02,7.22,20.84c0.51,1.26,0.26,2.84,0.35,4.27c0.09,1.48-0.2,3.11,0.32,4.42
			c3.44,8.72,5.49,17.87,8.62,26.68c1.37,3.85,2.78,7.7,3.93,11.62c0.48,1.62,0.4,3.42,0.45,5.13c0.17,5.92,0.97,11.65,3.58,17.11
			c1.25,2.61,1.7,5.62,2.38,8.47c0.32,1.32,0.74,1.2,1.97,0.98c3.34-0.6,6.49-0.75,9.71,1.56c1.83,1.31,5.75,1.95,7.4,0.87
			c5.92-3.87,12.76,1.03,18.44-2.6c8.14,1.55,16.32,0.38,24.48,0.38c5.39,0,10.93-0.6,16.11,0.46c4.21,0.87,8.35,0.47,12.48,1.07
			c3.75,0.54,7.55,0.87,11.33,0.99c0.98,0.03,2.17-0.94,2.98-1.73c4.03-3.94,7.93-8.02,11.96-11.97c1.35-1.32,2.75-2.9,4.44-3.52
			c5.35-1.99,10.42-4.37,14.84-8.05c0.74-0.62,1.66-1.24,2.58-1.4c10.16-1.72,19.11-6.46,28.15-11.02c0.6-0.3,1.34-0.59,1.97-0.51
			c4.18,0.51,8-0.48,11.97-1.83c2.69-0.91,5.68-0.46,8.18-2.7c1.29-1.16,3.66-1.34,5.59-1.5c4.14-0.33,11.75-1.91,14.34-3.19
			c1.31-0.65,2.88-1.94,3.99-1.65c7.46,1.98,14.18-1.96,21.31-2.24c2.53-0.1,5.09,0.44,7.64,0.68c0.18,0.14,0.36,0.27,0.54,0.41
			c-0.23-0.09-0.45-0.17-0.68-0.26c0.72-4.02,1.42-8.03,2.17-12.04c0.13-0.71,0.79-1.42,0.69-2.05c-1.19-8,1.77-15.14,4.61-22.27
			c1.54-3.85-0.32-6.6-2.53-9.31c-2.46-3.01-5.12-5.87-7.43-8.98c-3.1-4.17-5.49-8.49-4.54-14.21c0.37-2.21-0.99-4.89-2.05-7.12
			c-1.59-3.34-1.63-6.5-0.38-9.93c0.95-2.61,1.07-5.29-1.06-7.66c-0.44-0.49-0.5-1.97-0.09-2.48c2.15-2.66,2.51-2.91-1.63-2.97
			c-3.74-0.05-8-0.2-11.67-2.84c-1.92-1.38-5.2-1.17-7.86-1.15c-3.2,0.01-6.46,0.89-8.36-2.86c-0.26-0.52-1.23-0.97-1.86-0.97
			c-8.13,0.04-15.31-3.08-22.82-5.78c-6.66-2.39-13.88-3.75-21.29-4.03c-8.22-0.31-16.11-3.15-23.36-7.31
			c-1.69-0.97-3.37-1.94-5.11-2.81c-2.89-1.45-4.88-0.51-4.45,2.72c1.79,13.73-3.74,26.23-6.31,39.2
			c-1.19,5.99-2.01,12.27-6.78,17.1c-1.69,1.71-3.47,4.24-2.23,7.25c-3.42,5.21-6.62,10.58-10.32,15.57
			c-3.03,4.08-7.65,7.22-9.84,11.64c-5.15,10.37-13.1,18.61-19.73,27.82c-4.6,6.39-9.7,12.55-15.4,17.95
			c-3.83,3.63-9.06,5.82-13.74,8.53c-6.27,3.62-12.44,7.47-18.97,10.55c-4.14,1.95-8.42,4.59-13.55,2.85
			c-2.82-0.95-5.32-2.57-5.12-5.49c0.18-2.67,2.02-5.04,5.18-5.64c5.95-1.12,10.81-4.39,15.8-7.61c4.69-3.03,9.98-5.13,14.87-7.86
			c2.54-1.42,5.01-3.1,7.14-5.05c2.35-2.15,3.85-5.59,6.5-6.94c2.68-1.36,1.6-5.99,5.59-5.45c4.25-8.07,11.84-13.71,15.82-22.06
			c1.9-3.99,4.94-7.48,7.67-11.03c1.62-2.1,4.19-3.48,4.18-6.69c0-0.79,0.88-1.98,1.65-2.31c6.42-2.81,7.44-9.49,10.5-14.63
			c2.42-4.07,4.01-8.62,5.96-12.96c-0.05,0.05-0.1,0.09-0.15,0.14c1.45-4.86,2.92-9.71,4.32-14.58c0.27-0.94,0.06-2.03,0.41-2.92
			c0.99-2.52,2.97-4.38,2.13-7.86c-0.59-2.45,1.49-5.53,2.35-8.35c1.12-3.66,2.6-7.19,0.04-11.06c-0.62-0.93,0.55-3.2,1.15-4.76
			c2.16-5.67,2.15-5.93-2.6-9.94c-2.76-2.33-5.49-4.72-8.42-6.83c-0.72-0.51-3.1-0.19-3.15,0.07c-0.66,3.21-5.21,4.17-4.6,8.11
			c0.11,0.74-0.71,1.72-1.29,2.45c-2.44,3.1-4.88,6.2-7.47,9.18c-1.84,2.12-4.27,2.66-6.68,1.09c-1.89-1.23-3.59-2.77-2.21-5.52
			c1.08-2.15,1.78-4.49,2.91-6.61c2.2-4.13,6.94-6.48,7.29-12.14c0.15-2.46,3.3-4.73,5.07-7.11c0.99-1.33,1.12-2.34-0.37-3.73
			c-4.5-4.2-7.73-9.25-9.18-15.33c-0.06-0.23-0.26-0.42-0.36-0.65c-3.1-6.7-3.81-6.83-9.43-1.88c-0.71,0.63-1.63,1-2.44,1.52
			c-9.59,6.12-19.22,12.18-28.75,18.4c-2.65,1.73-5.15,3.31-8.51,2.5c-3.15-0.76-4.6-2.6-3.07-5.1c2.15-3.52,4.57-7.11,7.64-9.78
			c4.77-4.15,10.13-7.63,15.36-11.23c1.33-0.92,3.2-1.01,4.65-1.8c5.4-2.96,9.55-7.57,14.45-11.2c1.26-0.93,1.04-1.55,0.17-3.27
			c-3.02-5.96-7.26-11.6-6.8-18.91c0.1-1.6-0.49-3.45-1.33-4.85c-1.96-3.26-2.3-6.29-0.4-9.73c0.56-1.01-0.01-2.64-0.07-3.99
			c-1.11,0.06-2.38-0.21-3.31,0.23c-6.94,3.36-14.26,4.69-21.94,4.91c-4.13,0.11-8.28,0.95-12.33,1.9
			c-6.16,1.45-12.22,3.34-18.36,4.91c-2.81,0.72-5.69,1.29-8.56,1.54c-0.77,0.07-1.8-1.15-2.47-1.97c-1.83-2.25-1.16-5.18,0.56-6.34
			c4.87-3.27,9.92-7.01,15.45-8.37c7.42-1.83,15.13-2.59,22.42-5.18c4.99,2.49,9.13-2.78,13.99-1.52c0.11,0.17,0.2,0.37,0.34,0.51
			c0.07,0.07,0.24,0.04,0.37,0.06c-0.28-0.14-0.56-0.28-0.84-0.42c3.9-1.1,7.8-2.24,11.71-3.3c4.55-1.23,4.96-2.17,4.92-7.23
			c-0.03-3.14,1.46-6.36,1.11-9.42c-0.82-7.31,2.35-14.03,2.53-21.24c0.11-4.27,2.67-8.81,4.35-12.99
			c2.81-7.02,3.19-14.35,5.09-21.43c0.8-2.98,0.69-6.32,3.67-8.49c0.8-0.58,0.83-2.19,1.3-3.28c1.55-3.6,3.14-7.18,4.71-10.78
			c0.39-0.9,0.87-1.79,1.08-2.73c1.99-9.39,8.77-15.98,13.56-23.76c1.85-3,6.87-3.67,5.89-9.01c-0.62-3.42,0.82-7.21,1.33-10.84
			c0.4-2.82-0.77-6.07,2.28-8.18c0.33-0.23,0.65-0.99,0.51-1.31c-2.49-5.8,1.95-11.2,0.96-16.93c-0.23-1.36,0.16-3.02,0.79-4.29
			c2.17-4.44,0.78-9.34,2.25-14.03c1.41-4.49-0.33-9.94,0.96-14.51c1.12-3.97-1.74-8.72,2.43-11.93c-1.27-6,3.54-11.91,0.19-18.03
			c-0.58-1.06-0.19-2.89,0.22-4.22c1.5-4.92,2.26-9.89,2.12-15.04c-0.03-1.03,0.73-2.08,1.13-3.12c0.78-2.02,2.57-4.26,2.18-6.02
			c-1.65-7.41,4.15-8.96,8.57-10.65c4.47-1.71,9.34-0.32,12.33,3.74c2.88,3.92,6.86,7.07,8.59,11.82c0.16,0.43-0.03,1.26,0.18,1.35
			c4.92,2.1,6.34,6.88,8.61,11.02c0.34,0.62,1.49,1.3,1.37,1.58c-2.39,5.73,3.64,7.6,5.39,11.38c1.87,4.05,5.49,7.27,8.12,11.01
			c4.62,6.57,9.08,13.25,13.57,19.91c4.2,6.23,7.61,13,12.75,18.59c1.98,2.15,3.71,4.17,3.59,7.57c-0.1,2.63,2.06,3.44,3.98,1.3
			c3.95-4.4,9.53-6.46,13.39-11.4c5.4-6.91,13.17-11.89,20.7-16.66c3.24-2.06,7.26-2.96,9.36-6.61c8.34-1.56,13.6-9.39,22.15-10.72
			c4.7-0.73,9.65,3.46,8.71,8.11c-0.24,1.2-0.89,2.43-0.74,3.56c0.16,1.29,1.01,2.49,1.55,3.73c1.01-0.49,2.15-0.81,2.99-1.49
			c1.91-1.56,3.9-3.12,5.46-5c4.4-5.28,10.85-7.17,16.66-9.95c3.1-1.48,6.54,0.22,9.28,2.47c3.77,3.09,3.78,3.09,7.7,0.11
			c3.27-2.48,7.26-3.56,10.57-6.27c3.33-2.72,11.53,0.94,13.76,5.67c1.33,2.81,3.83,5.65,1.22,9.49c-1.05,1.54-0.81,4.71,0.03,6.61
			c1.64,3.7,2.67,6.8,0.38,10.81c-0.66,1.14-2.49,6.11,3.05,6.69c1.26,0.13,2.25,3.98,3.08,6.22c0.15,0.41-0.91,1.67-1.62,1.92
			c-3,1.06-5.34,2.89-9.46,1.14c-3.41-1.45-6.44-1.03-7.26-5.92c-0.57-3.43-1.9-6.19,0.33-9.71c1.38-2.18,1.26-5.47,1.33-8.28
			c0.09-3.36-0.31-6.74-0.57-10.1c-0.05-0.64-0.41-1.25-0.63-1.88c-0.5,0.25-1,0.52-1.51,0.76c-5.27,2.51-10.58,4.62-13.79,10.3
			c-1.64,2.9-5.09,4.97-8.07,6.86c-2.96,1.88-6.01,3.74-9.93,0.99c-3.8-2.66-2.49-5.86-2.08-9.12c0.12-0.94,0.63-1.82,0.77-2.76
			c0.03-0.21-1.01-0.86-1.12-0.77c-3.35,2.77-6.86,5.42-9.8,8.59c-0.65,0.7-0.84,1.88-2.14,2.17c-5.25,1.14-7.46,6.92-12.88,8.29
			c-1.91,0.48-2.91,4.24-4.51,6.37c-0.84,1.12-1.94,2.28-3.18,2.82c-1.57,0.68-1.83-3.2-4.07-1.56c-4.7-2.93-5.74-7.49-2.9-12.23
			c1-1.66,1.8-3.46,2.53-5.27c0.56-1.38,0.85-2.87,1.26-4.32c-1.63,0.45-3.26,0.89-4.89,1.35c-4.07,1.13-6.68,4.58-10.43,6.5
			c-7.32,3.74-13.66,9.37-20.56,13.99c-2.65,1.77-0.33,6.04-4.34,7.14c-2.49,0.68-4.97,2.23-6.87,4.02c-4.34,4.1-9.1,5.98-15.2,6.27
			c-3.12,0.15-5.45-0.26-7.28-2.12c-5.59-5.65-11.04-11.25-14.58-18.78c-2.26-4.82-4.13-10.16-8.6-14.14
			c-3.33-2.97-4.85-7.87-7.61-11.6c-2.13-2.89-4.93-5.28-7.43-7.89l0.17,0.17c0.59-5.21-4.07-7.6-6.45-11
			c-3.11-4.44-5.26-7.33-6.21-12.74c-0.28-1.57-1.27-3.27-2.44-4.39c-3.94-3.76-7.08-8-9.37-12.94c-0.36-0.78-1.7-1.93-2-1.77
			c-0.93,0.48-1.84,1.39-2.28,2.35c-0.61,1.31-1.2,2.86-1.07,4.24c0.55,5.53-0.67,10.65-2.53,15.82c-1.8,4.99,0.5,10.27-0.39,15.41
			c-0.46,2.64-0.32,5.48-1.22,7.94c-2.54,6.96-1.82,14.14-1.89,21.26c-0.03,2.51,0.27,4.91-1.67,6.97
			c-0.62,0.66-1.23,1.89-1.04,2.66c1.91,7.72-1.64,14.76-2.47,22.13c-0.59,5.24-1.9,10.26-2.94,15.38c-1,4.94-0.99,10.07-1.47,15.12
			c-0.53,5.62-1.88,10.01-7.97,13.07c-4.72,2.37-7.79,7.94-9.22,13.63l-0.43,0.57c-0.34,0.45-0.25,0.85,0.26,1.2L853.49,722.55z
			 M763.92,1127.08c-2.17-0.4-4.33-0.9-6.52-1.12c-0.54-0.06-1.74,0.85-1.69,1.18c0.44,3.17,0.42,6.65,1.83,9.37
			c1.82,3.51,3.73,6.45,2.82,10.84c-0.43,2.07,1.6,4.67,2.6,7c0.12,0.29,1.07,0.57,1.12,0.49c2.88-4.15,7.23-1.15,10.8-2.13
			c4.39-1.21,9.1-1.53,13.7-1.71c8.53-0.34,17.17,1.44,25.56-1.56c0.8-0.29,1.9,0.35,2.87,0.38c4.96,0.17,10.02,0.94,14.86,0.22
			c4.71-0.7,9.11-1.63,13.51,0.84c2.62,1.48,4.23,0.13,4.89-2.27c0.42-1.54,0.39-3.34,0.09-4.93c-0.83-4.32-1.87-8.61-2.96-12.88
			c-0.19-0.74-1.06-1.87-1.6-1.87c-3.05,0.03-6.09,0.37-9.13,0.57c-0.68,0.05-1.37-0.02-2.06-0.03c0.24-4.9-3.59-2.29-4.97-2.12
			c-6.34,0.78-12.59-0.12-18.87-0.25c-4.49-0.09-8.99-0.58-13.48-0.48c-6.84,0.15-14.14-0.69-20.37,1.43
			c-4.74,1.62-7.8,0.6-11.53-0.99C764.88,1125.71,764.4,1125.72,763.92,1127.08z M1068.64,1004.51c0.15,0.17,0.3,0.35,0.44,0.52
			c-0.2-0.13-0.39-0.25-0.59-0.38c6.31-7.69,8.72-16.68,8.55-26.43c-0.04-2.61-0.01-5.67-1.31-7.7c-1.89-2.96-5.22-1.5-8.02-0.71
			c-0.23,0.07-0.49,0.08-0.74,0.07c-5.55-0.24-11.14-0.13-16.63-0.84c-5.51-0.71-10.89,3.27-16.34,0.14
			c-2.63,1.7-5.62,0.86-7.7-0.31c-5.18-2.92-10.64,1.08-15.66-1.28c-3.27,1.86-6.56,1.59-10.04,0.49c-0.93-0.29-3.26,0.91-3.24,1
			c0.87,3.4-3.17,5.31-2.15,9.19c1.8,6.83,2.32,13.99,3.39,21.01c1.31,8.58,9.82,15.88,17.78,15.34c2.97-0.2,5.99-3.26,9,0.12
			c0.17,0.19,1.62-0.84,2.51-1.21c1.09-0.45,2.52-1.46,3.29-1.1c6.74,3.07,13.94-0.38,21.15,2.46c7.78,3.07,11.53-0.32,14.91-8.76
			C1067.5,1005.5,1068.17,1005.04,1068.64,1004.51z M1512.26,1030.11c-0.99-1.08-2.23-2.01-2.92-3.26
			c-3.05-5.53-6.92-10.31-12.26-13.72c-2.66-1.7-4.98-3.79-8.73-3.75c-4.24,0.05-8.54-0.95-12.73-1.87
			c-6.88-1.51-13.67-3.43-20.55-4.94c-2.9-0.64-5.97-1.14-8.9-0.91c-3.39,0.27-6.77,1.24-10.06,2.2c-3.97,1.16-7.33-0.38-10.77-1.87
			c-0.21-0.09-0.57-0.11-0.72,0.01c-3,2.57-6.66-0.29-10.32,1.66c-3.26,1.73-8.3,0.36-12.52-0.03c-3.1-0.29-6.14-1.21-9.21-1.85
			c-0.27-0.27-0.54-0.54-0.81-0.81c0.32,0.22,0.65,0.45,0.97,0.67c4.93,7.57,7.35,16.47,12.77,23.79c2.34,3.16,4.48,6.51,6.24,10.01
			c1.35,2.68,0.24,6.85,4.99,7.26c0.44,0.04,1.13,1.16,1.13,1.77c-0.03,8.05,8.04,12.91,8.16,20.86c4.46,5.16,6.5,11.6,9.62,17.42
			c3.46,6.44,7.02,12.73,8.61,19.78c2.03,8.97,10.3,15.1,10.7,24.72c0.04,1.05,1.1,2.38,2.06,3.02c2.51,1.66,3.19,4.15,3.87,6.77
			c0.17,0.65,0.92,1.58,1.47,1.62c4.91,0.37,10.24-1.65,14.44,2.65c0.13,0.13,0.49,0.12,0.71,0.07c5.54-1.32,11.01-0.74,16.61,0.02
			c6.94,0.94,14.01,0.84,20.98,1.6c3.88,0.43,7.63,2.02,11.51,2.48c2.53,0.3,5.19-0.49,7.79-0.79c-0.44-1.63-0.89-3.26-1.3-4.9
			c-0.12-0.48-0.16-0.98-0.15-1.48c0.22-9.88-0.38-19.69-1.39-29.53c-0.75-7.29,0.9-15.02-3.02-21.68c-2.26-3.83,1-8.45-2.52-11.73
			c2-3.89-4.11-7.25-0.73-11.23c-2.65-7.55-5.18-15.14-7.98-22.64c-1.47-3.94-5.28-6.87-5.17-11.55c0.11-0.16,0.22-0.31,0.33-0.47
			C1512.39,1029.72,1512.32,1029.91,1512.26,1030.11z M725.05,1065.86c-0.4-0.23-1.15-0.47-1.15-0.7c0-5.46-0.78-10.53-3.07-15.78
			c-2.24-5.13-4.36-10.98-4.54-16.48c-0.29-8.89-3.18-16.66-6.58-24.5c-0.88-2.04-1.77-4.1-2.38-6.23
			c-1.48-5.1-2.58-10.21-5.65-14.85c-0.98-1.48-2.26-4.05-1.77-7.15c0.49-3.11-2.09-6.72-3.37-10.09c-0.42-1.11-1.46-2.21-1.38-3.25
			c0.79-11.27-5.6-21.28-5.58-32.41c0-2.41-0.46-5.01-1.43-7.2c-2.51-5.67-2.47-11.52-2.67-17.54c-0.16-4.72-1.98-9.36-1.21-14.26
			c0.11-0.67-1.28-1.47-1.68-2.35c-2.38-5.28-5.09-10.25-4.28-16.64c0.56-4.4-0.82-9.13-1.79-13.62c-0.63-2.91-1.35-6.52-3.37-8.21
			c-1.88-1.58-5.54-1.07-8.42-1.44c-1.14-0.15-2.33-0.02-3.42-0.3c-10.09-2.57-20.56-1.07-30.76-3.06
			c-5.41-1.06-11.31-0.98-16.76-0.07c-5.84,0.98-11.32-2.89-17.18-0.34c-1.71,0.74-4.8-1.34-6.27-0.47
			c-2.76,1.63-5.24,0.41-7.81,0.64c-3.18,0.28-6.34,0.73-9.51,1c-2.46,0.21-4.97,0.58-7.39,0.31c-5.84-0.67-11.65-2.02-17.3,1
			c-0.66,0.35-1.86-0.09-2.74-0.37c-7.38-2.37-14.87-0.99-22.13,0.14c-2.67,0.42-4.67,0.42-7.31,0.1c-3.83-0.47-7.81-1.57-12.1-0.17
			c-3.94,1.28-8.6,0.92-12.88,0.52c-7.07-0.66-14.07-1.43-21.15-0.1c-2.17,0.41-4.45,0.5-6.65,0.36c-4.91-0.32-9.8-0.85-14.7-1.34
			c-3.67-0.36-7.32-0.8-10.99-1.18c-4.62-0.47-9.39-1.87-13.83-1.18c-12.03,1.85-23.78,0.07-35.6-1.34
			c-5.33-0.64-10.63-1.53-15.96-2.11c-2.4-0.26-4.86,0.06-7.29-0.08c-1.89-0.11-4.54,2.67-5.53-1.31c-2.42,0.41-4.83,1.02-7.26,1.14
			c-1.4,0.06-3.12-0.32-4.2-1.15c-3.81-2.91-7.98-1.67-11.64-0.59c-2.78,0.82-5.66,1.2-7.77,0.22c-7.12-3.31-14.56,0.68-21.83-1.73
			c-4.11-1.36-9.11,0.23-13.69-0.02c-4.63-0.25-4.72-0.5-3.97,3.79c0.36,2.1,1.06,4.17,1.88,6.15c1.7,4.11,4.12,8,5.21,12.25
			c0.93,3.6,1.92,7.01,3.47,10.44c2.59,5.75,5.3,11.5,5.99,18.01c0.43,4.05,1.77,8.06,3.09,11.96c1.97,5.84,4.24,11.58,6.47,17.33
			c1.19,3.07,0.36,7.12,4.37,8.92c0.47,0.21,0.8,2.26,0.41,2.62c-3.05,2.86-1.06,5.81-0.35,8.69c2.24,9.16,4.56,18.3,6.85,27.44
			c1.83,7.3,5.38,14.18,5.21,21.97c-0.02,0.94,0.42,1.97,0.9,2.81c5.23,9.33,2.69,20.86,8.55,30c-1.28,5.03,1.99,8.53,4.07,12.48
			c1.14,2.15,2.01,4.47,2.71,6.81c0.57,1.93,1.63,4.51,0.85,5.88c-1.69,2.99,2.38,3.97,1.5,6.42c-0.4,1.12-0.44,2.46-0.31,3.67
			c0.3,2.64,0.13,5.66,1.39,7.81c2.12,3.63,3.25,7.26,3.9,11.39c0.59,3.75,2.78,7.21,3.96,10.9c1.86,5.8,3.04,11.84,5.31,17.46
			c2.24,5.56,4.04,11.15,4.99,17.04c0.27,1.69,0.22,3.66,1.09,5c5.2,8.06,5.85,17.48,8.09,26.4c0.82,3.27,2.22,4.62,5.61,4.29
			c4.67-0.44,9.29,0.25,14.1-0.68c4.91-0.94,10.25,0.52,15.41,0.71c1.94,0.07,3.91-0.49,5.87-0.76c1.7-0.23,3.64-1.1,5.07-0.58
			c5.57,2.01,10.94,0.56,16.46-0.02c4.77-0.5,9.65-0.09,14.47-0.01c7.32,0.13,14.62,2.58,21.98,0.29c0.18-0.06,0.45,0.26,0.68,0.26
			c3.32,0.01,6.63,0.01,9.95-0.04c2.95-0.04,5.9-0.19,8.84-0.22c1.63-0.02,3.29,0.34,4.89,0.14c8.19-1.03,16.45-0.63,24.66-2.41
			c5.14-1.11,10.59,1.74,16.28,1.02c2.58-0.33,5.44,0.56,8.34-0.4c1.98-0.66,4.63-0.8,6.47,0c2.6,1.14,4.68,0.81,7.01-0.21
			c0.89-0.39,1.92-0.74,2.86-0.69c4.43,0.22,9.07-0.14,13.21,1.11c4.44,1.34,8.68-4.45,12.82,0.18c0.15,0.17,1.05-0.01,1.29-0.29
			c2.36-2.74,5.6-1.62,8.42-1.74c2.9-0.12,6.16,1.51,8.67,0.65c2.85-0.97,5.26-2.2,8.17-0.74c7.71-3.44,16.05,0.83,23.82-1.95
			c0.59-0.21,1.66-0.29,1.95,0.05c2.81,3.28,6.79-1.34,9.6,1.5c7-2.1,14.14-1.98,21.17-0.6c3.51,0.69,6.66,0.84,9.88-0.64
			c0.86-0.4,1.86-1.07,2.68-0.93c11.09,1.9,22.18,0.09,33.27,0.19c6.11,0.06,12.22,0.43,18.33,0.55c1.16,0.02,2.33-0.55,3.51-0.75
			c2.44-0.42,3.65-1.83,2.7-4.16c-2.81-6.95-1.98-14.9-6.45-21.51c-1.96-2.9-3.6-7.18-3.01-10.39c0.96-5.22-1.2-9.29-2.33-13.85
			c-1.76-7.11-3.73-14.24-4.61-21.48c-0.71-5.81-2.43-10.89-5.83-15.52c0.18-0.12,0.36-0.24,0.55-0.36
			C725.32,1065.52,725.18,1065.69,725.05,1065.86z M1545.27,1140.23c-0.27,1.44-0.69,2.88-0.75,4.32c-0.02,0.53,0.94,1.63,1.24,1.56
			c5.9-1.4,11.62,0.01,17.41,0.79c1.56,0.21,3.29-0.64,4.89-1.15c0.18-0.06,0.03-1.12,0.03-1.71c-5.39,0.3-3.58-3.89-3.74-6.44
			c-0.58-9.3,1.11-18.79-2.41-27.86c-0.24-0.61-0.17-1.43,0-2.08c2.48-9.03-2.14-17.66-1.5-26.58c-4.03-4.74-1.27-11.45-4.95-16.51
			c-1.74-2.39-2.34-5.9-2.59-8.98c-0.3-3.73-1.68-6.5-3.57-9.79c-6.1-10.59-16.47-16.6-24.66-24.89c-0.41-0.42-1.33-0.33-2.01-0.48
			c-0.06,0.81-0.49,1.89-0.13,2.39c2.63,3.55,3.92,7.54,4.42,11.88c0.1,0.9,0.71,1.82,1.29,2.57c3.87,5.01,4.53,11.25,6.45,16.99
			c1.16,3.46,2.26,7.11,2.3,10.7c0.02,1.71-0.16,3.07,0.73,4.65c0.82,1.44,1.39,3.15,1.58,4.79c0.62,5.39,1.53,10.78,2.23,16.12
			c0.91,7.04,1.63,14.1,2.49,21.15C1545.19,1121.19,1546.22,1130.63,1545.27,1140.23z M1058.32,1072.5
			c0.91-0.14,2.62-0.83,4.14-0.54c2.2,0.43,3.44,0.96,2.35-2.16c-2.56-7.36-4.84-14.83-7.36-22.21c-2.27-6.64-4.68-13.22-7.09-19.81
			c-0.17-0.48-0.77-1.11-1.2-1.14c-5.2-0.27-10.42-0.78-15.59-0.44c-1.68,0.11-3.05,0.53-4.75-0.24c-4.74-2.12-8.82,1.8-13.41,1.83
			c-0.71,0-1.91,1.75-2.04,2.79c-0.82,6.34-5.36,11.57-5,18.32c0.22,4.08-0.43,8.24-0.97,12.33c-0.28,2.08-1.19,4.07-1.78,6.11
			c-0.19,0.65-0.6,1.48-0.36,1.95c0.5,1.01,8.36,2.05,9.54,1.11c2.66-2.14,5.13-1.63,8.25-0.87c5.68,1.38,11.58,2.01,17.42,2.49
			C1046.16,1072.49,1051.87,1072.36,1058.32,1072.5z M1575.84,1121.41l-0.32,0.42l0.51,0.07L1575.84,1121.41z"/>
		<path d="M512.93,140.48c-1.31-1.55-2.51-0.65-3.87,0.03c-3.44,1.72-7.13,2.29-10.84,1.29c-2.65-0.71-4.67-0.82-7.49,0.46
			c-2.48,1.12-6.18-0.59-9.36-0.84c-2.39-0.19-4.8-0.09-7.2-0.02c-0.7,0.02-1.71,0.76-2.02,0.5c-4.37-3.61-8.66-0.21-12.96,0.06
			c-3.13,0.2-6.01,0.38-9.25-0.85c-2.63-0.99-6.05,0.04-9.28-0.48c-4.2-0.67-8.68,0.41-13.05,0.65c-1.42,0.08-2.86-0.06-4.28-0.23
			c-6.63-0.78-13.25-2.32-19.94-1.62c-8.28,0.87-16.45,1.53-24.44-1.5c-5.01,1.42-9.87,1.13-14.54-1.3
			c-3.46,3.09-6.99,0.41-10.47,0.07c-1.6-0.16-3.17-1.26-4.72-1.2c-1.62,0.06-3.2,1.44-4.8,1.46c-5.76,0.07-11.44,1.07-17.26,1.05
			c-6.21-0.02-12.55-1.73-18.87,0.78c-2.63,1.05-5.93-0.65-8.87-1.55c-1.83-0.56-3.94-1.28-5.68-0.87
			c-4.94,1.17-9.93-0.15-14.84,0.77c-0.63,0.12-1.63-0.7-2.02-0.44c-5.36,3.55-10.83,0.98-16.26,0.45
			c-1.15-0.11-2.38-0.12-3.48,0.17c-6.98,1.8-13.92,3.71-20.89,5.53c-1.14,0.3-2.47,0.7-3.52,0.39c-3.7-1.09-6.77,0.4-9.7,2.13
			c-5.09,3.01-10.42,5.23-16.34,5.75c-4.5,0.4-8.33,2.06-11.93,4.84c-3.31,2.56-6.93,4.83-10.67,6.71
			c-17.55,8.85-18.61,13.86-29.15,24.43c-0.52,0.53-1.29,1.09-1.38,1.72c-0.86,5.67-5.91,8.53-8.65,12.94
			c-1.24,2-3.13,4.26-5.21,4.93c-3.68,1.19-4.76,3.82-5.24,6.88c-0.4,2.52-0.72,4.61-3.18,6.23c-2.29,1.5-2.97,4.16-3.65,6.97
			c-1.64,6.78-4.08,13.37-6.16,20.05c-0.43,1.39-1.17,2.93-0.92,4.24c1.32,6.83-0.07,13.41-1.06,20.11
			c-0.55,3.68-0.48,7.42,0.37,11.38c1.03,4.77-0.34,10.07-0.72,15.14c-0.32,4.19-0.11,8.23,0.64,12.48c1,5.65-0.14,11.64,0.38,17.42
			c0.81,9.01,2.26,17.96,3.38,26.94c0.37,2.98,0.69,5.97,0.8,8.97c0.19,5.08,2.55,9.79,2.31,14.96c-0.22,4.59-0.02,9.19-0.07,13.79
			c-0.04,3.91,1.77,7.72,1.84,11.24c0.1,5.25,1.42,10.22,1.62,15.24c0.11,2.72,0.59,5.25,1.33,7.63c1.58,5.12,2.51,10.18,2.83,15.58
			c0.23,3.96,0.65,7.96,0.97,11.94c0.32,3.96,2.61,7.89,4.58,11.55c2.03,3.79,4.66,7.26,7.13,10.81c2.32,3.33,5.26,6.29,5.33,10.78
			c0.01,0.46,1.56,0.9,2.39,1.35l-0.17-0.15c4.36,4.84,9.34,9.27,12.83,14.66c2.14,3.3,4.6,5.14,7.89,5.93
			c2.66,0.64,4.69,1.27,5.21,4.28c0.1,0.58,0.99,1.51,1.43,1.46c6.91-0.7,10.47,6.65,17.46,6.75c5.79,0.08,11.7,2.55,17.19,4.48
			c7.21,2.54,14.52,3.09,21.83,4.2c4.72,0.72,9.54,0.91,14.32,1.12c9.24,0.41,18.4,1.73,27.64,2.22c6.37,0.34,12.93-0.62,19.26,1.02
			c0.24,0.06,0.52,0.1,0.74,0.03c6.98-2.17,14.1-0.32,20.97,0.15c5.88,0.4,11.71-1.36,17.74,0.51c3.61,1.12,8.11-0.86,12.22-1.12
			c8.63-0.53,17.25,0.14,25.87,0.3c7.04,0.13,14.1-0.87,20.95,1.57c0.66,0.24,1.52,0.18,2.22,0c12.76-3.11,25.65,0.27,38.49-0.66
			c4.09-0.3,8.88,1.38,12.89,1.12c5.21-0.34,9.51,1.7,14.26,2.24c3.12,0.36,6.49,0.49,9.47-0.32c5.75-1.55,11.14-0.32,16.8,0.26
			c5.61,0.58,11.43-0.9,17.16-1.43c1.37-0.13,2.77-0.1,4.15-0.06c6.17,0.19,12.25,2.51,18.53,0.63c0.69-0.21,1.71,0.67,2.57,1.07
			c0.85,0.39,1.86,1.34,2.49,1.13c6.9-2.34,13.68,3.5,20.72,0.09c1.86-0.9,3.99,1.86,7.09,1.03c3.53-0.94,7.78,0.29,11.59,1.15
			c2.1,0.48,3.55,0.66,5.36-0.78c0.88-0.69,2.73-0.39,4.08-0.17c0.88,0.14,1.78,1.51,2.46,1.37c6.44-1.4,12.22,1.52,18.29,2.45
			c3.08,0.47,6.29,0.1,9.44,0.11l-0.13-0.13c2.07,0.37,5.15,1.78,6.03,0.92c3.83-3.71,8.46-1.87,12.57-2.32
			c4.92-0.54,9.81-1.67,15.07-0.65c4,0.77,8.58,0.89,12.94-0.96c3.82-1.62,8.24-1.81,12.3-2.95c3.92-1.11,9.24,2.62,10.02,7.41
			c0.31,1.94,0.03,4.04,0.68,5.84c1.35,3.77,2.41,7.99,4.89,10.94c5.85,6.96,7.12,16.5,13.62,22.96c-0.07,5.51,5.27,7.33,7.64,11.18
			l-0.11-0.11c0.6,0.78,1.05,1.83,1.83,2.29c4.46,2.56,7.37,6.27,8.96,11.13c0.29,0.89,0.89,1.95,1.66,2.37
			c4.93,2.73,7.37,7.99,11.73,11.27c3.46,2.6,5.49,6.8,9.79,8.5c1.07,0.43,1.82,1.67,2.72,2.54c-0.28-1.39-0.64-2.77-0.83-4.17
			c-0.37-2.61-0.61-5.24-0.96-7.86c-0.25-1.9,0.02-4.24-0.99-5.6c-3.48-4.64-3.51-9.78-3.17-15.09c0.03-0.48,0.21-1.35,0.08-1.39
			c-4.74-1.73-2.11-5.06-2.01-8.02c0.05-1.66-1.45-3.33-2.03-5.07c-1.58-4.77-0.01-10.25-3.3-14.66c-0.23-0.31-0.38-0.99-0.2-1.27
			c2.95-4.69,0.73-9.57,0.61-14.37c-0.13-5.18,1.05-9.69,6.07-12.51c6.5-3.65,13.17-5.99,20.84-5.74c3.49,0.11,7.47-0.74,10.47-2.47
			c5.4-3.1,10.82-3.62,16.71-2.69c3.38,0.53,7.01-2.97,10.25,0.55c3.24-1.1,6.82-3.67,9.64-3c6.06,1.44,11.58-1.12,17.45-0.72
			c6.24,0.42,12.63-0.22,18.85-1.1c2.97-0.42,5.7-0.13,8.58-0.01c7.64,0.33,15.28,1.3,22.95,0.12c1.36-0.21,2.85,0.56,4.3,0.67
			c2.69,0.2,5.47,2.46,8.06-0.27c6.82,2.15,13.8,1.27,20.76,1.34c2.79,0.03,6,4.1,5.76,6.79c-0.09,0.96-1.23,2.48-2.08,2.62
			c-5.59,0.91-10.72,4.75-16.85,2.54c-1.51-0.54-3.4,0.06-5.11-0.03c-6.77-0.37-13.54-0.8-20.31-1.22c-0.73-0.05-1.5-0.09-2.18-0.33
			c-2.66-0.93-4.31,4.39-7.83,0.84c-1.66-1.68-5.6,1.71-8.15-0.97c-7.49,3.02-15.46-2.23-22.92,1.3
			c-10.01-1.22-19.82,3.28-29.86,0.99c-2.4,2.3-5.26,0.98-7.97,1.08c-8.34,0.34-16.4,2-24.2,5.09c-1.97,0.78-4.44,0.16-6.63,0.52
			c-2.88,0.47-5.85,0.9-8.52,2c-5.95,2.46-5.7,2.59-4.82,9c0.42,3.03,0.55,6.31-0.18,9.23c-1.22,4.89,0.68,8.85,2.1,13.26
			c1.62,5.03,1.96,10.48,2.84,15.75c0.3,1.83-0.03,4.01,0.88,5.43c3.03,4.74,4.19,9.63,4.09,15.31c-0.06,3.32,0.04,7.23,2.57,10.28
			c0.71,0.85,1.18,2.39,0.96,3.44c-0.8,3.88,1.47,6.22,3.25,9.27c3.18,5.46,7.17,10.9,6.72,17.82c-0.09,1.44-0.05,2.97-0.56,4.27
			c-0.94,2.38-3.01,2.8-5.28,1.25c-3.88-2.66-7.8-5.27-11.54-8.12c-1.68-1.28-2.96-3.08-4.44-4.63c-0.84-0.88-1.63-2.33-2.59-2.47
			c-4-0.54-5.51-3.25-6.93-6.51c-0.85-1.96-2.15-4.02-4.96-3.77c-2.28,0.2-3.33-1.35-4.74-2.88c-2.54-2.74-3.53-6.46-6.84-8.83
			c-2.97-2.13-4.58-5.84-8.69-7.1c-1.46-0.45-2.37-3.51-3.06-5.53c-1.65-4.85-5.46-7.82-8.76-11.39
			c-5.49-5.97-10.6-12.35-15.22-19.01c-2-2.88-2.02-7.05-3.58-10.32c-2.63-5.52-5.84-10.75-8.65-16.19
			c-0.86-1.67-1.94-3.75-1.62-5.39c0.56-2.88,2.23-5.69-2.29-1.85c-8.56-0.33-16.66,3.89-25.45,2.21
			c-7.11-1.36-14.16,0.59-21.19,1.8c-1.6,0.28-3.27,0.32-4.9,0.25c-1.47-0.06-2.99-0.82-4.38-0.61c-7.72,1.17-15.01-0.58-22.27-2.86
			c-1.14-0.36-3.04-0.63-3.61-0.03c-3.08,3.26-6.5-1-9.81,0.82c-3.1,1.71-6.22-0.21-9.05-1.86c-0.41-0.24-1.17-0.56-1.38-0.38
			c-3.47,2.87-7.16-0.31-10.23,0.33c-3.45,0.72-6.2-0.23-9.29-0.49c-2.69-0.22-5.57-2.79-8.27,0.31c-0.33,0.38-1.78-0.25-2.72-0.36
			c-8.97-1.05-17.97-1.91-26.89-3.3c-1.67-0.26-2.62-0.23-3.93,0.59c-0.68,0.43-2.04,0.7-2.55,0.32c-3.3-2.48-6.44-1.26-9.68,0.03
			c-1.11,0.44-2.71,1.11-3.51,0.65c-3.59-2.05-7.05-0.22-10.56-0.13c-3.49,0.1-7.01-0.11-10.45,0.31c-3.85,0.47-7.54-3.08-11.39-0.3
			c-2.74-4.72-7.02-1.02-10.46-1.9c-2.01-0.51-4.04-0.94-6.05-1.43c-0.23-0.06-0.45-0.43-0.61-0.39
			c-6.17,1.55-12.56-1.55-18.36,0.03c-5.67,1.54-10.92-1.04-16.45,0.2c-1.74,0.39-4.09,0.17-6.23,0.41
			c-2.54,0.28-5.47-0.15-7.79-1.22c-4.66-2.15-9.23,0.86-14.15-0.67c-4.44-1.39-10.12,1.41-14.7,0.22
			c-8.95-2.33-17.45,2.77-26.16,0.41c-0.14-0.2-0.25-0.42-0.43-0.58c-0.09-0.08-0.29-0.04-0.44-0.05c0.34,0.16,0.67,0.32,1.01,0.48
			c-1.59,1.41-2.62,2.95-5.54,1.38c-2.57-1.38-6.11-1.03-9.23-1.29c-4.51-0.38-9.02-0.63-13.54-0.9c-0.96-0.06-1.94-0.02-2.88,0.13
			c-10.75,1.72-21.4-1.83-32.18-0.63c-3.05,0.34-6.25-1.06-9.4-1.23c-5.89-0.31-11.8-0.3-17.7-0.41c-4.29-0.08-8.89,1.35-12.44-2.52
			c-0.25-0.27-0.95-0.18-1.44-0.18c-12.27,0.18-23.36-4.99-34.98-7.72c-0.72-0.17-1.44-0.85-2.07-0.75
			c-6.31,0.92-11.56-2.66-16.22-5.41c-9.66-5.7-19.76-11.13-27.5-19.63c-0.8-0.88-1.53-1.93-1.98-3.02
			c-1.5-3.58-4.05-6.09-7.22-8.25c-1.75-1.19-3.67-2.87-4.35-4.74c-2.57-7.05-5.23-11.9-10.58-17.77c-0.89-0.98-1.88-2.08-2.22-3.29
			c-2.23-7.94-6.39-15.62-6.4-23.84c-0.01-7.3-1.34-13.85-3.63-20.68c-1.63-4.86-1.01-10.47-1.38-15.75
			c-0.36-5.11-0.77-10.21-1.05-15.32c-0.25-4.54-0.23-9.1-0.58-13.64c-0.22-2.85-1.25-5.65-1.31-8.49
			c-0.21-11.17-3.02-21.93-4.85-32.84c-0.4-2.39-0.38-4.86-0.83-7.24c-0.24-1.3-1.07-2.48-1.63-3.72c0-0.99,0-1.99,0-2.98
			c0.19-0.15,0.54-0.28,0.56-0.45c0.62-6.8,1.27-13.59,1.71-20.4c0.03-0.46-1.47-1.02-2.26-1.54c0-1.49,0-2.98,0-4.48
			c1.93-1.99,2.65-3.98,0-5.97c0-0.99,0-1.99,0-2.98c0.64-0.62,1.89-1.32,1.82-1.84c-0.45-3.39-1.18-6.74-1.82-10.1
			c0-0.5,0-0.99,0-1.49c2.07-1.49,1.45-2.98,0-4.48c0-0.5,0-0.99,0-1.49c2.08-4.38,2.9-9.05,2.67-13.83
			c-0.43-8.85,1.94-17.04,5.36-25.06c0.95-2.23,1.77-4.64,2.02-7.03c0.49-4.63,2.68-8.08,5.73-11.47c1.8-1.99,3.31-5.05,3.33-7.64
			c0.03-3.82,2.47-6.05,4.82-6.75c3.12-0.92,4.04-2.63,5.15-5.13c0.86-1.93,2.56-3.49,3.93-5.18c0.61-0.76,1.61-1.33,1.95-2.18
			c4.46-11.12,14.48-17.16,22.62-24.91c0.85-0.81,2.2-1.4,2.54-2.36c1.03-2.9,3.96-3.25,5.8-4.9c6.33-5.65,14.79-7.24,21.52-12.01
			c0.96-0.68,2.1-1.16,3.23-1.51c9.01-2.8,18.03-5.6,27.08-8.28c2.9-0.86,5.95-2.08,8.86-1.89c5.19,0.33,9.46-2.48,14.29-3.22
			c3.61-0.55,7.36-2.65,10.7-2.07c9.55,1.65,18.71-1.09,28.05-1.26c4.59-0.08,9.26,0.54,13.79,1.37c3.24,0.59,6.3,1.26,9.48-0.08
			c1.11-0.47,2.46-1.09,3.52-0.86c8.49,1.91,16.71,0.04,25.03-1.22c2.13-0.32,4.79,0.78,6.75,1.97c1.73,1.05,2.76,2.75,4.73,0.42
			c0.37-0.43,1.88-0.01,2.83,0.18c12.82,2.52,26,0.95,38.87,3.74c4.85,1.05,10.23-0.32,15.37-0.56c2.47-0.12,5.08-0.71,7.4-0.15
			c8,1.9,16.01,0.83,24.02,1.09c4.55,0.14,9.47-1.84,14.16,1.12c1.74,1.1,4.96-0.26,7.5-0.26c3.86-0.01,7.89-3.88,11.58,0.44
			c5.13-0.32,10.26-0.56,15.38-1c4.07-0.35,8.11-1.02,12.18-1.36c1.44-0.12,3.6-0.21,4.28,0.62c2.09,2.56,4.3,1.35,6.64,1.02
			c3.87-0.54,7.76-1.13,11.65-1.22c3.75-0.08,7.52,0.77,11.25,0.62c3.53-0.14,6.78-1.67,10.63-1.41c4.31,0.3,8.66,0.37,12.98,0.99
			c1.45,0.21,2.94,0.57,4.36,0.41c5.09-0.6,10.3-0.87,15.19-2.26c6.47-1.84,12.9-0.71,19.33-0.79c2.19-0.03,4.17-0.16,6.33-0.48
			c3.73-0.54,7.65,0.4,11.49,0.44c3.54,0.04,7.09-0.23,10.62-0.46c3.01-0.19,5.89-0.03,9.06-0.85c5.44-1.4,11.44-0.66,17.21-0.73
			c0.65-0.01,1.47,0.95,1.95,0.77c2.81-1.03,5.41-4.62,8.49-0.43c1.94-1.87,3.9-1.77,6.64-1.41c9.36,1.23,18.81,1.95,28.25,2.26
			c7.44,0.25,14.91-0.52,22.37-0.56c3.03-0.02,6.77-0.27,8.93,1.31c3.94,2.87,8.02,1.59,11.99,1.94c9.64,0.87,19.34,1.13,28.98,2
			c3.2,0.29,6.84-0.81,9.6,1.92c6.78-3.48,13.79,2.77,20.72-0.49c1.37-0.65,3.73,1.21,5.58,1.08c7.93-0.58,15.68,1.02,23.52,1.52
			c6.65,0.43,13.35,0.14,20.02-0.03c1.9-0.05,3.79-1.16,5.35,0.94c0.34,0.46,1.63,0.81,2.01,0.54c3.55-2.53,7.55-1.13,11.34-1.43
			c2.1-0.16,4.33-0.48,6.31,0.03c5.94,1.54,11.79,0.81,17.73,0.22c2.81-0.28,5.74,0.88,8.59,0.76c3.78-0.15,7.53-1.63,11.3,0.08
			c2.56-3.16,3.86,2.36,6.78,0.91c1.7-0.85,4.61,0.86,7,1.22c2.11,0.32,4.67,1.17,6.33,0.36c4.95-2.41,9.78-0.82,14.33,0.22
			c7.47,1.71,14.68,4.01,22.54,2.52c2.25-0.43,4.83,0.26,7.14,0.89c8.44,2.27,17.26-1.3,25.63,1.79c1.84,0.68,4.27,0.5,5.6,1.67
			c3.07,2.69,6.69,2.04,10.14,2.69c6.88,1.3,13.75,2.47,19.58,7.08c3.76,2.98,8.18,5.16,12.38,7.56c2.24,1.28,4.87,1.98,6.94,3.48
			c4.74,3.42,8.67,7.87,14.07,10.53c2.04,1,3.39,3.45,5.01,5.27c1.62,1.81,2.97,3.96,4.86,5.42c1.87,1.44,2.9,2.51,1.33,4.76
			c-1.21,1.74-1.24,4.74-4.14,4.63c-3.76-0.15-8.01-0.68-9.45-4.64c-1.55-4.28-4.54-6.06-8.27-7.74c-1.77-0.79-2.88-2.92-4.52-4.15
			c-3.67-2.77-7.48-5.36-11.23-8.03l0.05,0.05c-4.98-4.09-12.08-4.56-16.48-9.64c-4.88,0.1-9.02-3.84-14.18-2.53
			c-0.96,0.24-2.23-0.61-3.32-1.05c-6.63-2.72-13.43-4.44-20.68-4.61c-5.9-0.14-11.79-0.97-17.69-1.37
			c-1.71-0.11-3.66-0.23-5.14,0.45c-2.55,1.18-4.7,0.95-7.07-0.3c-4.63-2.43-10.37-0.53-14.82-3.73c-3.45,4.08-5.77-2.48-9.5-0.9
			c-3.05,1.3-6.95,1.06-10.42,0.79c-3.65-0.28-7.2-1.69-10.84-2.09s-7.38-0.47-11.03-0.16c-6.96,0.59-13.76,0.02-20.67-1.04
			c-5-0.77-10.21-1.59-15.39,0.54c-2.09,0.86-5.01,0.59-7.31-0.05c-5.28-1.49-9.97-0.58-15.22,0.83c-4.57,1.23-9.94-0.34-14.94-0.88
			c-1.58-0.17-14.08-1.79-15.31-1.77c-2.66,0.05-5.33-0.01-7.99-0.12c-5.46-0.24-10.92-0.57-16.39-0.8
			c-7.15-0.31-14.34-0.21-21.45-0.95c-6.09-0.64-12.08-1.09-18.24-0.88c-4.74,0.16-9.66-1.14-14.28-2.51
			c-5.99-1.77-12.09-0.95-18.03-1.69c-7.22-0.89-14.41-0.19-21.51-0.28c-5.92-0.08-11.64-1.56-17.57-1.31
			c-3.8,0.16-7.34-2.08-11.68-0.21c-3.33,1.44-7.67,1.19-11.46,0.77c-6.28-0.69-12.5,1.3-18.76,0.02c-1.32-0.27-2.86,0.32-4.25,0.7
			c-0.84,0.23-1.84,1.38-2.32,1.16c-7.3-3.42-15,0.98-22.48-1.33c-3-0.92-6.99-0.17-10.04,1.05c-3.29,1.32-5.31-2.55-8.09-1.09
			c-2.68,1.41-5.53,1.07-8.35,1.38c-5.98,0.67-12.21,0.83-17.77,2.79c-3.11,1.09-3.45-1.56-5.48-1.64
			c-5.01-0.18-10.25,3.25-15.11-0.71c-0.24-0.19-1.24,0.66-1.93,0.91c-1.61,0.57-3.9,2-4.76,1.41c-3.49-2.41-7.43,0.12-10.08-0.86
			c-4.09-1.51-7.22,0.87-10.75,0.33L512.93,140.48z"/>
		<path d="M981.99,544.91c-0.98,0.13-2.03,0.55-2.94,0.34c-1.85-0.42-2.97,4.07-5.46,0.66c-0.34-0.46-3.73,1.66-5.81,2.03
			c-2.16,0.38-4.48-0.17-6.67,0.13c-2.66,0.37-5.43,0.84-7.82,1.97c-2.33,1.09-5.48-1.63-7.1,1.75c-4.24-1.16-8.08,1.84-12.86,0.34
			c-4.43-1.39-3.35-3.29-2.73-5.67c1.15-4.4,4.81-6.78,9.61-6.64c0.73,0.02,1.66,0.5,2.16,0.2c4.31-2.59,9.55-2.16,13.77-3.9
			c3.54-1.46,6.6,0.63,9.82-0.98c2.76-1.38,6.31-1.13,9.21-2.32c7.16-2.94,15.23-2.5,22.15-6.36c3.12-1.74,6.74-2.58,10.14-3.81
			c0.22-0.08,0.54,0.03,0.72-0.09c3.68-2.49,7.64-4.38,11.62-6.34c7.65-3.77,14.59-9,21.69-13.83c1.79-1.22,3.66-2.96,4.43-4.89
			c1.71-4.32,5.14-6.26,8.88-8.3c6.39-3.47,11.79-7.97,13.67-15.52c0.2-0.81,1.12-1.45,1.72-2.16c2.81-3.31,6.37-6.25,8.23-10.02
			c1.67-3.4,6.56-6.64,2.64-11.59c-0.31-0.39,0.62-1.71,0.87-2.62c0.39-1.42,1.28-3.03,0.93-4.28c-2.31-8.26,0.82-16.02,1.82-23.97
			c0.09-0.73,0.18-1.48,0.11-2.21c-0.76-8.21-0.11-9.02,2.41-18.2c1.33-4.83,0.48-10.27,0.57-15.44c0.14-7.87,0.45-15.74,0.3-23.61
			c-0.13-6.83-1.16-13.66,0.52-20.45c0.16-0.66-0.55-1.7-0.25-2.15c3.41-5.15,0.9-10.73,0.75-15.94c-0.15-5.12,0.4-10.01,1.1-14.97
			c0.1-0.7,0.57-1.55,0.33-2.08c-2.65-5.83-2.23-11.78-1.8-18.02c0.43-6.1-0.92-12.33-1.54-18.49c-0.38-3.81-0.84-7.62-1.34-11.42
			c-0.09-0.7-1.02-1.55-0.81-1.99c2.41-5.24-1.41-9.02-2.77-13.45c-0.9-2.93-0.28-6.31-0.47-9.48c-0.13-2.2,0.35-5.23-0.87-6.42
			c-5.26-5.1-2.39-11.94-4.3-17.7c-0.33-1,1.75-3.66,3.2-4.15c1.49-0.5,4.04,0.19,5.25,1.31c1.54,1.42,2.4,3.72,3.19,5.78
			c1.48,3.85,2.73,7.79,4.04,11.7c0.62,1.84,1.83,3.78,1.64,5.55c-1.17,10.84,5.39,20.42,4.85,31.16c-0.11,2.28,2.65,5.67,1.79,6.77
			c-2.91,3.75-0.23,7.16-0.3,10.6c-0.11,5.53,0.1,11.22,1.32,16.58c0.76,3.36-1.09,6.72,0.37,9.5c1.92,3.65,0.24,6.58-0.29,9.92
			c-0.53,3.38-0.77,7.17,0.24,10.35c2.38,7.54-0.69,14.56-1.1,21.81c-0.18,3.13-0.47,6.25-0.7,9.38c-0.31,4.25,0.9,8.47-0.73,12.83
			c-0.83,2.21,0.56,5.18,0.63,7.81c0.15,5.63-0.43,11.32,0.29,16.86c0.53,4.05,1.2,7.5-2.1,10.71c-0.83,0.81-0.74,2.73-0.76,4.15
			c-0.11,7.41-0.21,14.71-1.48,22.15c-0.87,5.06-3.13,10.87,0.48,16.36c0.84,1.27-0.34,4.28-1.23,6.19
			c-2.51,5.39-4.64,10.78-5.94,16.69c-0.74,3.38-4.54,6.1-6.96,9.11c-0.92,1.14-2.07,2.16-2.71,3.44
			c-4.24,8.59-10.35,15.3-18.57,20.4c-4.12,2.56-7.66,6.21-11.03,9.78c-2.35,2.49-4.68,4.81-7.35,7c-2.79,2.28-5.26,4.31-8.93,4.65
			c-3.97,0.37-5.17,5.98-9.76,5.27c-3.43,6.2-11.26,4.77-15.83,9.11c-1.34,1.28-3.3,1.88-4.91,2.91c-1.66,1.07-3.05,2.29-5.42,1.4
			c-1.15-0.43-3.03,0.15-4.22,0.87c-3.05,1.85-6,3.37-9.73,2.02c-0.37-0.13-1.3,1.3-1.97,2L981.99,544.91z"/>
		<path d="M1170.96,757.38c-0.57,7-1.19,13.99-1.68,20.99c-0.1,1.38,0.34,2.8,0.47,4.2c0.14,1.45,0.75,3.17,0.2,4.31
			c-4.77,9.9-6.24,21.97-17.81,27.5c-0.81,0.39-1.35,1.42-1.92,2.23c-3.46,4.96-7.39,7.99-14.25,8.05c-4.22,0.03-8.8,2.05-13.35,2.9
			c-8.14,1.53-16.07,1-24.21,0.39c-4.83-0.37-9.31-1.78-14.01-2.36c-8.32-1.03-14.34-5.26-17.42-13.27
			c-0.34-0.9-0.55-2.19-1.23-2.55c-5.3-2.88-6.38-7.64-6.35-13.08c0.01-1.38-0.62-2.77-0.98-4.15c-0.49-1.85-1.76-3.87-1.37-5.5
			c1.34-5.65,0.18-11.17-0.78-16.53c-1.29-7.19,4-11.79,5.72-17.74c0.23-0.78,1.35-1.61,2.21-1.84c5.38-1.44,9.93-4.86,16.12-4.67
			c7.57,0.23,15.19-1.44,22.8-2.08c1.85-0.15,3.92,0.16,5.62,0.9c3.51,1.52,6.95,1.79,10.66,0.98c1.77-0.39,3.69-0.1,5.54-0.1
			c1.24,0,2.81,0.52,3.66-0.05c5.64-3.77,11.56-1.07,17.24-0.69c5.45,0.37,10.43-0.06,15.3-2.54c0.79-0.4,2.35-0.23,3.08,0.32
			c3.75,2.81,6.07,6.5,6.07,11.37c0,0.99,0.09,1.98,0.13,2.98C1170.6,757.36,1170.78,757.37,1170.96,757.38z M1069.23,781.5
			c-0.9,10.49,2.96,19.52,8.77,27.86c0.46,0.66,1.61,0.91,2.48,1.21c5.18,1.79,11.09,1.44,15.57,5.34c0.48,0.42,1.42,0.34,2.15,0.44
			c11.81,1.69,23.09-0.69,34.23-4.35c2.17-0.71,4.82-0.43,6.68-1.54c7.37-4.39,13.11-10.39,16.21-18.58
			c0.94-2.5,2.47-4.98,2.61-7.54c0.44-7.79-0.16-15.67,0.68-23.4c0.38-3.49-0.81-3.78-3.19-4.02c-4.64-0.47-9.29-0.88-13.93-1.31
			c-0.99-0.09-2.15-0.5-2.95-0.15c-4.67,2.07-9.54,1.18-14.37,1.34c-5.88,0.19-11.69,1.42-17.5-1.01c-1.92-0.8-4.45-0.44-6.66-0.23
			c-5.62,0.54-11.23,1.29-16.84,1.98c-1.92,0.23-3.83,0.73-5.74,0.75c-6.44,0.07-7.06,6.01-10.12,9.59
			c-2.71,3.18,0.7,4.85,1.08,7.23C1068.72,777.24,1068.95,779.37,1069.23,781.5z"/>
		<path d="M908.26,745.06c3.95,0.31,7.92,0.51,11.86,0.97c3.35,0.39,6.63,0.65,10.03,0.19c5.87-0.81,11.76-0.38,17.62,0.48
			c0.92,0.14,1.92-0.03,2.86-0.22c5.13-1.04,10.16-1.32,15.18,0.79c1.17,0.49,2.89,0.04,4.26-0.33c5.82-1.57,11.69-0.82,17.53-0.45
			c4.12,0.26,4.98,1.86,6.09,5.93c2.3,8.39,3.49,16.66,1.83,25.4c-0.65,3.45,0.84,7.27,1.06,10.93c0.1,1.59-0.37,3.3-0.91,4.83
			c-1.62,4.63-3.28,9.25-5.16,13.78c-0.74,1.77-2.07,3.32-3.23,4.89c-7.69,10.42-18.74,14.36-30.96,16.31
			c-5.43,0.86-10.61,0.83-15.82-1.09c-1.45-0.53-3.23-0.38-4.83-0.25c-5.95,0.51-11.14-1.23-16.02-4.6
			c-1.94-1.34-4.41-1.93-6.68-2.77c-3.67-1.36-7.39-2.58-11.03-4c-0.83-0.33-1.96-1.2-2.05-1.93c-0.82-6.47-5.14-11.56-6.82-17.84
			c-1.19-4.47-2.38-8.8-2.59-13.39c-0.06-1.34,0.32-2.71,0.57-4.05c0.22-1.15,1.07-2.49,0.72-3.4c-2.39-6.27-0.12-12.12,1.31-18.06
			C895.31,747.98,898.07,745.85,908.26,745.06z M964.45,815.75c1.34-1.25,5.41,0.26,6.03-2.23c0.98-3.88,4.09-4.37,6.32-6.32
			c1.98-1.73,4.33-3.35,3.92-6.74c-0.16-1.3,0.45-3.07,1.35-4.06c5.15-5.69,2.17-12.3,1.98-18.46c-0.05-1.72-1.09-3,0.01-5.15
			c2.78-5.44,0.26-10.5-2.42-15.3c-0.31-0.56-1.7-1.21-1.74-1.15c-2.85,3.64-6.65,0.16-9.36,1.19c-3.5,1.33-6.27,0.25-9.24-0.52
			c-3.44-0.89-6.6-0.92-9.74,0.95c-1.63,0.97-3.04,0.48-5.01-0.09c-4.01-1.15-8.72-1.23-12.81-0.3c-3.23,0.73-6.1,0.29-9.11,0.06
			c-3.18-0.25-6.33-1.06-9.29,1.04c-0.53,0.38-1.73,0.1-2.5-0.19c-5.72-2.18-9.36,0.03-9.88,6.14c-0.21,2.45,0.22,5.06-0.49,7.33
			c-3.23,10.29,0.74,19.73,3.13,29.35c0.32,1.28,1.6,2.44,2.68,3.37c2.78,2.41,5.82,4.19,9.59,5.07c3.48,0.81,7.02,2.33,9.92,4.4
			c3.54,2.52,7.4,1.43,11.04,1.94c5.25,0.74,10.86-0.4,15.9,0.88C958.45,817.9,960.14,813.55,964.45,815.75z"/>
		<path d="M1052.17,901.56c-7.16,0.03-14.31,0.06-21.47,0.12c-0.98,0.01-8.87-1.43-10.57-1.91c-0.83-0.23-1.75-0.16-2.63-0.12
			c-2.19,0.1-4.52,0.8-6.52,0.26c-2.74-0.74-5.11-1.98-7.07,1.24c-0.28,0.46-1.39,0.72-2.03,0.6c-6.49-1.24-13.67,0.45-19.52-2.75
			c-6.28-3.43-12.56-7.75-12.48-16.47c0.02-2.36-0.9-4.81-0.53-7.07c1.46-8.97,8.81-15.15,18.17-17.93
			c9.33-2.76,18.98-3.07,28.37-5.18c4.84-1.08,9.96-0.97,14.96-1.25c0.85-0.05,1.74,0.66,2.62,1.01c1.34,0.53,2.74,1.62,4.02,1.5
			c7.22-0.68,13.67,2.23,20.38,3.95c2.31,0.59,4.71,1.17,6.93,1.67c7.72,1.72,12.39,5.92,14.76,13.26c0.5,1.56,2.15,2.78,2.58,4.34
			c0.55,1.97,3.26,2.57,2.35,5.7c-1.27,4.37-0.94,9.54-4.59,12.67c-4.93,4.22-10.83,6.88-17.65,6.58c-2.88-0.13-5.76-0.13-8.64-0.18
			l0.1,0.1c-0.57-0.63-1.15-1.76-1.68,0.03L1052.17,901.56z M1060.8,889.32c3.07,1.19,9.38-2.56,10.22-5.19
			c0.14-0.45,0.28-1.12,0.06-1.43c-2.3-3.24-2.11-8.14-6.83-9.8c-4.64-1.63-8.53-5.87-14.19-3.82c-0.61,0.22-1.7,0.25-2.05-0.12
			c-2.8-2.95-6.69-2.46-10.09-3.55c-7.58-2.44-15.11-0.12-22.63-0.7c-4.67,4.26-10.9-0.64-15.74,2.67
			c-8.69-1.9-14.09,2.59-18.65,9.23c-1.2,1.74-1.29,3.07-0.41,4.58c2.24,3.86,5.31,7.09,9.76,7.96c3.21,0.62,6.64,0.14,9.97,0.1
			c6.73-0.07,13.32-1.58,20.16-1.4c3.86,0.1,6.13,3.92,10.42,2.56c3.32-1.05,7.23-0.35,10.87-0.27c2.79,0.05,5.58,0.59,8.35,0.45
			C1053.63,890.4,1057.21,889.76,1060.8,889.32z"/>
		<path class="st2" d="M730.54,391.34c3.27-2.98,2.09-7.74,5.8-10.6c0.27-0.2-0.01-1.36-0.22-1.99c-2.48-7.44,2.05-14.57,5.06-21.63
			c1.55-3.64,5.58-3.82,7.47-0.95c2.6,3.94,1.02,8.35-0.47,12.77c-0.22,0.64-1.39,1.67-1.33,1.73c3.23,3.1,0.59,7.22-0.05,10.9
			c-0.65,3.74-2.77,7.69-2.59,11.18c0.4,7.7-3.12,15.71-1.65,23.3c0.37,1.91-1.03,4.37-1.16,6.53c-0.35,6.18-2.57,12.64-0.18,18.44
			c1.33,3.22-0.58,6.74-2.18,9.91c-0.66,1.3-2.62,2.32-4.14,3.1c-1.59,0.82-3.38,1.13-5.04,1.8c-1.64,0.66-3.01,1.15-2.89-1.24
			c0.05-0.97-0.01-1.96-0.24-2.84c-0.39-1.49-0.94-2.35-3.09-1.11c-10.09,5.8-19.41,4.36-28.54,1.62c-0.9-0.27-1.73-0.86-2.67-0.83
			c-2.41,0.08-2.94-1.03-2.84-3.27c0.04-0.95-1.33-1.71-2.05-2.56c-2.38-2.78-3.61-5.72-2.25-10.17c1.77-5.81,2.56-11.74,3.93-17.61
			c0.27-1.16,1.19-2.35,1.99-3.41c3.01-3.99,5.91-8.09,9.2-11.87c8.83-10.15,16.9-14.26,30.29-11.34c0.29,0.17,0.59,0.33,0.88,0.5
			C731.24,391.57,730.89,391.46,730.54,391.34z M728.9,419.49c1.15-6.36,0.72-10.83-1.14-14.28c-0.55-1.01-7.95-4.69-8.75-4.05
			c-3.69,2.96-8.63,4.36-10.85,9.19c-1.27,2.76-2.39,5.8-4.39,8.06c-4.46,5.03-4.68,10.63-5.66,16.1c-0.33,1.85,0.05,4.77,1.25,5.33
			c2.55,1.21,5.81,1.33,8.86,1.61c1.33,0.12,3.33-1.12,4.18-0.59c3.61,2.22,6.43,0.05,9.53-2.41c5.41-4.3,6.67-9.8,7.28-15.49
			C729.37,421.54,728.97,420.17,728.9,419.49z"/>
		<path class="st2" d="M636.16,428.48c-0.66,3.72-0.96,7.49-2.08,11.15c-0.93,3.07-2.64,6.08-4.31,9c-1.05,1.83-7.33,3.41-8.61,2.18
			c-0.68-0.66-0.65-2.08-0.8-3.2c-0.71-5.43,2.7-10.92,2.59-16.41c-0.09-4.76,1.32-9.56,2.8-14.39c0.93-3.03,0.79-6.37,0.39-9.34
			c-0.37-2.69-4.3-3.19-6.85-1.23c-6.32,4.88-11.54,10.29-12.92,18.23c-0.4,2.27-2.13,4.66-3.6,6.78c-4.5,6.48-7.31,6.99-12.34,2.68
			c-1.43-1.23-1.58-2.51-0.74-4.47c0.67-1.56,0.42-3.43,1.26-4.87c3.45-5.94,0.21-10.78,0.32-16.14c0.07-3.38-2.3-4.39-5.42-2.34
			c-3.32,2.17-7.52,3.44-9.26,7.66c-5.19,1.62-4.89,5.63-5.4,9.28c-0.14,0.99,0.05,2.12-0.45,2.95c-2.94,4.92-3.19,10.04-4.12,15.13
			c-0.23,1.27-1.2,3.28-2.16,3.67c-2.81,1.12-6.54,2.85-8.47,1.96c-1.76-0.81-2.65-4.76-2.15-7.29c0.96-4.93,3.18-9.83,4.81-14.75
			c0.3-0.91,0.53-1.99,0.33-2.81c-2.57-10.42,0.74-21.02,4.69-31.6c0.4-1.06,2.14-2.47,3.21-2.61c1.47-0.19,3.47,0.22,4.22,1.2
			c1.87,2.43,1.85,5.56,0.67,8.94c-0.82,2.33,0.48,2.59,2.3,1.42c5.65-3.63,11.51-5.1,17.65-5.16c3.1-0.03,5.48,0.79,7.85,2.44
			c2.1,1.46,3.91,2.46,4.1,5.57c0.17,2.73,1.69,2.77,3.96,0.18c5.5-6.29,12.37-8.11,19.49-8.83c4.32-0.44,12.54,9.32,11.99,13.76
			c-0.87,7.08-1.77,14.16-2.66,21.24C636.36,428.47,636.26,428.47,636.16,428.48z"/>
		<path class="st2" d="M856.82,230.47c1.47-4.52,3.05-9.03,4.36-13.56c0.7-2.43,1.75-4.92,4.38-4.67c1.84,0.18,4.75,2.2,4.51,3.25
			c-1.25,5.43,2.66,10.51-1.74,16.05c-0.16,0.2-0.29,0.49-0.28,0.72c0.17,6.6-5.74,12.86-4.49,19.51
			c-4.03,8.62-3.02,17.76-7.59,26.47c-1.28,2.44-5.04,7.05,0.09,9.13c0.14,0.06-0.07,0.91-0.25,1.35
			c-1.67,4.02-2.79,7.87-2.49,12.12c0.18,2.5-1.66,5.88-3.47,8.32c-1.25,1.69-3.93,2.73-6.09,3.46c-0.57,0.19-1.75-1.72-2.28-2.88
			c-0.84-1.83-1.15-5.51-2.06-5.47c-2.79,0.14-6.01,1.18-8.62,2.75c-7.88,4.78-13.29,0.54-19.17-1.62c-1.36-0.5-1.58-3.14-2.36-4.77
			c-1.34-2.82-3.6-5.42-3.8-8.49c-0.2-3.12,1.48-6.73,2.61-10.09c1.93-5.75,4.05-11.46,6.15-17.18c0.26-0.7,0.78-1.42,1.34-1.97
			c5.25-5.13,9.64-11.12,16.84-14.12c5.73-2.39,9.68-3.27,14.99-1.48c1.06,0.36,2.17,0.69,3.31,0.78c0.64,0.05,1.95-0.36,2.04-0.67
			c1.63-5.6,3.12-11.21,4.65-16.83C857.23,230.53,857.02,230.5,856.82,230.47z M841.69,257.77c-4.8,3.24-10.09,4.42-14.29,8.3
			c-0.19,0.18-0.36,0.42-0.46,0.65c-2.73,6.55-6.63,12.9-7.27,19.82c-0.35,3.83,0.89,6.92,3.89,9.16c2.26,1.68,4.92,1.47,6.69-0.51
			c5.64-6.33,14-11.14,14.66-20.5c0.08-1.11,0.75-2.79,1.64-3.4c3.46-2.38,1.86-4.05,0.65-6.01c-0.93-1.5-1.48-3.28-2.46-4.75
			C844.1,259.56,843,258.92,841.69,257.77z"/>
		<path class="st2" d="M932.36,395.03c2.67-0.38,5.11-0.25,7.28-1.14c3.55-1.45,5.69,0.35,8.23,1.32c0.59,0.22,1.38,1.29,1.3,1.38
			c-3.13,3.64,1.53,6.39-0.65,9.98c-0.9,1.47-1.61,3.34-1.6,4.88c0.07,8.59-2.96,16.71-6.66,25.02c-1.65,3.7-0.84,8.1-1.1,12.17
			c-0.15,2.4-0.08,4.77-0.32,7.17c-0.5,4.97-2.4,9.34-5.34,14.13c-3.19,5.19-6.95,9.26-11.82,11.6c-5.6,2.7-11.54,5.99-17.81,4.13
			c-2.69-0.8-6.48,1.23-8.45-1.86c-2.77-4.33-3.65-9.37-3.27-14.8c0.07-1.07,1.65-2.77,2.83-3.34c1.14-0.55,2.78-0.27,3.97,0.11
			c0.78,0.25,1.38,1.22,1.67,2.06c1.6,4.58,5.23,5.8,10.2,5.57c2.94-0.14,5.41,0.39,6.42-3.71c0.21-0.87,1.98-1.58,2.96-2.44
			c5.85-5.14,7.49-11.42,7.2-17.88c-0.12-2.82-2.21-4.68-5.54-3.86c-6.06,1.49-11.21,1.32-13.95-4.21
			c-7.09-1.4-3.57-9.44-6.86-13.38c-0.86-1.03,1.45-4.59,1.92-6.99c0.87-4.41,3.65-7.84,6.42-11.47c2.74-3.6,4.69-7.74,9.36-9.48
			c0.67-0.25,1.29-0.82,1.87-1.32C924.37,395.43,928.12,392.32,932.36,395.03z M914.95,423.45c-1.16,6.97,4.68,11.69,11.45,9.13
			c0.7-0.26,1.3-1.42,1.74-2.25c0.59-1.11,0.68-2.77,1.52-3.37c3.86-2.79,3.23-6.25,3.45-9.59c0.15-2.39-0.06-4.75,0.18-7.15
			c0.38-3.71-0.67-4.65-4.4-3.53C923.58,408.29,915.94,417.47,914.95,423.45z"/>
		<path class="st2" d="M320.92,359.89c0.86,6.28,0.93,12.6-0.93,19.29c-0.98,3.51-1.28,7.27-0.97,10.68
			c0.19,2.12-0.19,3.7-1.25,5.58c-0.58,1.03-0.91,2.26-1,3.37c-0.54,6.71-0.29,6.66,6.12,3.55c3.17-1.53,6.72-2.66,10.02-2.97
			c4.04-0.38,10.09,8,8.77,12.06c-0.76,2.36-0.44,4.17-0.4,6.31c0.08,3.9,2.04,7.99-1.94,12.01c1.1,3.13-2.06,6.82-0.11,10.05
			c1.06,1.76-2.95,9.15-5.16,10.75c-2.29,1.65-6.46,1.58-8.96,0.13c-2.68-1.56-3.22-3.71-1.23-6.71c2.38-3.6,3.35-6.96,1.19-10.35
			c-0.46-0.72-0.18-2.46,0.43-3.38c2.89-4.33,0.68-8.36,1.63-12.56c0.17-0.77-1.05-2.37-1.53-2.25c-1.34,0.32-3.27,1.1-3.81,2.12
			c-1.52,2.91-2.29,6.08-3.66,9.05c-2.89,6.25-5.88,12.46-9,18.63c-2.68,5.3-7.04,8.6-12.69,9.93c-0.32,0.07-0.7-0.84-1.05-1.29
			c0.16-0.12,0.33-0.24,0.49-0.36c-0.13,0.16-0.26,0.31-0.4,0.47c-0.48-0.03-1.35,0.07-1.38-0.09c-0.41-3.1-1.43-6.22-0.87-9.34
			c0.72-4.06,2.79-8.11,4.14-12.19c1.99-6.03,5.28-11.94,3.94-18.25c-0.37-1.73,1.72-4.22,2.02-6.33
			c1.26-8.98,4.89-18.05,3.57-26.94c-0.32-2.12,3.07-9.23,5.07-12.07l0.22,0.34l-0.31-0.26c-0.8-4.29,2.57-7.9,4.53-11.43
			c1.87-3.36,3.3,0.1,4.76,0.97l0.18-0.12c-1.94,0.53-0.88,1.11-0.32,1.68L320.92,359.89z"/>
		<path class="st2" d="M264.41,452.46c-0.47-0.4-0.95-1.23-1.4-1.13c-7.46,1.56-13.71,0.29-18.1-4.93
			c-1.28-1.52-2.55-1.75-4.41-0.93c-2.82,1.25-5.6,2.68-8.44,3.86c-0.99,0.41-2.13,0.33-3.2,0.45c-5.47,0.59-9.02-2.32-11.75-5.75
			c-2.63-3.3-3.69-7.34-1.93-12.59c1.32-3.92,0.02-8.25,1.26-12.2c1.4-4.49,0.5-9.09,3.56-13.53c1.83-2.66,3.86-4.47,6.71-5.35
			c3.13-0.96,4.25,0.12,4.64,3.16c0.94,7.37-1.18,14.91-2.28,22.4c-0.14,0.97-0.29,1.94-0.35,2.91c-0.17,2.76-1.53,6.41,2.44,6.73
			c1.37,0.11,3.25-2.41,4.99-2.91c2.47-0.7,3.69-1.52,3.38-4.09c-0.08-0.69,0.59-1.86,1.24-2.43c3-2.66,4.14-5.79,4.95-9.35
			c0.74-3.28,3.06-6.08,6.3-7.86c1.83-1,4.63-2.96,5.45-2.43c1.92,1.23,3.44,3.47,4.09,5.74c0.41,1.43-0.87,3.7-1.68,5.51
			c-2.19,4.9-3.88,9.68-4.59,14.92c-0.47,3.43,0.36,5.33,2.58,6c2.52,0.75,5.84,1.27,8.29-2.16c3.73-5.2,8.85-9.54,10.04-16.24
			c0.76-4.3,3.5-8.56,4.81-12.9c1.32-4.4,4.85-6.1,8.31-8.03c0.54-0.3,1.91-0.19,1.98,0.09c0.76,3.09,4.41,4.14,3.05,9.16
			c-1.3,4.79-4.17,8.69-5.61,12.92c-2.34,6.87-8.64,12-9.88,19.05c-0.16,0.91-0.84,2.05-1.6,2.68c-4.09,3.39-7.6,7.74-12.95,9.1
			L264.41,452.46z"/>
		<path class="st2" d="M367.97,273.38c-0.65,3.71-1.31,7.43-1.97,11.14c-0.16,0.91-0.02,2.12-0.56,2.68
			c-5.06,5.23-4.25,13.84-12.12,17.36c-1.3,0.58-3.24,1.28-4.02,0.77c-0.9-0.58-1.45-2.48-1.12-3.71
			c2.15-7.99,2.68-16.19,6.73-23.93c2.17-4.15,3.16-8.45,1.67-11.95c-0.79-1.86,3.17-3.03,0.5-4.17c-1.16-0.5-2.09-2.47-2.95-2.23
			c-2.67,0.74-5.32,2.05-7.83,3.47c-1.33,0.76-2.98,2.1-3.4,3.36c-2.14,6.42-6.97,12.18-6.51,19.35c0.27,4.24-1.76,9.2-3.6,13.63
			c-0.88,2.1-3.57,4-5.76,5.42c-1.23,0.8-3.82,1.14-4.54,0.43c-1.53-1.5-4.95-1.62-3.44-5.79c3.05-8.38,1.9-17.1,6.17-25.49
			c0.5-0.99-0.19-2.35-0.13-3.56c0.1-1.96-0.3-4.22,0.66-5.85c4.38-7.47,3.84-15.47,6.92-23.02c1.06-2.6,2.71-5.12,3.45-7.74
			c1.44-5.07,2.72-10.2,3.53-15.3c0.55-3.46,1.39-6.61,4.38-9.07c3.42-2.81,5.04-2.2,5.32,1.86c0.29,4.35,1.61,8.28,1.02,13.09
			c-0.61,5.02-1.16,9.41-4.18,14.15c-1.63,2.57-1.53,6.08-1.95,9.15c-0.23,1.66,2.99,3.62,4.57,2.48c3.88-2.82,7.04-2.17,10.63-1.17
			c3.29,0.91,4.66,1.04,5.38,2.31c1.76,3.1,3.69,6.1,5.21,9.34c0.5,1.06,0.12,2.73-0.18,4.12c-0.63,2.96-1.48,5.9-2.23,8.85
			C367.73,273.37,367.85,273.37,367.97,273.38z"/>
		<path class="st2" d="M391.49,273.39c2.51-4.08,2.52-4.03,8.13-6.5c3.59-1.58,6.88-2.89,10.46-1.15c2.46,1.2,6.55-0.82,8.26,2.39
			c0.61-0.51,1.56-0.96,1.77-1.55c1.95-5.33-2.08-9.38-7.87-8.2c-3.14,0.64-6.3,0.96-9.45,1.42l0.13,0.16
			c-1.79-6,4.12-8.78,7.23-12.73c0.15-0.19,0.47-0.43,0.65-0.41c4.4,0.42,8.87,0.65,13.15,1.41c1.78,0.31,3.25,1.64,4.72,2.68
			c0.88,0.62,1.97,1.43,2.12,2.42c1.21,7.72,1.67,15.71-1.58,23.75c-1.04,2.58-0.59,4.03-0.3,6.07c0.54,3.79,2.19,7.56-1.77,11.69
			c-1.09,1.13-1.33,3.39-1.36,5.03c-0.06,3.09-1.68,5.14-4.17,7.15c-1.87,1.51-3.28,2.3-5.33,1.12c-4.57-2.63-9.88-0.78-14.85,1.21
			c-2.41,0.96-4.12,1.49-6.26,0.47c-1.38-0.66-3.35-0.37-5.05-0.51c-9.18-0.74-12.81-5.9-11.57-15.09c0.87-6.46,2.8-12.29,8.26-17.1
			c1.55-1.37,3.23-2.59,4.84-3.88L391.49,273.39z M390.95,290.78c0.57,2.26,0.44,5.08,1.54,5.46c2.75,0.95,6.4,1.97,9.07,0.82
			c5.76-2.5,10.79-6.8,14.5-12.18c1.1-1.59,0.63-2.69-0.91-4.08c-2.77-2.49-6.19-2.32-9.67-2.8c-5.02-0.69-6.58,3.46-9.18,6.28
			c-0.55,0.6-1.2,1.11-1.7,1.73C393.36,287.56,392.2,289.13,390.95,290.78z"/>
		<path class="st2" d="M922.79,276.44c-0.01,3.58-2.35,5.2-5.5,6.86c-9.44,4.98-18.99,4.26-28.48,5.65
			c-1.42,0.21-2.7-1.93-4.21-2.73c-0.65-0.34-1.84-0.33-2.55,0.07c-0.41,0.23-0.66,1.65-0.47,2.31c1.07,3.76,2.12,7.54,3.52,11.13
			c0.86,2.21,2.56,3.73,5.57,3.25c3.65-0.58,7.31-1.06,10.96-1.48c4.7-0.55,9.41-1.1,14.1-1.45c1.6-0.12,3.89-0.61,3.92,1.79
			c0.03,2.44-0.16,5.85-3.1,6.48c-5.7,1.22-10.55,6.19-16.63,5.62c-2.78-0.26-5.89,0.73-8.85,1.16
			c-10.53,1.53-15.01-4.99-19.03-12.13c0.83-6.01-1.89-10.85-2.84-16.28c-0.08-0.44-0.19-1.03,0.04-1.38
			c3.71-5.49,4.31-12.33,10.32-16.89c2.63-2,4.68-4.9,6.82-7.51c2.69-3.3,6.28-3.77,9.44-3.71c2.01,0.04,3.49,0.62,5.41-1.11
			c0.41-0.37,1.88,0.36,2.82,0.66c0.77,0.24,1.58,1.05,2.23,0.83c7.9-2.62,11.2,2.85,15.45,6.51c0.71,0.61,1.14,2.5,0.65,3.28
			c-1.98,3.14,0.21,5.05,0.52,7.49l0.18-0.13c-0.22,0.12-0.62,0.27-0.62,0.36c0,0.38,0.12,0.73,0.19,1.09L922.79,276.44z
			 M901.21,268.14c-1.84,0.43-5.42,1.07-8.92,2.21c-0.96,0.31-3.52,0.28-2.92,3.04c0.36,1.65,0.18,2.96,2.4,3.32
			c5.42,0.89,10.75-1.08,16.07-2.83c0.88-0.29,1.96-1.98,2.11-3c0.1-0.64-1.23-1.53-2.15-1.81
			C906.28,268.63,904.56,268.59,901.21,268.14z"/>
		<path class="st2" d="M546.84,298.64c2.69,1.02,1.3,3.43,0.27,4.88c-1.11,1.57-3.18,3.38-4.86,3.7
			c-6.94,1.32-13.74,1.35-20.24-0.09c-3.18-0.7-6.53-0.99-9.59-1.93c-2.16-0.67-3.8-2.4-5.94-3.15c-3-1.06-1.26-3.53-1.2-5.53
			c0.29-9.65,2.12-19.12,7.71-28.3c1.16-1.91,1.02-5.29,2.39-6.1c6.92-4.08,10.43-12.15,17.99-15.3c0.43-0.18,1.07-1.09,1.08-1.08
			c2.98,2.5,6.54-1.15,9.65-0.74c1.63,0.22,3.35,1.76,4.64,1.23c5.5-2.27,5.88,2.61,6.24,4.69c1.4,8.05,0.33,16.49-4.25,24.68
			c-0.78,1.4-2.67,2.39-4.12,3.47c-3.51,2.61-11.61,4.75-15.37,4.38c-3-0.3-6.08-0.37-9.16-0.26c-0.71,0.03-2.07,1.13-2.29,1.85
			c-0.58,1.92-1.28,4.15-0.8,5.78c0.3,1.03,2.69,1.07,4.01,1.76c3.26,1.73,6.5,3.81,10.71,2.81c4.15-0.98,6.87,3,11.27,0.87
			c0.31-0.15,1.3,1.63,1.97,2.51c-0.22,0.15-0.44,0.3-0.66,0.45C546.49,299.04,546.67,298.84,546.84,298.64z M526.96,267.44
			l-0.23-0.35l0.35,0.24c-1.67,5.22-0.87,6.49,3.71,5.65c1.72-0.32,3.44-0.9,5.17-1.36c6.3-1.69,8.71-4.86,8.31-10.94
			c-0.19-2.95-1.78-4.38-4.8-3.43c-4.06,1.28-8.65,2.11-10.09,7.55C529.15,265.74,527.8,266.56,526.96,267.44z"/>
		<path class="st2" d="M624.13,258.35c2.65-2.57,5.12-5.37,7.98-7.67c4.45-3.59,10.43-1.36,10.58,3.83c0.1,3.52-0.67,7.17,2.07,9.91
			c1.09,1.09,1.26,3.46,1.1,5.31c-0.77,8.96,1.54,17.06,2.95,25.37c0.7,4.14-3.64,8.14-1.51,11.95c-2.04,1.26-4.35,3.62-6.05,3.51
			c-2.32-0.15-4.6-1.83-6.09-3.56c-1.03-1.19-1.25-3.59-0.89-5.43c1.99-10.17-0.5-19.17-2.32-28.37c-0.13-0.68-0.27-1.36-0.41-2.04
			c-0.31,0.7-0.59,1.42-0.93,2.11c-4.16,8.37-8.09,16.82-12.15,25.23c-0.33,0.68-0.87,1.5-0.78,2.08c1.11,6.59-4.17,8.02-8.75,10.03
			l0.07,0.09c-6.29-4.43-6.12-4.43-3.87-14.61c1.04-4.72,0.21-9.77,2.12-14.17c3.54-8.17,3.05-16.51,6.53-24.54
			c0.82-1.88,1.44-4.16,2.88-5.42c1.34-1.17,3.72-1.62,5.48-1.57c0.78,0.02,1.4,1.95,1.67,3.17c0.36,1.57,0.3,3.3,0.43,4.95
			c-0.29,0.28-0.58,0.57-0.87,0.85C623.63,259.02,623.88,258.69,624.13,258.35z"/>
		<path class="st2" d="M386.69,401.93c-0.25,0.02-0.51,0.06-0.75,0.06c-5.25-0.03-7.75-1.18-7.53-3.46c0.23-2.42,4.15-6.14,7.78-7.4
			c5.93-2.05,12.38-0.14,15.43,4.58c2.39,3.69,2.92,7.25,1.54,12.63c-1.49,5.82-2.93,12.08-2.91,18.28
			c0.01,3.55,0.62,7.37-0.45,11.2c-1.09,3.89-2.19,7.78-3.34,11.66c-0.89,2.99-6.17,5.2-10.01,4.31c-0.97-0.22-2.11-0.41-3.11-0.12
			c-7.3,2.08-14,0.52-20.89,0.25c-1.07-0.04-2.05-1.32-2.7-2.29c-1.01-1.5-1.61-3.31-2.57-4.85c-1.09-1.74-2.7-3.21-0.23-5.72
			c0.47-0.48,0.8-1.63,0.58-2.12c-2.22-4.99,2.28-8,5.07-11.6c1.92-2.47,3.4-5.24,5.39-7.66c1.01-1.23,2.71-1.96,4.1-2.92
			c4.97-3.42,10.22-5.75,15.9-6.06c2.27-0.13,4.67,0.24,5.13-3.19c0.45-3.33-1.27-5.74-4.16-5.82
			C388.21,401.69,387.44,401.85,386.69,401.93z M374.5,441.07c1.11,0.26,2.1,0.87,2.94,0.6c2.38-0.76,5.51-1.29,6.87-2.97
			c3.08-3.8,3.93-8.47,3.52-12.78c-0.3-3.11-4.52-4.15-6.85-1.81c-4.51,4.52-8.49,9.48-10.65,15.34c-0.23,0.61,0.77,1.87,1.55,2.16
			C372.59,441.88,373.78,441.25,374.5,441.07z"/>
		<path class="st2" d="M958,253.85c9.08-0.08,13.14,4.22,12.79,13.28c-0.16,4.27,0.02,8.49-0.07,12.75
			c-0.03,1.65-0.08,3.41-0.66,5.01c-2.42,6.73-1.89,8.8,3.45,13c1,0.78,1.56,2.09,2.23,3.22c0.87,1.46,0.4,2.73-1.4,3.65
			c-2.47,1.26-4.66,3.63-7.68,2.01c-0.85-0.46-3.3,0.79-4.61,1.82c-10.35,8.07-21.54,7.81-28.82,3.14
			c-7.15-4.58-7.77-10.33-3.2-19.53c3.14-6.31,8.01-11.52,13.22-15.85c2.9-2.41,8.21-2.91,12.05-2.66c2.74,0.18,3.92-0.9,4.89-2.53
			c1.02-1.71-1.84-5.3-3.76-5.45c-1.39-0.11-2.67-0.64-4.06-0.73c-1.15-0.07-2.48-0.05-3.55,0.46c-1.42,0.68-2.66,1.88-3.98,2.85
			c-1.11-1.94-2.45-3.77-3.21-5.88c-0.24-0.69,0.79-2.46,1.67-3.15c4.01-3.11,8.01-6.62,13.22-5.44
			C956.98,253.94,957.51,253.85,958,253.85z M956.8,293.49c0.01,0,0.02,0,0.03,0c0.18-0.99,0.39-1.99,0.52-2.98
			c0.59-4.59-0.45-5.69-4.94-5.25c-4.66,0.45-12.68,8.49-12.38,12.84c0.12,1.68,1.27,3.78,2.69,4.33c1.9,0.74,4.53,0.12,6.83,0.17
			c3.25,0.08,5.39-1.55,6.43-4.66C956.46,296.49,956.53,294.97,956.8,293.49z"/>
		<path class="st2" d="M793.24,443.36c-3.92,0.72-5.07,4.92-8.3,6.87c-3.89,2.35-7.48,2.81-10.99,2.27c-4.72-0.72-9.6-1.6-13.6-3.66
			c-3.07-1.58-6-4.59-7.02-7.85c-2.77-8.85-2.54-18.2,4.07-27.54c1.12-1.59,3.17-3.18,1.82-5.31c-0.14-0.23,0.22-1.07,0.56-1.33
			c5.3-4.06,10.63-8.09,16-12.05c0.59-0.43,1.49-0.41,2.24-0.59c0.28,0.21,0.56,0.43,0.84,0.64c-0.33-0.17-0.65-0.35-0.98-0.52
			c0.37-0.37,0.89-1.11,1.09-1.06c5.26,1.34,11.05,1.91,14.26,6.55c3.57,5.17,8.87,9.77,7.92,17.09c-0.93,7.2-2.18,14.62-5.86,21.69
			c-0.84,1.61-1.47,3.29-2.19,4.94L793.24,443.36z M789.58,422.24c-0.17-1.14,0.1-3.42-0.66-3.69c-3.71-1.3-3.09-5.37-4.56-7.97
			c-2.88-5.07-5.2-5.8-10.28-1.06c-7.52,7.01-9.72,15.21-8.91,23.93c0.2,2.2,0.6,4.19,4,3.3c1.08-0.29,2.4,1.04,3.5,1.76
			c3.4,2.21,11.03-0.23,12.78-4.38C787.05,430.35,788.15,426.43,789.58,422.24z"/>
		<path class="st2" d="M703.62,307.62c-3.65,1.45-11,1.48-14.12,0.09c-0.78-0.35-1.58-0.68-2.43-0.85
			c-15.82-3.27-15.22-12.47-11.86-23.8c0.54-1.82,0.66-3.74,1.44-5.49c1.11-2.47,2.29-5.11,4.08-7.16
			c3.16-3.62,6.51-6.93,7.54-11.68c0.26-1.2,1.56-2.85,2.72-3.46c13.6-7.17,24.06-6.6,30.05,4.88c2.11,4.05,1.95,10.19-0.14,15.57
			c-1.32,3.38-2.17,6.54-1.59,9.72c0.65,3.58-2.52,5.84-3.9,8.74c-2.7,5.66-6.69,10-11.87,13.53L703.62,307.62z M710.69,271.52
			c-0.02-1.7,0.06-3.28-0.07-4.8c-0.42-5.08-3.86-7.29-8.71-5.11c-2,0.9-4.18,2.79-5.25,4.67c-1.44,2.53-2.52,5.03-5.13,6.81
			c-0.72,0.49-1.18,1.7-1.45,2.61c-1.4,4.76-2.84,9.52-3.94,14.3c-0.27,1.2,0.26,3.25,1.12,3.56c3.64,1.31,7.53,2.14,11.37,3.05
			c0.54,0.13,1.81-0.22,1.89-0.47c1.37-4.3,7.18-6.53,6.97-11.55c-0.1-2.34-0.38-4.74,0.15-7.07
			C708.1,275.52,709.59,273.6,710.69,271.52z"/>
		<path class="st2" d="M418.86,397.31c0.55-0.05,1.1-0.1,1.64-0.16c0.27,0.22,0.54,0.44,0.81,0.67c-0.32-0.18-0.64-0.36-0.95-0.54
			c2.49-2.99,4.74-5.74,8.93-3.65c1.91,0.95,4.11-1.26,4.01-3.49c-0.19-4.6,2.7-8.54,4.17-12.78c0.55-1.59,1.33-3.29,1.29-4.81
			c-0.09-3.14,1.3-5.7,3.38-8.25c2.63-3.23,3.96-3.85,6.97-2.39c1.16,0.57,3.35,0.91,1.33,3.58c-1.04,1.37-1.63,3.45-1.58,5.04
			c0.22,6.77-1.48,13.34-4.55,19.93c-1.08,2.31-0.1,3.53,2.54,3.66c3.87,0.18,7.75,0.54,11.39,1.4c1.55,0.37,2.52,2.2,3.75,3.36
			c-2.03,1.96-3.84,4.71-6.14,5.66c-2.72,1.13-5.86,0.61-8.82,0.97c-4.18,0.52-8.4,3.64-7.96,7.21c0.61,5.03-2.12,9.51-2.9,14.23
			c-0.57,3.43-0.26,6.08,1.61,8.68c1.49,2.07,1.45,5.4,3.11,7.25c1.43,1.59,4.46,1.65,6.48,2.81c2.69,1.54,2.56,3.3,0.04,5.97
			c-4.83,5.12-11.71,5.44-16.77,0.77c-3.4-3.13-5.03-7.39-5.86-11.98c-0.7-3.89-0.75-8-1.05-12.02c-0.17-2.32-0.02-4.62,1.41-6.95
			c1.23-2,2.46-3.9,0.67-6c-1.59-1.87,1.2-3.44,2.08-5.14c2.08-4.02,1.59-5.02-2.7-5.45c-5.79-0.58-6.2-1.09-6.16-7.76
			L418.86,397.31z"/>
		<path class="st2" d="M854.62,433.88c-0.42,4.45-1.29,8.73-4.19,12.91c-2.52,3.64-5.26,5.01-8.34,2.93
			c-2.53-1.72-4.97-3.38-3.29-7.92c1.52-4.11,2.05-8.55,2.29-12.75c0.23-4.03-0.77-7.91-0.69-11.94c0.09-4.5-0.15-9.14,2.85-13.59
			c0.71-1.05,1.17-2.5,2.11-3.11c1.64-1.05,3.67-2.68,4.87,0.09c0.98,2.27,2.36,4.33,3.56,6.48c1.96-1.92,3.88-3.89,5.88-5.76
			c2.66-2.49,5.55-1.08,8.32-1.75c1.97,4.01,7.61,4.91,7.79,10.67c0.14,4.5,1.81,8.69,2.68,13.06c0.22,1.13,0.16,2.4-0.03,3.62
			c-0.64,4-0.43,7.8-0.08,11.66c0.36,3.88-0.19,7.99-0.31,11.99c-0.05,1.76-0.18,3.01-2.57,4.05c-2.86,1.24-4.72,1.71-7.38,0.15
			c-2.21-1.3-3.18-1.94-2.93-4.94c0.58-6.99,0.52-13.93,0.36-20.83c-0.1-4.62,0.47-9.54-2.03-13.45c-0.32-0.5-0.82-0.88-1.24-1.31
			c-0.47,0.56-1.06,1.08-1.4,1.69C857.66,421.64,855.14,427.59,854.62,433.88z"/>
		<path class="st2" d="M453.84,295.64c-1.16-5.42,1.87-11.47,0.24-17.11c-1.36-4.71,0.07-10.66,0.51-16.09
			c0.22-2.71,2.97-2.85,4.75-3.54c2.05-0.79,4.05-0.57,4.84,1.63c0.89,2.49,3.08,5.13,2.4,7.44c-1.84,6.3,3.22,11.2-0.02,17.55
			c-0.12,0.23,0.24,0.9,0.51,0.94c0.39,0.06,1.02-0.16,1.33-0.47c1.12-1.14,2.7-2.28,3.12-3.57c2.17-6.64,6.9-11.94,11.05-17.57
			c0.92-1.25,2.33-2.91,2.19-4c-0.56-4.28,3.8-6.74,5.12-10.33c0.42-1.14,3.54-2.3,5.35-2.49c2.33-0.24,1.72,2.03,1.9,3.71
			c1,9.04-0.67,13.8-8.27,22.42c-0.35,0.4-1.02,0.81-1.06,1.17c-0.79,7.74-9.16,12.64-10.57,20.12c-4.93,4.23-9.65,8.77-14.87,12.55
			c-2.9,2.1-8.09-1.29-8.66-5.34C453.41,300.43,453.78,297.99,453.84,295.64z"/>
		<path d="M1046.72,818.88c-0.81,4.47-1.03,9.15-2.59,13.34c-2,5.38-7.56,6.11-12.37,6.53c-6.01,0.52-12.32,0.46-16.14-5.67
			c-1.33-2.14-4.15-0.89-5.75-3.82c-3.9-7.14-3.04-14.03-1.91-21.45c1.02-6.68,4.97-10.13,10.56-12.58c2.87-1.25,11.7-1,14.65,0.38
			c2.16,1.01,4.34,2.01,6.46,3.1c0.62,0.32,1.41,0.82,1.57,1.4C1042.94,806.31,1048.38,811.53,1046.72,818.88z M1020.4,813.12
			c-2.54,3.8,1.27,6.39,1.82,9.6c0.36,2.13,1.52,2.83,3.69,2.23c1.07-0.3,2.31-0.07,3.47,0.03c2.82,0.23,4.16-1.56,4.46-3.84
			c0.36-2.83,0.48-5.8-0.01-8.58c-0.29-1.68-1.97-3.11-2.96-4.69c-2.08-3.33-3.73-3.82-7.18-2.21
			C1020.35,807.2,1018.73,809.42,1020.4,813.12z"/>
		<path class="st2" d="M270.42,225.81c-0.49,4.15-4.01,8.8-0.48,12.3c0.22,0.22-0.38,1.37-0.74,2.03
			c-3.43,6.27-3.33,12.66-3.66,18.93c-0.3,5.68-2.12,11.46-2.44,16.89c-0.48,8.24-3.92,16.18-4.74,24.27
			c-0.46,4.44-2.97,6.92-7.22,8.19c-4.51,1.35-7.18-1.41-6.19-5.79c1.88-8.32,3.29-16.66,5.12-24.99c1.14-5.16,1.83-10.22,1.7-15.31
			c-0.07-2.69,0.73-5.59,1.36-8.38c1.19-5.27,2.74-10.52,3.71-15.79c0.3-1.65-1.4-3.32-1.09-4.97c1-5.28,2.41-10.56,3.9-15.81
			c0.3-1.06,1.7-1.99,2.59-2.98c2.22,2.19,4.63-2.11,6.81-0.98c0.55,0.29,1.06,1.02,1.09,1.66
			C270.3,218.64,270.33,222.23,270.42,225.81z"/>
		<path class="st2" d="M514.99,435.75c0.97-5.47,1.83-10.95,2.92-16.42c1.96-9.92,4.18-19.84,6.02-29.76
			c0.76-4.1,1.43-8.35,1.09-12.27c-0.42-4.96,0.95-9.65,2.53-14.5c1.23-3.79,3.77-6.36,7.46-6.81c0.54-0.07,1.5,0.46,1.49,0.83
			c-0.03,4.04,3.82,7.44-0.2,12.19c-0.73,0.86-1.15,2.87-0.67,3.59c3.03,4.56,0.21,10.17,0.28,15.22c0.05,3.92,1.34,8-1.95,12.2
			c-0.73,0.93-0.04,2.78-0.13,4.21c-0.13,1.95,0.1,4.06-0.72,5.83c-1.25,2.7-1.87,5.06-1.45,7.81c0.26,1.72-0.84,3.86-1.28,5.81
			c-0.25,1.11-0.83,2.4-0.56,3.31c1.69,5.72-1.4,10.86-4.59,15.93c-1.24,1.97-2.84,3.9-5.64,3.27c-4.52-1.01-5.41-1.83-5.31-5.53
			c0.05-1.64,0.06-3.27,0.09-4.9C514.57,435.78,514.78,435.77,514.99,435.75z"/>
		<path class="st2" d="M790.25,273.9c-0.18,3.34-0.31,6.68-0.55,10.02c-0.1,1.41,0.04,3.19-0.77,4.2
			c-3.88,4.83-3.31,10.17-4.74,15.26c-1.1,3.93-6.99,8.16-10.5,7.21c-2.53-0.68-3.7-6.87-2.43-10.68c1.01-3.03,0.6-6.63,2.33-9.12
			c2.2-3.18,2.98-6.28,3.01-9.3c0.04-3.86,1.04-7.47,2.11-11.28c0.96-3.4,2.2-6.3,5.11-8.57c1.27-0.98,1.31-4.08,3.84-2.85
			c2,0.97,4.55,1.61,4.34,4.67c-0.24,3.44-0.52,6.88-0.79,10.32C790.88,273.82,790.56,273.86,790.25,273.9z"/>
		<path class="st2" d="M821.59,402.8c8.09-1.55,7.83-0.45,8.54,6.61c0.54,5.42-3.58,11.5,0.11,16.37c0.85,1.12-0.08,3.81-0.49,5.77
			c-0.76,3.63-2.27,7.25-1.03,10.78c0.21,0.6-0.88,1.99-1.62,2.82c-0.48,0.54-1.39,0.89-2.11,1.03c-2.37,0.46-6.04,1.91-6.85,0.95
			c-2.01-2.38-4.28-5.12-2.47-9.57c0.99-2.43,0.6-5.19,0.82-7.79c0.14-1.62,0.2-3.23,0.4-4.85c0.12-0.97,0.66-2,0.64-2.93
			c-0.27-8.97,0.16-11.52,3.32-18.56C821.1,403.23,821.35,403.02,821.59,402.8z"/>
		<path d="M1068.61,734.4c-2.6-0.18-3.64,3.37-7.23,2.15c-4.27-1.44-7.05-4.26-9.51-7.33c-3.09-3.85-5.35-8.5-2.71-13.58
			c0.79-1.53,2.84-3.49,4.17-3.39c1.89,0.14,4.86,1.69,5.25,3.19c1.5,5.72,5.31,9.29,9.53,12.87c1.87,1.59,1.81,4.05,0.37,6.23
			L1068.61,734.4z"/>
		<path class="st2" d="M569.18,367.9c-1.79,2.61-4.27,6.25-6.81,9.86c-0.18,0.25-0.84,0.38-1.22,0.35
			c-4.07-0.42-7.68-5.94-5.48-9.57c1.96-3.23,1.69-5.44,0.97-8.31c-0.5-2.03-0.25-5.99,0.88-6.68c2.33-1.42,5.58-3.46,8.28-1.33
			c0.61,0.48,1.38,0.79,2.07,1.18c-2.36,2.88,2.01,1.75,1.76,3.67C569.22,360.24,569.34,363.39,569.18,367.9z"/>
		<path d="M996.91,736.09c-2.8-3.14-2.36-6.08,0.55-8.86c1.61-1.54,3.34-2.97,4.79-4.64c1.43-1.64,3-3.33,1.3-5.87
			c-1.95-2.91,1-4.16,2.57-5.14c0.98-0.62,3.71-0.09,4.43,0.86c1.56,2.05,2.82,4.6,3.34,7.13c1.53,7.41-8.19,19.49-17.1,16.4
			l0.44-0.29L996.91,736.09z"/>
		<path class="st2" d="M764.82,237.4c-0.23-5.2,3.69-7.22,6.55-9.79c0.47-0.42,1.85-0.13,2.66,0.2c1.12,0.46,2.06,1.35,3.15,1.91
			c1.04,0.53,2.85,0.62,3.14,1.36c0.84,2.18,1.42,4.59,1.49,6.92c0.07,2.29-3.77,5.17-6.78,5.57c-0.49,0.06-0.99-0.01-1.48-0.01
			c-1.79,0-3.64,2.63-5.33,0.14C766.89,241.74,765.94,239.51,764.82,237.4z"/>
		<path class="st2" d="M829.75,385.88c-1.48-0.94-4.84-1.76-5.5-3.82c-0.89-2.74,5.34-8.76,8.22-8.83c1.78-0.05,6.31,3.94,6.13,5.4
			C838.34,380.78,832.84,385.86,829.75,385.88z"/>
		<path class="st2" d="M391.65,273.24c-0.61-0.13-1.22-0.27-1.84-0.4c0.56,0.19,1.11,0.37,1.67,0.56L391.65,273.24z"/>
		<path d="M154.59,486.63c-0.18-0.09-0.36-0.18-0.54-0.27c0.13,0.14,0.25,0.28,0.38,0.42C154.42,486.78,154.59,486.63,154.59,486.63
			z"/>
		<path d="M154.42,486.78c0,0.48-0.01,0.95-0.01,1.43l0.17,0.15c0-0.58,0.01-1.15,0.01-1.73L154.42,486.78z"/>
		<path d="M616.06,545.04c0.11-0.2,0.23-0.4,0.34-0.6c-0.16,0.16-0.31,0.32-0.47,0.47C615.93,544.91,616.06,545.04,616.06,545.04z"
			/>
		<path d="M981.89,545.01c0.27,0.2,0.54,0.4,0.81,0.6c-0.15-0.03-0.36-0.01-0.43-0.1c-0.14-0.17-0.19-0.4-0.28-0.6L981.89,545.01z"
			/>
		<path d="M711.68,597.28c0.18-0.25,0.35-0.49,0.53-0.74c-0.04,0.12-0.05,0.28-0.14,0.35c-0.15,0.12-0.34,0.19-0.51,0.28
			C711.56,597.17,711.68,597.28,711.68,597.28z"/>
		<path d="M916.17,607.54c-0.19,0.4-0.37,0.81-0.56,1.21c0.24-0.35,0.48-0.7,0.72-1.04C916.33,607.71,916.17,607.54,916.17,607.54z"
			/>
		<polygon points="870.65,705.71 870.49,705.25 870.92,705.3 		"/>
		<path class="st2" d="M417.54,397.23c0.31-0.32,0.61-0.65,0.92-0.97c0.13,0.35,0.27,0.7,0.4,1.05l0.17-0.15
			c-0.54-0.02-1.07-0.04-1.61-0.07C417.42,397.09,417.54,397.23,417.54,397.23z"/>
		<path d="M853.7,720.85c-0.07,0.57-0.14,1.13-0.21,1.7l0.05,0.06c-0.22-0.37-0.3-0.77-0.26-1.2L853.7,720.85z"/>
		<path d="M1068.47,734.54c0.18,0.1,0.35,0.2,0.53,0.31c-0.13-0.15-0.26-0.29-0.39-0.44L1068.47,734.54z"/>
		<polygon class="st2" points="568.74,373.76 568.82,374.21 568.41,374.16 		"/>
		<path class="st2" d="M321.15,358.42c0.13,0.34,0.31,0.68,0.37,1.04c0.01,0.07-0.39,0.28-0.6,0.43l0.08,0.1
			c0.11-0.56,0.22-1.12,0.32-1.68L321.15,358.42z"/>
		<path class="st2" d="M608.94,310.6c-0.26,0.35-0.51,0.7-0.77,1.05c0.28-0.32,0.56-0.63,0.84-0.95
			C609.01,310.69,608.94,310.6,608.94,310.6z"/>
		<path class="st2" d="M703.52,307.71c0.2,0.08,0.4,0.15,0.59,0.23c-0.16-0.11-0.33-0.21-0.49-0.32L703.52,307.71z"/>
		<path d="M1328.45,852.31c-0.49,0-0.98,0-1.46,0l-0.11,0.15c0.57,0,1.13-0.01,1.7-0.01L1328.45,852.31z"/>
		<path d="M264.3,452.34c-0.15,0.22-0.3,0.44-0.45,0.66c0.18-0.18,0.37-0.36,0.55-0.53C264.41,452.46,264.3,452.34,264.3,452.34z"/>
		<path class="st2" d="M417.42,397.09c-0.13,0.21-0.26,0.41-0.39,0.62c0.17-0.16,0.34-0.32,0.51-0.47
			C417.54,397.23,417.42,397.09,417.42,397.09z"/>
		<path class="st2" d="M922.88,274.86c0.97,0.41,1.43,0.88-0.08,1.59l-0.17-0.27c0.08-0.49,0.23-0.97,0.43-1.45L922.88,274.86z"/>
		<path d="M1504.74,1000.21c0.12-0.19,0.24-0.39,0.36-0.58c-0.16,0.16-0.31,0.31-0.47,0.47L1504.74,1000.21z"/>
		<path d="M793.08,443.49c0.15,0.11,0.3,0.23,0.44,0.34c-0.1-0.16-0.19-0.31-0.29-0.47L793.08,443.49z"/>
		<path d="M1188.06,1044.94c0.22,0.19,0.44,0.37,0.66,0.56c-0.13-0.03-0.31-0.01-0.38-0.09c-0.12-0.13-0.17-0.33-0.25-0.49
			L1188.06,1044.94z"/>
		<path d="M1076.13,1065.9c0.09-0.4,0.19-0.8,0.28-1.2c0.26,0.19,0.52,0.37,0.77,0.56c-0.4,0.17-0.79,0.34-1.19,0.51L1076.13,1065.9
			z"/>
		<path class="st2" d="M387.44,259.8c-0.17,0.36-0.34,0.71-0.5,1.07c0.22-0.31,0.44-0.61,0.66-0.92
			C387.6,259.96,387.44,259.8,387.44,259.8z"/>
		<path class="st2" d="M820.85,403.43c-0.22-0.31-0.45-0.62-0.67-0.93c0.47,0.1,0.94,0.2,1.41,0.3
			C821.35,403.02,821.1,403.23,820.85,403.43z"/>
		<path d="M1041.68,171.82c-0.2,0.34-0.39,0.67-0.59,1.01c0.21-0.32,0.43-0.64,0.64-0.95
			C1041.73,171.88,1041.68,171.82,1041.68,171.82z"/>
		<path d="M883.27,1158.45c0.38,0.13,0.76,0.25,1.14,0.38c-0.34-0.17-0.67-0.35-1.01-0.52L883.27,1158.45z"/>
		<path d="M607.03,1167.26c-0.2,0.35-0.4,0.71-0.6,1.06c0.23-0.33,0.46-0.65,0.68-0.98
			C607.11,1167.35,607.03,1167.26,607.03,1167.26z"/>
		<path d="M1170.13,1168.73c0.04,0.04,0.08,0.08,0.12,0.11L1170.13,1168.73z"/>
		<path d="M512.98,140.53c-0.24,0.32-0.47,0.64-0.71,0.96c0.22-0.33,0.44-0.67,0.67-1C512.93,140.48,512.98,140.53,512.98,140.53z"
			/>
		<path d="M500.97,988.16c1.88-0.42,5.39-1.84,8.89-1.82c3.48,0.02,8.07-1.01,9.63,4.11c7.25,3.62,7.93,10.44,8.94,17.36
			c0.27,1.85,0.12,3.19-0.54,4.71c-0.98,2.24-2.11,4.43-2.92,6.73c-4.92,14.09-12.02,17.07-27.08,15
			c-5.72-0.79-10.8-3.52-15.77-6.64c-3.25-2.04-6.05-5.14-6.03-7.84c0.03-3.85-2.08-8.02,0.68-11.9c1.84-2.58,3.2-5.55,4.51-8.46
			C485.18,990.71,488.6,986.78,500.97,988.16z M517.32,1008.5c0.57-5.47-3.9-11.56-7.18-11.07c-5.05,0.75-10.08,1.7-15.06,2.83
			c-1.11,0.25-2.3,1.46-2.87,2.54c-1.7,3.21-3.03,6.61-4.64,9.87c-1.38,2.79-0.43,4.22,2.2,5.68c3.51,1.96,7.49,2.43,10.96,4.03
			c3.76,1.73,6.45,0.84,9.39-1.04C515.32,1018.02,515.68,1012.2,517.32,1008.5z"/>
		<path d="M763.78,1126.93c0.57,0,1.14,0,1.71,0.01C764.92,1126.93,764.35,1126.93,763.78,1126.93z"/>
		<path d="M1123.38,777.75c-2.13,3.45-3.85,7.28-6.59,10.15c-1.06,1.12-3.99,1.81-6.74,0.71c-5.47-2.19-7.95-6.38-6.03-11.98
			c1.68-4.88,7.72-8.06,12.24-5.69C1118.83,772.28,1123.99,771.92,1123.38,777.75z"/>
		<path d="M952.06,779.14c-0.29,6.23-3.93,10.17-9.8,10.59c-4.17,0.31-8.78-6.84-6.94-10.84c0.61-1.33,1.44-2.55,2.14-3.84
			c2.61-4.83,4.26-5.71,8.6-4.57C950.71,771.71,952.3,774,952.06,779.14z"/>
	</g>
</g>
</svg>
