<?xml version="1.0" encoding="UTF-8"?>
<!DOCTYPE svg PUBLIC "-//W3C//DTD SVG 1.1//EN" "http://www.w3.org/Graphics/SVG/1.1/DTD/svg11.dtd">
<!-- Creator: CorelDRAW 2020 (64-Bit) -->
<svg xmlns="http://www.w3.org/2000/svg" xml:space="preserve" width="4000px" height="4000px" version="1.1" style="shape-rendering:geometricPrecision; text-rendering:geometricPrecision; image-rendering:optimizeQuality; fill-rule:evenodd; clip-rule:evenodd"
viewBox="0 0 83444.9 83444.88"
 xmlns:xlink="http://www.w3.org/1999/xlink"
 xmlns:xodm="http://www.corel.com/coreldraw/odm/2003">
 <defs>
  <style type="text/css">
   <![CDATA[
    .fil9 {fill:#102326}
    .fil5 {fill:#2A3E56}
    .fil10 {fill:#314B6B}
    .fil12 {fill:#719989}
    .fil8 {fill:#80AAD6}
    .fil0 {fill:#8AB5A4}
    .fil4 {fill:#966E64}
    .fil7 {fill:#A6C9EF}
    .fil6 {fill:#FA5C5C}
    .fil1 {fill:#FDD3AB}
    .fil3 {fill:#FF8787}
    .fil2 {fill:white}
    .fil11 {fill:#2A3E56;fill-rule:nonzero}
    .fil13 {fill:white;fill-rule:nonzero}
   ]]>
  </style>
 </defs>
 <g id="Layer_x0020_1">
  <metadata id="CorelCorpID_0Corel-Layer"/>
  <g id="_1833965719264">
   <polygon class="fil0" points="0,0 83444.9,0 83444.9,83444.88 0,83444.88 "/>
   <path class="fil1" d="M45055.35 27497.09l-8251.42 0c-873.83,0 -1588.77,714.96 -1588.77,1588.77l0 4004.95 -2523.58 676.18 2523.58 567.66 0 132.61c0,873.81 714.94,1588.77 1588.77,1588.77l8251.42 0c873.81,0 1588.77,-714.96 1588.77,-1588.77l0 -5381.4c0,-873.81 -714.96,-1588.77 -1588.77,-1588.77z"/>
   <path class="fil2" d="M39574.33 75175l-7982.41 0 0 -1370.98c207.86,-2147.86 2025.65,-1507.21 3626.03,-1435 0,0 487.34,-0.29 807.65,608.35 320.31,608.62 3260.92,-121.69 3548.73,2197.63z"/>
   <path class="fil3" d="M33026.89 69191.46c0,0 -409.97,2543.32 -397.16,2889.31 12.81,345.96 -365.05,288.25 -288.2,813.59 76.85,525.31 1767.99,388.91 2126.79,183.91 358.77,-204.98 359.17,-613.97 589.82,-716.49l428.87 -3823.78 -2460.12 653.46z"/>
   <path class="fil2" d="M46134.46 75175l-7982.41 0 0 -1370.98c76.87,-794.4 837.93,-1560.81 837.93,-1560.81l2788.09 125.81c0,0 487.34,-0.29 807.66,608.35 320.31,608.62 3260.91,-121.69 3548.73,2197.63z"/>
   <path class="fil3" d="M38280.12 69678.36c0,0 743.15,1973.14 755.96,2319.1 12.82,345.96 -217.71,294.69 -140.86,820 76.85,525.33 2011.56,384.35 2370.33,179.37 358.8,-205 281.87,-525.31 512.52,-627.81l-1435.02 -4087.27 -2062.93 1396.61z"/>
   <path class="fil4" d="M21783.52 46481.95l-3920.69 0c0,0 -845.67,112.6 -666.27,1097.75 179.37,985.16 2639.44,8894.56 2639.44,8894.56 0,0 384.37,1069.62 1627.21,1083.71l13017.8 0 75.15 -992.35 -12772.64 -10083.67z"/>
   <path class="fil1" d="M22757.29 46481.95l-3920.69 0c0,0 -845.67,102.5 -666.27,999.39 179.38,896.9 2639.44,8097.67 2639.44,8097.67 0,0 384.38,973.8 1627.21,986.61l12313.09 0 -11992.78 -10083.67z"/>
   <path class="fil5" d="M29881.21 38569.83c0,0 999.42,-1780.93 256.28,-3395.35 -743.17,-1614.42 -781.61,-2626.65 -320.34,-4036.04 461.25,-1409.4 1575.93,-5727.37 -2267.88,-6316.77 -3843.83,-589.37 -4241.02,3344.18 -4356.36,4599.82 -115.31,1255.62 -948.14,3215.95 -2229.41,4164.1 -1281.25,948.15 -1793.77,3177.44 -1563.12,5355.63 230.65,2178.19 -2255.04,5919.48 1921.91,6534.5 4176.94,615.03 8558.92,-6905.89 8558.92,-6905.89z"/>
   <path class="fil6" d="M30196.82 40319.89c0,0 -104.79,4253.2 356.48,5150.07 461.25,896.9 4433.19,743.17 4689.46,1255.67 256.27,512.52 -204.98,1050.62 -204.98,1050.62l-7610.79 0c0,0 -615.03,-6508.83 2769.83,-7456.36z"/>
   <path class="fil7" d="M20772.71 41331.53c86.32,1111.83 365.13,5607.89 -482.68,8687.02l8917.64 0c0,0 -896.8,-5201.98 179.45,-7585.17 1076.25,-2383.17 1281.25,-3433.79 563.72,-5330.08 -717.49,-1896.29 -1588.67,-3049.34 -4586.88,-3075.01 0,0 -3869.46,51.22 -4689.48,3331.28 -820,3280.07 -845.62,3971.96 -845.62,3971.96l943.85 0z"/>
   <path class="fil2" d="M27981.05 34531.3c-634.85,-318.22 -1470.23,-493.18 -2617.09,-503.01 0,0 -614.75,8.37 -1405.92,225.77 388.64,1642.68 2873.98,3545.13 3817.08,1501.74 193.86,-420 232.76,-851.76 205.93,-1224.5z"/>
   <path class="fil8" d="M20836.7 42360.1c82.96,1701.15 126.45,4766.58 -425.15,7174.34l8662.04 -451.34c-82.5,-658.98 -177.83,-1599.34 -207.12,-2600.96l-0.08 -0.17c0,0 -413.84,358.7 -2437.02,-391.69 -2023.19,-750.39 -2585.93,-2129.56 -2672.83,-3650.69 -86.21,-1509.26 -302.08,-4134.16 -305.43,-4175.01 -271.45,1677.59 -137.27,3066.95 -137.27,3066.95l-2268 0 -209.14 1028.57z"/>
   <path class="fil9" d="M29207.67 50018.55c0,0 10237.75,1345.21 10827.15,1678.36 589.39,333.15 1204.42,922.5 922.54,2357.52 -281.85,1435.02 -4715.03,15990.29 -4715.03,15990.29l-3638.81 -563.77c0,0 1178.94,-9071.49 2460.21,-12607.81 1281.25,-3536.31 -5381.38,-3997.56 -5381.38,-3997.56l-474.68 -2857.03z"/>
   <path class="fil5" d="M29207.67 50018.55l308.98 1859.56c0,0 7340.8,946.15 7673.95,1919.92 333.15,973.77 4382.06,16144.07 4382.06,16144.07l-3459.47 922.49c0,0 -3684.81,-10150.47 -4433.18,-14298.97l-5612.03 0c0,0 -5611.98,230.55 -6841.98,-1947.59 -1230.02,-2178.17 -141.6,-4599.48 -141.6,-4599.48l8123.27 0z"/>
   <path class="fil3" d="M20201.11 41331.53c0,0 -448.42,3843.52 -384.38,4151.02 64.04,307.5 153.75,397.21 653.44,486.87 499.71,89.69 7556.05,890.02 7982.38,871.25 426.34,-18.78 935.33,51.25 1633.64,-345.94 698.33,-397.18 1633.64,-371.53 1915.53,-326.71 281.9,44.84 467.71,25.65 679.09,-140.94 211.38,-166.59 25.62,-992.97 -666.27,-1146.74 -691.9,-153.78 -1768.17,525.33 -2581.79,698.3 -813.61,172.97 -1287.7,-38.48 -2428.06,-320.33 -1140.33,-281.88 -4112.84,-1063.49 -4484.43,-1101.92l345.94 -2824.86 -2665.09 0z"/>
   <path class="fil3" d="M24691.21 34365.11c0,0 852.74,1591.01 1813.7,1706.34 960.96,115.32 922.52,-1575.98 922.52,-1575.98 0,0 -123.52,-1163.15 119.92,-1931.87 0,0 845.75,275.37 1306.95,-198.67 461.19,-474.03 887.95,-2449.62 1025.26,-3826.54 141.24,-1416.36 -3002.99,-1576.86 -3079.84,-551.84 -76.85,1025.02 -525.31,896.87 -755.96,896.87 -230.62,0 -89.66,781.61 -358.75,717.55 -269.09,-64.07 115.34,-730.36 -499.69,-602.21 -615.02,128.12 -256.29,1370.98 128.1,1640.04 384.4,269.06 -422.83,3164.7 -622.21,3726.31z"/>
   <path class="fil6" d="M27397.64 33661.14c2.29,-260.54 49.23,-798.59 149.71,-1097.54 0,0 -932.84,-168.19 -1428.64,-908.99 0,0 100.24,1176.03 1278.93,2006.53z"/>
   <polygon class="fil1" points="17830.83,75196.34 16600.81,75196.34 22104.13,57557.97 23334.12,57557.97 "/>
   <polygon class="fil1" points="36853.83,75196.34 38083.85,75196.34 32580.53,57557.97 31350.53,57557.97 "/>
   <path class="fil2" d="M58671.82 44877.78c0,0 -2435.45,4914.46 739.4,13177.78 0,0 1413.46,717.6 1783.12,500.16 369.69,-217.45 2435.58,-7480.56 2087.64,-12351.56 -347.93,-4870.97 -4610.16,-1326.38 -4610.16,-1326.38z"/>
   <path class="fil7" d="M58671.82 44877.78c0,0 -86.71,175.06 -206.01,514.24 939.54,1015.29 2190.43,3013.94 2163.23,6444.23 -26.16,3295.95 -319.77,5379.95 -549.65,6517.94 419.36,166.12 916.93,318.02 1114.95,201.53 369.69,-217.45 2435.58,-7480.56 2087.64,-12351.56 -347.93,-4870.97 -4610.16,-1326.38 -4610.16,-1326.38z"/>
   <path class="fil5" d="M60271.6 42558.97c1043.82,0 1890.03,846.21 1890.03,1890.03 0,1043.85 -846.21,1890.04 -1890.03,1890.04 -1043.85,0 -1890.04,-846.19 -1890.04,-1890.04 0,-1043.82 846.19,-1890.03 1890.04,-1890.03z"/>
   <path class="fil2" d="M58877.9 27313.82c0,0 -2947.85,4104.47 -3556.74,8736.27 0,0 434.91,956.8 804.57,1087.26 369.69,130.49 3653.28,-3935.94 3892.45,-4740.51 239.2,-804.6 1283,-4784.05 -1140.28,-5083.02z"/>
   <path class="fil7" d="M58877.9 27313.82c0,0 -293.58,408.86 -714.37,1113.57 0.99,922.6 -53.49,2244.11 -279.53,3799.74 -443.81,3054.17 -2404.9,3991.4 -2404.9,3991.4 -14.12,22.98 -27.05,46.27 -39.35,69.65 154.71,292.4 435.33,760.72 685.98,849.17 369.69,130.49 3653.28,-3935.94 3892.45,-4740.51 239.2,-804.6 1283,-4784.05 -1140.28,-5083.02z"/>
   <path class="fil2" d="M54913.55 36484.93c0,0 -2598.56,-1587.39 -5903.93,-1032.91l-21.75 380.56c0,0 2386.27,2604.05 6444.71,2155.52l-519.03 -1503.17z"/>
   <path class="fil2" d="M48672.7 35212.82c0,0 -1658.1,-1826.64 -2359.41,-1853.81 -701.29,-27.16 -2266.97,87 -2343.08,299.02 -76.11,212.02 364.24,375.11 804.57,299 440.36,-76.11 891.55,-184.85 1098.15,179.4 206.61,364.24 59.85,451.22 -86.95,424.04 -146.82,-27.18 -1174.28,-250.06 -1217.8,76.11 -43.49,326.18 831.83,587.13 1261.29,674.11 429.46,87 1109.02,614.33 1891.86,630.64 782.84,16.29 1043.8,0 1043.8,0l-92.43 -728.51z"/>
   <path class="fil5" d="M60507.37 25938.45c912.74,0 1652.64,739.9 1652.64,1652.64 0,912.71 -739.9,1652.63 -1652.64,1652.63 -912.71,0 -1652.63,-739.92 -1652.63,-1652.63 0,-912.74 739.92,-1652.64 1652.63,-1652.64z"/>
   <path class="fil5" d="M55432.58 36041.89c537.43,0 973.11,435.67 973.11,973.1 0,537.44 -435.68,973.11 -973.11,973.11 -537.43,0 -973.11,-435.67 -973.11,-973.11 0,-537.43 435.68,-973.1 973.11,-973.1z"/>
   <path class="fil5" d="M48875.12 35022.53c288.99,0 523.26,234.27 523.26,523.27 0,288.99 -234.27,523.24 -523.26,523.24 -289,0 -523.27,-234.25 -523.27,-523.24 0,-289 234.27,-523.27 523.27,-523.27z"/>
   <path class="fil2" d="M63839.08 24824.51c0,0 -3718.52,282.68 -4479.6,3848.96 -761.09,3566.27 195.71,5697.33 195.71,5697.33 0,0 -945.83,3968.48 -423.92,5816.85 0,0 -1783.13,2457.11 369.66,4979.56 2152.79,2522.48 6066.99,2239.82 7719.65,-1478.68 1652.69,-3718.49 -2196.27,-4327.35 -2196.27,-4327.35l-10.97 -4533.72c0,0 2522.48,-2152.81 2805.19,-4588.31 304.4,-2622.27 1307.64,-4592.75 -1590.52,-5277.75 -827.81,-195.66 -1689.64,-266.64 -2388.93,-136.89z"/>
   <path class="fil7" d="M65520.62 39488.07c-292.92,-94.59 -496.31,-126.89 -496.31,-126.89l-10.97 -4533.72c0,0 2522.48,-2152.81 2805.19,-4588.31 143.01,-1231.97 330.39,-2352.49 335.84,-3218.34 -523.25,471.42 -1260.33,1346.24 -1542.13,2701.48 -456.67,2196.28 -1435.19,3870.69 -2392.01,4283.87 -956.82,413.15 -739.33,-891.55 -2718.19,-565.37 -1978.84,326.17 -674.13,260.93 -674.13,260.93 0,0 2826.97,500.15 2935.7,2761.67 108.73,2261.55 -201.13,3539.1 -282.66,3647.83 -64.98,86.61 1108.84,-485.79 2039.67,-623.15z"/>
   <path class="fil5" d="M59095.64 40047.16c11.09,47.92 22.76,95.03 35.63,140.49 0,0 -37.85,52.26 -95.68,148.82 162.62,421.66 590.11,1232.22 1503.54,1357.88 1139.57,156.8 1928.65,-539.9 2687.02,-1209.55 650.16,-574.04 1276.89,-1127.25 2073.38,-1061.85 -168.98,-44.87 -275.22,-61.77 -275.22,-61.77l-0.25 -106.13c-723.76,59.41 -1306.38,573.78 -1908.17,1105.15 -730.19,644.76 -1489.96,1315.6 -2554.56,1169.09 -1128.33,-155.23 -1446.03,-1482.94 -1446.97,-1486.74l-18.72 4.61z"/>
   <path class="fil5" d="M65013.34 34827.46c-1094.11,-2544.38 -5267.91,-2400.16 -5458.15,-456.66 0,0 1913.81,-1609.44 5458.15,456.66z"/>
   <path class="fil2" d="M67286.96 28629.09c0,0 108.78,4153.43 3240.15,7632.73 0,0 413.18,489.29 978.53,369.66 565.37,-119.6 1271.61,-5680.62 -1642.04,-9119.34l-2576.64 1116.95z"/>
   <path class="fil5" d="M68153.77 25802.29c944.33,0 1709.85,765.52 1709.85,1709.85 0,944.3 -765.52,1709.85 -1709.85,1709.85 -944.3,0 -1709.82,-765.55 -1709.82,-1709.85 0,-944.33 765.52,-1709.85 1709.82,-1709.85z"/>
   <path class="fil10" d="M68501.71 26393.61c575.69,0 1042.39,466.7 1042.39,1042.4 0,575.72 -466.7,1042.41 -1042.39,1042.41 -575.7,0 -1042.4,-466.69 -1042.4,-1042.41 0,-575.7 466.7,-1042.4 1042.4,-1042.4z"/>
   <path class="fil2" d="M70766.46 37348.88c0,0 -1943.51,2924.81 -254.13,8007.84l678.17 331.59c0,0 2141.68,-5266.07 760.99,-8161.83l-1185.03 -177.6z"/>
   <path class="fil2" d="M70396.92 46063.37c0,0 -434.89,228.34 -815.47,913.31 -380.55,684.97 -1130.75,2250.63 -924.17,2511.61 206.55,260.96 945.93,-347.91 1174.24,-891.55 228.33,-543.67 554.63,478.4 435.03,1011.15 -119.63,532.75 -750.24,1587.41 -652.4,1935.35 97.87,347.93 1043.79,-21.74 1674.41,-1239.51 630.65,-1217.75 498.31,-3833.83 -2.04,-4315.7 -500.35,-481.85 -889.6,75.34 -889.6,75.34z"/>
   <path class="fil5" d="M71306.85 35824.42c537.43,0 973.1,435.67 973.1,973.11 0,537.43 -435.67,973.1 -973.1,973.1 -537.44,0 -973.11,-435.67 -973.11,-973.1 0,-537.44 435.67,-973.11 973.11,-973.11z"/>
   <path class="fil5" d="M70834.41 45253.43c305.75,0 553.57,247.82 553.57,553.57 0,305.72 -247.82,553.57 -553.57,553.57 -305.75,0 -553.57,-247.85 -553.57,-553.57 0,-305.75 247.82,-553.57 553.57,-553.57z"/>
   <path class="fil5" d="M63884.79 22159.29l1424.32 0 0 2545.91c407.12,64.98 678.57,197.46 697.05,371.05 31.88,299.22 -699.81,607.04 -1634.28,687.61 -934.42,80.57 -1717.78,-96.69 -1749.66,-395.86 -27.5,-258.17 513.43,-522.7 1262.57,-642.2l0 -2566.51z"/>
   <path class="fil2" d="M59932.56 18273.62c-628.7,2588.76 1016.99,5713.74 2422.32,5880.15 1405.33,166.42 4419.39,-2181.96 4918.63,-4215.96 181.54,-739.55 213.92,-1608.68 4.78,-2400.27 -986.39,-3733.3 -6513.07,-2692.63 -7345.73,736.08z"/>
   <path class="fil5" d="M60862.08 19093.22c276.23,0 500.13,379.7 500.13,848.06 0,468.4 -223.9,848.09 -500.13,848.09 -276.23,0 -500.13,-379.69 -500.13,-848.09 0,-468.36 223.9,-848.06 500.13,-848.06z"/>
   <path class="fil5" d="M63841.22 18956.55c324.28,0 587.13,445.75 587.13,995.63 0,549.85 -262.85,995.62 -587.13,995.62 -324.3,0 -587.15,-445.77 -587.15,-995.62 0,-549.88 262.85,-995.63 587.15,-995.63z"/>
   <path class="fil2" d="M64717.18 44921.19c0,0 -3185.08,3173.06 -2092.65,8632.07 1092.36,5459.02 1309.83,5285.12 1962.21,5502.54 652.35,217.44 1739.61,-565.43 2565.94,-4218.68 826.35,-3653.22 1532.02,-7342.15 418.08,-9944.66 -1113.95,-2602.5 -2853.58,28.73 -2853.58,28.73z"/>
   <path class="fil5" d="M66121.18 42645.97c1043.82,0 1890.01,846.19 1890.01,1890.03 0,1043.83 -846.19,1890.04 -1890.01,1890.04 -1043.85,0 -1890.04,-846.21 -1890.04,-1890.04 0,-1043.84 846.19,-1890.03 1890.04,-1890.03z"/>
   <path class="fil10" d="M66505.75 43299.6c636.38,0 1152.26,515.9 1152.26,1152.26 0,636.36 -515.88,1152.26 -1152.26,1152.26 -636.36,0 -1152.24,-515.9 -1152.24,-1152.26 0,-636.36 515.88,-1152.26 1152.24,-1152.26z"/>
   <path class="fil2" d="M59843.59 59936.9c0,0 -105.68,6517.62 3417.08,10540.56 980.38,1119.54 1670.72,1750.23 2157.08,2063.13 -112.65,190.43 -476.53,847.2 -675.98,1698.63 -1340.19,-17.29 -1535.11,957.12 -1535.11,957.12l1403.76 0 1652.51 0 2349.19 -3125.21c0,0 -806.23,-462.82 -1998.55,-35.58 -13.38,-36.66 -28.78,-78.42 -46.2,-124.94 3.4,-147.52 -1.36,-286.02 -1.36,-389.38 0,-695.84 -818.37,-8545.54 -4910.49,-12199.03l-1811.93 614.7z"/>
   <path class="fil7" d="M63797.46 71072.92c275.82,296.51 524.7,548.18 748.47,758.84 454.33,-566.8 1157.26,-1716.72 1674.03,-2878.54 -535.47,-2799.72 -1806.19,-7168.44 -4564.44,-9631.02l-871.52 295.67c816.99,1982.23 2373.16,6035.26 2737.75,8967.68 143.38,1153.2 224.14,1944.91 275.71,2487.37z"/>
   <path class="fil5" d="M60444.22 57381.36c744.6,0 1348.22,603.61 1348.22,1348.21 0,744.58 -603.62,1348.19 -1348.22,1348.19 -744.57,0 -1348.19,-603.61 -1348.19,-1348.19 0,-744.6 603.62,-1348.21 1348.19,-1348.21z"/>
   <path class="fil2" d="M63796.06 59573.27c0,0 -1938.2,9648.5 -1938.2,13345.21 0,0 -2794.15,212.02 -3848.84,2277.86l6077.88 0c0,0 -114.47,-922.57 -1172.39,-1618.9 778.02,-1197.35 5348.02,-8608.3 2867.19,-13875.58 0,0 -1511.5,-760.02 -1985.64,-128.59zm-1938.2 13345.21l1.89 1.65c-18.4,-11.7 -1.89,-1.65 -1.89,-1.65z"/>
   <path class="fil5" d="M62543.72 71976.86c537.43,0 973.13,435.68 973.13,973.11 0,537.43 -435.7,973.11 -973.13,973.11 -537.44,0 -973.11,-435.68 -973.11,-973.11 0,-537.43 435.67,-973.11 973.11,-973.11z"/>
   <path class="fil5" d="M65859.93 71117.94c537.43,0 973.1,435.67 973.1,973.1 0,537.44 -435.67,973.11 -973.1,973.11 -537.44,0 -973.11,-435.67 -973.11,-973.11 0,-537.43 435.67,-973.1 973.11,-973.1z"/>
   <polygon class="fil1" points="11029.6,47328.21 52337.88,47328.21 52337.88,48712 11029.6,48712 "/>
   <path class="fil1" d="M13284.65 48712l1742.56 0 0 26484.34 -1742.56 0 0 -26484.34zm35055.67 0l1742.57 0 0 26484.34 -1742.57 0 0 -26484.34z"/>
   <path class="fil4" d="M13284.65 48712l1742.56 0 0 1793.77 -1742.56 0 0 -1793.77zm36798.24 1793.77l-1742.57 0 0 -1793.77 1742.57 0 0 1793.77z"/>
   <path class="fil7" d="M29650.81 46623.52l12217 0c193.79,0 352.34,158.58 352.34,352.35l0 0c0,193.78 -158.55,352.34 -352.34,352.34l-12217 0c-193.79,0 -352.34,-158.56 -352.34,-352.34l0 0c0,-193.77 158.55,-352.35 352.34,-352.35z"/>
   <path class="fil2" d="M41778.12 46623.52l-9410.92 0 2121.42 -6163.04c89.74,-260.7 376.52,-474.03 637.25,-474.03l8462.78 0c260.75,0 400.63,213.33 310.9,474.03l-2121.43 6163.04z"/>
   <path class="fil7" d="M38513.98 42675.12c435.3,54.65 737.82,500.23 675.68,995.18 -62.14,494.98 -465.41,851.96 -900.69,797.31 -435.3,-54.65 -737.82,-500.23 -675.68,-995.19 62.14,-494.98 465.41,-851.95 900.69,-797.3z"/>
   <polygon class="fil4" points="23314.68,75196.34 22084.66,75196.34 27587.96,57557.97 28817.98,57557.97 "/>
   <path class="fil1" d="M43800.17 17400.7l8251.42 0c873.84,0 1588.77,714.93 1588.77,1588.77l0 4004.92 2523.57 676.21 -2523.57 567.64 0 132.61c0,873.83 -714.93,1588.77 -1588.77,1588.77l-8251.42 0c-873.8,0 -1588.76,-714.94 -1588.76,-1588.77l0 -5381.38c0,-873.84 714.96,-1588.77 1588.76,-1588.77z"/>
   <path class="fil5" d="M47477.18 18899.43l63.49 0 758.08 0 63.5 0 146.48 786.86c141.65,41.77 277.04,98.12 404.33,167.5l659.99 -452.82 44.92 44.89 536.03 536.05 44.91 44.9 -452.84 659.99c69.38,127.31 125.73,262.7 167.52,404.33l786.83 146.48 0 63.52 0 758.05 0 63.52 -786.83 146.48c-41.79,141.63 -98.14,277.02 -167.52,404.31l452.84 659.99 -44.91 44.92 -536.03 536.03 -44.92 44.92 -659.99 -452.83c-127.29,69.36 -262.68,125.74 -404.33,167.5l-146.48 786.86 -63.5 0 -758.08 0 -63.49 0 -146.48 -786.86c-141.65,-41.76 -277.02,-98.14 -404.33,-167.5l-659.99 452.83 -44.9 -44.92 -536.05 -536.03 -44.89 -44.92 452.82 -659.99c-69.39,-127.29 -125.74,-262.68 -167.52,-404.31l-786.84 -146.48 0 -63.52 0 -758.05 0 -63.52 786.84 -146.48c41.78,-141.63 98.13,-277.02 167.52,-404.33l-452.85 -659.97 44.92 -44.92 536.03 -536.02 44.92 -44.92 659.99 452.82c127.31,-69.38 262.7,-125.73 404.33,-167.5l146.48 -786.86zm442.55 1651.63c623.57,0 1129.09,505.5 1129.09,1129.1 0,623.59 -505.52,1129.09 -1129.09,1129.09 -623.6,0 -1129.13,-505.5 -1129.13,-1129.09 0,-623.6 505.53,-1129.1 1129.13,-1129.1z"/>
   <path class="fil2" d="M47919.73 20994.44c378.7,0 685.71,307.01 685.71,685.72 0,378.7 -307.01,685.71 -685.71,685.71 -378.74,0 -685.74,-307.01 -685.74,-685.71 0,-378.71 307,-685.72 685.74,-685.72z"/>
   <path class="fil2" d="M40862.01 29031.97c948.76,0 1717.9,769.12 1717.9,1717.88 0,475.88 -193.52,906.53 -506.12,1217.63l-1.08 1.13c-515.28,527.55 -479.09,1137.82 -479.09,1137.82l-731.61 0 -731.62 0c0,0 36.2,-610.27 -479.09,-1137.82l-1.08 -1.13c-312.6,-311.1 -506.12,-741.75 -506.12,-1217.63 0,-948.76 769.14,-1717.88 1717.91,-1717.88z"/>
   <path class="fil5" d="M40130.39 33106.43l1463.26 0 0 707.35c0,389.08 -318.32,707.37 -707.37,707.37l-48.52 0c-389.05,0 -707.37,-318.29 -707.37,-707.37l0 -707.35z"/>
   <path class="fil11" d="M40982.05 33102.29c0.15,-2.22 47.46,-710.45 116.15,-1394.39 -86.29,39.08 -164.71,58 -244.37,56.89 -74.86,-1.06 -148.31,-19.76 -227.92,-56 68.65,683.67 115.91,1391.28 116.05,1393.5l-123.69 8.25c-0.14,-2.31 -51.34,-768.6 -124.23,-1473.48l-13.99 -8.77c-360.6,-228.18 -477.46,-618.94 -470.24,-889.85 3.45,-130.05 36.54,-237.05 86.38,-292.02 70,-77.22 158.51,-78.21 246.32,38.43 96.81,128.6 201.01,446.76 265.93,1055.18l2.37 22.28c91.9,51.37 169.2,77.71 244.47,78.77 78.72,1.11 159.91,-25.28 258,-79.41l2.29 -21.64c64.93,-608.39 169.13,-926.58 265.93,-1055.18 88.78,-117.92 177.97,-115.97 247.97,-36.66 49.75,56.35 82.45,165.43 84.89,297.4 5.07,274.13 -116.01,666.61 -484.39,891.45 -72.88,704.88 -124.08,1471.19 -124.23,1473.5l-123.69 -8.25zm498.4 -2543.22c-81.67,108.48 -170.8,383.83 -232.89,915.5 259.51,-201.95 347.15,-507.55 343.08,-727.04 -1.87,-102.55 -22.62,-182.01 -53.83,-217.37 -10.97,-12.44 -30.43,-5.51 -56.36,28.91zm-1346.95 182.28c-5.87,219.95 80.96,529.52 342.98,733.31 -62.1,-531.74 -151.22,-807.08 -232.92,-915.59 -25.82,-34.25 -44.97,-41.55 -55.69,-29.72 -30.89,34.08 -51.69,111.52 -54.37,212z"/>
   <path class="fil2" d="M40129.82 33460.1l1464.37 0c48.05,0 87.35,39.3 87.35,87.37l0 0c0,48.05 -39.3,87.35 -87.35,87.35l-1464.37 0c-48.04,0 -87.34,-39.3 -87.34,-87.35l0 0c0,-48.07 39.3,-87.37 87.34,-87.37zm0 303.17l1464.37 0c48.05,0 87.35,39.29 87.35,87.37l0 0c0,48.04 -39.3,87.34 -87.35,87.34l-1464.37 0c-48.04,0 -87.34,-39.3 -87.34,-87.34l0 0c0,-48.08 39.3,-87.37 87.34,-87.37z"/>
   <path class="fil5" d="M64847.72 57381.36c744.6,0 1348.21,603.61 1348.21,1348.21 0,744.58 -603.61,1348.19 -1348.21,1348.19 -744.6,0 -1348.22,-603.61 -1348.22,-1348.19 0,-744.6 603.62,-1348.21 1348.22,-1348.21z"/>
   <path class="fil12" d="M11329.02 75196.34l60786.86 0c517.5,0 940.88,423.38 940.88,940.88l0 0c0,517.5 -423.38,940.87 -940.88,940.87l-60786.86 0c-517.5,0 -940.88,-423.37 -940.88,-940.87l0 0c0,-517.5 423.38,-940.88 940.88,-940.88z"/>
   <path class="fil11" d="M37364.28 26337.04l208.65 0 0 1043.11 -208.65 0 0 -1043.11zm-18079.81 -15299.58l208.65 0 0 1043.11 -208.65 0 0 -1043.11zm0 2086.22l208.65 0 0 1043.1 -208.65 0 0 -1043.1zm0 2086.21l208.65 0 0 1043.11 -208.65 0 0 -1043.11zm0 2086.21l208.65 0 0 1043.11 -208.65 0 0 -1043.11zm0 2086.22l208.65 0 0 1043.1 -208.65 0 0 -1043.1zm755.32 1539.51l0 -208.64 1043.11 0 0 208.64 -1043.11 0zm2086.22 0l0 -208.64 1043.1 0 0 208.64 -1043.1 0zm2086.21 0l0 -208.64 1043.11 0 0 208.64 -1043.11 0zm2086.21 0l0 -208.64 1043.11 0 0 208.64 -1043.11 0zm2086.21 0l0 -208.64 1043.11 0 0 208.64 -1043.11 0zm2086.22 0l0 -208.64 1043.1 0 0 208.64 -1043.1 0zm2086.21 0l0 -208.64 1043.11 0 0 208.64 -1043.11 0zm2086.21 0l0 -208.64 1043.11 0 0 208.64 -1043.11 0zm2086.22 0l0 -208.64 843.43 0 0 408.32 -208.65 0 0 -199.68 -634.78 0zm634.78 1242.79l208.65 0 0 1043.1 -208.65 0 0 -1043.1zm0 2086.21l208.65 0 0 1043.11 -208.65 0 0 -1043.11z"/>
   <path class="fil11" d="M52228.04 16275.71l208.64 0 0 1043.11 -208.64 0 0 -1043.11zm22530.24 -8166.31l-237.82 0 0 208.64 237.82 0 0 -208.64zm-1280.93 0l0 208.64 -1043.11 0 0 -208.64 1043.11 0zm-2086.21 0l0 208.64 -1043.11 0 0 -208.64 1043.11 0zm-2086.22 0l0 208.64 -1043.1 0 0 -208.64 1043.1 0zm-2086.21 0l0 208.64 -1043.11 0 0 -208.64 1043.11 0zm-2086.21 0l0 208.64 -1043.11 0 0 -208.64 1043.11 0zm-2086.21 0l0 208.64 -1043.11 0 0 -208.64 1043.11 0zm-2086.22 0l0 208.64 -1043.1 0 0 -208.64 1043.1 0zm-2086.21 0l0 208.64 -1043.11 0 0 -208.64 1043.11 0zm-2086.21 0l0 208.64 -1043.11 0 0 -208.64 1043.11 0zm-2086.22 0l0 208.64 -1043.1 0 0 -208.64 1043.1 0zm-2086.21 0l0 208.64 -178.54 0 0 655.93 -208.64 0 0 -864.57 387.18 0zm-387.18 1907.68l208.64 0 0 1043.1 -208.64 0 0 -1043.1zm0 2086.21l208.64 0 0 1043.1 -208.64 0 0 -1043.1zm0 2086.21l208.64 0 0 1043.11 -208.64 0 0 -1043.11z"/>
   <path class="fil5" d="M19388.8 9419.84c438.06,0 793.16,355.1 793.16,793.17 0,438.06 -355.1,793.16 -793.16,793.16 -438.07,0 -793.17,-355.1 -793.17,-793.16 0,-438.07 355.1,-793.17 793.17,-793.17z"/>
   <path class="fil5" d="M73965.11 7420.56c438.06,0 793.17,355.1 793.17,793.16 0,438.06 -355.11,793.17 -793.17,793.17 -438.06,0 -793.16,-355.11 -793.16,-793.17 0,-438.06 355.1,-793.16 793.16,-793.16z"/>
   <path class="fil5" d="M29355.76 29521.04c71.77,19.07 90.45,183.29 41.71,366.78 -48.74,183.49 -146.46,316.76 -218.28,297.69 -71.77,-19.07 -90.45,-183.29 -41.71,-366.78 48.73,-183.49 146.45,-316.77 218.28,-297.69z"/>
   <path class="fil5" d="M27751.27 29028.42c71.4,20.43 86.95,184.97 34.74,367.5 -52.21,182.53 -152.45,313.9 -223.88,293.48 -71.4,-20.43 -86.95,-184.97 -34.74,-367.5 52.21,-182.53 152.45,-313.9 223.88,-293.48z"/>
   <path class="fil5" d="M27965.5 28365.87c172.46,52.48 301.34,154.44 287.92,227.64 -13.43,73.21 -164.18,90.03 -336.6,37.53 -172.45,-52.48 -301.34,-154.44 -287.91,-227.64 13.43,-73.21 164.17,-90.04 336.59,-37.53z"/>
   <path class="fil11" d="M28578.16 29390.52c18.8,-60.39 83.01,-94.1 143.4,-75.3 60.39,18.8 94.1,83.01 75.3,143.4 -0.42,1.38 -156.04,484.07 -40.73,777.18 72.44,184.1 109.45,340.69 87.77,465.71 -26.54,153.28 -124.48,252.38 -321.84,286.53 -353.95,61.23 -557.84,-230.9 -558.4,-231.71 -36.37,-51.72 -23.93,-123.2 27.79,-159.57 51.72,-36.36 123.2,-23.92 159.56,27.8 0.32,0.47 121.53,174.07 332.51,137.58 85.03,-14.71 125.76,-48.78 134.48,-99.17 13.63,-78.65 -17.27,-196.55 -75.2,-343.79 -145.42,-369.64 34.87,-927.08 35.36,-928.66zm-1496.64 1181.46c2.96,-63.1 56.55,-111.86 119.65,-108.91 63.1,2.96 111.86,56.55 108.9,119.65 -0.07,1.7 -37,608.05 407.93,697.02 62.12,12.37 102.48,72.79 90.11,134.9 -12.37,62.12 -72.79,102.48 -134.9,90.11 -641.54,-128.3 -591.79,-930.51 -591.69,-932.77z"/>
   <path class="fil5" d="M29477.92 28854.54c172.45,52.48 301.34,154.44 287.91,227.64 -13.43,73.21 -164.17,90.04 -336.6,37.53 -172.45,-52.48 -301.34,-154.44 -287.91,-227.64 13.43,-73.21 164.17,-90.03 336.6,-37.53z"/>
   <path class="fil13" d="M34161.24 42652.3l-23047.3 0 0 -9229.28c-272.19,-24.79 -516.73,-145.57 -699.33,-328.2 -182.63,-182.6 -303.41,-427.14 -328.2,-699.33l-604.62 0 0 -208.65 604.62 0c24.79,-272.19 145.57,-516.74 328.2,-699.34 182.6,-182.63 427.14,-303.41 699.33,-328.19l0 -509.15 208.65 0 0 509.15c272.19,24.78 516.74,145.56 699.34,328.19 182.63,182.6 303.41,427.15 328.2,699.34l603.95 0 0 208.65 -604.15 0c-3.85,40.72 -9.88,81.26 -17.96,121.44 -15.21,75.25 -37.75,147.69 -66.83,216.44 -87.66,207.24 -234.83,382.99 -419.85,505.62 -152.62,101.14 -330.88,166.49 -522.7,184.01l0 9020.66 22838.65 0 0 208.64zm-22286.8 -11017.31c-167.87,-167.89 -399.9,-271.77 -656.17,-271.77 -256.28,0 -488.3,103.88 -656.17,271.77 -167.9,167.87 -271.77,399.9 -271.77,656.17 0,256.28 103.87,488.31 271.77,656.17 167.87,167.9 399.89,271.78 656.17,271.78 189.55,0 365.6,-56.6 512.1,-153.68 151.51,-100.43 271.87,-243.93 343.28,-412.73 23.82,-56.35 42.28,-115.49 54.6,-176.52 11.75,-58.35 17.96,-120.19 17.96,-185.02 0,-256.27 -103.88,-488.3 -271.77,-656.17z"/>
  </g>
 </g>
</svg>
